<?xml version="1.0" encoding="utf-8"?>
<!-- Generator: Adobe Illustrator 23.0.2, SVG Export Plug-In . SVG Version: 6.00 Build 0)  -->
<!DOCTYPE svg PUBLIC "-//W3C//DTD SVG 1.1//EN" "http://www.w3.org/Graphics/SVG/1.1/DTD/svg11.dtd" [
	<!ENTITY ns_flows "http://ns.adobe.com/Flows/1.0/">
	<!ENTITY ns_extend "http://ns.adobe.com/Extensibility/1.0/">
	<!ENTITY ns_ai "http://ns.adobe.com/AdobeIllustrator/10.0/">
	<!ENTITY ns_graphs "http://ns.adobe.com/Graphs/1.0/">
	<!ENTITY ns_vars "http://ns.adobe.com/Variables/1.0/">
	<!ENTITY ns_imrep "http://ns.adobe.com/ImageReplacement/1.0/">
	<!ENTITY ns_sfw "http://ns.adobe.com/SaveForWeb/1.0/">
	<!ENTITY ns_custom "http://ns.adobe.com/GenericCustomNamespace/1.0/">
	<!ENTITY ns_adobe_xpath "http://ns.adobe.com/XPath/1.0/">
]>
<svg version="1.1" xmlns:x="&ns_extend;" xmlns:i="&ns_ai;" xmlns:graph="&ns_graphs;"
	 xmlns="http://www.w3.org/2000/svg" xmlns:xlink="http://www.w3.org/1999/xlink" xmlns:a="http://ns.adobe.com/AdobeSVGViewerExtensions/3.0/"
	 x="0px" y="0px" viewBox="0 0 1500 700" enable-background="new 0 0 1500 700" xml:space="preserve">
<metadata>
	<sfw  xmlns="&ns_sfw;">
		<slices></slices>
		<sliceSourceBounds  bottomLeftOrigin="true" height="5287.732" width="10573" x="-6758.91" y="-537.732"></sliceSourceBounds>
	</sfw>
</metadata>
<g id="FILL-BACKGROUND">
	<rect fill="#FFFFFF" width="1500" height="700"/>
</g>
<g id="N-DIMENSIONS">
	<g>
		<g id="POLYLINE_771_">
			
				<line fill="none" stroke="#1B7FFF" stroke-width="2" stroke-linecap="round" stroke-linejoin="round" stroke-miterlimit="10" x1="742.503" y1="306.886" x2="742.503" y2="231.5"/>
		</g>
		<g id="LINE_30_">
			
				<line fill="none" stroke="#1B7FFF" stroke-width="2" stroke-linecap="round" stroke-linejoin="round" stroke-miterlimit="10" x1="742.503" y1="183.83" x2="742.503" y2="143.916"/>
		</g>
		<g id="POLYLINE_770_">
			
				<polyline fill="none" stroke="#1B7FFF" stroke-width="2" stroke-linecap="round" stroke-linejoin="round" stroke-miterlimit="10" points="
				735.875,150.545 742.503,143.916 749.13,150.545 			"/>
		</g>
		<g id="POLYLINE_769_">
			
				<polyline fill="none" stroke="#1B7FFF" stroke-width="2" stroke-linecap="round" stroke-linejoin="round" stroke-miterlimit="10" points="
				749.13,300.259 742.503,306.886 735.875,300.259 			"/>
		</g>
		<g id="MTEXT_34_">
			<g>
				<g>
					<path fill="#1B7FFF" d="M730.586,205.551c-0.083-0.083-0.124-0.188-0.124-0.313v-0.57c0-0.291,0.158-0.57,0.475-0.836
						l4.142-4.123c0.938-0.798,1.583-1.45,1.938-1.957s0.532-1.045,0.532-1.615c0-0.747-0.209-1.333-0.627-1.758
						c-0.418-0.424-1.026-0.636-1.824-0.636c-0.76,0-1.362,0.222-1.805,0.665c-0.444,0.443-0.716,1.038-0.817,1.785
						c-0.025,0.14-0.088,0.247-0.19,0.323s-0.203,0.114-0.304,0.114h-0.912c-0.114,0-0.209-0.038-0.285-0.114
						c-0.076-0.076-0.114-0.164-0.114-0.266c0.025-0.672,0.206-1.32,0.542-1.947c0.335-0.627,0.833-1.141,1.491-1.539
						c0.659-0.399,1.457-0.599,2.394-0.599c1.418,0,2.486,0.37,3.202,1.111c0.715,0.741,1.073,1.682,1.073,2.821
						c0,0.798-0.193,1.518-0.579,2.156c-0.387,0.641-0.992,1.314-1.814,2.023l-3.743,3.801h5.985c0.139,0,0.247,0.038,0.323,0.113
						c0.076,0.076,0.114,0.185,0.114,0.323v0.723c0,0.126-0.041,0.23-0.124,0.313c-0.083,0.082-0.187,0.123-0.313,0.123H730.9
						C730.773,205.674,730.668,205.633,730.586,205.551z"/>
					<path fill="#1B7FFF" d="M747.763,205.551c-0.083-0.083-0.124-0.188-0.124-0.313v-2.774h-6.175
						c-0.126,0-0.231-0.041-0.313-0.124c-0.083-0.082-0.124-0.187-0.124-0.313v-0.702c0-0.178,0.07-0.367,0.209-0.57l5.719-8.056
						c0.063-0.102,0.158-0.181,0.285-0.238c0.127-0.057,0.266-0.085,0.418-0.085h1.292c0.139,0,0.247,0.038,0.323,0.114
						c0.076,0.075,0.114,0.184,0.114,0.322v8.057h1.729c0.126,0,0.231,0.041,0.313,0.123c0.082,0.083,0.124,0.188,0.124,0.313v0.722
						c0,0.127-0.042,0.231-0.124,0.313c-0.083,0.083-0.187,0.124-0.313,0.124h-1.729v2.774c0,0.126-0.042,0.23-0.124,0.313
						c-0.083,0.082-0.187,0.123-0.313,0.123h-0.874C747.949,205.674,747.845,205.633,747.763,205.551z M743.003,200.905h4.655
						v-6.612L743.003,200.905z"/>
					<path fill="#1B7FFF" d="M753.329,195.68c-0.057-0.076-0.073-0.171-0.047-0.285l0.418-2.66c0.05-0.367,0.228-0.551,0.532-0.551
						h1.216c0.088,0,0.162,0.032,0.218,0.096c0.057,0.063,0.085,0.139,0.085,0.228c0,0.127-0.019,0.228-0.057,0.304l-0.988,2.565
						c-0.063,0.14-0.133,0.244-0.209,0.313c-0.076,0.069-0.19,0.104-0.342,0.104h-0.589
						C753.465,195.794,753.386,195.756,753.329,195.68z M756.312,195.68c-0.057-0.076-0.073-0.171-0.047-0.285l0.418-2.66
						c0.051-0.367,0.228-0.551,0.532-0.551h1.216c0.088,0,0.162,0.032,0.219,0.096c0.057,0.063,0.085,0.139,0.085,0.228
						c0,0.127-0.019,0.228-0.057,0.304l-0.988,2.565c-0.063,0.14-0.133,0.244-0.209,0.313c-0.076,0.069-0.19,0.104-0.342,0.104
						h-0.589C756.448,195.794,756.369,195.756,756.312,195.68z"/>
					<path fill="#1B7FFF" d="M722.198,224.046c-0.741-0.411-1.305-0.966-1.691-1.662c-0.387-0.696-0.58-1.457-0.58-2.28
						c0-1.089,0.437-2.254,1.311-3.496l3.629-5.054c0.012-0.013,0.047-0.057,0.104-0.133s0.13-0.137,0.218-0.181
						s0.19-0.066,0.304-0.066h0.931c0.114,0,0.206,0.041,0.275,0.123c0.069,0.083,0.104,0.181,0.104,0.295
						c0,0.063-0.032,0.146-0.095,0.247l-2.774,3.876c0.329-0.076,0.696-0.114,1.102-0.114c0.924,0,1.738,0.206,2.441,0.617
						c0.703,0.412,1.248,0.957,1.634,1.635c0.386,0.678,0.579,1.422,0.579,2.232s-0.193,1.567-0.579,2.271
						c-0.387,0.703-0.947,1.263-1.682,1.682c-0.735,0.418-1.603,0.627-2.603,0.627C723.816,224.664,722.939,224.458,722.198,224.046
						z M726.35,222.745c0.468-0.229,0.842-0.567,1.121-1.017c0.278-0.45,0.418-0.991,0.418-1.625c0-0.62-0.143-1.155-0.428-1.605
						c-0.285-0.449-0.662-0.791-1.13-1.026c-0.469-0.233-0.976-0.351-1.52-0.351c-0.545,0-1.051,0.117-1.52,0.351
						c-0.469,0.235-0.842,0.577-1.121,1.026c-0.279,0.45-0.418,0.985-0.418,1.605c0,0.634,0.139,1.175,0.418,1.625
						c0.279,0.449,0.652,0.788,1.121,1.017c0.469,0.228,0.975,0.342,1.52,0.342C725.368,223.087,725.881,222.973,726.35,222.745z"/>
					<path fill="#1B7FFF" d="M734.88,224.351c-0.076-0.083-0.114-0.188-0.114-0.313V213.32l-3.192,2.451
						c-0.088,0.076-0.184,0.114-0.285,0.114c-0.114,0-0.222-0.063-0.323-0.19l-0.456-0.589c-0.063-0.088-0.095-0.177-0.095-0.266
						c0-0.14,0.063-0.254,0.19-0.342l4.123-3.192c0.139-0.089,0.304-0.133,0.494-0.133h0.893c0.126,0,0.231,0.041,0.313,0.123
						c0.083,0.083,0.124,0.188,0.124,0.313v12.427c0,0.126-0.041,0.23-0.124,0.313c-0.083,0.082-0.187,0.123-0.313,0.123h-0.931
						C735.058,224.474,734.957,224.433,734.88,224.351z"/>
					<path fill="#1B7FFF" d="M744.893,223.514c-0.76-0.766-1.159-1.839-1.197-3.22l-0.019-0.761l0.019-0.76
						c0.038-1.38,0.437-2.454,1.197-3.221c0.76-0.766,1.817-1.149,3.173-1.149c0.912,0,1.682,0.162,2.309,0.484
						c0.627,0.323,1.095,0.726,1.406,1.207s0.478,0.963,0.504,1.444c0.012,0.113-0.029,0.215-0.124,0.304
						c-0.095,0.089-0.2,0.133-0.313,0.133h-0.836c-0.126,0-0.222-0.028-0.285-0.086c-0.063-0.057-0.127-0.161-0.19-0.313
						c-0.228-0.62-0.542-1.061-0.94-1.32c-0.399-0.259-0.903-0.39-1.511-0.39c-0.798,0-1.432,0.247-1.9,0.741
						c-0.469,0.494-0.722,1.248-0.76,2.261l-0.019,0.665l0.019,0.665c0.038,1.014,0.292,1.768,0.76,2.262
						c0.468,0.494,1.102,0.74,1.9,0.74c0.621,0,1.127-0.129,1.52-0.389s0.703-0.7,0.931-1.321c0.063-0.151,0.126-0.256,0.19-0.313
						c0.063-0.057,0.158-0.085,0.285-0.085h0.836c0.114,0,0.218,0.044,0.313,0.133c0.095,0.089,0.136,0.19,0.124,0.304
						c-0.026,0.469-0.193,0.944-0.504,1.426s-0.779,0.887-1.406,1.216s-1.396,0.494-2.309,0.494
						C746.71,224.664,745.653,224.28,744.893,223.514z"/>
					<path fill="#1B7FFF" d="M754.688,224.351c-0.083-0.083-0.124-0.188-0.124-0.313v-9.007c0-0.126,0.041-0.23,0.124-0.313
						c0.083-0.082,0.187-0.123,0.313-0.123h0.798c0.126,0,0.228,0.041,0.304,0.123c0.076,0.083,0.114,0.188,0.114,0.313v0.646
						c0.684-0.849,1.608-1.273,2.774-1.273c1.393,0,2.381,0.583,2.964,1.748c0.304-0.531,0.738-0.956,1.302-1.272
						c0.563-0.316,1.193-0.476,1.89-0.476c1.039,0,1.887,0.355,2.546,1.064c0.658,0.709,0.988,1.735,0.988,3.078v5.491
						c0,0.126-0.041,0.23-0.124,0.313c-0.083,0.082-0.187,0.123-0.313,0.123h-0.817c-0.127,0-0.231-0.041-0.313-0.123
						c-0.083-0.083-0.124-0.188-0.124-0.313v-5.32c0-1.014-0.209-1.738-0.627-2.176c-0.418-0.437-0.969-0.655-1.653-0.655
						c-0.608,0-1.13,0.225-1.567,0.675c-0.437,0.449-0.655,1.168-0.655,2.156v5.32c0,0.126-0.042,0.23-0.124,0.313
						c-0.083,0.082-0.187,0.123-0.313,0.123h-0.836c-0.127,0-0.231-0.041-0.313-0.123c-0.083-0.083-0.124-0.188-0.124-0.313v-5.32
						c0-1.001-0.219-1.723-0.656-2.166s-0.979-0.665-1.625-0.665c-0.608,0-1.13,0.222-1.567,0.665s-0.656,1.159-0.656,2.146v5.34
						c0,0.126-0.041,0.23-0.123,0.313c-0.083,0.082-0.187,0.123-0.313,0.123h-0.836C754.875,224.474,754.77,224.433,754.688,224.351
						z"/>
				</g>
			</g>
		</g>
	</g>
	<g>
		<g id="POLYLINE_768_">
			
				<line fill="none" stroke="#1B7FFF" stroke-width="2" stroke-linecap="round" stroke-linejoin="round" stroke-miterlimit="10" x1="772.503" y1="612.886" x2="772.503" y2="533.5"/>
		</g>
		<g id="LINE_29_">
			
				<line fill="none" stroke="#1B7FFF" stroke-width="2" stroke-linecap="round" stroke-linejoin="round" stroke-miterlimit="10" x1="772.503" y1="485.83" x2="772.503" y2="393.916"/>
		</g>
		<g id="POLYLINE_767_">
			
				<polyline fill="none" stroke="#1B7FFF" stroke-width="2" stroke-linecap="round" stroke-linejoin="round" stroke-miterlimit="10" points="
				765.875,400.545 772.503,393.916 779.13,400.545 			"/>
		</g>
		<g id="POLYLINE_766_">
			
				<polyline fill="none" stroke="#1B7FFF" stroke-width="2" stroke-linecap="round" stroke-linejoin="round" stroke-miterlimit="10" points="
				779.13,606.259 772.503,612.886 765.875,606.259 			"/>
		</g>
		<g id="MTEXT_33_">
			<g>
				<g>
					<path fill="#1B7FFF" d="M745.174,507.379c-0.722-0.322-1.27-0.743-1.644-1.263c-0.374-0.52-0.573-1.058-0.599-1.615
						c0-0.114,0.038-0.206,0.114-0.275c0.076-0.069,0.171-0.104,0.285-0.104h0.855c0.14,0,0.253,0.028,0.342,0.085
						c0.088,0.058,0.158,0.168,0.209,0.333c0.165,0.646,0.522,1.102,1.073,1.368c0.551,0.266,1.2,0.398,1.948,0.398
						c0.912,0,1.637-0.219,2.175-0.655c0.539-0.438,0.808-1.061,0.808-1.871c0-1.546-0.944-2.318-2.831-2.318h-1.786
						c-0.126,0-0.231-0.041-0.313-0.124c-0.083-0.082-0.124-0.187-0.124-0.313v-0.493c0-0.19,0.07-0.354,0.209-0.494l3.705-4.104
						h-5.624c-0.126,0-0.231-0.038-0.313-0.114c-0.083-0.075-0.124-0.177-0.124-0.304v-0.684c0-0.14,0.041-0.25,0.124-0.333
						c0.083-0.082,0.187-0.123,0.313-0.123h7.524c0.139,0,0.25,0.041,0.332,0.123c0.083,0.083,0.124,0.193,0.124,0.333v0.627
						c0,0.14-0.063,0.285-0.19,0.437l-3.705,4.161h0.304c1.292,0.038,2.315,0.374,3.068,1.007c0.753,0.634,1.131,1.559,1.131,2.774
						c0,0.836-0.206,1.555-0.618,2.156s-0.985,1.064-1.72,1.387c-0.734,0.323-1.564,0.485-2.489,0.485
						C746.751,507.864,745.896,507.702,745.174,507.379z"/>
					<path fill="#1B7FFF" d="M758.075,507.551c-0.076-0.083-0.114-0.188-0.114-0.313v-10.717l-3.192,2.451
						c-0.088,0.076-0.184,0.114-0.285,0.114c-0.114,0-0.222-0.063-0.323-0.19l-0.456-0.589c-0.063-0.088-0.095-0.177-0.095-0.266
						c0-0.14,0.063-0.254,0.19-0.342l4.123-3.192c0.139-0.089,0.304-0.133,0.494-0.133h0.893c0.126,0,0.231,0.041,0.313,0.123
						c0.083,0.083,0.124,0.188,0.124,0.313v12.427c0,0.126-0.041,0.23-0.124,0.313c-0.083,0.082-0.187,0.123-0.313,0.123h-0.931
						C758.252,507.674,758.151,507.633,758.075,507.551z"/>
					<path fill="#1B7FFF" d="M762.625,507.551c-0.083-0.083-0.124-0.188-0.124-0.313v-1.312c0-0.126,0.041-0.234,0.124-0.323
						c0.082-0.088,0.187-0.133,0.313-0.133h1.311c0.126,0,0.231,0.045,0.313,0.133c0.082,0.089,0.124,0.197,0.124,0.323v1.312
						c0,0.126-0.042,0.23-0.124,0.313c-0.083,0.082-0.187,0.123-0.313,0.123h-1.311
						C762.812,507.674,762.707,507.633,762.625,507.551z"/>
					<path fill="#1B7FFF" d="M769.019,507.351c-0.697-0.342-1.229-0.788-1.596-1.339c-0.367-0.552-0.563-1.144-0.589-1.777v-0.037
						c0-0.102,0.038-0.184,0.114-0.247c0.076-0.063,0.165-0.096,0.266-0.096h0.931c0.266,0,0.437,0.14,0.513,0.418
						c0.19,0.685,0.541,1.194,1.054,1.53c0.513,0.335,1.105,0.503,1.776,0.503c0.861,0,1.577-0.263,2.147-0.788
						c0.57-0.525,0.855-1.251,0.855-2.176c0-0.849-0.285-1.522-0.855-2.023c-0.57-0.5-1.286-0.751-2.147-0.751
						c-0.456,0-0.823,0.058-1.102,0.172c-0.278,0.113-0.563,0.278-0.855,0.493c-0.165,0.127-0.301,0.219-0.408,0.276
						c-0.108,0.057-0.225,0.085-0.352,0.085h-0.912c-0.114,0-0.215-0.041-0.304-0.123c-0.089-0.083-0.127-0.181-0.114-0.295
						l0.589-6.327c0.038-0.316,0.196-0.475,0.475-0.475h6.574c0.139,0,0.247,0.038,0.323,0.114c0.076,0.075,0.114,0.184,0.114,0.322
						v0.703c0,0.127-0.042,0.229-0.124,0.304c-0.083,0.076-0.187,0.114-0.313,0.114h-5.472l-0.342,3.819
						c0.608-0.431,1.425-0.646,2.451-0.646c0.849,0,1.622,0.168,2.318,0.504c0.696,0.336,1.25,0.826,1.662,1.473
						c0.412,0.646,0.618,1.412,0.618,2.299c0,0.938-0.206,1.745-0.618,2.423s-0.981,1.19-1.71,1.539
						c-0.729,0.348-1.561,0.522-2.499,0.522C770.539,507.864,769.715,507.692,769.019,507.351z"/>
					<path fill="#1B7FFF" d="M778.357,497.68c-0.057-0.076-0.073-0.171-0.047-0.285l0.418-2.66c0.05-0.367,0.228-0.551,0.532-0.551
						h1.216c0.088,0,0.162,0.032,0.218,0.096c0.057,0.063,0.085,0.139,0.085,0.228c0,0.127-0.019,0.228-0.057,0.304l-0.988,2.565
						c-0.063,0.14-0.133,0.244-0.209,0.313c-0.076,0.069-0.19,0.104-0.342,0.104h-0.589
						C778.493,497.794,778.414,497.756,778.357,497.68z M781.34,497.68c-0.057-0.076-0.073-0.171-0.047-0.285l0.418-2.66
						c0.051-0.367,0.228-0.551,0.532-0.551h1.216c0.088,0,0.162,0.032,0.219,0.096c0.057,0.063,0.085,0.139,0.085,0.228
						c0,0.127-0.019,0.228-0.057,0.304l-0.988,2.565c-0.063,0.14-0.133,0.244-0.209,0.313c-0.076,0.069-0.19,0.104-0.342,0.104
						h-0.589C781.476,497.794,781.397,497.756,781.34,497.68z"/>
					<path fill="#1B7FFF" d="M731.884,526.179c-0.754-0.322-1.34-0.788-1.758-1.396c-0.418-0.607-0.627-1.316-0.627-2.128
						c0-0.747,0.187-1.402,0.561-1.966s0.877-0.998,1.51-1.302c-0.506-0.291-0.899-0.675-1.178-1.149
						c-0.279-0.476-0.418-1.036-0.418-1.682c0-1.102,0.412-1.973,1.235-2.612s1.906-0.96,3.249-0.96c1.342,0,2.422,0.317,3.24,0.95
						c0.817,0.634,1.225,1.508,1.225,2.622c0,0.634-0.139,1.188-0.418,1.662c-0.279,0.476-0.665,0.865-1.159,1.169
						c0.633,0.304,1.137,0.738,1.51,1.302s0.561,1.226,0.561,1.985c0,0.811-0.209,1.517-0.627,2.118s-1.004,1.064-1.757,1.387
						c-0.754,0.323-1.612,0.485-2.575,0.485C733.496,526.664,732.638,526.502,731.884,526.179z M736.71,524.498
						c0.602-0.456,0.902-1.064,0.902-1.824s-0.301-1.368-0.902-1.824s-1.352-0.684-2.251-0.684c-0.912,0-1.669,0.228-2.271,0.684
						s-0.902,1.064-0.902,1.824s0.301,1.368,0.902,1.824s1.358,0.684,2.271,0.684C735.358,525.182,736.108,524.954,736.71,524.498z
						 M736.416,518.113c0.532-0.38,0.798-0.886,0.798-1.52c0-0.646-0.263-1.162-0.789-1.549c-0.525-0.386-1.181-0.579-1.966-0.579
						c-0.798,0-1.457,0.193-1.976,0.579c-0.52,0.387-0.779,0.902-0.779,1.549c0,0.646,0.259,1.162,0.779,1.549
						c0.52,0.386,1.178,0.579,1.976,0.579C735.231,518.696,735.884,518.493,736.416,518.113z"/>
					<path fill="#1B7FFF" d="M742.904,525.229c-0.753-0.957-1.156-2.207-1.207-3.753l-0.019-1.634l0.019-1.691
						c0.038-1.532,0.44-2.776,1.207-3.733c0.767-0.956,1.96-1.435,3.582-1.435c1.634,0,2.834,0.479,3.601,1.435
						c0.766,0.957,1.168,2.201,1.207,3.733c0.012,0.355,0.019,0.919,0.019,1.691c0,0.747-0.007,1.292-0.019,1.634
						c-0.051,1.546-0.453,2.796-1.207,3.753c-0.754,0.956-1.954,1.435-3.601,1.435C744.852,526.664,743.657,526.186,742.904,525.229
						z M748.689,524.117c0.494-0.646,0.753-1.558,0.779-2.735c0.013-0.367,0.019-0.894,0.019-1.577c0-0.696-0.006-1.216-0.019-1.558
						c-0.025-1.166-0.288-2.074-0.788-2.727c-0.501-0.652-1.232-0.979-2.195-0.979c-0.963,0-1.691,0.326-2.185,0.979
						c-0.494,0.652-0.753,1.561-0.779,2.727l-0.019,1.558l0.019,1.577c0.025,1.178,0.285,2.09,0.779,2.735
						c0.494,0.646,1.222,0.97,2.185,0.97C747.46,525.087,748.195,524.764,748.689,524.117z"/>
					<path fill="#1B7FFF" d="M759.386,525.514c-0.76-0.766-1.159-1.839-1.197-3.22l-0.019-0.761l0.019-0.76
						c0.038-1.38,0.437-2.454,1.197-3.221c0.76-0.766,1.817-1.149,3.173-1.149c0.912,0,1.682,0.162,2.309,0.484
						c0.627,0.323,1.095,0.726,1.406,1.207s0.478,0.963,0.504,1.444c0.012,0.113-0.029,0.215-0.124,0.304
						c-0.095,0.089-0.2,0.133-0.313,0.133h-0.836c-0.126,0-0.222-0.028-0.285-0.086c-0.063-0.057-0.127-0.161-0.19-0.313
						c-0.228-0.62-0.542-1.061-0.94-1.32c-0.399-0.259-0.903-0.39-1.511-0.39c-0.798,0-1.432,0.247-1.9,0.741
						c-0.469,0.494-0.722,1.248-0.76,2.261l-0.019,0.665l0.019,0.665c0.038,1.014,0.292,1.768,0.76,2.262
						c0.468,0.494,1.102,0.74,1.9,0.74c0.621,0,1.127-0.129,1.52-0.389s0.703-0.7,0.931-1.321c0.063-0.151,0.126-0.256,0.19-0.313
						c0.063-0.057,0.158-0.085,0.285-0.085h0.836c0.114,0,0.218,0.044,0.313,0.133c0.095,0.089,0.136,0.19,0.124,0.304
						c-0.026,0.469-0.193,0.944-0.504,1.426s-0.779,0.887-1.406,1.216s-1.396,0.494-2.309,0.494
						C761.204,526.664,760.146,526.28,759.386,525.514z"/>
					<path fill="#1B7FFF" d="M769.18,526.351c-0.083-0.083-0.124-0.188-0.124-0.313v-9.007c0-0.126,0.041-0.23,0.124-0.313
						c0.083-0.082,0.187-0.123,0.313-0.123h0.798c0.126,0,0.228,0.041,0.304,0.123c0.076,0.083,0.114,0.188,0.114,0.313v0.646
						c0.684-0.849,1.608-1.273,2.774-1.273c1.393,0,2.381,0.583,2.964,1.748c0.304-0.531,0.738-0.956,1.302-1.272
						c0.563-0.316,1.193-0.476,1.89-0.476c1.039,0,1.887,0.355,2.546,1.064c0.658,0.709,0.988,1.735,0.988,3.078v5.491
						c0,0.126-0.041,0.23-0.124,0.313c-0.083,0.082-0.187,0.123-0.313,0.123h-0.817c-0.127,0-0.231-0.041-0.313-0.123
						c-0.083-0.083-0.124-0.188-0.124-0.313v-5.32c0-1.014-0.209-1.738-0.627-2.176c-0.418-0.437-0.969-0.655-1.653-0.655
						c-0.608,0-1.13,0.225-1.567,0.675c-0.437,0.449-0.655,1.168-0.655,2.156v5.32c0,0.126-0.042,0.23-0.124,0.313
						c-0.083,0.082-0.187,0.123-0.313,0.123h-0.836c-0.127,0-0.231-0.041-0.313-0.123c-0.083-0.083-0.124-0.188-0.124-0.313v-5.32
						c0-1.001-0.219-1.723-0.656-2.166s-0.979-0.665-1.625-0.665c-0.608,0-1.13,0.222-1.567,0.665s-0.656,1.159-0.656,2.146v5.34
						c0,0.126-0.041,0.23-0.123,0.313c-0.083,0.082-0.187,0.123-0.313,0.123h-0.836C769.367,526.474,769.263,526.433,769.18,526.351
						z"/>
				</g>
			</g>
		</g>
	</g>
	<g>
		<g id="POLYLINE_765_">
			
				<line fill="none" stroke="#1B7FFF" stroke-width="2" stroke-linecap="round" stroke-linejoin="round" stroke-miterlimit="10" x1="1051.503" y1="612.886" x2="1051.503" y2="558.5"/>
		</g>
		<g id="LINE_28_">
			
				<line fill="none" stroke="#1B7FFF" stroke-width="2" stroke-linecap="round" stroke-linejoin="round" stroke-miterlimit="10" x1="1051.503" y1="510.83" x2="1051.503" y2="484.916"/>
		</g>
		<g id="POLYLINE_764_">
			
				<polyline fill="none" stroke="#1B7FFF" stroke-width="2" stroke-linecap="round" stroke-linejoin="round" stroke-miterlimit="10" points="
				1044.875,491.545 1051.503,484.916 1058.13,491.545 			"/>
		</g>
		<g id="POLYLINE_763_">
			
				<polyline fill="none" stroke="#1B7FFF" stroke-width="2" stroke-linecap="round" stroke-linejoin="round" stroke-miterlimit="10" points="
				1058.13,606.259 1051.503,612.886 1044.875,606.259 			"/>
		</g>
		<g id="MTEXT_32_">
			<g>
				<g>
					<path fill="#1B7FFF" d="M1049.443,532.551c-0.076-0.083-0.114-0.188-0.114-0.313v-10.717l-3.192,2.451
						c-0.088,0.076-0.184,0.114-0.285,0.114c-0.114,0-0.222-0.063-0.323-0.19l-0.456-0.589c-0.063-0.088-0.095-0.177-0.095-0.266
						c0-0.14,0.063-0.254,0.19-0.342l4.123-3.192c0.139-0.089,0.304-0.133,0.494-0.133h0.893c0.126,0,0.231,0.041,0.313,0.123
						c0.083,0.083,0.124,0.188,0.124,0.313v12.427c0,0.126-0.041,0.23-0.124,0.313c-0.083,0.082-0.187,0.123-0.313,0.123h-0.931
						C1049.621,532.674,1049.52,532.633,1049.443,532.551z"/>
					<path fill="#1B7FFF" d="M1056.027,532.379c-0.754-0.322-1.34-0.788-1.758-1.396c-0.418-0.607-0.627-1.316-0.627-2.128
						c0-0.747,0.187-1.402,0.561-1.966s0.877-0.998,1.51-1.302c-0.506-0.291-0.899-0.675-1.178-1.149
						c-0.279-0.476-0.418-1.036-0.418-1.682c0-1.102,0.412-1.973,1.235-2.612s1.906-0.96,3.249-0.96c1.342,0,2.422,0.317,3.24,0.95
						c0.817,0.634,1.225,1.508,1.225,2.622c0,0.634-0.139,1.188-0.418,1.662c-0.279,0.476-0.665,0.865-1.159,1.169
						c0.633,0.304,1.137,0.738,1.51,1.302s0.561,1.226,0.561,1.985c0,0.811-0.209,1.517-0.627,2.118s-1.004,1.064-1.757,1.387
						c-0.754,0.323-1.612,0.485-2.575,0.485C1057.638,532.864,1056.78,532.702,1056.027,532.379z M1060.853,530.698
						c0.602-0.456,0.902-1.064,0.902-1.824s-0.301-1.368-0.902-1.824s-1.352-0.684-2.251-0.684c-0.912,0-1.669,0.228-2.271,0.684
						s-0.902,1.064-0.902,1.824s0.301,1.368,0.902,1.824s1.358,0.684,2.271,0.684C1059.5,531.382,1060.251,531.154,1060.853,530.698
						z M1060.558,524.313c0.532-0.38,0.798-0.886,0.798-1.52c0-0.646-0.263-1.162-0.789-1.549c-0.525-0.386-1.181-0.579-1.966-0.579
						c-0.798,0-1.457,0.193-1.976,0.579c-0.52,0.387-0.779,0.902-0.779,1.549c0,0.646,0.259,1.162,0.779,1.549
						c0.52,0.386,1.178,0.579,1.976,0.579C1059.374,524.896,1060.026,524.693,1060.558,524.313z"/>
					<path fill="#1B7FFF" d="M1065.85,532.551c-0.083-0.083-0.124-0.188-0.124-0.313v-1.312c0-0.126,0.041-0.234,0.124-0.323
						c0.082-0.088,0.187-0.133,0.313-0.133h1.311c0.126,0,0.231,0.045,0.313,0.133c0.082,0.089,0.124,0.197,0.124,0.323v1.312
						c0,0.126-0.042,0.23-0.124,0.313c-0.083,0.082-0.187,0.123-0.313,0.123h-1.311
						C1066.036,532.674,1065.932,532.633,1065.85,532.551z"/>
					<path fill="#1B7FFF" d="M1072.243,532.351c-0.697-0.342-1.229-0.788-1.596-1.339c-0.367-0.552-0.563-1.144-0.589-1.777v-0.037
						c0-0.102,0.038-0.184,0.114-0.247c0.076-0.063,0.165-0.096,0.266-0.096h0.931c0.266,0,0.437,0.14,0.513,0.418
						c0.19,0.685,0.541,1.194,1.054,1.53c0.513,0.335,1.105,0.503,1.776,0.503c0.861,0,1.577-0.263,2.147-0.788
						c0.57-0.525,0.855-1.251,0.855-2.176c0-0.849-0.285-1.522-0.855-2.023c-0.57-0.5-1.286-0.751-2.147-0.751
						c-0.456,0-0.823,0.058-1.102,0.172c-0.278,0.113-0.563,0.278-0.855,0.493c-0.165,0.127-0.301,0.219-0.408,0.276
						c-0.108,0.057-0.225,0.085-0.352,0.085h-0.912c-0.114,0-0.215-0.041-0.304-0.123c-0.089-0.083-0.127-0.181-0.114-0.295
						l0.589-6.327c0.038-0.316,0.196-0.475,0.475-0.475h6.574c0.139,0,0.247,0.038,0.323,0.114c0.076,0.075,0.114,0.184,0.114,0.322
						v0.703c0,0.127-0.042,0.229-0.124,0.304c-0.083,0.076-0.187,0.114-0.313,0.114h-5.472l-0.342,3.819
						c0.608-0.431,1.425-0.646,2.451-0.646c0.849,0,1.622,0.168,2.318,0.504c0.696,0.336,1.25,0.826,1.662,1.473
						c0.412,0.646,0.618,1.412,0.618,2.299c0,0.938-0.206,1.745-0.618,2.423s-0.981,1.19-1.71,1.539
						c-0.729,0.348-1.561,0.522-2.499,0.522C1073.763,532.864,1072.939,532.692,1072.243,532.351z"/>
					<path fill="#1B7FFF" d="M1081.582,522.68c-0.057-0.076-0.073-0.171-0.047-0.285l0.418-2.66c0.05-0.367,0.228-0.551,0.532-0.551
						h1.216c0.088,0,0.162,0.032,0.218,0.096c0.057,0.063,0.085,0.139,0.085,0.228c0,0.127-0.019,0.228-0.057,0.304l-0.988,2.565
						c-0.063,0.14-0.133,0.244-0.209,0.313c-0.076,0.069-0.19,0.104-0.342,0.104h-0.589
						C1081.718,522.794,1081.639,522.756,1081.582,522.68z M1084.564,522.68c-0.057-0.076-0.073-0.171-0.047-0.285l0.418-2.66
						c0.051-0.367,0.228-0.551,0.532-0.551h1.216c0.088,0,0.162,0.032,0.219,0.096c0.057,0.063,0.085,0.139,0.085,0.228
						c0,0.127-0.019,0.228-0.057,0.304l-0.988,2.565c-0.063,0.14-0.133,0.244-0.209,0.313c-0.076,0.069-0.19,0.104-0.342,0.104
						h-0.589C1084.701,522.794,1084.622,522.756,1084.564,522.68z"/>
					<path fill="#1B7FFF" d="M1051.828,551.351c-0.083-0.083-0.124-0.188-0.124-0.313v-2.774h-6.175
						c-0.126,0-0.231-0.041-0.313-0.124c-0.083-0.082-0.124-0.187-0.124-0.313v-0.702c0-0.178,0.07-0.367,0.209-0.57l5.719-8.056
						c0.063-0.102,0.158-0.181,0.285-0.238c0.127-0.057,0.266-0.085,0.418-0.085h1.292c0.139,0,0.247,0.038,0.323,0.114
						c0.076,0.075,0.114,0.184,0.114,0.322v8.057h1.729c0.126,0,0.231,0.041,0.313,0.123c0.082,0.083,0.124,0.188,0.124,0.313v0.722
						c0,0.127-0.042,0.231-0.124,0.313c-0.083,0.083-0.187,0.124-0.313,0.124h-1.729v2.774c0,0.126-0.042,0.23-0.124,0.313
						c-0.083,0.082-0.187,0.123-0.313,0.123h-0.874C1052.015,551.474,1051.91,551.433,1051.828,551.351z M1047.068,546.705h4.655
						v-6.612L1047.068,546.705z"/>
					<path fill="#1B7FFF" d="M1058.478,551.351c-0.07-0.083-0.104-0.181-0.104-0.295l0.038-0.171l4.75-11.115h-6.27
						c-0.126,0-0.231-0.041-0.313-0.123c-0.083-0.083-0.124-0.188-0.124-0.313v-0.703c0-0.14,0.038-0.25,0.114-0.333
						c0.076-0.082,0.184-0.123,0.323-0.123h7.752c0.139,0,0.247,0.041,0.323,0.123c0.076,0.083,0.114,0.193,0.114,0.333v0.646
						c0,0.229-0.05,0.476-0.152,0.741l-4.693,10.982c-0.063,0.139-0.133,0.253-0.209,0.342s-0.184,0.133-0.323,0.133h-0.95
						C1058.639,551.474,1058.547,551.433,1058.478,551.351z"/>
					<path fill="#1B7FFF" d="M1072.471,550.514c-0.76-0.766-1.159-1.839-1.197-3.22l-0.019-0.761l0.019-0.76
						c0.038-1.38,0.437-2.454,1.197-3.221c0.76-0.766,1.817-1.149,3.173-1.149c0.912,0,1.682,0.162,2.309,0.484
						c0.627,0.323,1.095,0.726,1.406,1.207s0.478,0.963,0.504,1.444c0.012,0.113-0.029,0.215-0.124,0.304
						c-0.095,0.089-0.2,0.133-0.313,0.133h-0.836c-0.126,0-0.222-0.028-0.285-0.086c-0.063-0.057-0.127-0.161-0.19-0.313
						c-0.228-0.62-0.542-1.061-0.94-1.32c-0.399-0.259-0.903-0.39-1.511-0.39c-0.798,0-1.432,0.247-1.9,0.741
						c-0.469,0.494-0.722,1.248-0.76,2.261l-0.019,0.665l0.019,0.665c0.038,1.014,0.292,1.768,0.76,2.262
						c0.468,0.494,1.102,0.74,1.9,0.74c0.621,0,1.127-0.129,1.52-0.389s0.703-0.7,0.931-1.321c0.063-0.151,0.126-0.256,0.19-0.313
						c0.063-0.057,0.158-0.085,0.285-0.085h0.836c0.114,0,0.218,0.044,0.313,0.133c0.095,0.089,0.136,0.19,0.124,0.304
						c-0.026,0.469-0.193,0.944-0.504,1.426s-0.779,0.887-1.406,1.216s-1.396,0.494-2.309,0.494
						C1074.289,551.664,1073.231,551.28,1072.471,550.514z"/>
					<path fill="#1B7FFF" d="M1082.265,551.351c-0.083-0.083-0.124-0.188-0.124-0.313v-9.007c0-0.126,0.041-0.23,0.124-0.313
						c0.083-0.082,0.187-0.123,0.313-0.123h0.798c0.126,0,0.228,0.041,0.304,0.123c0.076,0.083,0.114,0.188,0.114,0.313v0.646
						c0.684-0.849,1.608-1.273,2.774-1.273c1.393,0,2.381,0.583,2.964,1.748c0.304-0.531,0.738-0.956,1.302-1.272
						c0.563-0.316,1.193-0.476,1.89-0.476c1.039,0,1.887,0.355,2.546,1.064c0.658,0.709,0.988,1.735,0.988,3.078v5.491
						c0,0.126-0.041,0.23-0.124,0.313c-0.083,0.082-0.187,0.123-0.313,0.123h-0.817c-0.127,0-0.231-0.041-0.313-0.123
						c-0.083-0.083-0.124-0.188-0.124-0.313v-5.32c0-1.014-0.209-1.738-0.627-2.176c-0.418-0.437-0.969-0.655-1.653-0.655
						c-0.608,0-1.13,0.225-1.567,0.675c-0.437,0.449-0.655,1.168-0.655,2.156v5.32c0,0.126-0.042,0.23-0.124,0.313
						c-0.083,0.082-0.187,0.123-0.313,0.123h-0.836c-0.127,0-0.231-0.041-0.313-0.123c-0.083-0.083-0.124-0.188-0.124-0.313v-5.32
						c0-1.001-0.219-1.723-0.656-2.166s-0.979-0.665-1.625-0.665c-0.608,0-1.13,0.222-1.567,0.665s-0.656,1.159-0.656,2.146v5.34
						c0,0.126-0.041,0.23-0.123,0.313c-0.083,0.082-0.187,0.123-0.313,0.123h-0.836
						C1082.452,551.474,1082.348,551.433,1082.265,551.351z"/>
				</g>
			</g>
		</g>
	</g>
	<g>
		<g id="POLYLINE_762_">
			
				<line fill="none" stroke="#1B7FFF" stroke-width="2" stroke-linecap="round" stroke-linejoin="round" stroke-miterlimit="10" x1="1028.588" y1="640.213" x2="981" y2="640"/>
		</g>
		<g id="LINE_27_">
			
				<line fill="none" stroke="#1B7FFF" stroke-width="2" stroke-linecap="round" stroke-linejoin="round" stroke-miterlimit="10" x1="855" y1="640.213" x2="796.51" y2="640.213"/>
		</g>
		<g id="POLYLINE_761_">
			
				<polyline fill="none" stroke="#1B7FFF" stroke-width="2" stroke-linecap="round" stroke-linejoin="round" stroke-miterlimit="10" points="
				803.139,646.841 796.51,640.213 803.139,633.585 			"/>
		</g>
		<g id="POLYLINE_760_">
			
				<polyline fill="none" stroke="#1B7FFF" stroke-width="2" stroke-linecap="round" stroke-linejoin="round" stroke-miterlimit="10" points="
				1021.961,633.585 1028.588,640.213 1021.961,646.841 			"/>
		</g>
		<g id="MTEXT_31_">
			<g>
				<g>
					<path fill="#1B7FFF" d="M866.172,646.262c-0.684-0.306-1.203-0.704-1.557-1.196s-0.543-1.002-0.567-1.53
						c0-0.108,0.036-0.195,0.108-0.261c0.072-0.066,0.162-0.1,0.27-0.1h0.81c0.132,0,0.24,0.027,0.324,0.081
						c0.083,0.054,0.15,0.159,0.198,0.315c0.156,0.611,0.495,1.044,1.017,1.296s1.137,0.378,1.845,0.378
						c0.864,0,1.551-0.207,2.061-0.621c0.51-0.414,0.765-1.005,0.765-1.773c0-1.464-0.894-2.195-2.682-2.195h-1.692
						c-0.12,0-0.219-0.039-0.297-0.117s-0.117-0.177-0.117-0.297v-0.468c0-0.181,0.066-0.336,0.198-0.469l3.51-3.888h-5.328
						c-0.12,0-0.219-0.036-0.297-0.108c-0.078-0.071-0.117-0.168-0.117-0.287v-0.648c0-0.132,0.039-0.237,0.117-0.315
						c0.078-0.077,0.177-0.116,0.297-0.116h7.128c0.132,0,0.237,0.039,0.315,0.116c0.078,0.078,0.117,0.184,0.117,0.315v0.594
						c0,0.133-0.061,0.271-0.18,0.414l-3.51,3.942h0.288c1.224,0.036,2.193,0.354,2.907,0.954c0.714,0.6,1.071,1.476,1.071,2.628
						c0,0.792-0.195,1.473-0.585,2.043c-0.39,0.57-0.933,1.008-1.629,1.313c-0.696,0.307-1.482,0.459-2.358,0.459
						C867.667,646.721,866.856,646.568,866.172,646.262z"/>
					<path fill="#1B7FFF" d="M876.936,646.262c-0.684-0.306-1.203-0.704-1.557-1.196s-0.543-1.002-0.567-1.53
						c0-0.108,0.036-0.195,0.108-0.261c0.072-0.066,0.162-0.1,0.27-0.1H876c0.132,0,0.24,0.027,0.324,0.081
						c0.083,0.054,0.15,0.159,0.198,0.315c0.156,0.611,0.495,1.044,1.017,1.296s1.137,0.378,1.845,0.378
						c0.864,0,1.551-0.207,2.061-0.621c0.51-0.414,0.765-1.005,0.765-1.773c0-1.464-0.894-2.195-2.682-2.195h-1.692
						c-0.12,0-0.219-0.039-0.297-0.117s-0.117-0.177-0.117-0.297v-0.468c0-0.181,0.066-0.336,0.198-0.469l3.51-3.888h-5.328
						c-0.12,0-0.219-0.036-0.297-0.108c-0.078-0.071-0.117-0.168-0.117-0.287v-0.648c0-0.132,0.039-0.237,0.117-0.315
						c0.078-0.077,0.177-0.116,0.297-0.116h7.128c0.132,0,0.237,0.039,0.315,0.116c0.078,0.078,0.117,0.184,0.117,0.315v0.594
						c0,0.133-0.061,0.271-0.18,0.414l-3.51,3.942h0.288c1.224,0.036,2.193,0.354,2.907,0.954c0.714,0.6,1.071,1.476,1.071,2.628
						c0,0.792-0.195,1.473-0.585,2.043c-0.39,0.57-0.933,1.008-1.629,1.313c-0.696,0.307-1.482,0.459-2.358,0.459
						C878.43,646.721,877.62,646.568,876.936,646.262z"/>
					<path fill="#1B7FFF" d="M885.891,637.073c-0.054-0.072-0.069-0.162-0.045-0.271l0.396-2.52
						c0.048-0.348,0.216-0.522,0.504-0.522h1.152c0.083,0,0.153,0.03,0.207,0.09c0.054,0.061,0.081,0.133,0.081,0.217
						c0,0.12-0.018,0.216-0.054,0.288l-0.936,2.43c-0.06,0.132-0.126,0.231-0.198,0.297c-0.072,0.066-0.18,0.099-0.324,0.099h-0.558
						C886.02,637.181,885.945,637.145,885.891,637.073z M888.717,637.073c-0.054-0.072-0.069-0.162-0.045-0.271l0.396-2.52
						c0.048-0.348,0.216-0.522,0.504-0.522h1.152c0.084,0,0.153,0.03,0.207,0.09c0.054,0.061,0.081,0.133,0.081,0.217
						c0,0.12-0.018,0.216-0.054,0.288l-0.936,2.43c-0.061,0.132-0.126,0.231-0.198,0.297c-0.072,0.066-0.18,0.099-0.324,0.099
						h-0.558C888.846,637.181,888.771,637.145,888.717,637.073z"/>
					<path fill="#1B7FFF" d="M897.6,650.168c-0.072-0.078-0.108-0.177-0.108-0.297v-19.044c0-0.12,0.036-0.219,0.108-0.297
						s0.168-0.117,0.288-0.117h0.666c0.12,0,0.219,0.039,0.297,0.117s0.117,0.177,0.117,0.297v19.044
						c0,0.12-0.039,0.219-0.117,0.297s-0.177,0.117-0.297,0.117h-0.666C897.768,650.285,897.671,650.246,897.6,650.168z"/>
					<path fill="#1B7FFF" d="M907.994,646.262c-0.714-0.306-1.269-0.747-1.665-1.322c-0.396-0.576-0.594-1.248-0.594-2.017
						c0-0.708,0.177-1.329,0.531-1.863c0.354-0.533,0.831-0.944,1.431-1.232c-0.48-0.276-0.853-0.639-1.116-1.089
						c-0.264-0.45-0.396-0.981-0.396-1.594c0-1.044,0.39-1.868,1.17-2.475c0.78-0.605,1.806-0.909,3.078-0.909
						s2.295,0.301,3.069,0.9s1.161,1.428,1.161,2.483c0,0.601-0.132,1.125-0.396,1.575c-0.264,0.45-0.63,0.819-1.098,1.107
						c0.6,0.288,1.077,0.699,1.431,1.232c0.354,0.534,0.531,1.161,0.531,1.882c0,0.768-0.198,1.437-0.594,2.007
						s-0.951,1.008-1.665,1.313c-0.714,0.307-1.527,0.459-2.439,0.459C909.521,646.721,908.708,646.568,907.994,646.262z
						 M912.566,644.669c0.57-0.432,0.855-1.008,0.855-1.728c0-0.721-0.285-1.297-0.855-1.729s-1.281-0.647-2.133-0.647
						c-0.864,0-1.581,0.216-2.151,0.647c-0.57,0.432-0.855,1.008-0.855,1.729c0,0.72,0.285,1.296,0.855,1.728
						c0.57,0.432,1.287,0.648,2.151,0.648C911.285,645.317,911.996,645.101,912.566,644.669z M912.287,638.621
						c0.504-0.36,0.756-0.84,0.756-1.44c0-0.611-0.249-1.101-0.747-1.467s-1.119-0.549-1.863-0.549c-0.756,0-1.38,0.183-1.872,0.549
						c-0.492,0.366-0.738,0.855-0.738,1.467c0,0.612,0.246,1.102,0.738,1.468c0.492,0.366,1.116,0.549,1.872,0.549
						C911.165,639.173,911.783,638.981,912.287,638.621z"/>
					<path fill="#1B7FFF" d="M919.037,646.262c-0.684-0.306-1.203-0.704-1.557-1.196s-0.543-1.002-0.567-1.53
						c0-0.108,0.036-0.195,0.108-0.261c0.072-0.066,0.162-0.1,0.27-0.1h0.81c0.132,0,0.24,0.027,0.324,0.081
						c0.083,0.054,0.15,0.159,0.198,0.315c0.156,0.611,0.495,1.044,1.017,1.296s1.137,0.378,1.845,0.378
						c0.864,0,1.551-0.207,2.061-0.621c0.51-0.414,0.765-1.005,0.765-1.773c0-1.464-0.894-2.195-2.682-2.195h-1.692
						c-0.12,0-0.219-0.039-0.297-0.117s-0.117-0.177-0.117-0.297v-0.468c0-0.181,0.066-0.336,0.198-0.469l3.51-3.888h-5.328
						c-0.12,0-0.219-0.036-0.297-0.108c-0.078-0.071-0.117-0.168-0.117-0.287v-0.648c0-0.132,0.039-0.237,0.117-0.315
						c0.078-0.077,0.177-0.116,0.297-0.116h7.128c0.132,0,0.237,0.039,0.315,0.116c0.078,0.078,0.117,0.184,0.117,0.315v0.594
						c0,0.133-0.061,0.271-0.18,0.414l-3.51,3.942h0.288c1.224,0.036,2.193,0.354,2.907,0.954c0.714,0.6,1.071,1.476,1.071,2.628
						c0,0.792-0.195,1.473-0.585,2.043c-0.39,0.57-0.933,1.008-1.629,1.313c-0.696,0.307-1.482,0.459-2.358,0.459
						C920.531,646.721,919.721,646.568,919.037,646.262z"/>
					<path fill="#1B7FFF" d="M928.244,646.424c-0.078-0.078-0.117-0.177-0.117-0.297v-1.242c0-0.119,0.039-0.222,0.117-0.306
						s0.177-0.126,0.297-0.126h1.242c0.12,0,0.219,0.042,0.297,0.126s0.117,0.187,0.117,0.306v1.242c0,0.12-0.039,0.219-0.117,0.297
						s-0.177,0.117-0.297,0.117h-1.242C928.421,646.541,928.322,646.502,928.244,646.424z"/>
					<path fill="#1B7FFF" d="M934.49,646.262c-0.714-0.306-1.269-0.747-1.665-1.322c-0.396-0.576-0.594-1.248-0.594-2.017
						c0-0.708,0.177-1.329,0.531-1.863c0.354-0.533,0.831-0.944,1.431-1.232c-0.48-0.276-0.853-0.639-1.116-1.089
						c-0.264-0.45-0.396-0.981-0.396-1.594c0-1.044,0.39-1.868,1.17-2.475c0.78-0.605,1.806-0.909,3.078-0.909
						s2.295,0.301,3.069,0.9s1.161,1.428,1.161,2.483c0,0.601-0.132,1.125-0.396,1.575c-0.264,0.45-0.63,0.819-1.098,1.107
						c0.6,0.288,1.077,0.699,1.431,1.232c0.354,0.534,0.531,1.161,0.531,1.882c0,0.768-0.198,1.437-0.594,2.007
						s-0.951,1.008-1.665,1.313c-0.714,0.307-1.527,0.459-2.439,0.459C936.017,646.721,935.204,646.568,934.49,646.262z
						 M939.062,644.669c0.57-0.432,0.855-1.008,0.855-1.728c0-0.721-0.285-1.297-0.855-1.729s-1.281-0.647-2.133-0.647
						c-0.864,0-1.581,0.216-2.151,0.647c-0.57,0.432-0.855,1.008-0.855,1.729c0,0.72,0.285,1.296,0.855,1.728
						c0.57,0.432,1.287,0.648,2.151,0.648C937.781,645.317,938.492,645.101,939.062,644.669z M938.783,638.621
						c0.504-0.36,0.756-0.84,0.756-1.44c0-0.611-0.249-1.101-0.747-1.467s-1.119-0.549-1.863-0.549c-0.756,0-1.38,0.183-1.872,0.549
						c-0.492,0.366-0.738,0.855-0.738,1.467c0,0.612,0.246,1.102,0.738,1.468c0.492,0.366,1.116,0.549,1.872,0.549
						C937.661,639.173,938.279,638.981,938.783,638.621z"/>
					<path fill="#1B7FFF" d="M949.151,645.632c-0.721-0.726-1.098-1.743-1.135-3.051l-0.018-0.72l0.018-0.721
						c0.037-1.308,0.414-2.324,1.135-3.051c0.719-0.726,1.721-1.089,3.006-1.089c0.863,0,1.592,0.153,2.188,0.459
						c0.594,0.306,1.037,0.688,1.332,1.143c0.293,0.457,0.451,0.912,0.477,1.368c0.012,0.108-0.027,0.204-0.117,0.288
						s-0.189,0.126-0.297,0.126h-0.793c-0.119,0-0.209-0.026-0.27-0.081c-0.061-0.054-0.119-0.152-0.18-0.297
						c-0.217-0.588-0.514-1.005-0.891-1.251c-0.379-0.246-0.855-0.369-1.432-0.369c-0.756,0-1.355,0.234-1.801,0.702
						c-0.443,0.468-0.684,1.183-0.719,2.143l-0.018,0.63l0.018,0.63c0.035,0.96,0.275,1.674,0.719,2.142
						c0.445,0.468,1.045,0.702,1.801,0.702c0.588,0,1.068-0.123,1.439-0.369c0.373-0.246,0.666-0.663,0.883-1.251
						c0.061-0.144,0.119-0.243,0.18-0.297s0.15-0.081,0.27-0.081h0.793c0.107,0,0.207,0.042,0.297,0.126s0.129,0.18,0.117,0.288
						c-0.025,0.444-0.184,0.895-0.477,1.35c-0.295,0.457-0.738,0.841-1.332,1.152c-0.596,0.312-1.324,0.468-2.188,0.468
						C950.872,646.721,949.87,646.358,949.151,645.632z"/>
					<path fill="#1B7FFF" d="M958.429,646.424c-0.078-0.078-0.117-0.177-0.117-0.297v-8.532c0-0.119,0.039-0.219,0.117-0.297
						s0.177-0.117,0.297-0.117h0.756c0.12,0,0.217,0.039,0.288,0.117c0.072,0.078,0.108,0.178,0.108,0.297v0.612
						c0.648-0.804,1.523-1.206,2.628-1.206c1.32,0,2.256,0.552,2.808,1.656c0.288-0.504,0.699-0.906,1.233-1.206
						s1.131-0.45,1.791-0.45c0.983,0,1.788,0.336,2.412,1.008c0.624,0.673,0.936,1.645,0.936,2.916v5.202
						c0,0.12-0.039,0.219-0.116,0.297c-0.078,0.078-0.178,0.117-0.298,0.117h-0.773c-0.12,0-0.219-0.039-0.297-0.117
						s-0.117-0.177-0.117-0.297v-5.04c0-0.96-0.198-1.646-0.594-2.061c-0.396-0.414-0.918-0.621-1.566-0.621
						c-0.576,0-1.071,0.213-1.485,0.639c-0.413,0.426-0.62,1.107-0.62,2.043v5.04c0,0.12-0.039,0.219-0.117,0.297
						s-0.178,0.117-0.297,0.117h-0.792c-0.12,0-0.22-0.039-0.298-0.117s-0.116-0.177-0.116-0.297v-5.04
						c0-0.947-0.207-1.632-0.621-2.052s-0.927-0.63-1.539-0.63c-0.576,0-1.071,0.21-1.485,0.63s-0.621,1.098-0.621,2.034v5.058
						c0,0.12-0.039,0.219-0.117,0.297s-0.177,0.117-0.297,0.117h-0.792C958.606,646.541,958.507,646.502,958.429,646.424z"/>
				</g>
			</g>
		</g>
	</g>
	<g>
		<g id="POLYLINE_759_">
			
				<line fill="none" stroke="#1B7FFF" stroke-width="2" stroke-linecap="round" stroke-linejoin="round" stroke-miterlimit="10" x1="686.588" y1="334.213" x2="449" y2="334"/>
		</g>
		<g id="LINE_26_">
			
				<line fill="none" stroke="#1B7FFF" stroke-width="2" stroke-linecap="round" stroke-linejoin="round" stroke-miterlimit="10" x1="314" y1="334.213" x2="83.51" y2="334.213"/>
		</g>
		<g id="POLYLINE_758_">
			
				<polyline fill="none" stroke="#1B7FFF" stroke-width="2" stroke-linecap="round" stroke-linejoin="round" stroke-miterlimit="10" points="
				90.139,340.841 83.51,334.213 90.139,327.585 			"/>
		</g>
		<g id="POLYLINE_757_">
			
				<polyline fill="none" stroke="#1B7FFF" stroke-width="2" stroke-linecap="round" stroke-linejoin="round" stroke-miterlimit="10" points="
				679.961,327.585 686.588,334.213 679.961,340.841 			"/>
		</g>
		<g id="MTEXT_30_">
			<g>
				<g>
					<path fill="#1B7FFF" d="M327.542,340.262c-0.714-0.306-1.269-0.747-1.665-1.322c-0.396-0.576-0.594-1.248-0.594-2.017
						c0-0.708,0.177-1.329,0.531-1.863c0.354-0.533,0.831-0.944,1.431-1.232c-0.48-0.276-0.853-0.639-1.116-1.089
						c-0.264-0.45-0.396-0.981-0.396-1.594c0-1.044,0.39-1.868,1.17-2.475c0.78-0.605,1.806-0.909,3.078-0.909
						s2.295,0.301,3.069,0.9s1.161,1.428,1.161,2.483c0,0.601-0.132,1.125-0.396,1.575c-0.264,0.45-0.63,0.819-1.098,1.107
						c0.6,0.288,1.077,0.699,1.431,1.232c0.354,0.534,0.531,1.161,0.531,1.882c0,0.768-0.198,1.437-0.594,2.007
						s-0.951,1.008-1.665,1.313c-0.714,0.307-1.527,0.459-2.439,0.459C329.068,340.721,328.255,340.568,327.542,340.262z
						 M332.113,338.669c0.57-0.432,0.855-1.008,0.855-1.728c0-0.721-0.285-1.297-0.855-1.729s-1.281-0.647-2.133-0.647
						c-0.864,0-1.581,0.216-2.151,0.647c-0.57,0.432-0.855,1.008-0.855,1.729c0,0.72,0.285,1.296,0.855,1.728
						c0.57,0.432,1.287,0.648,2.151,0.648C330.833,339.317,331.543,339.101,332.113,338.669z M331.834,332.621
						c0.504-0.36,0.756-0.84,0.756-1.44c0-0.611-0.249-1.101-0.747-1.467s-1.119-0.549-1.863-0.549c-0.756,0-1.38,0.183-1.872,0.549
						c-0.492,0.366-0.738,0.855-0.738,1.467c0,0.612,0.246,1.102,0.738,1.468c0.492,0.366,1.116,0.549,1.872,0.549
						C330.712,333.173,331.331,332.981,331.834,332.621z"/>
					<path fill="#1B7FFF" d="M338.719,340.136c-0.702-0.39-1.236-0.915-1.602-1.575c-0.366-0.659-0.549-1.379-0.549-2.159
						c0-1.032,0.414-2.136,1.242-3.312l3.438-4.788c0.012-0.012,0.045-0.054,0.099-0.126c0.054-0.072,0.123-0.129,0.207-0.171
						c0.083-0.042,0.18-0.062,0.288-0.062h0.882c0.108,0,0.195,0.039,0.261,0.116c0.066,0.078,0.099,0.172,0.099,0.279
						c0,0.061-0.03,0.139-0.09,0.234l-2.628,3.672c0.312-0.072,0.66-0.108,1.044-0.108c0.875,0,1.647,0.195,2.313,0.585
						c0.666,0.391,1.182,0.906,1.548,1.548c0.366,0.643,0.549,1.348,0.549,2.115c0,0.769-0.183,1.485-0.549,2.151
						c-0.366,0.666-0.897,1.197-1.593,1.593c-0.696,0.396-1.519,0.594-2.466,0.594C340.252,340.721,339.421,340.526,338.719,340.136
						z M342.652,338.903c0.444-0.216,0.798-0.537,1.062-0.963s0.396-0.939,0.396-1.539c0-0.588-0.135-1.096-0.405-1.521
						s-0.627-0.75-1.071-0.972c-0.444-0.222-0.924-0.333-1.44-0.333s-0.996,0.111-1.44,0.333s-0.798,0.546-1.062,0.972
						s-0.396,0.934-0.396,1.521c0,0.6,0.132,1.113,0.396,1.539s0.618,0.747,1.062,0.963s0.924,0.323,1.44,0.323
						C341.722,339.227,342.208,339.119,342.652,338.903z"/>
					<path fill="#1B7FFF" d="M347.575,331.073c-0.054-0.072-0.069-0.162-0.045-0.271l0.396-2.52
						c0.048-0.348,0.216-0.522,0.504-0.522h1.152c0.083,0,0.153,0.03,0.207,0.09c0.054,0.061,0.081,0.133,0.081,0.217
						c0,0.12-0.018,0.216-0.054,0.288l-0.936,2.43c-0.06,0.132-0.126,0.231-0.198,0.297c-0.072,0.066-0.18,0.099-0.324,0.099H347.8
						C347.704,331.181,347.629,331.145,347.575,331.073z M350.401,331.073c-0.054-0.072-0.069-0.162-0.045-0.271l0.396-2.52
						c0.048-0.348,0.216-0.522,0.504-0.522h1.152c0.084,0,0.153,0.03,0.207,0.09c0.054,0.061,0.081,0.133,0.081,0.217
						c0,0.12-0.018,0.216-0.054,0.288l-0.936,2.43c-0.061,0.132-0.126,0.231-0.198,0.297c-0.072,0.066-0.18,0.099-0.324,0.099
						h-0.558C350.53,331.181,350.455,331.145,350.401,331.073z"/>
					<path fill="#1B7FFF" d="M359.284,344.168c-0.072-0.078-0.108-0.177-0.108-0.297v-19.044c0-0.12,0.036-0.219,0.108-0.297
						s0.168-0.117,0.288-0.117h0.666c0.12,0,0.219,0.039,0.297,0.117s0.117,0.177,0.117,0.297v19.044
						c0,0.12-0.039,0.219-0.117,0.297s-0.177,0.117-0.297,0.117h-0.666C359.452,344.285,359.355,344.246,359.284,344.168z"/>
					<path fill="#1B7FFF" d="M367.41,340.424c-0.078-0.078-0.117-0.177-0.117-0.297v-0.54c0-0.275,0.15-0.54,0.45-0.792l3.924-3.906
						c0.888-0.756,1.5-1.374,1.836-1.854s0.504-0.99,0.504-1.53c0-0.708-0.198-1.263-0.594-1.665
						c-0.396-0.401-0.972-0.603-1.728-0.603c-0.72,0-1.29,0.21-1.71,0.63s-0.678,0.984-0.774,1.691
						c-0.024,0.133-0.084,0.234-0.18,0.307s-0.192,0.107-0.288,0.107h-0.864c-0.108,0-0.198-0.035-0.27-0.107
						s-0.108-0.156-0.108-0.252c0.024-0.636,0.195-1.251,0.513-1.846c0.318-0.594,0.789-1.079,1.413-1.458
						c0.624-0.378,1.38-0.566,2.268-0.566c1.344,0,2.355,0.351,3.033,1.053c0.678,0.702,1.017,1.593,1.017,2.673
						c0,0.756-0.183,1.438-0.549,2.043c-0.366,0.606-0.939,1.245-1.719,1.917l-3.546,3.601h5.67c0.132,0,0.234,0.036,0.306,0.107
						c0.072,0.072,0.108,0.175,0.108,0.307v0.684c0,0.12-0.04,0.219-0.117,0.297c-0.078,0.078-0.177,0.117-0.297,0.117h-7.884
						C367.587,340.541,367.488,340.502,367.41,340.424z"/>
					<path fill="#1B7FFF" d="M381.604,340.424c-0.072-0.078-0.108-0.177-0.108-0.297v-10.152l-3.024,2.322
						c-0.084,0.072-0.174,0.108-0.27,0.108c-0.108,0-0.21-0.061-0.306-0.181l-0.432-0.558c-0.06-0.084-0.09-0.168-0.09-0.252
						c0-0.132,0.06-0.24,0.18-0.324l3.906-3.023c0.132-0.084,0.288-0.126,0.468-0.126h0.846c0.12,0,0.219,0.039,0.297,0.116
						c0.078,0.078,0.117,0.178,0.117,0.298v11.771c0,0.12-0.039,0.219-0.117,0.297s-0.177,0.117-0.297,0.117h-0.882
						C381.771,340.541,381.675,340.502,381.604,340.424z"/>
					<path fill="#1B7FFF" d="M387.84,340.262c-0.714-0.306-1.269-0.747-1.665-1.322c-0.396-0.576-0.594-1.248-0.594-2.017
						c0-0.708,0.177-1.329,0.531-1.863c0.354-0.533,0.831-0.944,1.431-1.232c-0.48-0.276-0.853-0.639-1.116-1.089
						c-0.264-0.45-0.396-0.981-0.396-1.594c0-1.044,0.39-1.868,1.17-2.475c0.78-0.605,1.806-0.909,3.078-0.909
						s2.295,0.301,3.069,0.9s1.161,1.428,1.161,2.483c0,0.601-0.132,1.125-0.396,1.575c-0.264,0.45-0.63,0.819-1.098,1.107
						c0.6,0.288,1.077,0.699,1.431,1.232c0.354,0.534,0.531,1.161,0.531,1.882c0,0.768-0.198,1.437-0.594,2.007
						s-0.951,1.008-1.665,1.313c-0.714,0.307-1.527,0.459-2.439,0.459C389.367,340.721,388.554,340.568,387.84,340.262z
						 M392.412,338.669c0.57-0.432,0.855-1.008,0.855-1.728c0-0.721-0.285-1.297-0.855-1.729s-1.281-0.647-2.133-0.647
						c-0.864,0-1.581,0.216-2.151,0.647c-0.57,0.432-0.855,1.008-0.855,1.729c0,0.72,0.285,1.296,0.855,1.728
						c0.57,0.432,1.287,0.648,2.151,0.648C391.131,339.317,391.842,339.101,392.412,338.669z M392.133,332.621
						c0.504-0.36,0.756-0.84,0.756-1.44c0-0.611-0.249-1.101-0.747-1.467s-1.119-0.549-1.863-0.549c-0.756,0-1.38,0.183-1.872,0.549
						c-0.492,0.366-0.738,0.855-0.738,1.467c0,0.612,0.246,1.102,0.738,1.468c0.492,0.366,1.116,0.549,1.872,0.549
						C391.011,333.173,391.629,332.981,392.133,332.621z"/>
					<path fill="#1B7FFF" d="M397.146,340.424c-0.078-0.078-0.117-0.177-0.117-0.297v-1.242c0-0.119,0.039-0.222,0.117-0.306
						s0.177-0.126,0.297-0.126h1.242c0.12,0,0.219,0.042,0.297,0.126s0.117,0.187,0.117,0.306v1.242c0,0.12-0.039,0.219-0.117,0.297
						s-0.177,0.117-0.297,0.117h-1.242C397.323,340.541,397.224,340.502,397.146,340.424z"/>
					<path fill="#1B7FFF" d="M406.956,340.424c-0.078-0.078-0.117-0.177-0.117-0.297v-2.628h-5.85c-0.12,0-0.219-0.039-0.297-0.117
						s-0.117-0.177-0.117-0.297v-0.666c0-0.168,0.066-0.348,0.198-0.54l5.418-7.632c0.06-0.096,0.15-0.171,0.27-0.225
						c0.12-0.055,0.252-0.081,0.396-0.081h1.224c0.132,0,0.234,0.035,0.306,0.107s0.107,0.174,0.107,0.307v7.632h1.639
						c0.119,0,0.219,0.039,0.297,0.117s0.117,0.177,0.117,0.297v0.684c0,0.12-0.039,0.219-0.117,0.297s-0.178,0.117-0.297,0.117
						h-1.639v2.628c0,0.12-0.039,0.219-0.117,0.297s-0.177,0.117-0.296,0.117h-0.828
						C407.133,340.541,407.034,340.502,406.956,340.424z M402.447,336.023h4.41v-6.265L402.447,336.023z"/>
					<path fill="#1B7FFF" d="M417.657,339.632c-0.72-0.726-1.098-1.743-1.134-3.051l-0.019-0.72l0.019-0.721
						c0.036-1.308,0.414-2.324,1.134-3.051c0.72-0.726,1.722-1.089,3.006-1.089c0.864,0,1.593,0.153,2.188,0.459
						c0.594,0.306,1.037,0.688,1.332,1.143c0.294,0.457,0.452,0.912,0.477,1.368c0.012,0.108-0.026,0.204-0.117,0.288
						c-0.09,0.084-0.188,0.126-0.297,0.126h-0.792c-0.12,0-0.21-0.026-0.27-0.081c-0.061-0.054-0.12-0.152-0.181-0.297
						c-0.216-0.588-0.513-1.005-0.891-1.251s-0.854-0.369-1.431-0.369c-0.756,0-1.356,0.234-1.801,0.702
						c-0.443,0.468-0.684,1.183-0.72,2.143l-0.018,0.63l0.018,0.63c0.036,0.96,0.276,1.674,0.72,2.142
						c0.444,0.468,1.045,0.702,1.801,0.702c0.588,0,1.067-0.123,1.439-0.369s0.666-0.663,0.882-1.251
						c0.061-0.144,0.12-0.243,0.181-0.297c0.06-0.054,0.149-0.081,0.27-0.081h0.792c0.108,0,0.207,0.042,0.297,0.126
						c0.091,0.084,0.129,0.18,0.117,0.288c-0.024,0.444-0.183,0.895-0.477,1.35c-0.295,0.457-0.738,0.841-1.332,1.152
						c-0.595,0.312-1.323,0.468-2.188,0.468C419.378,340.721,418.376,340.358,417.657,339.632z"/>
					<path fill="#1B7FFF" d="M426.935,340.424c-0.078-0.078-0.117-0.177-0.117-0.297v-8.532c0-0.119,0.039-0.219,0.117-0.297
						s0.177-0.117,0.297-0.117h0.756c0.12,0,0.217,0.039,0.288,0.117c0.072,0.078,0.108,0.178,0.108,0.297v0.612
						c0.648-0.804,1.523-1.206,2.628-1.206c1.32,0,2.256,0.552,2.808,1.656c0.288-0.504,0.699-0.906,1.233-1.206
						s1.131-0.45,1.791-0.45c0.983,0,1.788,0.336,2.412,1.008c0.624,0.673,0.936,1.645,0.936,2.916v5.202
						c0,0.12-0.039,0.219-0.116,0.297c-0.078,0.078-0.178,0.117-0.298,0.117h-0.773c-0.12,0-0.219-0.039-0.297-0.117
						s-0.117-0.177-0.117-0.297v-5.04c0-0.96-0.198-1.646-0.594-2.061c-0.396-0.414-0.918-0.621-1.566-0.621
						c-0.576,0-1.071,0.213-1.485,0.639c-0.413,0.426-0.62,1.107-0.62,2.043v5.04c0,0.12-0.039,0.219-0.117,0.297
						s-0.178,0.117-0.297,0.117h-0.792c-0.12,0-0.22-0.039-0.298-0.117s-0.116-0.177-0.116-0.297v-5.04
						c0-0.947-0.207-1.632-0.621-2.052s-0.927-0.63-1.539-0.63c-0.576,0-1.071,0.21-1.485,0.63s-0.621,1.098-0.621,2.034v5.058
						c0,0.12-0.039,0.219-0.117,0.297s-0.177,0.117-0.297,0.117h-0.792C427.112,340.541,427.013,340.502,426.935,340.424z"/>
				</g>
			</g>
		</g>
	</g>
</g>
<g id="N-TEXT">
</g>
<g id="N-DIMS">
</g>
<g id="AG-DIAGRAM">
	<g id="POLYLINE_756_">
		<g>
			<g>
				
					<line fill="none" stroke="#1B7FFF" stroke-width="3.25" stroke-linecap="round" stroke-linejoin="round" x1="1027.455" y1="614.264" x2="1025.455" y2="614.264"/>
				
					<line fill="none" stroke="#1B7FFF" stroke-width="3.25" stroke-linecap="round" stroke-linejoin="round" stroke-dasharray="3.9914,6.985" x1="1018.47" y1="614.264" x2="802.433" y2="614.264"/>
				
					<line fill="none" stroke="#1B7FFF" stroke-width="3.25" stroke-linecap="round" stroke-linejoin="round" x1="798.941" y1="614.264" x2="796.941" y2="614.264"/>
			</g>
		</g>
	</g>
	<g id="POLYLINE_755_">
		<g>
			<g>
				
					<line fill="none" stroke="#1B7FFF" stroke-width="3.25" stroke-linecap="round" stroke-linejoin="round" x1="1397.676" y1="308.315" x2="1395.676" y2="308.315"/>
				
					<line fill="none" stroke="#1B7FFF" stroke-width="3.25" stroke-linecap="round" stroke-linejoin="round" stroke-dasharray="3.9716,6.9503" x1="1388.726" y1="308.315" x2="802.416" y2="308.315"/>
				
					<line fill="none" stroke="#1B7FFF" stroke-width="3.25" stroke-linecap="round" stroke-linejoin="round" x1="798.941" y1="308.315" x2="796.941" y2="308.315"/>
			</g>
		</g>
	</g>
	<g id="POLYLINE_754_">
		<g>
			<g>
				
					<line fill="none" stroke="#1B7FFF" stroke-width="3.25" stroke-linecap="round" stroke-linejoin="round" x1="686.058" y1="308.315" x2="684.058" y2="308.315"/>
				
					<line fill="none" stroke="#1B7FFF" stroke-width="3.25" stroke-linecap="round" stroke-linejoin="round" stroke-dasharray="3.9716,6.9503" x1="677.108" y1="308.315" x2="90.798" y2="308.315"/>
				
					<line fill="none" stroke="#1B7FFF" stroke-width="3.25" stroke-linecap="round" stroke-linejoin="round" x1="87.323" y1="308.315" x2="85.323" y2="308.315"/>
			</g>
		</g>
	</g>
</g>
<g id="AG-DETAIL-DIAGRAM">
	<g id="POLYLINE_750_">
		<g>
			<g>
				
					<line fill="none" stroke="#1B7FFF" stroke-width="2" stroke-linecap="round" stroke-linejoin="round" x1="826.628" y1="179.087" x2="828.128" y2="179.087"/>
				
					<line fill="none" stroke="#1B7FFF" stroke-width="2" stroke-linecap="round" stroke-linejoin="round" stroke-dasharray="3.0076,6.0152" x1="834.143" y1="179.087" x2="1363.481" y2="179.087"/>
				
					<line fill="none" stroke="#1B7FFF" stroke-width="2" stroke-linecap="round" stroke-linejoin="round" x1="1366.488" y1="179.087" x2="1367.988" y2="179.087"/>
			</g>
		</g>
	</g>
	<g id="POLYLINE_749_">
		<g>
			<g>
				<path fill="none" stroke="#1B7FFF" stroke-width="2" stroke-linecap="round" stroke-linejoin="round" d="M853.245,451.169
					c0.129,0.483,0.259,0.966,0.388,1.449"/>
				
					<path fill="none" stroke="#1B7FFF" stroke-width="2" stroke-linecap="round" stroke-linejoin="round" stroke-dasharray="3.0334,6.0669" d="
					M855.204,458.478c1.12,4.182,2.241,8.364,3.361,12.545c1.038,3.874,2.076,7.747,3.114,11.621
					c0.139,0.517,0.277,1.035,0.416,1.552c0.042,0.157,0.084,0.661,0.208,0.775c0.098,0.09,0.147,0.028,0.311,0.064
					c0.898,0.195,2.062,0,2.975,0c1.951,0,3.901,0,5.852,0c6.259,0,12.518,0,18.777,0c8.474,0,16.948,0,25.423,0
					c9.559,0,19.118,0,28.677,0c9.61,0,19.22,0,28.83,0c8.533,0,17.066,0,25.598,0c6.341,0,12.682,0,19.023,0
					c1.717,0,3.435,0,5.152,0"/>
				<path fill="none" stroke="#1B7FFF" stroke-width="2" stroke-linecap="round" stroke-linejoin="round" d="M1025.955,485.036
					c0.366,0,0.732,0,1.098,0c0.134,0,0.268,0,0.402,0"/>
			</g>
		</g>
	</g>
</g>
<g id="AG-DETAIL">
	<g id="POLYLINE_748_">
		<path fill="none" stroke="#1B7FFF" stroke-width="2" stroke-linecap="round" stroke-linejoin="round" stroke-miterlimit="10" d="
			M115.01,426.91c0.002,1.781,0.34,3.693,1.574,5.057c1.102,1.219,2.716,1.737,4.313,1.881c0.947,0.086,1.915,0.047,2.865,0.047
			c1.994,0,3.989,0,5.984,0c3.24,0,6.481,0,9.721,0c4.294,0,8.589,0,12.883,0c5.216,0,10.432,0,15.648,0c5.95,0,11.9,0,17.85,0
			c6.513,0,13.026,0,19.539,0c6.905,0,13.81,0,20.716,0c7.095,0,14.19,0,21.285,0c7.177,0,14.354,0,21.531,0
			c7.057,0,14.115,0,21.172,0c6.738,0,13.476,0,20.214,0c6.308,0,12.616,0,18.923,0c5.676,0,11.352,0,17.028,0
			c4.854,0,9.708,0,14.563,0c3.905,0,7.81,0,11.715,0c2.761,0,5.523,0,8.284,0c1.447,0,2.894,0,4.341,0c0.385,0,0.771,0,1.156,0
			c1.493,0,2.986,0,4.478,0c2.805,0,5.609,0,8.414,0c3.942,0,7.884,0,11.826,0c4.885,0,9.77,0,14.656,0c5.701,0,11.403,0,17.104,0
			c6.327,0,12.654,0,18.981,0c6.782,0,13.563,0,20.345,0c7.034,0,14.068,0,21.102,0c7.178,0,14.356,0,21.535,0
			c7.121,0,14.242,0,21.363,0c6.893,0,13.786,0,20.679,0c6.466,0,12.933,0,19.399,0c5.927,0,11.854,0,17.781,0
			c5.187,0,10.374,0,15.561,0c4.259,0,8.519,0,12.778,0c3.199,0,6.399,0,9.598,0c1.947,0,3.895,0,5.842,0
			c0.98,0,1.978,0.039,2.952-0.069c1.574-0.176,3.142-0.739,4.191-1.975c1.153-1.358,1.469-3.21,1.472-4.941"/>
	</g>
</g>
<g id="AG-PEOPLE">
</g>
<g id="AG-FURNITURE">
	<g id="POLYLINE_746_">
		
			<path fill="none" stroke="#1B7FFF" stroke-width="2.75" stroke-linecap="round" stroke-linejoin="round" stroke-miterlimit="10" d="
			M649.385,394.227H385.691c0.849,0,1.698,0,2.548,0c2.411,0,4.823,0,7.234,0c3.769,0,7.538,0,11.307,0c4.922,0,9.844,0,14.766,0
			c5.871,0,11.742,0,17.612,0c6.615,0,13.23,0,19.845,0c7.124,0,14.248,0,21.372,0c7.489,0,14.978,0,22.466,0
			c7.62,0,15.241,0,22.861,0c7.547,0,15.095,0,22.642,0c7.27,0,14.54,0,21.81,0c6.788,0,13.576,0,20.364,0
			c6.101,0,12.203,0,18.304,0c5.211,0,10.421,0,15.631,0c4.115,0,8.23,0,12.345,0c2.806,0,5.613,0,8.419,0
			c1.317,0,2.635-0.006,3.952,0c1.831,0.008,3.572,0.586,4.937,1.837c1.64,1.504,2.264,3.519,2.264,5.687c0,4.816,0,9.633,0,14.449
			c0,7.404,0,14.808,0,22.212c0,4.616,0.005,9.231,0,13.847c-0.002,2.192-0.763,4.244-2.467,5.689
			c-1.36,1.154-3.031,1.652-4.792,1.658c-1.368,0.005-2.737,0-4.105,0c-2.867,0-5.735,0-8.602,0c-4.16,0-8.319,0-12.479,0
			c-5.247,0-10.495,0-15.742,0c-6.131,0-12.262,0-18.392,0c-6.81,0-13.619,0-20.429,0c-7.284,0-14.568,0-21.852,0
			c-7.554,0-15.107,0-22.661,0c-7.619,0-15.238,0-22.857,0c-7.449,0-14.899,0-22.348,0c-7.138,0-14.276,0-21.414,0
			c-6.591,0-13.182,0-19.772,0c-5.839,0-11.678,0-17.517,0c-4.883,0-9.766,0-14.648,0c-3.722,0-7.444,0-11.166,0
			c-2.357,0-4.713,0-7.07,0c-0.788,0-1.576,0-2.365,0c1.123,0,2.246,0,3.369,0c3.16,0,6.32,0,9.48,0c4.863,0,9.725,0,14.588,0
			c6.287,0,12.575,0,18.862,0c7.356,0,14.711,0,22.067,0c8.164,0,16.328,0,24.492,0c8.634,0,17.267,0,25.901,0
			c8.789,0,17.579,0,26.368,0c8.601,0,17.202,0,25.803,0c8.134,0,16.267,0,24.401,0c7.38,0,14.761,0,22.141,0
			c6.283,0,12.566,0,18.849,0c4.872,0,9.743,0,14.615,0c3.138,0,6.277,0,9.415,0c1.115,0,2.231-0.019,3.346,0
			c2.858,0.049,5.463,1.763,6.51,4.452c0.665,1.709,0.476,3.636,0.476,5.433c0,4.327,0,8.653,0,12.98c0,6.821,0,13.642,0,20.463
			c0,8.32,0,16.64,0,24.96c0,8.719,0,17.437,0,26.156c0,8.135,0,16.271,0,24.406c0,6.473,0,12.945,0,19.418
			c0,3.754,0,7.509,0,11.263c0,2.432-0.132,4.77-1.096,7.057c-1.608,3.813-4.903,6.773-8.867,7.96
			c-1.795,0.538-3.6,0.587-5.448,0.587c-2.524,0-5.048,0-7.572,0c-4.395,0-8.79,0-13.185,0c-5.911,0-11.823,0-17.734,0
			c-7.113,0-14.226,0-21.339,0c-8.017,0-16.034,0-24.051,0c-8.566,0-17.132,0-25.698,0c-8.784,0-17.568,0-26.352,0
			c-8.64,0-17.28,0-25.92,0c-8.229,0-16.457,0-24.686,0c-7.429,0-14.859,0-22.288,0c-6.354,0-12.707,0-19.061,0
			c-4.918,0-9.837,0-14.755,0c-3.144,0-6.289,0-9.433,0c-1.067,0-2.133,0-3.2,0c-1.232,0-2.465,0-3.697,0c-3.304,0-6.608,0-9.912,0
			c-5.044,0-10.088,0-15.132,0c-6.428,0-12.856,0-19.283,0c-7.528,0-15.056,0-22.583,0c-8.245,0-16.49,0-24.735,0
			c-8.692,0-17.384,0-26.075,0c-8.779,0-17.557,0-26.336,0c-8.535,0-17.069,0-25.604,0c-7.932,0-15.864,0-23.796,0
			c-7.033,0-14.067,0-21.1,0c-5.825,0-11.651,0-17.476,0c-4.259,0-8.518,0-12.777,0c-2.362,0-4.723,0-7.085,0
			c-2.043,0-4.029-0.153-5.971-0.873c-3.895-1.444-7.006-4.633-8.354-8.562c-0.752-2.192-0.757-4.396-0.757-6.67
			c0-4.014,0-8.029,0-12.043c0-6.642,0-13.285,0-19.927c0-8.191,0-16.382,0-24.573c0-8.754,0-17.508,0-26.262
			c0-8.214,0-16.427,0-24.641c0-6.688,0-13.375,0-20.063c0-4.082,0-8.165,0-12.247c0-1.853-0.122-3.684,0.732-5.401
			c1.188-2.388,3.632-3.832,6.274-3.873c1.279-0.02,2.559,0,3.838,0c3.294,0,6.589,0,9.883,0c4.995,0,9.989,0,14.984,0
			c6.381,0,12.762,0,19.144,0c7.425,0,14.851,0,22.276,0c8.18,0,16.36,0,24.539,0c8.655,0,17.311,0,25.966,0
			c8.789,0,17.577,0,26.366,0c8.608,0,17.216,0,25.824,0c8.085,0,16.171,0,24.256,0c7.308,0,14.617,0,21.925,0
			c6.167,0,12.335,0,18.502,0c4.758,0,9.516,0,14.274,0c3.01,0,6.02,0,9.03,0c0.956,0,1.912,0,2.868,0c-0.849,0-1.698,0-2.548,0
			c-2.411,0-4.823,0-7.234,0c-3.769,0-7.538,0-11.307,0c-4.922,0-9.844,0-14.766,0c-5.871,0-11.742,0-17.612,0
			c-6.615,0-13.23,0-19.845,0c-7.124,0-14.248,0-21.372,0c-7.489,0-14.978,0-22.466,0c-7.62,0-15.241,0-22.861,0
			c-7.547,0-15.095,0-22.642,0c-7.27,0-14.54,0-21.81,0c-6.788,0-13.576,0-20.364,0c-6.101,0-12.203,0-18.304,0
			c-5.211,0-10.421,0-15.632,0c-4.115,0-8.23,0-12.345,0c-2.806,0-5.613,0-8.419,0c-1.317,0-2.635,0.006-3.952,0
			c-1.831-0.008-3.572-0.586-4.937-1.837c-1.64-1.504-2.264-3.519-2.264-5.687c0-4.816,0-9.633,0-14.449c0-7.404,0-14.808,0-22.212
			c0-4.616-0.005-9.231,0-13.847c0.002-2.192,0.763-4.244,2.467-5.689c1.36-1.154,3.031-1.652,4.792-1.658
			c1.368-0.005,2.737,0,4.105,0c2.867,0,5.735,0,8.602,0c4.16,0,8.319,0,12.479,0c5.247,0,10.495,0,15.742,0
			c6.131,0,12.262,0,18.392,0c6.81,0,13.619,0,20.429,0c7.284,0,14.568,0,21.852,0c7.554,0,15.107,0,22.661,0
			c7.619,0,15.238,0,22.857,0c7.449,0,14.899,0,22.348,0c7.138,0,14.276,0,21.414,0c6.591,0,13.182,0,19.773,0
			c5.839,0,11.678,0,17.517,0c4.883,0,9.766,0,14.648,0c3.722,0,7.444,0,11.166,0c2.357,0,4.713,0,7.07,0c0.788,0,1.576,0,2.365,0
			H121.996"/>
	</g>
	<g id="POLYLINE_745_">
		
			<path fill="none" stroke="#1B7FFF" stroke-width="2.75" stroke-linecap="round" stroke-linejoin="round" stroke-miterlimit="10" d="
			M686.058,399.466c-0.001-1.675-0.826-3.284-2.189-4.26c-1.781-1.275-3.983-0.979-6.052-0.979c-5.386,0-10.784-0.104-16.169,0
			c-1.64,0.032-3.179,0.73-4.191,2.044c-0.778,1.011-1.081,2.196-1.087,3.452c-0.007,1.351,0,2.702,0,4.053c0,2.821,0,5.642,0,8.463
			c0,4.067,0,8.135,0,12.202c0,5.091,0,10.182,0,15.272c0,5.891,0,11.782,0,17.673c0,6.468,0,12.936,0,19.405
			c0,6.822,0,13.644,0,20.467c0,6.953,0,13.906,0,20.859c0,6.861,0,13.721,0,20.582c0,6.574,0,13.148,0,19.722
			c0,6.004,0,12.008,0,18.011c0,5.241,0,10.482,0,15.723c0,4.255,0,8.51,0,12.765c0,3.046,0,6.092,0,9.138c0,1.614,0,3.228,0,4.842
			c0,1.077,0.1,2.103,0.621,3.076c0.791,1.477,2.28,2.504,3.941,2.72c1.297,0.169,2.666,0.044,3.967,0.044c3.28,0,6.561,0,9.841,0
			c2.021,0,4.047,0.044,6.068,0c0.81-0.017,1.593-0.179,2.324-0.539c1.503-0.74,2.582-2.192,2.855-3.845
			c0.14-0.846,0.07-1.749,0.07-2.602c0-2.134,0-4.268,0-6.402c0-3.508,0-7.015,0-10.523c0-4.626,0-9.251,0-13.877
			c0-5.533,0-11.067,0-16.6c0-6.218,0-12.436,0-18.654c0-6.68,0-13.359,0-20.039c0-6.918,0-13.836,0-20.754
			c0-6.933,0-13.866,0-20.799c0-6.725,0-13.45,0-20.175c0-6.294,0-12.588,0-18.882c0-5.64,0-11.28,0-16.92c0-4.782,0-9.564,0-14.345
			c0-3.656,0-7.313,0-10.969c0-2.332,0-4.664,0-6.996C686.058,401.036,686.058,400.251,686.058,399.466z"/>
	</g>
	<g id="POLYLINE_744_">
		
			<path fill="none" stroke="#1B7FFF" stroke-width="2.75" stroke-linecap="round" stroke-linejoin="round" stroke-miterlimit="10" d="
			M823.915,567.113c-0.488,6.585-0.976,13.17-1.463,19.755c-0.615,8.303-1.23,16.606-1.845,24.909
			c-0.105,1.419-0.33,2.484-2.029,2.486c-1.118,0.001-2.237,0.005-3.355,0c-0.398-0.002-0.769,0.001-1.126-0.204
			c-0.533-0.307-0.715-0.813-0.778-1.388c-0.273-2.516-0.375-5.062-0.562-7.585c-0.357-4.816-0.713-9.631-1.07-14.447
			c-0.36-4.857-0.72-9.713-1.079-14.57c-0.135-1.821-0.27-3.642-0.405-5.463c-0.075-1.015-0.249-2.074-0.229-3.092
			c0.003-0.132-0.02-0.269-0.03-0.401C814.602,567.113,819.258,567.113,823.915,567.113z"/>
	</g>
	<g id="POLYLINE_743_">
		
			<path fill="none" stroke="#1B7FFF" stroke-width="2.75" stroke-linecap="round" stroke-linejoin="round" stroke-miterlimit="10" d="
			M853.245,451.169c-1.277-4.767-2.555-9.535-3.832-14.302c-2.264-8.449-4.528-16.898-6.792-25.348
			c-0.779-2.909-1.559-5.817-2.338-8.726c-0.322-1.201-0.575-2.466-1.11-3.594c-1.515-3.196-4.718-4.968-8.187-4.973
			c-7.387-0.01-14.775,0-22.162,0c-2.835,0-6.492-0.567-9.086,0.942c-1.85,1.076-2.619,3.097-2.766,5.147
			c-0.092,1.283-0.031,2.59-0.031,3.875c0,3.068,0,6.136,0,9.204c0,8.76,0,17.52,0,26.28c0,6.271,0,12.541,0,18.812
			c0,0.32,0,0.64,0,0.96"/>
	</g>
	<g id="POLYLINE_742_">
		
			<path fill="none" stroke="#1B7FFF" stroke-width="2.75" stroke-linecap="round" stroke-linejoin="round" stroke-miterlimit="10" d="
			M803.743,452.463c-2.909,0.081-5.526,2.015-6.446,4.778c-0.691,2.078-0.357,4.632-0.357,6.775c0,5.876,0,11.753,0,17.629
			c0,8.351,0,16.702,0,25.052c0,8.701,0,17.401,0,26.102c0,7.023,0,14.046,0,21.069c0,3.214-0.065,6.436,0,9.649
			c0.04,1.986,1.491,3.529,3.498,3.595c1.44,0.048,2.89,0,4.33,0c3.824,0,7.649,0,11.473,0c5.75,0,11.499,0,17.249,0
			c7.219,0,14.438,0,21.657,0c8.202,0,16.404,0,24.606,0c8.789,0,17.578,0,26.367,0c8.861,0,17.723,0,26.584,0
			c8.542,0,17.084,0,25.627,0c7.736,0,15.471,0,23.207,0c6.473,0,12.946,0,19.419,0c4.755,0,9.51,0,14.264,0
			c2.581,0,5.161,0,7.742,0c1.511,0,2.934-0.132,3.884-1.526c0.991-1.454,0.607-3.727,0.607-5.371c0-5.338,0-10.677,0-16.015
			c0-7.999,0-15.997,0-23.996c0-8.838,0-17.676,0-26.514c0-7.77,0-15.539,0-23.309c0-4.818,0-9.636,0-14.454
			c0-2.152,0.063-4.205-1.216-6.079c-1.382-2.025-3.674-3.085-6.095-3.042c-1.87,0.033-3.74,0.098-5.61,0.147
			c-4.239,0.111-8.477,0.222-12.716,0.332c-6.098,0.159-12.196,0.319-18.294,0.478c-7.518,0.196-15.035,0.393-22.553,0.589
			c-8.434,0.22-16.868,0.441-25.302,0.661c-8.865,0.232-17.731,0.463-26.596,0.695c-8.812,0.23-17.624,0.461-26.436,0.691
			c-8.246,0.215-16.493,0.431-24.739,0.646c-7.256,0.19-14.512,0.379-21.767,0.569c-5.75,0.15-11.5,0.301-17.25,0.451
			c-3.75,0.098-7.5,0.196-11.251,0.294C806.335,452.395,805.039,452.429,803.743,452.463z"/>
	</g>
	<g id="POLYLINE_741_">
		
			<path fill="none" stroke="#1B7FFF" stroke-width="2.75" stroke-linecap="round" stroke-linejoin="round" stroke-miterlimit="10" d="
			M1010.566,567.113c-0.488,6.585-0.976,13.17-1.463,19.755c-0.615,8.303-1.23,16.606-1.845,24.909
			c-0.105,1.419-0.33,2.484-2.029,2.486c-1.118,0.001-2.237,0.005-3.355,0c-0.398-0.002-0.769,0.001-1.126-0.204
			c-0.533-0.307-0.715-0.813-0.778-1.388c-0.273-2.516-0.375-5.062-0.562-7.585c-0.357-4.816-0.713-9.631-1.07-14.447
			c-0.36-4.857-0.72-9.713-1.079-14.57c-0.135-1.821-0.27-3.642-0.405-5.463c-0.075-1.015-0.249-2.074-0.229-3.092
			c0.003-0.132-0.02-0.269-0.03-0.401C1001.252,567.113,1005.909,567.113,1010.566,567.113z"/>
	</g>
	<g id="POLYLINE_737_">
		
			<path fill="none" stroke="#1B7FFF" stroke-width="2.75" stroke-linecap="round" stroke-linejoin="round" stroke-miterlimit="10" d="
			M1367.988,261.164c0-3.993,0-7.986,0-11.979c0-6.693,0-13.385,0-20.078c0-2.354,0-4.709,0-7.063c0-3.475,0-6.95,0-10.425
			c0-6.222,0-12.444,0-18.665c0-7.038,0-14.076,0-21.114c0-6.029,0-12.059,0-18.088c0-3.092-0.011-6.184,0-9.276
			c0.007-2.031,1.309-3.715,3.432-3.808c5.113-0.223,10.284-0.001,15.401-0.001c2.357,0,4.715-0.012,7.072,0
			c1.02,0.005,1.962,0.252,2.716,0.981c1.215,1.174,1.066,2.733,1.066,4.265c0,3.334,0,6.669,0,10.003c0,5.499,0,10.999,0,16.498
			c0,6.725,0,13.45,0,20.176c0,7.076,0,14.151,0,21.227c0,6.557,0,13.113,0,19.67c0,5.099,0,10.197,0,15.296
			c0,2.727,0,5.455,0,8.182c0,1.728-0.536,3.372-2.339,4.003c-0.793,0.278-1.69,0.196-2.518,0.196c-1.704,0-3.407,0-5.111,0
			c-2.826,0-5.652,0-8.478,0c-3.841,0-7.682,0-11.523,0c-4.69,0-9.381,0-14.071,0c-5.449,0-10.898,0-16.346,0
			c-6.027,0-12.055,0-18.082,0c-6.527,0-13.053,0-19.58,0c-6.837,0-13.673,0-20.51,0c-7.075,0-14.15,0-21.224,0
			c-7.118,0-14.237,0-21.355,0c-7.093,0-14.186,0-21.279,0c-6.873,0-13.746,0-20.619,0c-6.581,0-13.163,0-19.744,0
			c-6.126,0-12.251,0-18.377,0c-5.514,0-11.028,0-16.542,0c-4.799,0-9.598,0-14.398,0c-3.969,0-7.937,0-11.906,0
			c-2.982,0-5.964,0-8.946,0c-1.857,0-3.713,0-5.57,0c-0.618,0-1.235,0-1.853,0c-0.714,0-1.428,0-2.142,0c-1.956,0-3.913,0-5.869,0
			c-3.05,0-6.099,0-9.149,0c-4.037,0-8.075,0-12.112,0c-4.858,0-9.716,0-14.573,0c-5.589,0-11.177,0-16.766,0
			c-6.139,0-12.277,0-18.415,0c-6.61,0-13.22,0-19.831,0c-6.892,0-13.783,0-20.675,0c-7.102,0-14.204,0-21.306,0
			c-7.117,0-14.235,0-21.352,0c-7.064,0-14.127,0-21.191,0c-6.816,0-13.631,0-20.447,0c-6.496,0-12.991,0-19.487,0
			c-5.986,0-11.973,0-17.959,0c-5.398,0-10.796,0-16.193,0c-4.63,0-9.259,0-13.889,0c-3.77,0-7.54,0-11.31,0
			c-2.755,0-5.511,0-8.266,0c-1.603,0-3.206,0-4.809,0c-0.959,0-1.897,0.058-2.779-0.414c-1.624-0.87-1.843-2.456-1.843-4.097
			c0-2.955,0-5.909,0-8.864c0-5.221,0-10.442,0-15.663c0-6.63,0-13.259,0-19.889c0-7.08,0-14.161,0-21.241c0-6.69,0-13.379,0-20.069
			c0-5.341,0-10.681,0-16.022c0-3.135,0-6.27,0-9.405c0-1.587,0.009-3.141,1.459-4.179c0.872-0.625,1.826-0.653,2.85-0.653
			c2.697,0,5.395,0,8.092,0c3.344,0,6.687,0,10.031,0c1.401,0,2.94-0.184,4.333,0.047c2.066,0.342,2.922,2.134,2.922,4.032
			c0,3.377,0,6.754,0,10.131c0,6.174,0,12.347,0,18.521c0,7.04,0,14.079,0,21.119c0,6.082,0,12.163,0,18.245
			c0,3.194,0,6.388,0,9.581c0,2.68,0,5.36,0,8.04c0,6.789,0,13.578,0,20.368c0,3.471,0,6.942,0,10.413"/>
	</g>
	<g id="POLYLINE_736_">
		
			<path fill="none" stroke="#1B7FFF" stroke-width="2.75" stroke-linecap="round" stroke-linejoin="round" stroke-miterlimit="10" d="
			M834.393,261.164c0.488,6.585,0.976,13.17,1.463,19.755c0.615,8.303,1.23,16.606,1.845,24.909c0.105,1.419,0.33,2.484,2.029,2.486
			c1.118,0.001,2.237,0.005,3.355,0c0.398-0.002,0.769,0.001,1.126-0.204c0.533-0.307,0.715-0.813,0.778-1.388
			c0.273-2.516,0.375-5.062,0.562-7.585c0.357-4.816,0.713-9.631,1.07-14.447c0.36-4.857,0.719-9.713,1.079-14.57
			c0.135-1.821,0.27-3.642,0.405-5.463c0.075-1.015,0.249-2.074,0.229-3.092c-0.003-0.132,0.02-0.269,0.03-0.401
			C843.707,261.164,839.05,261.164,834.393,261.164z"/>
	</g>
	<g id="POLYLINE_735_">
		
			<path fill="none" stroke="#1B7FFF" stroke-width="2.75" stroke-linecap="round" stroke-linejoin="round" stroke-miterlimit="10" d="
			M1360.223,261.164c-0.488,6.585-0.976,13.17-1.463,19.755c-0.615,8.303-1.23,16.606-1.845,24.909
			c-0.105,1.419-0.33,2.484-2.029,2.486c-1.118,0.001-2.237,0.005-3.355,0c-0.398-0.002-0.769,0.001-1.126-0.204
			c-0.533-0.307-0.715-0.813-0.778-1.388c-0.273-2.516-0.375-5.062-0.562-7.585c-0.357-4.816-0.713-9.631-1.07-14.447
			c-0.36-4.857-0.72-9.713-1.079-14.57c-0.135-1.821-0.27-3.642-0.405-5.463c-0.075-1.015-0.249-2.074-0.229-3.092
			c0.003-0.132-0.02-0.269-0.03-0.401C1350.91,261.164,1355.566,261.164,1360.223,261.164z"/>
	</g>
	<g id="POLYLINE_734_">
		
			<path fill="none" stroke="#1B7FFF" stroke-width="2.75" stroke-linecap="round" stroke-linejoin="round" stroke-miterlimit="10" d="
			M1367.988,144.161c0-4.424,0-8.847,0-13.271c0-8.037,0-16.075,0-24.112c0-2.913,0-5.826,0-8.739c0-1.234,0.059-2.49-0.035-3.723
			c-0.141-1.858-0.789-3.726-2.364-4.84c-1.396-0.988-3.137-1.193-4.802-1.198c-1.534-0.005-3.068,0-4.603,0
			c-3.312,0-6.624,0-9.936,0c-4.823,0-9.646,0-14.469,0c-6.09,0-12.181,0-18.271,0c-7.07,0-14.14,0-21.21,0
			c-7.748,0-15.495,0-23.243,0c-8.181,0-16.363,0-24.544,0c-8.378,0-16.756,0-25.134,0c-8.272,0-16.544,0-24.817,0
			c-7.866,0-15.732,0-23.598,0c-7.222,0-14.445,0-21.667,0c-6.332,0-12.664,0-18.996,0c-5.141,0-10.281,0-15.422,0
			c-3.667,0-7.334,0-11.001,0c-1.95,0-3.9,0-5.85,0c-0.519,0-1.039,0-1.558,0c-2.02,0-4.041,0-6.061,0c-3.727,0-7.454,0-11.181,0
			c-5.191,0-10.381,0-15.572,0c-6.346,0-12.691,0-19.037,0c-7.278,0-14.555,0-21.833,0c-7.885,0-15.77,0-23.655,0
			c-8.281,0-16.562,0-24.843,0c-8.377,0-16.753,0-25.13,0c-8.17,0-16.34,0-24.509,0c-7.726,0-15.452,0-23.178,0
			c-7.038,0-14.076,0-21.114,0c-6.048,0-12.096,0-18.144,0c-4.771,0-9.541,0-14.312,0c-3.249,0-6.499,0-9.748,0
			c-1.461,0-2.923-0.006-4.384,0c-1.708,0.007-3.505,0.243-4.902,1.313c-1.589,1.218-2.151,3.215-2.23,5.137
			c-0.176,4.279-0.011,8.595-0.011,12.876c0,8.044,0,16.087,0,24.131c0,4.142,0,8.283,0,12.425"/>
	</g>
	<g id="POLYLINE_722_">
		
			<path fill="none" stroke="#1B7FFF" stroke-width="2.75" stroke-linecap="round" stroke-linejoin="round" stroke-miterlimit="10" d="
			M88.816,261.164c-1.577-0.001-2.993-1.099-3.384-2.628c-0.196-0.765-0.109-1.635-0.109-2.417c0-4.916,0-9.832,0-14.748
			c0-8.355,0-16.71,0-25.064c0-9.555,0-19.109,0-28.664c0-8.523,0-17.046,0-25.569c0-5.26,0-10.521,0-15.781
			c0-0.767-0.045-1.548,0.005-2.314c0.102-1.576,1.238-2.929,2.799-3.243c0.653-0.131,1.36-0.069,2.02-0.069c1.775,0,3.55,0,5.324,0
			c4.437,0,8.874,0,13.311,0c1.565,0,3.471-0.311,4.817,0.688c1.012,0.752,1.404,1.875,1.411,3.093c0.025,4.972,0,9.944,0,14.916
			c0,9.072,0,18.144,0,27.217c0,8.616,0,17.233,0,25.849c0,2.637,0,5.274,0,7.911c0,0.344-0.239,2.17,0.021,2.403
			c0.157,0.14,1.09,0,1.288,0c1.067,0,2.134,0,3.202,0c3.832,0,7.663,0,11.495,0c5.773,0,11.546,0,17.319,0
			c7.321,0,14.642,0,21.963,0c8.447,0,16.893,0,25.34,0c9.266,0,18.532,0,27.798,0c9.573,0,19.146,0,28.719,0
			c9.61,0,19.221,0,28.831,0c9.131,0,18.261,0,27.392,0c8.35,0,16.7,0,25.05,0c7.145,0,14.29,0,21.435,0c5.547,0,11.093,0,16.64,0
			c3.555,0,7.11,0,10.665,0c1.178,0,2.355,0,3.533,0c1.455,0,2.911,0,4.366,0c3.781,0,7.561,0,11.342,0c5.76,0,11.521,0,17.281,0
			c7.273,0,14.546,0,21.819,0c8.457,0,16.914,0,25.371,0c9.226,0,18.451,0,27.677,0c9.601,0,19.202,0,28.803,0
			c9.583,0,19.166,0,28.749,0c9.143,0,18.285,0,27.428,0c8.396,0,16.791,0,25.187,0c7.147,0,14.294,0,21.441,0
			c5.597,0,11.195,0,16.792,0c3.583,0,7.165,0,10.748,0c1.222,0,2.444,0,3.666,0c0,0,0-12.678,0-13.4c0-9.579,0-19.158,0-28.737
			c0-9.059,0-18.118,0-27.177c0-2.57,0-5.139,0-7.709c0-1.107-0.118-2.258,0.443-3.263c0.825-1.478,2.274-1.79,3.828-1.79
			c4.214,0,8.429,0,12.643,0c3.119,0,6.286-0.163,9.401,0.002c1.699,0.09,3.139,1.36,3.347,3.07
			c0.104,0.854,0.026,1.755,0.026,2.611c0,2.269,0,4.538,0,6.807c0,7.896,0,15.791,0,23.687c0,10.014,0,20.028,0,30.042
			c0,9.545,0,19.09,0,28.636c0,6.271,0,12.542,0,18.813c0,2.374,0.52,5.606-2.311,6.624c-1.285,0.462-3.013,0.206-4.34,0.206
			c-3.538,0-7.075,0-10.613,0c-5.669,0-11.338,0-17.007,0c-7.344,0-14.688,0-22.031,0c-8.712,0-17.424,0-26.136,0
			c-9.579,0-19.159,0-28.738,0c-10.168,0-20.335,0-30.503,0c-10.237,0-20.474,0-30.711,0c-10.036,0-20.071,0-30.107,0
			c-9.345,0-18.689,0-28.034,0c-8.289,0-16.578,0-24.867,0c-6.856,0-13.712,0-20.569,0c-4.973,0-9.945,0-14.918,0
			c-2.753,0-5.506,0-8.259,0c-0.698,0-1.395,0-2.093,0c-2.541,0-5.081,0-7.622,0c-4.796,0-9.591,0-14.387,0
			c-6.712,0-13.424,0-20.137,0c-8.18,0-16.359,0-24.539,0c-9.269,0-18.538,0-27.807,0c-9.963,0-19.926,0-29.889,0
			c-10.261,0-20.523,0-30.784,0c-10.195,0-20.389,0-30.584,0c-9.64,0-19.28,0-28.921,0c-8.807,0-17.615,0-26.422,0
			c-7.473,0-14.945,0-22.418,0c-5.833,0-11.665,0-17.498,0c-3.735,0-7.47,0-11.205,0C91.345,261.164,90.08,261.164,88.816,261.164z"
			/>
	</g>
	<g id="POLYLINE_721_">
		
			<path fill="none" stroke="#1B7FFF" stroke-width="2.75" stroke-linecap="round" stroke-linejoin="round" stroke-miterlimit="10" d="
			M656.371,144.161c0-4.424,0-8.847,0-13.271c0-8.037,0-16.075,0-24.112c0-2.913,0-5.826,0-8.739c0-1.234,0.059-2.49-0.035-3.723
			c-0.141-1.858-0.789-3.726-2.364-4.84c-1.396-0.988-3.137-1.193-4.802-1.198c-1.534-0.005-3.068,0-4.603,0
			c-3.312,0-6.624,0-9.936,0c-4.823,0-9.646,0-14.469,0c-6.09,0-12.18,0-18.271,0c-7.07,0-14.14,0-21.21,0
			c-7.748,0-15.495,0-23.243,0c-8.181,0-16.363,0-24.544,0c-8.378,0-16.756,0-25.134,0c-8.272,0-16.544,0-24.817,0
			c-7.866,0-15.732,0-23.598,0c-7.222,0-14.445,0-21.667,0c-6.332,0-12.664,0-18.996,0c-5.141,0-10.282,0-15.422,0
			c-3.667,0-7.334,0-11.001,0c-1.95,0-3.9,0-5.85,0c-0.52,0-1.039,0-1.559,0c-2.02,0-4.041,0-6.061,0c-3.727,0-7.454,0-11.181,0
			c-5.191,0-10.381,0-15.572,0c-6.346,0-12.691,0-19.037,0c-7.278,0-14.555,0-21.833,0c-7.885,0-15.77,0-23.655,0
			c-8.281,0-16.562,0-24.843,0c-8.377,0-16.753,0-25.13,0c-8.17,0-16.34,0-24.509,0c-7.726,0-15.452,0-23.178,0
			c-7.038,0-14.076,0-21.114,0c-6.048,0-12.096,0-18.144,0c-4.771,0-9.541,0-14.312,0c-3.249,0-6.499,0-9.748,0
			c-1.461,0-2.923-0.006-4.384,0c-1.708,0.007-3.506,0.243-4.902,1.313c-1.589,1.218-2.151,3.215-2.23,5.137
			c-0.176,4.279-0.011,8.595-0.011,12.876c0,8.044,0,16.087,0,24.131c0,4.142,0,8.283,0,12.425"/>
	</g>
	<g id="POLYLINE_720_">
		
			<path fill="none" stroke="#1B7FFF" stroke-width="2.75" stroke-linecap="round" stroke-linejoin="round" stroke-miterlimit="10" d="
			M656.371,187.819c0-1.445-0.481-2.837-1.414-3.947c-1.7-2.022-4.422-2.982-6.908-3.589c-4.116-1.006-8.415-1.181-12.635-1.195
			c-0.816-0.003-1.632,0-2.448,0c-2.252,0-4.503,0-6.755,0c-3.502,0-7.004,0-10.506,0c-4.59,0-9.179,0-13.769,0
			c-5.45,0-10.9,0-16.35,0c-6.143,0-12.287,0-18.43,0c-6.682,0-13.363,0-20.045,0c-6.974,0-13.949,0-20.923,0
			c-7.11,0-14.221,0-21.331,0c-7.092,0-14.184,0-21.276,0c-6.825,0-13.649,0-20.474,0c-6.431,0-12.861,0-19.292,0
			c-5.794,0-11.587,0-17.381,0c-5.001,0-10.001,0-15.002,0c-4.038,0-8.075,0-12.113,0c-2.853,0-5.706,0-8.558,0
			c-1.503,0-3.005,0-4.508,0c-0.403,0-0.805,0-1.208,0c-1.554,0-3.108,0-4.661,0c-2.913,0-5.826,0-8.739,0c-4.06,0-8.12,0-12.181,0
			c-5.032,0-10.064,0-15.096,0c-5.846,0-11.691,0-17.537,0c-6.422,0-12.843,0-19.265,0c-6.836,0-13.672,0-20.508,0
			c-7.097,0-14.194,0-21.291,0c-7.109,0-14.218,0-21.326,0c-6.966,0-13.932,0-20.899,0c-6.667,0-13.333,0-20,0
			c-6.122,0-12.244,0-18.366,0c-5.422,0-10.844,0-16.266,0c-4.555,0-9.109,0-13.664,0c-3.461,0-6.922,0-10.383,0
			c-2.204,0-4.408,0-6.612,0c-0.799,0-1.598-0.002-2.397,0.001c-4.317,0.017-8.733,0.201-12.929,1.297
			c-2.394,0.625-4.995,1.609-6.594,3.601c-0.876,1.091-1.32,2.44-1.32,3.833"/>
	</g>
	<g id="POLYLINE_719_">
		
			<path fill="none" stroke="#1B7FFF" stroke-width="2.75" stroke-linecap="round" stroke-linejoin="round" stroke-miterlimit="10" d="
			M608.638,140.668c0.001-2.451,3.213-3.536,4.701-1.591c1.42,1.856-0.244,4.584-2.546,4.169
			C609.562,143.024,608.638,141.918,608.638,140.668z"/>
	</g>
	<g id="POLYLINE_718_">
		
			<path fill="none" stroke="#1B7FFF" stroke-width="2.75" stroke-linecap="round" stroke-linejoin="round" stroke-miterlimit="10" d="
			M563.525,140.668c0.001-2.451,3.213-3.536,4.701-1.591c1.42,1.856-0.244,4.584-2.546,4.169
			C564.448,143.024,563.525,141.918,563.525,140.668z"/>
	</g>
	<g id="POLYLINE_717_">
		
			<path fill="none" stroke="#1B7FFF" stroke-width="2.75" stroke-linecap="round" stroke-linejoin="round" stroke-miterlimit="10" d="
			M518.411,140.668c0.001-2.451,3.213-3.536,4.701-1.591c1.42,1.856-0.244,4.584-2.546,4.169
			C519.335,143.024,518.411,141.918,518.411,140.668z"/>
	</g>
	<g id="POLYLINE_716_">
		
			<path fill="none" stroke="#1B7FFF" stroke-width="2.75" stroke-linecap="round" stroke-linejoin="round" stroke-miterlimit="10" d="
			M473.298,140.668c0.001-2.451,3.213-3.536,4.701-1.591c1.42,1.856-0.244,4.584-2.546,4.169
			C474.222,143.024,473.298,141.918,473.298,140.668z"/>
	</g>
	<g id="POLYLINE_715_">
		
			<path fill="none" stroke="#1B7FFF" stroke-width="2.75" stroke-linecap="round" stroke-linejoin="round" stroke-miterlimit="10" d="
			M428.184,140.668c0.001-2.451,3.213-3.536,4.701-1.591c1.42,1.856-0.244,4.584-2.546,4.169
			C429.108,143.024,428.185,141.918,428.184,140.668z"/>
	</g>
	<g id="POLYLINE_714_">
		
			<path fill="none" stroke="#1B7FFF" stroke-width="2.75" stroke-linecap="round" stroke-linejoin="round" stroke-miterlimit="10" d="
			M656.371,214.014c0,1.662-0.647,3.217-1.823,4.391c-2.69,2.684-7.036,3.437-10.639,3.883c-2.819,0.349-5.656,0.439-8.494,0.458"/>
	</g>
	<g id="POLYLINE_713_">
		
			<line fill="none" stroke="#1B7FFF" stroke-width="2.75" stroke-linecap="round" stroke-linejoin="round" stroke-miterlimit="10" x1="656.371" y1="222.745" x2="656.371" y2="261.164"/>
	</g>
	<g id="POLYLINE_712_">
		
			<path fill="none" stroke="#1B7FFF" stroke-width="2.75" stroke-linecap="round" stroke-linejoin="round" stroke-miterlimit="10" d="
			M648.606,261.164c-0.488,6.585-0.976,13.17-1.463,19.755c-0.615,8.303-1.23,16.606-1.845,24.909
			c-0.105,1.419-0.33,2.484-2.029,2.486c-1.118,0.001-2.237,0.005-3.355,0c-0.398-0.002-0.769,0.001-1.126-0.204
			c-0.533-0.307-0.715-0.813-0.778-1.388c-0.273-2.516-0.375-5.062-0.562-7.585c-0.357-4.816-0.713-9.631-1.07-14.447
			c-0.36-4.857-0.72-9.713-1.079-14.57c-0.135-1.821-0.27-3.642-0.405-5.463c-0.075-1.015-0.249-2.074-0.229-3.092
			c0.003-0.132-0.02-0.269-0.03-0.401C639.292,261.164,643.949,261.164,648.606,261.164z"/>
	</g>
	<g id="POLYLINE_710_">
		
			<path fill="none" stroke="#1B7FFF" stroke-width="2.75" stroke-linecap="round" stroke-linejoin="round" stroke-miterlimit="10" d="
			M122.776,261.164c0.488,6.585,0.976,13.17,1.463,19.755c0.615,8.303,1.23,16.606,1.845,24.909c0.105,1.419,0.33,2.484,2.029,2.486
			c1.118,0.001,2.237,0.005,3.355,0c0.398-0.002,0.769,0.001,1.126-0.204c0.533-0.307,0.715-0.813,0.778-1.388
			c0.273-2.516,0.375-5.062,0.562-7.585c0.357-4.816,0.713-9.631,1.07-14.447c0.36-4.857,0.72-9.713,1.079-14.57
			c0.135-1.821,0.27-3.642,0.405-5.463c0.075-1.015,0.249-2.074,0.229-3.092c-0.003-0.132,0.02-0.269,0.03-0.401
			C132.089,261.164,127.433,261.164,122.776,261.164z"/>
	</g>
	<g id="POLYLINE_709_">
		
			<line fill="none" stroke="#1B7FFF" stroke-width="2.75" stroke-linecap="round" stroke-linejoin="round" stroke-miterlimit="10" x1="115.01" y1="222.745" x2="115.01" y2="261.164"/>
	</g>
	<g id="POLYLINE_706_">
		
			<path fill="none" stroke="#1B7FFF" stroke-width="2.75" stroke-linecap="round" stroke-linejoin="round" stroke-miterlimit="10" d="
			M115.01,214.014c0,1.662,0.647,3.217,1.823,4.391c2.69,2.684,7.036,3.437,10.639,3.883c2.819,0.349,5.656,0.439,8.494,0.458"/>
	</g>
	<g id="POLYLINE_703_">
		
			<path fill="none" stroke="#1B7FFF" stroke-width="2.75" stroke-linecap="round" stroke-linejoin="round" stroke-miterlimit="10" d="
			M388.31,140.668c-0.001-2.451-3.213-3.536-4.701-1.591c-1.42,1.856,0.244,4.584,2.546,4.169
			C387.386,143.024,388.31,141.918,388.31,140.668z"/>
	</g>
	<g id="POLYLINE_702_">
		
			<path fill="none" stroke="#1B7FFF" stroke-width="2.75" stroke-linecap="round" stroke-linejoin="round" stroke-miterlimit="10" d="
			M343.197,140.668c-0.001-2.451-3.213-3.536-4.701-1.591c-1.42,1.856,0.244,4.584,2.546,4.169
			C342.273,143.024,343.196,141.918,343.197,140.668z"/>
	</g>
	<g id="POLYLINE_701_">
		
			<path fill="none" stroke="#1B7FFF" stroke-width="2.75" stroke-linecap="round" stroke-linejoin="round" stroke-miterlimit="10" d="
			M298.083,140.668c-0.001-2.451-3.213-3.536-4.701-1.591c-1.42,1.856,0.244,4.584,2.546,4.169
			C297.16,143.024,298.083,141.918,298.083,140.668z"/>
	</g>
	<g id="POLYLINE_700_">
		
			<path fill="none" stroke="#1B7FFF" stroke-width="2.75" stroke-linecap="round" stroke-linejoin="round" stroke-miterlimit="10" d="
			M252.97,140.668c-0.001-2.451-3.213-3.536-4.701-1.591c-1.42,1.856,0.244,4.584,2.546,4.169
			C252.046,143.024,252.97,141.918,252.97,140.668z"/>
	</g>
	<g id="POLYLINE_699_">
		
			<path fill="none" stroke="#1B7FFF" stroke-width="2.75" stroke-linecap="round" stroke-linejoin="round" stroke-miterlimit="10" d="
			M207.857,140.668c-0.001-2.451-3.213-3.536-4.701-1.591c-1.42,1.856,0.244,4.584,2.546,4.169
			C206.933,143.024,207.856,141.918,207.857,140.668z"/>
	</g>
	<g id="POLYLINE_698_">
		
			<path fill="none" stroke="#1B7FFF" stroke-width="2.75" stroke-linecap="round" stroke-linejoin="round" stroke-miterlimit="10" d="
			M162.743,140.668c-0.001-2.451-3.213-3.536-4.701-1.591c-1.42,1.856,0.244,4.584,2.546,4.169
			C161.82,143.024,162.743,141.918,162.743,140.668z"/>
	</g>
	<g id="POLYLINE_697_">
		
			<path fill="none" stroke="#1B7FFF" stroke-width="2.75" stroke-linecap="round" stroke-linejoin="round" stroke-miterlimit="10" d="
			M85.323,399.466c0.001-1.675,0.826-3.284,2.189-4.26c1.781-1.275,3.983-0.979,6.052-0.979c5.386,0,10.784-0.104,16.169,0
			c1.64,0.032,3.179,0.73,4.191,2.044c0.778,1.011,1.081,2.196,1.087,3.452c0.007,1.351,0,2.702,0,4.053c0,2.821,0,5.642,0,8.463
			c0,4.067,0,8.135,0,12.202c0,5.091,0,10.182,0,15.272c0,5.891,0,11.782,0,17.673c0,6.468,0,12.936,0,19.405
			c0,6.822,0,13.644,0,20.467c0,6.953,0,13.906,0,20.859c0,6.861,0,13.721,0,20.582c0,6.574,0,13.148,0,19.722
			c0,6.004,0,12.008,0,18.011c0,5.241,0,10.482,0,15.723c0,4.255,0,8.51,0,12.765c0,3.046,0,6.092,0,9.138c0,1.614,0,3.228,0,4.842
			c0,1.077-0.1,2.103-0.621,3.076c-0.791,1.477-2.28,2.504-3.941,2.72c-1.297,0.169-2.666,0.044-3.967,0.044
			c-3.28,0-6.561,0-9.841,0c-2.021,0-4.047,0.044-6.068,0c-0.81-0.017-1.593-0.179-2.324-0.539c-1.503-0.74-2.582-2.192-2.855-3.845
			c-0.14-0.846-0.07-1.749-0.07-2.602c0-2.134,0-4.268,0-6.402c0-3.508,0-7.015,0-10.523c0-4.626,0-9.251,0-13.877
			c0-5.533,0-11.067,0-16.6c0-6.218,0-12.436,0-18.654c0-6.68,0-13.359,0-20.039c0-6.918,0-13.836,0-20.754
			c0-6.933,0-13.866,0-20.799c0-6.725,0-13.45,0-20.175c0-6.294,0-12.588,0-18.882c0-5.64,0-11.28,0-16.92c0-4.782,0-9.564,0-14.345
			c0-3.656,0-7.313,0-10.969c0-2.332,0-4.664,0-6.996C85.323,401.036,85.323,400.251,85.323,399.466z"/>
	</g>
</g>
<g id="AG-OUTLINE">
	<g id="POLYLINE_641_">
		
			<path fill="none" stroke="#1B7FFF" stroke-width="3.25" stroke-linecap="round" stroke-linejoin="round" stroke-miterlimit="10" d="
			M122.776,261.164c0.553,7.464,1.106,14.928,1.659,22.392c0.388,5.242,0.777,10.484,1.165,15.726
			c0.186,2.507,0.203,5.096,0.562,7.586c0.112,0.777,0.602,1.334,1.4,1.441c0.766,0.103,1.597,0.006,2.371,0.006
			c0.736,0,1.636,0.154,2.353-0.069c1.53-0.477,1.2-3.062,1.289-4.261c0.735-9.924,1.47-19.847,2.205-29.771
			c0.286-3.86,0.572-7.719,0.858-11.579c0.016-0.216-0.059-1.318,0.112-1.47c0.039-0.035,0.196,0.015,0.246,0
			c0.445-0.133,1.14,0,1.6,0c1.021,0,2.043,0,3.064,0c3.378,0,6.756,0,10.134,0c4.997,0,9.994,0,14.991,0c6.436,0,12.873,0,19.309,0
			c7.713,0,15.425,0,23.138,0c8.785,0,17.569,0,26.354,0c9.669,0,19.337,0,29.006,0c10.365,0,20.729,0,31.094,0
			c10.872,0,21.745,0,32.617,0c11.192,0,22.385,0,33.577,0c11.293,0,22.585,0,33.878,0c11.237,0,22.474,0,33.711,0
			c11.026,0,22.051,0,33.077,0c10.594,0,21.189,0,31.783,0c9.975,0,19.95,0,29.925,0c9.168,0,18.336,0,27.504,0
			c8.172,0,16.345,0,24.518,0c6.989,0,13.978,0,20.967,0c5.618,0,11.235,0,16.853,0c4.049,0,8.099,0,12.148,0
			c2.312,0,4.624,0,6.936,0c0.286,0,1.089-0.149,1.344,0c0.415,0.243,0.283,2.325,0.321,2.831
			c0.733,9.892,1.466,19.785,2.198,29.677c0.29,3.917,0.58,7.834,0.87,11.751c0.041,0.551,0.007,1.179,0.148,1.719
			c0.312,1.193,1.419,1.172,2.429,1.172c1.891,0,4.573,0.656,4.76-1.856c0.241-3.255,0.482-6.511,0.724-9.767
			c0.759-10.241,1.517-20.482,2.276-30.723c0.099-1.334,0.198-2.669,0.297-4.003c0.045-0.604-0.117-0.721,0.406-0.802
			c1.3-0.199,2.789,0,4.101,0c2.406,0,4.811,0,7.217,0c5.333,0,10.667,0,16,0c1.732,0,3.465,0,5.197,0
			c0.57,0,1.17,0.046,1.735-0.058c2.913-0.539,2.857-3.3,2.857-5.596c0-6.56,0-13.121,0-19.681c0-10.531,0-21.062,0-31.592
			c0-10.884,0-21.767,0-32.651c0-7.628,0-15.256,0-22.885c0-1.463,0.023-2.927,0-4.39c-0.019-1.209-0.482-2.316-1.507-3.024
			c-1.34-0.926-3.196-0.619-4.721-0.619c-5.177,0-10.355,0-15.532,0c-1.434,0-2.871-0.027-4.304,0
			c-0.535,0.01-1.042,0.078-1.537,0.296c-1.256,0.552-2.086,1.828-2.087,3.197c0,0,0-12.521,0-13.271c0-8.037,0-16.075,0-24.112
			c0-2.913,0-5.826,0-8.739c0-1.234,0.059-2.49-0.035-3.723c-0.141-1.858-0.789-3.726-2.364-4.84
			c-1.396-0.988-3.137-1.193-4.802-1.198c-1.534-0.005-3.068,0-4.603,0c-3.312,0-6.624,0-9.936,0c-4.823,0-9.646,0-14.469,0
			c-6.09,0-12.18,0-18.271,0c-7.07,0-14.14,0-21.21,0c-7.748,0-15.495,0-23.243,0c-8.181,0-16.363,0-24.544,0
			c-8.378,0-16.756,0-25.134,0c-8.272,0-16.544,0-24.817,0c-7.866,0-15.732,0-23.598,0c-7.222,0-14.445,0-21.667,0
			c-6.332,0-12.664,0-18.996,0c-5.141,0-10.282,0-15.422,0c-3.667,0-7.334,0-11.001,0c-1.95,0-3.9,0-5.85,0c-0.52,0-1.039,0-1.559,0
			c-2.02,0-4.041,0-6.061,0c-3.727,0-7.454,0-11.181,0c-5.191,0-10.381,0-15.572,0c-6.346,0-12.691,0-19.037,0
			c-7.278,0-14.555,0-21.833,0c-7.885,0-15.77,0-23.655,0c-8.281,0-16.562,0-24.843,0c-8.377,0-16.753,0-25.13,0
			c-8.17,0-16.34,0-24.509,0c-7.726,0-15.452,0-23.178,0c-7.038,0-14.076,0-21.114,0c-6.048,0-12.096,0-18.144,0
			c-4.771,0-9.541,0-14.312,0c-3.249,0-6.499,0-9.748,0c-1.461,0-2.923-0.006-4.384,0c-1.708,0.007-3.506,0.243-4.902,1.313
			c-1.589,1.218-2.151,3.215-2.23,5.137c-0.176,4.279-0.011,8.595-0.011,12.876c0,8.044,0,16.087,0,24.131c0,4.142,0,8.283,0,12.425
			c0-1.339-0.793-2.59-2.007-3.161c-1.495-0.703-3.609-0.332-5.176-0.332c-4.885,0-9.769,0-14.654,0c-1.397,0-2.796-0.02-4.194,0
			c-0.516,0.008-1.007,0.063-1.49,0.261c-2.465,1.011-2.167,3.553-2.167,5.717c0,6.148,0,12.295,0,18.443c0,9.638,0,19.275,0,28.913
			c0,10.328,0,20.657,0,30.985c0,8.039,0,16.078,0,24.116c0,2.245,0,4.49,0,6.735c0,0.8-0.089,1.673,0.058,2.467
			c0.689,3.724,5.334,2.857,8.015,2.857c9.101,0,18.201,0,27.302,0C121.39,261.164,122.083,261.164,122.776,261.164z"/>
	</g>
	<g id="POLYLINE_640_">
		
			<path fill="none" stroke="#1B7FFF" stroke-width="3.25" stroke-linecap="round" stroke-linejoin="round" stroke-miterlimit="10" d="
			M834.393,261.164c0.553,7.464,1.106,14.928,1.659,22.392c0.388,5.242,0.777,10.484,1.165,15.726
			c0.186,2.507,0.203,5.096,0.562,7.586c0.112,0.777,0.602,1.334,1.4,1.441c0.766,0.103,1.596,0.006,2.371,0.006
			c0.736,0,1.636,0.154,2.353-0.069c1.53-0.477,1.201-3.062,1.289-4.261c0.735-9.924,1.47-19.847,2.205-29.771
			c0.286-3.86,0.572-7.719,0.858-11.579c0.016-0.216-0.059-1.318,0.112-1.47c0.039-0.035,0.196,0.015,0.246,0
			c0.445-0.133,1.14,0,1.6,0c1.021,0,2.043,0,3.064,0c3.378,0,6.756,0,10.134,0c4.997,0,9.994,0,14.991,0c6.436,0,12.873,0,19.309,0
			c7.713,0,15.425,0,23.138,0c8.785,0,17.569,0,26.354,0c9.669,0,19.337,0,29.006,0c10.365,0,20.729,0,31.094,0
			c10.872,0,21.745,0,32.617,0c11.192,0,22.385,0,33.577,0c11.293,0,22.585,0,33.878,0c11.237,0,22.474,0,33.712,0
			c11.026,0,22.051,0,33.077,0c10.594,0,21.189,0,31.783,0c9.975,0,19.95,0,29.925,0c9.168,0,18.336,0,27.504,0
			c8.172,0,16.345,0,24.517,0c6.989,0,13.978,0,20.967,0c5.618,0,11.235,0,16.853,0c4.049,0,8.099,0,12.148,0
			c2.312,0,4.624,0,6.936,0c0.286,0,1.089-0.149,1.344,0c0.415,0.243,0.283,2.325,0.321,2.831
			c0.733,9.892,1.466,19.785,2.198,29.677c0.29,3.917,0.58,7.834,0.87,11.751c0.041,0.551,0.007,1.179,0.148,1.719
			c0.312,1.193,1.419,1.172,2.429,1.172c1.891,0,4.573,0.656,4.76-1.856c0.241-3.255,0.482-6.511,0.724-9.767
			c0.759-10.241,1.517-20.482,2.276-30.723c0.099-1.334,0.198-2.669,0.297-4.003c0.045-0.604-0.117-0.721,0.406-0.802
			c1.3-0.199,2.789,0,4.101,0c2.406,0,4.811,0,7.217,0c5.333,0,10.667,0,16,0c1.732,0,3.465,0,5.197,0
			c0.57,0,1.17,0.046,1.735-0.058c2.913-0.539,2.857-3.3,2.857-5.596c0-6.56,0-13.121,0-19.681c0-10.531,0-21.062,0-31.592
			c0-10.884,0-21.767,0-32.651c0-7.628,0-15.256,0-22.885c0-1.463,0.023-2.927,0-4.39c-0.019-1.209-0.482-2.316-1.507-3.024
			c-1.34-0.926-3.196-0.619-4.721-0.619c-5.177,0-10.355,0-15.532,0c-1.434,0-2.871-0.027-4.304,0
			c-0.535,0.01-1.042,0.078-1.537,0.296c-1.256,0.552-2.086,1.828-2.087,3.197c0-4.424,0-8.847,0-13.271c0-8.037,0-16.075,0-24.112
			c0-2.913,0-5.826,0-8.739c0-1.234,0.059-2.49-0.035-3.723c-0.141-1.858-0.789-3.726-2.364-4.84
			c-1.396-0.988-3.137-1.193-4.802-1.198c-1.534-0.005-3.068,0-4.603,0c-3.312,0-6.624,0-9.936,0c-4.823,0-9.646,0-14.469,0
			c-6.09,0-12.181,0-18.271,0c-7.07,0-14.14,0-21.21,0c-7.748,0-15.495,0-23.243,0c-8.181,0-16.363,0-24.544,0
			c-8.378,0-16.756,0-25.134,0c-8.272,0-16.544,0-24.817,0c-7.866,0-15.732,0-23.598,0c-7.222,0-14.445,0-21.667,0
			c-6.332,0-12.664,0-18.996,0c-5.141,0-10.281,0-15.422,0c-3.667,0-7.334,0-11.001,0c-1.95,0-3.9,0-5.85,0
			c-0.519,0-1.039,0-1.558,0c-2.02,0-4.041,0-6.061,0c-3.727,0-7.454,0-11.181,0c-5.191,0-10.381,0-15.572,0
			c-6.346,0-12.691,0-19.037,0c-7.278,0-14.555,0-21.833,0c-7.885,0-15.77,0-23.655,0c-8.281,0-16.562,0-24.843,0
			c-8.377,0-16.753,0-25.13,0c-8.17,0-16.34,0-24.509,0c-7.726,0-15.452,0-23.178,0c-7.038,0-14.076,0-21.114,0
			c-6.048,0-12.096,0-18.144,0c-4.771,0-9.541,0-14.312,0c-3.249,0-6.499,0-9.748,0c-1.461,0-2.923-0.006-4.384,0
			c-1.708,0.007-3.505,0.243-4.902,1.313c-1.589,1.218-2.151,3.215-2.23,5.137c-0.176,4.279-0.011,8.595-0.011,12.876
			c0,8.044,0,16.087,0,24.131c0,4.142,0,8.283,0,12.425c0-1.339-0.793-2.59-2.007-3.161c-1.495-0.703-3.609-0.332-5.176-0.332
			c-4.885,0-9.769,0-14.654,0c-1.397,0-2.797-0.02-4.194,0c-0.516,0.008-1.007,0.063-1.49,0.261
			c-2.465,1.011-2.167,3.553-2.167,5.717c0,6.148,0,12.295,0,18.443c0,9.638,0,19.275,0,28.913c0,10.328,0,20.657,0,30.985
			c0,8.039,0,16.078,0,24.116c0,2.245,0,4.49,0,6.735c0,0.8-0.089,1.673,0.058,2.467c0.244,1.318,1.258,2.407,2.555,2.745
			c0.515,0.134,1.039,0.113,1.566,0.113c1.652,0,3.304,0,4.956,0c7.569,0,15.138,0,22.707,0
			C830.653,261.164,832.523,261.164,834.393,261.164z"/>
	</g>
	<g id="POLYLINE_639_">
		
			<path fill="none" stroke="#1B7FFF" stroke-width="3.25" stroke-linecap="round" stroke-linejoin="round" stroke-miterlimit="10" d="
			M809.945,567.113c0.215,2.909,0.431,5.818,0.646,8.727c0.451,6.092,0.902,12.183,1.354,18.275c0.385,5.2,0.77,10.399,1.155,15.599
			c0.107,1.447-0.295,4.406,1.787,4.55c1.101,0.076,2.242,0,3.347,0c0.59,0,1.185,0.067,1.684-0.308
			c0.613-0.46,0.611-1.148,0.662-1.835c0.309-4.163,0.617-8.327,0.925-12.49c0.461-6.229,0.923-12.457,1.384-18.685
			c0.319-4.306,0.638-8.612,0.957-12.918c0.024-0.319-0.05-0.781,0.178-0.914c0.237-0.139,0.978,0,1.245,0c2.077,0,4.155,0,6.232,0
			c3.526,0,7.053,0,10.579,0c4.655,0,9.31,0,13.965,0c5.513,0,11.026,0,16.539,0c6.117,0,12.235,0,18.352,0
			c6.376,0,12.752,0,19.128,0c6.379,0,12.758,0,19.136,0c6.126,0,12.252,0,18.378,0c5.527,0,11.054,0,16.581,0
			c4.675,0,9.349,0,14.024,0c3.552,0,7.103,0,10.655,0c2.108,0,4.216,0,6.325,0c0.293,0,1.032-0.142,1.298,0
			c0.246,0.132,0.166,0.446,0.193,0.802c0.313,4.227,0.626,8.453,0.939,12.68c0.461,6.227,0.922,12.453,1.384,18.68
			c0.314,4.237,0.628,8.474,0.942,12.711c0.05,0.669,0.017,1.38,0.557,1.874c0.422,0.387,0.915,0.403,1.457,0.404
			c1.16,0.002,2.325,0.024,3.485,0c2.246-0.047,1.857-2.736,1.976-4.331c0.381-5.147,0.763-10.294,1.144-15.441
			c0.453-6.115,0.906-12.23,1.359-18.346c0.158-2.131,0.316-4.263,0.474-6.394c0.047-0.631,0.093-1.261,0.14-1.892
			c0.009-0.119-0.034-0.657,0.055-0.744c0.19-0.185,1.423-0.004,1.684-0.004c1.419,0,2.838,0,4.258,0c2.435,0,4.874,0.039,7.309,0
			c1.579-0.025,3.006-0.904,3.485-2.471c0.398-1.302,0.153-2.938,0.153-4.265c0-4.116,0-8.232,0-12.348c0-5.946,0-11.891,0-17.837
			c0-6.339,0-12.678,0-19.017c0-5.386,0-10.771,0-16.157c0-3.067,0-6.134,0-9.201c0-2.045,0-4.091,0-6.136
			c0-6.034,0-12.068,0-18.102c0-2.188,0-4.375,0-6.563c0-0.715,0.033-1.441-0.061-2.151c-0.195-1.472-0.868-2.864-1.9-3.932
			c-1.029-1.066-2.393-1.786-3.854-2.034c-0.902-0.153-1.822-0.084-2.732-0.06c-2.13,0.056-4.26,0.111-6.391,0.167
			c-3.591,0.094-7.182,0.188-10.773,0.282c-4.773,0.125-9.547,0.249-14.32,0.374c-5.604,0.146-11.208,0.293-16.812,0.439
			c-6.152,0.161-12.303,0.322-18.455,0.482c-6.427,0.168-12.855,0.336-19.282,0.504c-6.335,0.166-12.67,0.331-19.004,0.497
			c-5.97,0.156-11.939,0.312-17.909,0.468c-5.325,0.139-10.649,0.278-15.974,0.417c-4.322,0.113-8.645,0.226-12.967,0.339
			c-3.044,0.08-6.089,0.159-9.133,0.239c-0.952,0.025-1.903,0.05-2.855,0.075c-0.451,0.012-1.1,0.151-1.541,0.04
			c-0.341-0.086-0.196,0.055-0.348-0.372c-0.422-1.187-0.663-2.475-0.989-3.691c-1.356-5.059-2.711-10.119-4.067-15.178
			c-1.624-6.061-3.248-12.123-4.872-18.184c-1.07-3.993-2.14-7.987-3.21-11.98c-0.346-1.291-0.703-2.529-1.454-3.656
			c-0.865-1.299-2.08-2.352-3.488-3.025c-1.275-0.609-2.63-0.847-4.033-0.85c-4.848-0.011-9.697,0-14.545,0
			c-4.185,0-8.373-0.039-12.558,0c-1.629,0.015-3.341,0.27-4.683,1.266c-1.129,0.838-1.788,2.102-2.083,3.457
			c-0.377,1.735-0.221,3.614-0.221,5.376c0,4.721,0,9.442,0,14.163c0,6.299,0,12.598,0,18.897c0,5.395,0,10.789,0,16.184
			c0,1.977,0,3.954,0,5.931c0,1.751,0,3.501,0,5.252c0,4.078,0,8.155,0,12.233c0,5.58,0,11.16,0,16.74c0,6.315,0,12.631,0,18.946
			c0,6.299,0,12.597,0,18.896c0,5.435,0,10.871,0,16.306c0,3.822,0,7.644,0,11.466c0,1.442-0.06,2.898,0.001,4.339
			c0.067,1.611,1.17,3.024,2.775,3.36c1.189,0.249,2.528,0.074,3.727,0.074C805.61,567.113,807.778,567.113,809.945,567.113z"/>
	</g>
	<g id="POLYLINE_634_">
		
			<path fill="none" stroke="#1B7FFF" stroke-width="3.25" stroke-linecap="round" stroke-linejoin="round" stroke-miterlimit="10" d="
			M656.343,612.026c0.006,1.615,0.012,3.23,0.018,4.845c0.004,1.098-0.091,2.249,0.058,3.343c0.122,0.89,0.476,1.743,1.019,2.458
			c1.234,1.624,3.002,2.07,4.956,2.07c3.845,0,7.69,0,11.535,0c2.458,0,5.062,0.255,7.51-0.037c1.733-0.207,3.281-1.295,4.063-2.855
			c0.638-1.273,0.555-2.643,0.555-4.019c0-3.044,0-6.088,0-9.132c0-5.255,0-10.51,0-15.765c0-6.965,0-13.931,0-20.896
			c0-8.175,0-16.35,0-24.525c0-8.884,0-17.768,0-26.653c0-9.124,0-18.248,0-27.373c0-8.799,0-17.598,0-26.397
			c0-8.005,0-16.009,0-24.014c0-6.73,0-13.46,0-20.19c0-4.907,0-9.814,0-14.721c0-2.609,0-5.218,0-7.827
			c0-1.41-0.134-2.749-0.987-3.934c-1.125-1.563-2.838-2.178-4.711-2.178c-3.677,0-7.354,0-11.031,0
			c-2.672,0-5.404-0.172-8.072,0.012c-1.779,0.122-3.406,1.165-4.255,2.733c-0.619,1.143-0.622,2.339-0.646,3.613
			c-0.143-1.542-0.806-3.016-1.866-4.145c-1.075-1.146-2.531-1.908-4.086-2.138c-0.773-0.114-1.569-0.075-2.348-0.075
			c-1.846,0-3.692,0-5.538,0c-3.139,0-6.278,0-9.416,0c-4.231,0-8.461,0-12.692,0c-5.16,0-10.32,0-15.48,0
			c-5.917,0-11.833,0-17.75,0c-6.529,0-13.059,0-19.588,0c-6.911,0-13.823,0-20.734,0c-7.147,0-14.295,0-21.442,0
			c-7.242,0-14.484,0-21.726,0c-7.1,0-14.199,0-21.299,0c-6.815,0-13.631,0-20.446,0c-6.358,0-12.717,0-19.075,0
			c-5.751,0-11.503,0-17.254,0c-4.921,0-9.841,0-14.762,0c-3.943,0-7.886,0-11.829,0c-2.802,0-5.604,0-8.406,0
			c-1.463,0-2.925,0-4.388,0c-0.389,0-0.777,0-1.166,0c-1.522,0-3.043,0-4.565,0c-2.836,0-5.672,0-8.508,0c-3.98,0-7.961,0-11.941,0
			c-4.975,0-9.951,0-14.926,0c-5.753,0-11.506,0-17.259,0c-6.377,0-12.755,0-19.132,0c-6.828,0-13.657,0-20.485,0
			c-7.138,0-14.276,0-21.414,0c-7.211,0-14.422,0-21.634,0c-7.142,0-14.284,0-21.426,0c-6.929,0-13.859,0-20.788,0
			c-6.482,0-12.964,0-19.447,0c-5.893,0-11.786,0-17.679,0c-5.13,0-10.261,0-15.391,0c-4.211,0-8.422,0-12.632,0
			c-3.081,0-6.161,0-9.242,0c-1.798,0-3.596,0-5.394,0c-0.8,0-1.608-0.035-2.4,0.102c-1.548,0.267-2.983,1.064-4.03,2.235
			c-0.994,1.112-1.613,2.535-1.751,4.02c-0.041-2.187-0.381-4.138-2.303-5.448c-0.813-0.554-1.765-0.86-2.746-0.906
			c-2.785-0.131-5.605-0.004-8.392-0.004c-3.569,0-7.139-0.011-10.708,0c-0.994,0.003-1.942,0.16-2.822,0.64
			c-1.581,0.862-2.616,2.511-2.722,4.307c-0.084,1.421-0.008,2.867-0.008,4.29c0,3.868,0,7.737,0,11.605c0,5.905,0,11.811,0,17.717
			c0,7.442,0,14.884,0,22.326c0,8.478,0,16.956,0,25.434c0,9.013,0,18.027,0,27.04c0,9.079,0,18.158,0,27.237
			c0,8.58,0,17.16,0,25.74c0,7.612,0,15.223,0,22.835c0,6.161,0,12.322,0,18.483c0,4.166,0,8.332,0,12.497
			c0,1.693-0.032,3.389,0,5.082c0.033,1.703,0.783,3.29,2.178,4.294c0.758,0.546,1.659,0.882,2.59,0.966
			c2.57,0.232,5.243,0.021,7.82,0.021c3.756,0,7.511,0,11.267,0c1.039,0,2.031-0.092,2.97-0.57c1.554-0.791,2.632-2.345,2.829-4.078
			c0.299-2.637,0.052-5.414,0.062-8.067c0.28,3.012,1.551,5.897,3.588,8.134c2.069,2.272,4.873,3.823,7.898,4.363
			c1.191,0.213,2.38,0.218,3.582,0.218c1.739,0,3.479,0,5.218,0c3.002,0,6.004,0,9.005,0c4.093,0,8.186,0,12.279,0
			c5.014,0,10.027,0,15.041,0c5.763,0,11.526,0,17.289,0c6.312,0,12.625,0,18.937,0c6.748,0,13.496,0,20.244,0
			c6.986,0,13.971,0,20.957,0c7.052,0,14.105,0,21.157,0c6.948,0,13.896,0,20.844,0c6.673,0,13.346,0,20.019,0
			c6.227,0,12.454,0,18.681,0c5.61,0,11.22,0,16.83,0c4.822,0,9.644,0,14.466,0c3.863,0,7.727,0,11.59,0c2.734,0,5.467,0,8.201,0
			c1.43,0,2.859,0,4.289,0c0.385,0,0.77,0,1.155,0c1.479,0,2.958,0,4.437,0c2.777,0,5.554,0,8.331,0c3.901,0,7.801,0,11.702,0
			c4.853,0,9.707,0,14.56,0c5.635,0,11.27,0,16.905,0c6.246,0,12.492,0,18.738,0c6.686,0,13.372,0,20.057,0
			c6.955,0,13.91,0,20.864,0c7.053,0,14.106,0,21.159,0c6.98,0,13.96,0,20.94,0c6.736,0,13.473,0,20.209,0
			c6.295,0,12.589,0,18.884,0c5.763,0,11.527,0,17.29,0c4.959,0,9.919,0,14.878,0c4.057,0,8.114,0,12.171,0c2.959,0,5.919,0,8.878,0
			c1.691,0,3.382,0,5.073,0c1.269,0,2.523-0.023,3.776-0.276c3.022-0.609,5.799-2.23,7.819-4.559
			C654.888,617.707,656.072,614.925,656.343,612.026z"/>
	</g>
</g>
</svg>
