<?xml version="1.0" encoding="utf-8"?>
<!-- Generator: Adobe Illustrator 23.0.4, SVG Export Plug-In . SVG Version: 6.00 Build 0)  -->
<!DOCTYPE svg PUBLIC "-//W3C//DTD SVG 1.1//EN" "http://www.w3.org/Graphics/SVG/1.1/DTD/svg11.dtd" [
	<!ENTITY ns_extend "http://ns.adobe.com/Extensibility/1.0/">
	<!ENTITY ns_ai "http://ns.adobe.com/AdobeIllustrator/10.0/">
	<!ENTITY ns_graphs "http://ns.adobe.com/Graphs/1.0/">
	<!ENTITY ns_vars "http://ns.adobe.com/Variables/1.0/">
	<!ENTITY ns_imrep "http://ns.adobe.com/ImageReplacement/1.0/">
	<!ENTITY ns_sfw "http://ns.adobe.com/SaveForWeb/1.0/">
	<!ENTITY ns_custom "http://ns.adobe.com/GenericCustomNamespace/1.0/">
	<!ENTITY ns_adobe_xpath "http://ns.adobe.com/XPath/1.0/">
]>
<svg version="1.1" xmlns:x="&ns_extend;" xmlns:i="&ns_ai;" xmlns:graph="&ns_graphs;"
	 xmlns="http://www.w3.org/2000/svg" xmlns:xlink="http://www.w3.org/1999/xlink" x="0px" y="0px" viewBox="0 0 1500 675"
	 enable-background="new 0 0 1500 675" xml:space="preserve">
<metadata>
	<sfw  xmlns="&ns_sfw;">
		<slices></slices>
		<sliceSourceBounds  bottomLeftOrigin="true" height="11750" width="5696.781" x="-4368.781" y="-4000"></sliceSourceBounds>
	</sfw>
</metadata>
<g id="FILL-BACKGROUND">
	<rect fill="#FFFFFF" width="1500" height="675"/>
</g>
<g id="N-DIMENSIONS">
	<g id="MTEXT_28_">
		<g>
			<g>
				<g>
					<path fill="#1B7FFF" d="M375.224,622.463v6.287h-3.384v-16.943h6.168c2,0,3.508,0.48,4.524,1.439
						c1.016,0.961,1.524,2.264,1.524,3.912c0,1.617-0.524,2.904-1.572,3.865c-1.048,0.959-2.541,1.439-4.476,1.439H375.224z
						 M380.624,617.158c0-0.848-0.232-1.496-0.696-1.943c-0.464-0.447-1.224-0.672-2.28-0.672h-2.424v5.207h2.424
						C379.631,619.75,380.624,618.887,380.624,617.158z"/>
					<path fill="#1B7FFF" d="M389.647,610.99v17.76h-3.384v-17.76H389.647z"/>
					<path fill="#1B7FFF" d="M400.808,616.078c0.8,0.529,1.368,1.24,1.704,2.137v-2.76h3.36v13.295h-3.36v-2.783
						c-0.336,0.896-0.904,1.611-1.704,2.148c-0.8,0.535-1.76,0.803-2.88,0.803c-1.12,0-2.128-0.271-3.024-0.816
						c-0.896-0.543-1.596-1.332-2.1-2.363s-0.756-2.244-0.756-3.637c0-1.391,0.252-2.604,0.756-3.635
						c0.504-1.033,1.204-1.82,2.1-2.365c0.896-0.543,1.904-0.814,3.024-0.814C399.047,615.287,400.007,615.551,400.808,616.078z
						 M396.439,619.27c-0.64,0.689-0.96,1.633-0.96,2.832c0,1.201,0.32,2.141,0.96,2.82c0.64,0.682,1.488,1.021,2.544,1.021
						c1.024,0,1.868-0.35,2.532-1.045c0.664-0.695,0.996-1.627,0.996-2.797c0-1.184-0.333-2.123-0.996-2.818
						c-0.664-0.697-1.508-1.045-2.532-1.045C397.928,618.238,397.079,618.582,396.439,619.27z"/>
					<path fill="#1B7FFF" d="M420.535,616.775c0.912,1.008,1.368,2.424,1.368,4.248v7.727h-3.36v-7.344
						c0-1.057-0.272-1.875-0.816-2.459s-1.288-0.877-2.232-0.877c-0.96,0-1.728,0.312-2.304,0.936
						c-0.576,0.625-0.864,1.521-0.864,2.689v7.055h-3.384v-13.295h3.384v2.664c0.352-0.896,0.932-1.596,1.74-2.102
						c0.808-0.504,1.74-0.756,2.796-0.756C418.399,615.262,419.623,615.766,420.535,616.775z"/>
				</g>
			</g>
		</g>
	</g>
	<g>
		<g id="POLYLINE_585_">
			
				<line fill="none" stroke="#1B7FFF" stroke-width="2" stroke-linecap="round" stroke-linejoin="round" stroke-miterlimit="10" x1="746.397" y1="440.739" x2="746.397" y2="334.572"/>
		</g>
		<g id="POLYLINE_584_">
			
				<line fill="none" stroke="#1B7FFF" stroke-width="2" stroke-linecap="round" stroke-linejoin="round" stroke-miterlimit="10" x1="746.397" y1="592.675" x2="746.397" y2="490.476"/>
		</g>
		<g id="POLYLINE_583_">
			
				<polyline fill="none" stroke="#1B7FFF" stroke-width="2" stroke-linecap="round" stroke-linejoin="round" stroke-miterlimit="10" points="
				753.515,341.692 746.397,334.572 739.276,341.692 			"/>
		</g>
		<g id="POLYLINE_582_">
			
				<polyline fill="none" stroke="#1B7FFF" stroke-width="2" stroke-linecap="round" stroke-linejoin="round" stroke-miterlimit="10" points="
				753.515,585.545 746.397,592.675 739.276,585.545 			"/>
		</g>
		<g id="MTEXT_73_">
			<g>
				<g>
					<g>
						<path fill="#1B7FFF" d="M743.438,462.57c-0.76-0.34-1.337-0.783-1.729-1.33c-0.394-0.547-0.604-1.113-0.63-1.7
							c0-0.12,0.04-0.217,0.12-0.29c0.079-0.073,0.18-0.11,0.3-0.11h0.899c0.146,0,0.267,0.03,0.36,0.091
							c0.093,0.06,0.167,0.176,0.22,0.35c0.174,0.68,0.55,1.16,1.13,1.439c0.58,0.28,1.264,0.42,2.051,0.42
							c0.96,0,1.723-0.229,2.29-0.689c0.566-0.46,0.85-1.117,0.85-1.971c0-1.626-0.993-2.439-2.98-2.439h-1.88
							c-0.133,0-0.243-0.043-0.33-0.13s-0.13-0.196-0.13-0.33v-0.521c0-0.199,0.073-0.373,0.221-0.52l3.899-4.32h-5.92
							c-0.134,0-0.243-0.039-0.33-0.119s-0.13-0.188-0.13-0.32v-0.721c0-0.146,0.043-0.263,0.13-0.35
							c0.087-0.086,0.196-0.13,0.33-0.13h7.92c0.146,0,0.264,0.044,0.351,0.13c0.086,0.087,0.13,0.203,0.13,0.35v0.66
							c0,0.147-0.067,0.301-0.2,0.461l-3.9,4.379h0.32c1.36,0.041,2.437,0.395,3.229,1.061c0.794,0.667,1.19,1.641,1.19,2.92
							c0,0.88-0.217,1.637-0.65,2.27c-0.433,0.634-1.036,1.121-1.81,1.461s-1.646,0.51-2.62,0.51
							C745.099,463.08,744.199,462.91,743.438,462.57z"/>
						<path fill="#1B7FFF" d="M755.398,462.54c-0.733-0.36-1.293-0.83-1.68-1.41s-0.594-1.203-0.62-1.87v-0.04
							c0-0.106,0.04-0.192,0.12-0.26c0.08-0.066,0.173-0.101,0.28-0.101h0.979c0.28,0,0.46,0.147,0.54,0.44
							c0.2,0.72,0.57,1.257,1.11,1.61s1.163,0.529,1.87,0.529c0.906,0,1.66-0.276,2.26-0.83c0.6-0.553,0.9-1.316,0.9-2.289
							c0-0.894-0.301-1.604-0.9-2.131c-0.6-0.526-1.354-0.789-2.26-0.789c-0.48,0-0.867,0.06-1.16,0.18
							c-0.294,0.119-0.594,0.293-0.9,0.52c-0.173,0.134-0.316,0.23-0.43,0.29s-0.237,0.091-0.37,0.091h-0.96
							c-0.12,0-0.227-0.044-0.32-0.131c-0.093-0.086-0.133-0.189-0.12-0.31l0.62-6.66c0.04-0.333,0.207-0.5,0.5-0.5h6.92
							c0.146,0,0.261,0.04,0.341,0.12c0.079,0.08,0.119,0.193,0.119,0.34v0.74c0,0.133-0.043,0.24-0.13,0.32
							s-0.196,0.119-0.33,0.119h-5.76l-0.359,4.021c0.64-0.453,1.5-0.681,2.579-0.681c0.894,0,1.707,0.178,2.44,0.53
							c0.733,0.354,1.316,0.87,1.75,1.55c0.434,0.681,0.65,1.487,0.65,2.42c0,0.987-0.217,1.838-0.65,2.551s-1.033,1.253-1.8,1.619
							c-0.767,0.367-1.644,0.551-2.63,0.551C756.999,463.08,756.132,462.9,755.398,462.54z"/>
						<path fill="#1B7FFF" d="M765.329,462.75c-0.087-0.087-0.13-0.197-0.13-0.33v-1.38c0-0.134,0.043-0.247,0.13-0.341
							c0.086-0.092,0.196-0.139,0.33-0.139h1.38c0.133,0,0.243,0.047,0.33,0.139c0.086,0.094,0.13,0.207,0.13,0.341v1.38
							c0,0.133-0.044,0.243-0.13,0.33c-0.087,0.087-0.197,0.13-0.33,0.13h-1.38C765.525,462.88,765.415,462.837,765.329,462.75z"/>
						<path fill="#1B7FFF" d="M772.059,462.54c-0.733-0.36-1.293-0.83-1.68-1.41s-0.594-1.203-0.62-1.87v-0.04
							c0-0.106,0.04-0.192,0.12-0.26c0.08-0.066,0.173-0.101,0.28-0.101h0.979c0.28,0,0.46,0.147,0.54,0.44
							c0.2,0.72,0.57,1.257,1.11,1.61s1.163,0.529,1.87,0.529c0.906,0,1.66-0.276,2.26-0.83c0.6-0.553,0.9-1.316,0.9-2.289
							c0-0.894-0.301-1.604-0.9-2.131c-0.6-0.526-1.354-0.789-2.26-0.789c-0.48,0-0.867,0.06-1.16,0.18
							c-0.294,0.119-0.594,0.293-0.9,0.52c-0.173,0.134-0.316,0.23-0.43,0.29s-0.237,0.091-0.37,0.091h-0.96
							c-0.12,0-0.227-0.044-0.32-0.131c-0.093-0.086-0.133-0.189-0.12-0.31l0.62-6.66c0.04-0.333,0.207-0.5,0.5-0.5h6.92
							c0.146,0,0.261,0.04,0.341,0.12c0.079,0.08,0.119,0.193,0.119,0.34v0.74c0,0.133-0.043,0.24-0.13,0.32
							s-0.196,0.119-0.33,0.119h-5.76l-0.359,4.021c0.64-0.453,1.5-0.681,2.579-0.681c0.894,0,1.707,0.178,2.44,0.53
							c0.733,0.354,1.316,0.87,1.75,1.55c0.434,0.681,0.65,1.487,0.65,2.42c0,0.987-0.217,1.838-0.65,2.551s-1.033,1.253-1.8,1.619
							c-0.767,0.367-1.644,0.551-2.63,0.551C773.659,463.08,772.792,462.9,772.059,462.54z"/>
						<path fill="#1B7FFF" d="M782.159,452.62l-0.341-3.48v-0.079c0-0.121,0.037-0.214,0.11-0.281c0.073-0.066,0.17-0.1,0.29-0.1
							h1.26c0.134,0,0.236,0.043,0.311,0.131c0.073,0.086,0.103,0.196,0.09,0.329l-0.34,3.48c-0.027,0.293-0.16,0.44-0.4,0.44h-0.58
							C782.318,453.061,782.186,452.913,782.159,452.62z M785.219,452.62l-0.34-3.48v-0.04c0-0.133,0.036-0.236,0.109-0.31
							s0.171-0.11,0.29-0.11h1.261c0.133,0,0.236,0.043,0.31,0.131c0.073,0.086,0.104,0.196,0.09,0.329l-0.34,3.48
							c-0.026,0.293-0.16,0.44-0.4,0.44h-0.579C785.379,453.061,785.245,452.913,785.219,452.62z"/>
						<path fill="#1B7FFF" d="M743.809,482.451c-0.073-0.088-0.109-0.19-0.109-0.311c0-0.094,0.026-0.18,0.079-0.26l3.08-4.28
							c-0.319,0.08-0.693,0.12-1.12,0.12c-0.96-0.014-1.8-0.236-2.52-0.67s-1.27-1-1.65-1.7c-0.38-0.7-0.569-1.45-0.569-2.25
							s0.189-1.56,0.569-2.28c0.381-0.72,0.947-1.307,1.7-1.76s1.663-0.68,2.73-0.68c1.066,0,1.979,0.22,2.739,0.66
							c0.761,0.439,1.334,1.017,1.721,1.729c0.387,0.714,0.58,1.478,0.58,2.29c0,0.733-0.13,1.38-0.391,1.939
							c-0.26,0.561-0.604,1.141-1.029,1.74l-3.881,5.44c-0.093,0.12-0.183,0.217-0.27,0.29s-0.21,0.109-0.37,0.109h-1
							C743.979,482.58,743.882,482.537,743.809,482.451z M747.579,475.761c0.479-0.253,0.859-0.61,1.14-1.07s0.42-0.989,0.42-1.59
							c0-0.613-0.14-1.153-0.42-1.62s-0.66-0.826-1.14-1.08c-0.48-0.253-1.007-0.38-1.58-0.38c-0.561,0-1.077,0.127-1.55,0.38
							c-0.474,0.254-0.851,0.613-1.131,1.08c-0.279,0.467-0.42,1.007-0.42,1.62c0,0.601,0.141,1.13,0.42,1.59
							c0.28,0.46,0.653,0.817,1.12,1.07s0.987,0.38,1.561,0.38S747.099,476.014,747.579,475.761z"/>
						<path fill="#1B7FFF" d="M754.588,481.271c-0.793-1.007-1.217-2.323-1.27-3.95l-0.021-1.72l0.021-1.78
							c0.04-1.613,0.463-2.923,1.27-3.93s2.063-1.51,3.771-1.51c1.72,0,2.982,0.503,3.79,1.51c0.807,1.007,1.229,2.316,1.27,3.93
							c0.014,0.373,0.021,0.967,0.021,1.78c0,0.786-0.007,1.36-0.021,1.72c-0.054,1.627-0.477,2.943-1.27,3.95
							c-0.794,1.007-2.058,1.511-3.79,1.511C756.638,482.781,755.381,482.277,754.588,481.271z M760.678,480.101
							c0.521-0.681,0.794-1.64,0.82-2.88c0.013-0.387,0.021-0.939,0.021-1.66c0-0.732-0.008-1.279-0.021-1.641
							c-0.026-1.227-0.304-2.183-0.83-2.869c-0.526-0.688-1.297-1.03-2.31-1.03c-1.014,0-1.78,0.343-2.301,1.03
							c-0.52,0.687-0.793,1.643-0.819,2.869l-0.021,1.641l0.021,1.66c0.026,1.24,0.3,2.199,0.819,2.88
							c0.521,0.681,1.287,1.021,2.301,1.021C759.385,481.121,760.158,480.781,760.678,480.101z"/>
						<path fill="#1B7FFF" d="M771.938,481.57c-0.801-0.807-1.221-1.937-1.261-3.39l-0.02-0.8l0.02-0.801
							c0.04-1.453,0.46-2.582,1.261-3.39c0.8-0.807,1.913-1.21,3.34-1.21c0.96,0,1.77,0.17,2.43,0.51s1.153,0.764,1.48,1.271
							c0.326,0.507,0.503,1.013,0.529,1.521c0.014,0.119-0.029,0.227-0.13,0.319c-0.1,0.093-0.21,0.14-0.33,0.14h-0.88
							c-0.133,0-0.233-0.029-0.3-0.09s-0.134-0.17-0.2-0.33c-0.24-0.652-0.569-1.116-0.99-1.39c-0.42-0.273-0.949-0.41-1.59-0.41
							c-0.84,0-1.507,0.261-2,0.78s-0.76,1.312-0.8,2.38l-0.02,0.7l0.02,0.699c0.04,1.067,0.307,1.86,0.8,2.381
							c0.493,0.52,1.16,0.779,2,0.779c0.653,0,1.187-0.137,1.601-0.41c0.413-0.272,0.739-0.736,0.979-1.39
							c0.066-0.159,0.134-0.271,0.2-0.33s0.167-0.09,0.3-0.09h0.88c0.12,0,0.23,0.047,0.33,0.14c0.101,0.094,0.144,0.2,0.13,0.32
							c-0.026,0.494-0.203,0.994-0.529,1.5c-0.327,0.507-0.82,0.934-1.48,1.28s-1.47,0.521-2.43,0.521
							C773.852,482.781,772.738,482.377,771.938,481.57z"/>
						<path fill="#1B7FFF" d="M782.248,482.451c-0.087-0.088-0.13-0.197-0.13-0.33v-9.48c0-0.133,0.043-0.243,0.13-0.33
							c0.087-0.086,0.196-0.13,0.33-0.13h0.84c0.134,0,0.24,0.044,0.32,0.13c0.08,0.087,0.12,0.197,0.12,0.33v0.68
							c0.72-0.893,1.693-1.34,2.92-1.34c1.467,0,2.507,0.613,3.12,1.84c0.319-0.56,0.776-1.006,1.37-1.34
							c0.593-0.333,1.256-0.5,1.989-0.5c1.094,0,1.987,0.373,2.681,1.12c0.692,0.747,1.04,1.827,1.04,3.239v5.781
							c0,0.133-0.044,0.242-0.13,0.33c-0.087,0.086-0.197,0.129-0.33,0.129h-0.86c-0.134,0-0.243-0.043-0.33-0.129
							c-0.087-0.088-0.13-0.197-0.13-0.33v-5.601c0-1.066-0.22-1.83-0.66-2.29c-0.439-0.46-1.02-0.689-1.74-0.689
							c-0.64,0-1.189,0.236-1.649,0.709c-0.46,0.475-0.69,1.23-0.69,2.271v5.601c0,0.133-0.043,0.242-0.13,0.33
							c-0.087,0.086-0.197,0.129-0.33,0.129h-0.88c-0.134,0-0.243-0.043-0.33-0.129c-0.087-0.088-0.13-0.197-0.13-0.33v-5.601
							c0-1.054-0.23-1.813-0.69-2.28s-1.029-0.699-1.71-0.699c-0.64,0-1.189,0.232-1.649,0.699s-0.69,1.221-0.69,2.26v5.621
							c0,0.133-0.043,0.242-0.13,0.33c-0.087,0.086-0.197,0.129-0.33,0.129h-0.88C782.444,482.58,782.335,482.537,782.248,482.451z"
							/>
					</g>
				</g>
			</g>
		</g>
	</g>
	<g>
		<g id="POLYLINE_581_">
			
				<line fill="none" stroke="#1B7FFF" stroke-width="2" stroke-linecap="round" stroke-linejoin="round" stroke-miterlimit="10" x1="460" y1="305.01" x2="719.872" y2="305.01"/>
		</g>
		<g id="POLYLINE_580_">
			
				<line fill="none" stroke="#1B7FFF" stroke-width="2" stroke-linecap="round" stroke-linejoin="round" stroke-miterlimit="10" x1="72.289" y1="305.01" x2="333" y2="305.01"/>
		</g>
		<g id="POLYLINE_579_">
			
				<polyline fill="none" stroke="#1B7FFF" stroke-width="2" stroke-linecap="round" stroke-linejoin="round" stroke-miterlimit="10" points="
				712.752,312.128 719.872,305.01 712.752,297.889 			"/>
		</g>
		<g id="POLYLINE_578_">
			
				<polyline fill="none" stroke="#1B7FFF" stroke-width="2" stroke-linecap="round" stroke-linejoin="round" stroke-miterlimit="10" points="
				79.419,312.128 72.289,305.01 79.419,297.889 			"/>
		</g>
		<g id="MTEXT_68_">
			<g>
				<g>
					<g>
						<path fill="#1B7FFF" d="M343.694,310.482c-0.793-0.34-1.41-0.83-1.85-1.471c-0.44-0.64-0.66-1.387-0.66-2.24
							c0-0.786,0.196-1.477,0.59-2.069s0.923-1.05,1.59-1.37c-0.533-0.307-0.946-0.71-1.24-1.21c-0.293-0.5-0.439-1.09-0.439-1.771
							c0-1.16,0.433-2.076,1.3-2.75c0.866-0.673,2.007-1.01,3.42-1.01s2.55,0.334,3.41,1c0.86,0.667,1.29,1.587,1.29,2.76
							c0,0.668-0.146,1.25-0.44,1.75c-0.293,0.5-0.699,0.91-1.22,1.23c0.667,0.32,1.196,0.777,1.59,1.37s0.59,1.29,0.59,2.09
							c0,0.854-0.22,1.597-0.659,2.229c-0.44,0.634-1.058,1.121-1.851,1.461s-1.696,0.51-2.71,0.51S344.487,310.822,343.694,310.482
							z M348.774,308.712c0.633-0.479,0.95-1.12,0.95-1.92s-0.317-1.44-0.95-1.92c-0.634-0.479-1.424-0.72-2.37-0.72
							c-0.96,0-1.757,0.24-2.39,0.72c-0.634,0.479-0.95,1.12-0.95,1.92s0.316,1.44,0.95,1.92c0.633,0.479,1.43,0.72,2.39,0.72
							C347.351,309.432,348.141,309.191,348.774,308.712z M348.465,301.992c0.56-0.4,0.84-0.934,0.84-1.6
							c0-0.681-0.277-1.224-0.83-1.631c-0.554-0.406-1.243-0.609-2.07-0.609c-0.84,0-1.533,0.203-2.08,0.609
							c-0.547,0.407-0.819,0.95-0.819,1.631c0,0.68,0.272,1.223,0.819,1.629c0.547,0.407,1.24,0.61,2.08,0.61
							C347.218,302.605,347.904,302.393,348.465,301.992z"/>
						<path fill="#1B7FFF" d="M356.334,310.662c-0.073-0.087-0.109-0.189-0.109-0.311c0-0.093,0.026-0.18,0.079-0.26l3.08-4.279
							c-0.319,0.08-0.693,0.119-1.12,0.119c-0.96-0.013-1.8-0.236-2.52-0.67c-0.72-0.433-1.27-1-1.65-1.699
							c-0.38-0.701-0.569-1.451-0.569-2.25c0-0.801,0.189-1.561,0.569-2.28c0.381-0.72,0.947-1.307,1.7-1.761
							c0.753-0.453,1.663-0.68,2.73-0.68c1.066,0,1.979,0.221,2.739,0.66c0.761,0.439,1.334,1.018,1.721,1.73s0.58,1.477,0.58,2.289
							c0,0.734-0.13,1.381-0.391,1.94c-0.26,0.56-0.604,1.14-1.029,1.74l-3.881,5.44c-0.093,0.119-0.183,0.217-0.27,0.289
							c-0.087,0.074-0.21,0.11-0.37,0.11h-1C356.504,310.792,356.407,310.749,356.334,310.662z M360.104,303.973
							c0.479-0.254,0.859-0.611,1.14-1.07c0.28-0.461,0.42-0.99,0.42-1.59c0-0.613-0.14-1.154-0.42-1.621
							c-0.28-0.466-0.66-0.826-1.14-1.08c-0.48-0.252-1.007-0.379-1.58-0.379c-0.561,0-1.077,0.127-1.55,0.379
							c-0.474,0.254-0.851,0.614-1.131,1.08c-0.279,0.467-0.42,1.008-0.42,1.621c0,0.6,0.141,1.129,0.42,1.59
							c0.28,0.459,0.653,0.816,1.12,1.07c0.467,0.253,0.987,0.379,1.561,0.379S359.624,304.226,360.104,303.973z"/>
						<path fill="#1B7FFF" d="M366.045,300.532l-0.341-3.48v-0.079c0-0.121,0.037-0.214,0.11-0.281c0.073-0.066,0.17-0.1,0.29-0.1
							h1.26c0.134,0,0.236,0.043,0.311,0.131c0.073,0.086,0.103,0.196,0.09,0.329l-0.34,3.48c-0.027,0.293-0.16,0.44-0.4,0.44h-0.58
							C366.204,300.973,366.071,300.825,366.045,300.532z M369.104,300.532l-0.34-3.48v-0.04c0-0.133,0.036-0.236,0.109-0.31
							s0.171-0.11,0.29-0.11h1.261c0.133,0,0.236,0.043,0.31,0.131c0.073,0.086,0.104,0.196,0.09,0.329l-0.34,3.48
							c-0.026,0.293-0.16,0.44-0.4,0.44h-0.579C369.265,300.973,369.131,300.825,369.104,300.532z"/>
						<path fill="#1B7FFF" d="M378.504,314.822c-0.08-0.087-0.12-0.197-0.12-0.33v-21.16c0-0.133,0.04-0.243,0.12-0.33
							c0.08-0.086,0.187-0.13,0.32-0.13h0.739c0.134,0,0.243,0.044,0.33,0.13c0.087,0.087,0.13,0.197,0.13,0.33v21.16
							c0,0.133-0.043,0.243-0.13,0.33c-0.087,0.086-0.196,0.13-0.33,0.13h-0.739C378.69,314.952,378.584,314.908,378.504,314.822z"
							/>
						<path fill="#1B7FFF" d="M387.533,310.662c-0.087-0.087-0.13-0.197-0.13-0.33v-0.6c0-0.307,0.166-0.601,0.5-0.881l4.359-4.34
							c0.986-0.84,1.667-1.526,2.04-2.06s0.561-1.101,0.561-1.7c0-0.787-0.221-1.403-0.66-1.85c-0.44-0.447-1.08-0.67-1.92-0.67
							c-0.801,0-1.434,0.232-1.9,0.699s-0.753,1.094-0.86,1.881c-0.026,0.146-0.093,0.26-0.199,0.34
							c-0.107,0.08-0.214,0.119-0.32,0.119h-0.96c-0.12,0-0.22-0.039-0.3-0.119s-0.12-0.174-0.12-0.28
							c0.026-0.706,0.217-1.39,0.569-2.05c0.354-0.66,0.877-1.2,1.57-1.62s1.533-0.63,2.521-0.63c1.493,0,2.616,0.39,3.37,1.17
							c0.753,0.779,1.13,1.77,1.13,2.97c0,0.84-0.204,1.597-0.61,2.271c-0.407,0.673-1.043,1.383-1.91,2.129l-3.939,4h6.3
							c0.146,0,0.26,0.041,0.34,0.121s0.12,0.193,0.12,0.34v0.76c0,0.133-0.044,0.243-0.13,0.33c-0.087,0.087-0.197,0.13-0.33,0.13
							h-8.76C387.729,310.792,387.619,310.749,387.533,310.662z"/>
						<path fill="#1B7FFF" d="M399.214,310.662c-0.087-0.087-0.13-0.197-0.13-0.33v-0.6c0-0.307,0.166-0.601,0.5-0.881l4.359-4.34
							c0.986-0.84,1.667-1.526,2.04-2.06s0.561-1.101,0.561-1.7c0-0.787-0.221-1.403-0.66-1.85c-0.44-0.447-1.08-0.67-1.92-0.67
							c-0.801,0-1.434,0.232-1.9,0.699s-0.753,1.094-0.86,1.881c-0.026,0.146-0.093,0.26-0.199,0.34
							c-0.107,0.08-0.214,0.119-0.32,0.119h-0.96c-0.12,0-0.22-0.039-0.3-0.119s-0.12-0.174-0.12-0.28
							c0.026-0.706,0.217-1.39,0.569-2.05c0.354-0.66,0.877-1.2,1.57-1.62s1.533-0.63,2.521-0.63c1.493,0,2.616,0.39,3.37,1.17
							c0.753,0.779,1.13,1.77,1.13,2.97c0,0.84-0.204,1.597-0.61,2.271c-0.407,0.673-1.043,1.383-1.91,2.129l-3.939,4h6.3
							c0.146,0,0.26,0.041,0.34,0.121s0.12,0.193,0.12,0.34v0.76c0,0.133-0.044,0.243-0.13,0.33c-0.087,0.087-0.197,0.13-0.33,0.13
							h-8.76C399.41,310.792,399.3,310.749,399.214,310.662z"/>
						<path fill="#1B7FFF" d="M413.153,310.342c-0.78-0.434-1.374-1.017-1.78-1.75c-0.406-0.732-0.609-1.533-0.609-2.4
							c0-1.146,0.46-2.373,1.38-3.68l3.819-5.32c0.014-0.013,0.051-0.06,0.11-0.14c0.06-0.079,0.137-0.144,0.229-0.19
							c0.094-0.046,0.2-0.069,0.32-0.069h0.98c0.12,0,0.216,0.044,0.29,0.13c0.073,0.087,0.109,0.189,0.109,0.311
							c0,0.066-0.033,0.152-0.1,0.26l-2.92,4.08c0.347-0.08,0.733-0.12,1.16-0.12c0.973,0,1.83,0.217,2.569,0.649
							c0.74,0.434,1.313,1.008,1.721,1.721c0.406,0.713,0.609,1.496,0.609,2.35s-0.203,1.65-0.609,2.391
							c-0.407,0.739-0.997,1.33-1.771,1.77s-1.687,0.66-2.74,0.66C414.856,310.992,413.934,310.775,413.153,310.342z
							 M417.523,308.973c0.493-0.24,0.887-0.598,1.18-1.07c0.293-0.474,0.44-1.043,0.44-1.711c0-0.652-0.15-1.216-0.45-1.689
							c-0.3-0.473-0.697-0.833-1.19-1.08c-0.493-0.246-1.026-0.37-1.6-0.37s-1.107,0.124-1.601,0.37
							c-0.493,0.247-0.887,0.607-1.18,1.08c-0.293,0.474-0.439,1.037-0.439,1.689c0,0.668,0.146,1.237,0.439,1.711
							c0.293,0.473,0.687,0.83,1.18,1.07c0.493,0.239,1.027,0.359,1.601,0.359C416.49,309.332,417.029,309.212,417.523,308.973z"/>
						<path fill="#1B7FFF" d="M429.023,309.782c-0.801-0.807-1.221-1.937-1.261-3.39l-0.02-0.801l0.02-0.8
							c0.04-1.453,0.46-2.583,1.261-3.39c0.8-0.807,1.913-1.211,3.34-1.211c0.96,0,1.77,0.17,2.43,0.511
							c0.66,0.34,1.153,0.763,1.48,1.271c0.326,0.506,0.503,1.013,0.529,1.52c0.014,0.119-0.029,0.227-0.13,0.32
							c-0.1,0.093-0.21,0.14-0.33,0.14h-0.88c-0.133,0-0.233-0.03-0.3-0.091c-0.066-0.06-0.134-0.17-0.2-0.329
							c-0.24-0.653-0.569-1.116-0.99-1.39c-0.42-0.273-0.949-0.41-1.59-0.41c-0.84,0-1.507,0.26-2,0.779
							c-0.493,0.521-0.76,1.313-0.8,2.381l-0.02,0.699l0.02,0.7c0.04,1.067,0.307,1.86,0.8,2.38s1.16,0.78,2,0.78
							c0.653,0,1.187-0.137,1.601-0.41c0.413-0.272,0.739-0.736,0.979-1.39c0.066-0.16,0.134-0.271,0.2-0.33
							c0.066-0.061,0.167-0.09,0.3-0.09h0.88c0.12,0,0.23,0.047,0.33,0.14c0.101,0.093,0.144,0.2,0.13,0.319
							c-0.026,0.494-0.203,0.994-0.529,1.5c-0.327,0.508-0.82,0.934-1.48,1.281c-0.66,0.346-1.47,0.52-2.43,0.52
							C430.937,310.992,429.823,310.589,429.023,309.782z"/>
						<path fill="#1B7FFF" d="M439.332,310.662c-0.087-0.087-0.13-0.197-0.13-0.33v-9.48c0-0.133,0.043-0.242,0.13-0.33
							c0.087-0.086,0.196-0.129,0.33-0.129h0.84c0.134,0,0.24,0.043,0.32,0.129c0.08,0.088,0.12,0.197,0.12,0.33v0.681
							c0.72-0.894,1.693-1.341,2.92-1.341c1.467,0,2.507,0.614,3.12,1.841c0.319-0.56,0.776-1.007,1.37-1.341
							c0.593-0.332,1.256-0.5,1.989-0.5c1.094,0,1.987,0.374,2.681,1.121c0.692,0.746,1.04,1.826,1.04,3.239v5.78
							c0,0.133-0.044,0.243-0.13,0.33c-0.087,0.087-0.197,0.13-0.33,0.13h-0.86c-0.134,0-0.243-0.043-0.33-0.13
							s-0.13-0.197-0.13-0.33v-5.6c0-1.066-0.22-1.83-0.66-2.291c-0.439-0.459-1.02-0.689-1.74-0.689
							c-0.64,0-1.189,0.236-1.649,0.71s-0.69,1.229-0.69,2.271v5.6c0,0.133-0.043,0.243-0.13,0.33s-0.197,0.13-0.33,0.13h-0.88
							c-0.134,0-0.243-0.043-0.33-0.13s-0.13-0.197-0.13-0.33v-5.6c0-1.054-0.23-1.813-0.69-2.28s-1.029-0.7-1.71-0.7
							c-0.64,0-1.189,0.233-1.649,0.7s-0.69,1.22-0.69,2.26v5.62c0,0.133-0.043,0.243-0.13,0.33s-0.197,0.13-0.33,0.13h-0.88
							C439.528,310.792,439.419,310.749,439.332,310.662z"/>
					</g>
				</g>
			</g>
		</g>
	</g>
	<g>
		<g id="MTEXT_131_" opacity="0.96">
			<g>
				<g>
					<g>
						<path fill="#1B7FFF" d="M1165.329,414.229c-0.087-0.088-0.13-0.197-0.13-0.33v-0.601c0-0.307,0.166-0.601,0.5-0.88l4.359-4.34
							c0.986-0.84,1.667-1.527,2.04-2.061s0.561-1.1,0.561-1.699c0-0.787-0.221-1.404-0.66-1.851c-0.44-0.446-1.08-0.67-1.92-0.67
							c-0.801,0-1.434,0.233-1.9,0.7s-0.753,1.094-0.86,1.88c-0.026,0.147-0.093,0.26-0.199,0.34c-0.107,0.08-0.214,0.12-0.32,0.12
							h-0.96c-0.12,0-0.22-0.04-0.3-0.12s-0.12-0.173-0.12-0.28c0.026-0.706,0.217-1.39,0.569-2.05c0.354-0.659,0.877-1.2,1.57-1.62
							s1.533-0.63,2.521-0.63c1.493,0,2.616,0.39,3.37,1.171c0.753,0.779,1.13,1.77,1.13,2.969c0,0.84-0.204,1.598-0.61,2.271
							c-0.407,0.673-1.043,1.384-1.91,2.13l-3.939,4h6.3c0.146,0,0.26,0.04,0.34,0.12s0.12,0.193,0.12,0.34v0.761
							c0,0.133-0.044,0.242-0.13,0.33c-0.087,0.086-0.197,0.129-0.33,0.129h-8.76
							C1165.525,414.357,1165.415,414.314,1165.329,414.229z"/>
						<path fill="#1B7FFF" d="M1178.448,413.048c-0.793-1.007-1.217-2.323-1.27-3.95l-0.021-1.72l0.021-1.78
							c0.04-1.613,0.463-2.923,1.27-3.93s2.063-1.51,3.771-1.51c1.72,0,2.982,0.503,3.79,1.51c0.807,1.007,1.229,2.316,1.27,3.93
							c0.014,0.373,0.021,0.967,0.021,1.78c0,0.786-0.007,1.36-0.021,1.72c-0.054,1.627-0.477,2.943-1.27,3.95
							c-0.794,1.007-2.058,1.511-3.79,1.511C1180.498,414.559,1179.241,414.055,1178.448,413.048z M1184.538,411.878
							c0.521-0.681,0.794-1.64,0.82-2.88c0.013-0.387,0.021-0.939,0.021-1.66c0-0.732-0.008-1.279-0.021-1.641
							c-0.026-1.227-0.304-2.183-0.83-2.869c-0.526-0.688-1.297-1.03-2.31-1.03c-1.014,0-1.78,0.343-2.301,1.03
							c-0.52,0.687-0.793,1.643-0.819,2.869l-0.021,1.641l0.021,1.66c0.026,1.24,0.3,2.199,0.819,2.88
							c0.521,0.681,1.287,1.021,2.301,1.021C1183.245,412.898,1184.019,412.559,1184.538,411.878z"/>
						<path fill="#1B7FFF" d="M1190.039,404.098l-0.341-3.48v-0.079c0-0.12,0.037-0.214,0.11-0.28s0.17-0.1,0.29-0.1h1.26
							c0.134,0,0.236,0.043,0.311,0.13c0.073,0.087,0.103,0.196,0.09,0.329l-0.34,3.48c-0.027,0.293-0.16,0.44-0.4,0.44h-0.58
							C1190.198,404.538,1190.065,404.391,1190.039,404.098z M1193.099,404.098l-0.34-3.48v-0.039c0-0.133,0.036-0.236,0.109-0.311
							c0.073-0.072,0.171-0.109,0.29-0.109h1.261c0.133,0,0.236,0.043,0.31,0.13s0.104,0.196,0.09,0.329l-0.34,3.48
							c-0.026,0.293-0.16,0.44-0.4,0.44h-0.579C1193.259,404.538,1193.125,404.391,1193.099,404.098z"/>
						<path fill="#1B7FFF" d="M1167.438,435.719c-0.733-0.36-1.293-0.83-1.68-1.41s-0.594-1.203-0.62-1.87v-0.04
							c0-0.106,0.04-0.193,0.12-0.26s0.173-0.1,0.28-0.1h0.979c0.28,0,0.46,0.146,0.54,0.439c0.2,0.721,0.57,1.257,1.11,1.609
							c0.54,0.354,1.163,0.531,1.87,0.531c0.906,0,1.66-0.277,2.26-0.83c0.6-0.554,0.9-1.316,0.9-2.291
							c0-0.893-0.301-1.603-0.9-2.129c-0.6-0.527-1.354-0.791-2.26-0.791c-0.48,0-0.867,0.061-1.16,0.181
							c-0.294,0.12-0.594,0.294-0.9,0.521c-0.173,0.133-0.316,0.229-0.43,0.289c-0.113,0.061-0.237,0.09-0.37,0.09h-0.96
							c-0.12,0-0.227-0.043-0.32-0.129c-0.093-0.088-0.133-0.191-0.12-0.311l0.62-6.66c0.04-0.333,0.207-0.5,0.5-0.5h6.92
							c0.146,0,0.261,0.04,0.341,0.12c0.079,0.08,0.119,0.193,0.119,0.34v0.74c0,0.134-0.043,0.239-0.13,0.319
							s-0.196,0.121-0.33,0.121h-5.76l-0.359,4.02c0.64-0.453,1.5-0.68,2.579-0.68c0.894,0,1.707,0.176,2.44,0.529
							s1.316,0.87,1.75,1.551c0.434,0.68,0.65,1.486,0.65,2.42c0,0.986-0.217,1.836-0.65,2.549c-0.434,0.715-1.033,1.254-1.8,1.621
							c-0.767,0.366-1.644,0.55-2.63,0.55C1169.039,436.259,1168.172,436.078,1167.438,435.719z"/>
						<path fill="#1B7FFF" d="M1180.939,435.929c-0.08-0.087-0.12-0.196-0.12-0.33v-11.28l-3.36,2.58
							c-0.093,0.08-0.193,0.12-0.3,0.12c-0.12,0-0.233-0.066-0.34-0.2l-0.48-0.619c-0.066-0.094-0.1-0.188-0.1-0.281
							c0-0.146,0.066-0.266,0.2-0.359l4.34-3.359c0.146-0.094,0.32-0.141,0.52-0.141h0.94c0.133,0,0.243,0.043,0.33,0.13
							s0.13,0.196,0.13,0.33v13.08c0,0.134-0.043,0.243-0.13,0.33s-0.197,0.13-0.33,0.13h-0.98
							C1181.126,436.059,1181.02,436.016,1180.939,435.929z"/>
						<path fill="#1B7FFF" d="M1191.479,435.049c-0.801-0.807-1.221-1.938-1.261-3.391l-0.02-0.8l0.02-0.8
							c0.04-1.453,0.46-2.583,1.261-3.391c0.8-0.807,1.913-1.209,3.34-1.209c0.96,0,1.77,0.17,2.43,0.51s1.153,0.764,1.48,1.27
							c0.326,0.508,0.503,1.014,0.529,1.521c0.014,0.12-0.029,0.227-0.13,0.319c-0.1,0.094-0.21,0.141-0.33,0.141h-0.88
							c-0.133,0-0.233-0.03-0.3-0.09c-0.066-0.061-0.134-0.17-0.2-0.33c-0.24-0.653-0.569-1.117-0.99-1.391
							c-0.42-0.273-0.949-0.41-1.59-0.41c-0.84,0-1.507,0.261-2,0.781c-0.493,0.52-0.76,1.312-0.8,2.379l-0.02,0.7l0.02,0.7
							c0.04,1.066,0.307,1.859,0.8,2.38s1.16,0.78,2,0.78c0.653,0,1.187-0.137,1.601-0.41c0.413-0.273,0.739-0.736,0.979-1.391
							c0.066-0.159,0.134-0.27,0.2-0.33c0.066-0.059,0.167-0.09,0.3-0.09h0.88c0.12,0,0.23,0.047,0.33,0.141
							c0.101,0.094,0.144,0.199,0.13,0.32c-0.026,0.493-0.203,0.993-0.529,1.5c-0.327,0.506-0.82,0.934-1.48,1.279
							c-0.66,0.347-1.47,0.521-2.43,0.521C1193.392,436.259,1192.278,435.855,1191.479,435.049z"/>
						<path fill="#1B7FFF" d="M1201.788,435.929c-0.087-0.087-0.13-0.196-0.13-0.33v-9.479c0-0.134,0.043-0.244,0.13-0.33
							c0.087-0.087,0.196-0.131,0.33-0.131h0.84c0.134,0,0.24,0.044,0.32,0.131c0.08,0.086,0.12,0.196,0.12,0.33v0.68
							c0.72-0.894,1.693-1.34,2.92-1.34c1.467,0,2.507,0.613,3.12,1.84c0.319-0.561,0.776-1.007,1.37-1.34
							c0.593-0.334,1.256-0.5,1.989-0.5c1.094,0,1.987,0.373,2.681,1.119c0.692,0.748,1.04,1.827,1.04,3.24v5.78
							c0,0.134-0.044,0.243-0.13,0.33c-0.087,0.087-0.197,0.13-0.33,0.13h-0.86c-0.134,0-0.243-0.043-0.33-0.13
							s-0.13-0.196-0.13-0.33v-5.601c0-1.066-0.22-1.83-0.66-2.289c-0.439-0.461-1.02-0.69-1.74-0.69
							c-0.64,0-1.189,0.237-1.649,0.71c-0.46,0.474-0.69,1.23-0.69,2.27v5.601c0,0.134-0.043,0.243-0.13,0.33s-0.197,0.13-0.33,0.13
							h-0.88c-0.134,0-0.243-0.043-0.33-0.13s-0.13-0.196-0.13-0.33v-5.601c0-1.053-0.23-1.812-0.69-2.279s-1.029-0.7-1.71-0.7
							c-0.64,0-1.189,0.233-1.649,0.7s-0.69,1.22-0.69,2.26v5.62c0,0.134-0.043,0.243-0.13,0.33s-0.197,0.13-0.33,0.13h-0.88
							C1201.984,436.059,1201.875,436.016,1201.788,435.929z"/>
					</g>
				</g>
			</g>
		</g>
		<g>
			<g>
				
					<line fill="none" stroke="#1B7FFF" stroke-width="2.25" stroke-linecap="round" stroke-linejoin="round" x1="1137" y1="431" x2="1138.5" y2="431"/>
				
					<line fill="none" stroke="#1B7FFF" stroke-width="2.25" stroke-linecap="round" stroke-linejoin="round" stroke-dasharray="3.6923,6.1538" x1="1144.654" y1="431" x2="1151.423" y2="431"/>
				
					<line fill="none" stroke="#1B7FFF" stroke-width="2.25" stroke-linecap="round" stroke-linejoin="round" x1="1154.5" y1="431" x2="1156" y2="431"/>
			</g>
		</g>
	</g>
	<g>
		<g id="MTEXT_129_" opacity="0.96">
			<g>
				<g>
					<g>
						<path fill="#1B7FFF" d="M951.329,367.229c-0.087-0.088-0.13-0.197-0.13-0.33v-0.601c0-0.307,0.166-0.601,0.5-0.88l4.359-4.34
							c0.986-0.84,1.667-1.527,2.04-2.061s0.561-1.1,0.561-1.699c0-0.787-0.221-1.404-0.66-1.851c-0.44-0.446-1.08-0.67-1.92-0.67
							c-0.801,0-1.434,0.233-1.9,0.7s-0.753,1.094-0.86,1.88c-0.026,0.147-0.093,0.26-0.199,0.34c-0.107,0.08-0.214,0.12-0.32,0.12
							h-0.96c-0.12,0-0.22-0.04-0.3-0.12s-0.12-0.173-0.12-0.28c0.026-0.706,0.217-1.39,0.569-2.05c0.354-0.659,0.877-1.2,1.57-1.62
							s1.533-0.63,2.521-0.63c1.493,0,2.616,0.39,3.37,1.171c0.753,0.779,1.13,1.77,1.13,2.969c0,0.84-0.204,1.598-0.61,2.271
							c-0.407,0.673-1.043,1.384-1.91,2.13l-3.939,4h6.3c0.146,0,0.26,0.04,0.34,0.12s0.12,0.193,0.12,0.34v0.761
							c0,0.133-0.044,0.242-0.13,0.33c-0.087,0.086-0.197,0.129-0.33,0.129h-8.76C951.525,367.357,951.415,367.314,951.329,367.229z
							"/>
						<path fill="#1B7FFF" d="M965.269,366.908c-0.78-0.434-1.374-1.018-1.78-1.75c-0.406-0.733-0.609-1.533-0.609-2.4
							c0-1.146,0.46-2.373,1.38-3.68l3.819-5.32c0.014-0.014,0.051-0.061,0.11-0.141c0.06-0.079,0.137-0.143,0.229-0.189
							c0.094-0.047,0.2-0.07,0.32-0.07h0.98c0.12,0,0.216,0.044,0.29,0.131c0.073,0.086,0.109,0.189,0.109,0.31
							c0,0.067-0.033,0.153-0.1,0.261l-2.92,4.079c0.347-0.079,0.733-0.12,1.16-0.12c0.973,0,1.83,0.217,2.569,0.65
							c0.74,0.434,1.313,1.007,1.721,1.72c0.406,0.714,0.609,1.497,0.609,2.351s-0.203,1.649-0.609,2.39
							c-0.407,0.739-0.997,1.33-1.771,1.771c-0.773,0.439-1.687,0.66-2.74,0.66C966.972,367.559,966.049,367.342,965.269,366.908z
							 M969.639,365.538c0.493-0.24,0.887-0.597,1.18-1.07s0.44-1.043,0.44-1.71c0-0.652-0.15-1.217-0.45-1.689
							c-0.3-0.474-0.697-0.834-1.19-1.08c-0.493-0.247-1.026-0.371-1.6-0.371s-1.107,0.124-1.601,0.371
							c-0.493,0.246-0.887,0.606-1.18,1.08c-0.293,0.473-0.439,1.037-0.439,1.689c0,0.667,0.146,1.236,0.439,1.71
							s0.687,0.83,1.18,1.07c0.493,0.239,1.027,0.36,1.601,0.36C968.605,365.898,969.145,365.777,969.639,365.538z"/>
						<path fill="#1B7FFF" d="M974.64,357.098l-0.341-3.48v-0.079c0-0.12,0.037-0.214,0.11-0.28s0.17-0.1,0.29-0.1h1.26
							c0.134,0,0.236,0.043,0.311,0.13c0.073,0.087,0.103,0.196,0.09,0.329l-0.34,3.48c-0.027,0.293-0.16,0.44-0.4,0.44h-0.58
							C974.799,357.538,974.666,357.391,974.64,357.098z M977.699,357.098l-0.34-3.48v-0.039c0-0.133,0.036-0.236,0.109-0.311
							c0.073-0.072,0.171-0.109,0.29-0.109h1.261c0.133,0,0.236,0.043,0.31,0.13s0.104,0.196,0.09,0.329l-0.34,3.48
							c-0.026,0.293-0.16,0.44-0.4,0.44H978.1C977.859,357.538,977.726,357.391,977.699,357.098z"/>
						<path fill="#1B7FFF" d="M953.589,388.608c-0.78-0.433-1.374-1.017-1.78-1.75s-0.609-1.532-0.609-2.399
							c0-1.146,0.46-2.373,1.38-3.68l3.819-5.32c0.014-0.014,0.051-0.061,0.11-0.141s0.137-0.143,0.229-0.189
							c0.094-0.047,0.2-0.07,0.32-0.07h0.98c0.12,0,0.216,0.043,0.29,0.13c0.073,0.087,0.109,0.19,0.109,0.31
							c0,0.067-0.033,0.154-0.1,0.261l-2.92,4.079c0.347-0.079,0.733-0.119,1.16-0.119c0.973,0,1.83,0.217,2.569,0.65
							c0.74,0.434,1.313,1.006,1.721,1.719c0.406,0.715,0.609,1.498,0.609,2.351c0,0.854-0.203,1.649-0.609,2.39
							c-0.407,0.74-0.997,1.33-1.771,1.771s-1.687,0.66-2.74,0.66C955.292,389.259,954.369,389.042,953.589,388.608z
							 M957.959,387.238c0.493-0.24,0.887-0.596,1.18-1.07c0.293-0.473,0.44-1.043,0.44-1.709c0-0.653-0.15-1.217-0.45-1.69
							s-0.697-0.833-1.19-1.08s-1.026-0.37-1.6-0.37s-1.107,0.123-1.601,0.37s-0.887,0.606-1.18,1.08s-0.439,1.037-0.439,1.69
							c0,0.666,0.146,1.236,0.439,1.709c0.293,0.475,0.687,0.83,1.18,1.07s1.027,0.36,1.601,0.36
							C956.926,387.599,957.465,387.479,957.959,387.238z"/>
						<path fill="#1B7FFF" d="M965.589,388.608c-0.78-0.433-1.374-1.017-1.78-1.75s-0.609-1.532-0.609-2.399
							c0-1.146,0.46-2.373,1.38-3.68l3.819-5.32c0.014-0.014,0.051-0.061,0.11-0.141s0.137-0.143,0.229-0.189
							c0.094-0.047,0.2-0.07,0.32-0.07h0.98c0.12,0,0.216,0.043,0.29,0.13c0.073,0.087,0.109,0.19,0.109,0.31
							c0,0.067-0.033,0.154-0.1,0.261l-2.92,4.079c0.347-0.079,0.733-0.119,1.16-0.119c0.973,0,1.83,0.217,2.569,0.65
							c0.74,0.434,1.313,1.006,1.721,1.719c0.406,0.715,0.609,1.498,0.609,2.351c0,0.854-0.203,1.649-0.609,2.39
							c-0.407,0.74-0.997,1.33-1.771,1.771s-1.687,0.66-2.74,0.66C967.292,389.259,966.369,389.042,965.589,388.608z
							 M969.959,387.238c0.493-0.24,0.887-0.596,1.18-1.07c0.293-0.473,0.44-1.043,0.44-1.709c0-0.653-0.15-1.217-0.45-1.69
							s-0.697-0.833-1.19-1.08s-1.026-0.37-1.6-0.37s-1.107,0.123-1.601,0.37s-0.887,0.606-1.18,1.08s-0.439,1.037-0.439,1.69
							c0,0.666,0.146,1.236,0.439,1.709c0.293,0.475,0.687,0.83,1.18,1.07s1.027,0.36,1.601,0.36
							C968.926,387.599,969.465,387.479,969.959,387.238z"/>
						<path fill="#1B7FFF" d="M981.458,388.049c-0.801-0.807-1.221-1.938-1.261-3.391l-0.02-0.8l0.02-0.8
							c0.04-1.453,0.46-2.583,1.261-3.391c0.8-0.807,1.913-1.209,3.34-1.209c0.96,0,1.77,0.17,2.43,0.51s1.153,0.764,1.48,1.27
							c0.326,0.508,0.503,1.014,0.529,1.521c0.014,0.12-0.029,0.227-0.13,0.319c-0.1,0.094-0.21,0.141-0.33,0.141h-0.88
							c-0.133,0-0.233-0.03-0.3-0.09c-0.066-0.061-0.134-0.17-0.2-0.33c-0.24-0.653-0.569-1.117-0.99-1.391
							c-0.42-0.273-0.949-0.41-1.59-0.41c-0.84,0-1.507,0.261-2,0.781c-0.493,0.52-0.76,1.312-0.8,2.379l-0.02,0.7l0.02,0.7
							c0.04,1.066,0.307,1.859,0.8,2.38s1.16,0.78,2,0.78c0.653,0,1.187-0.137,1.601-0.41c0.413-0.273,0.739-0.736,0.979-1.391
							c0.066-0.159,0.134-0.27,0.2-0.33c0.066-0.059,0.167-0.09,0.3-0.09h0.88c0.12,0,0.23,0.047,0.33,0.141
							c0.101,0.094,0.144,0.199,0.13,0.32c-0.026,0.493-0.203,0.993-0.529,1.5c-0.327,0.506-0.82,0.934-1.48,1.279
							c-0.66,0.347-1.47,0.521-2.43,0.521C983.371,389.259,982.258,388.855,981.458,388.049z"/>
						<path fill="#1B7FFF" d="M991.768,388.929c-0.087-0.087-0.13-0.196-0.13-0.33v-9.479c0-0.134,0.043-0.244,0.13-0.33
							c0.087-0.087,0.196-0.131,0.33-0.131h0.84c0.134,0,0.24,0.044,0.32,0.131c0.08,0.086,0.12,0.196,0.12,0.33v0.68
							c0.72-0.894,1.693-1.34,2.92-1.34c1.467,0,2.507,0.613,3.12,1.84c0.319-0.561,0.776-1.007,1.37-1.34
							c0.593-0.334,1.256-0.5,1.989-0.5c1.094,0,1.987,0.373,2.681,1.119c0.692,0.748,1.04,1.827,1.04,3.24v5.78
							c0,0.134-0.044,0.243-0.13,0.33c-0.087,0.087-0.197,0.13-0.33,0.13h-0.86c-0.134,0-0.243-0.043-0.33-0.13
							s-0.13-0.196-0.13-0.33v-5.601c0-1.066-0.22-1.83-0.66-2.289c-0.439-0.461-1.02-0.69-1.74-0.69
							c-0.64,0-1.189,0.237-1.649,0.71c-0.46,0.474-0.69,1.23-0.69,2.27v5.601c0,0.134-0.043,0.243-0.13,0.33s-0.197,0.13-0.33,0.13
							h-0.88c-0.134,0-0.243-0.043-0.33-0.13s-0.13-0.196-0.13-0.33v-5.601c0-1.053-0.23-1.812-0.69-2.279s-1.029-0.7-1.71-0.7
							c-0.64,0-1.189,0.233-1.649,0.7s-0.69,1.22-0.69,2.26v5.62c0,0.134-0.043,0.243-0.13,0.33s-0.197,0.13-0.33,0.13h-0.88
							C991.964,389.059,991.854,389.016,991.768,388.929z"/>
					</g>
				</g>
			</g>
		</g>
		<g>
			<g>
				
					<line fill="none" stroke="#1B7FFF" stroke-width="2.25" stroke-linecap="round" stroke-linejoin="round" x1="953" y1="400" x2="954.5" y2="400"/>
				
					<line fill="none" stroke="#1B7FFF" stroke-width="2.25" stroke-linecap="round" stroke-linejoin="round" stroke-dasharray="2.5862,4.3103" x1="958.81" y1="400" x2="977.345" y2="400"/>
				
					<line fill="none" stroke="#1B7FFF" stroke-width="2.25" stroke-linecap="round" stroke-linejoin="round" x1="979.5" y1="400" x2="981" y2="400"/>
			</g>
		</g>
	</g>
	<g>
		<g id="MTEXT_120_" opacity="0.96">
			<g>
				<g>
					<g>
						<path fill="#1B7FFF" d="M1168.419,490.229c-0.08-0.088-0.12-0.197-0.12-0.33v-11.281l-3.36,2.58
							c-0.093,0.08-0.193,0.121-0.3,0.121c-0.12,0-0.233-0.066-0.34-0.201l-0.48-0.619c-0.066-0.094-0.1-0.187-0.1-0.28
							c0-0.146,0.066-0.267,0.2-0.36l4.34-3.359c0.146-0.094,0.32-0.141,0.52-0.141h0.94c0.133,0,0.243,0.044,0.33,0.131
							c0.087,0.086,0.13,0.196,0.13,0.33v13.08c0,0.133-0.043,0.242-0.13,0.33c-0.087,0.086-0.197,0.129-0.33,0.129h-0.98
							C1168.605,490.357,1168.499,490.314,1168.419,490.229z"/>
						<path fill="#1B7FFF" d="M1174.938,490.018c-0.733-0.359-1.293-0.83-1.68-1.41s-0.594-1.203-0.62-1.869v-0.041
							c0-0.105,0.04-0.192,0.12-0.26c0.08-0.066,0.173-0.1,0.28-0.1h0.979c0.28,0,0.46,0.146,0.54,0.439
							c0.2,0.721,0.57,1.258,1.11,1.61c0.54,0.354,1.163,0.53,1.87,0.53c0.906,0,1.66-0.277,2.26-0.83s0.9-1.316,0.9-2.29
							c0-0.894-0.301-1.603-0.9-2.13s-1.354-0.79-2.26-0.79c-0.48,0-0.867,0.06-1.16,0.181c-0.294,0.119-0.594,0.293-0.9,0.52
							c-0.173,0.133-0.316,0.23-0.43,0.289c-0.113,0.061-0.237,0.091-0.37,0.091h-0.96c-0.12,0-0.227-0.044-0.32-0.13
							c-0.093-0.087-0.133-0.19-0.12-0.311l0.62-6.66c0.04-0.332,0.207-0.5,0.5-0.5h6.92c0.146,0,0.261,0.041,0.341,0.121
							c0.079,0.08,0.119,0.193,0.119,0.34v0.74c0,0.133-0.043,0.239-0.13,0.319s-0.196,0.12-0.33,0.12h-5.76l-0.359,4.02
							c0.64-0.453,1.5-0.68,2.579-0.68c0.894,0,1.707,0.177,2.44,0.529c0.733,0.354,1.316,0.871,1.75,1.551s0.65,1.486,0.65,2.42
							c0,0.986-0.217,1.837-0.65,2.55c-0.434,0.714-1.033,1.253-1.8,1.62s-1.644,0.551-2.63,0.551
							C1176.539,490.559,1175.672,490.378,1174.938,490.018z"/>
						<path fill="#1B7FFF" d="M1185.039,480.098l-0.341-3.48v-0.079c0-0.12,0.037-0.214,0.11-0.28s0.17-0.1,0.29-0.1h1.26
							c0.134,0,0.236,0.043,0.311,0.13c0.073,0.087,0.103,0.196,0.09,0.329l-0.34,3.48c-0.027,0.293-0.16,0.44-0.4,0.44h-0.58
							C1185.198,480.538,1185.065,480.391,1185.039,480.098z M1188.099,480.098l-0.34-3.48v-0.039c0-0.133,0.036-0.236,0.109-0.311
							c0.073-0.072,0.171-0.109,0.29-0.109h1.261c0.133,0,0.236,0.043,0.31,0.13s0.104,0.196,0.09,0.329l-0.34,3.48
							c-0.026,0.293-0.16,0.44-0.4,0.44h-0.579C1188.259,480.538,1188.125,480.391,1188.099,480.098z"/>
						<path fill="#1B7FFF" d="M1166.438,511.748c-0.76-0.34-1.337-0.783-1.729-1.33c-0.394-0.546-0.604-1.112-0.63-1.699
							c0-0.12,0.04-0.217,0.12-0.29c0.079-0.073,0.18-0.11,0.3-0.11h0.899c0.146,0,0.267,0.03,0.36,0.09
							c0.093,0.061,0.167,0.178,0.22,0.351c0.174,0.68,0.55,1.159,1.13,1.44c0.58,0.279,1.264,0.42,2.051,0.42
							c0.96,0,1.723-0.23,2.29-0.69c0.566-0.46,0.85-1.116,0.85-1.97c0-1.627-0.993-2.44-2.98-2.44h-1.88
							c-0.133,0-0.243-0.043-0.33-0.13c-0.087-0.086-0.13-0.197-0.13-0.33v-0.52c0-0.201,0.073-0.373,0.221-0.521l3.899-4.319h-5.92
							c-0.134,0-0.243-0.041-0.33-0.121s-0.13-0.186-0.13-0.319v-0.72c0-0.146,0.043-0.264,0.13-0.351s0.196-0.13,0.33-0.13h7.92
							c0.146,0,0.264,0.043,0.351,0.13c0.086,0.087,0.13,0.204,0.13,0.351v0.66c0,0.146-0.067,0.299-0.2,0.459l-3.9,4.381h0.32
							c1.36,0.039,2.437,0.393,3.229,1.06c0.794,0.667,1.19,1.64,1.19,2.92c0,0.88-0.217,1.637-0.65,2.271
							c-0.433,0.633-1.036,1.119-1.81,1.459s-1.646,0.511-2.62,0.511C1168.099,512.259,1167.199,512.088,1166.438,511.748z"/>
						<path fill="#1B7FFF" d="M1178.809,511.748c-0.793-0.34-1.41-0.83-1.85-1.469c-0.44-0.641-0.66-1.387-0.66-2.24
							c0-0.787,0.196-1.477,0.59-2.07s0.923-1.051,1.59-1.37c-0.533-0.307-0.946-0.71-1.24-1.21c-0.293-0.5-0.439-1.09-0.439-1.77
							c0-1.16,0.433-2.077,1.3-2.75c0.866-0.674,2.007-1.011,3.42-1.011s2.55,0.333,3.41,1s1.29,1.587,1.29,2.761
							c0,0.666-0.146,1.25-0.44,1.75c-0.293,0.5-0.699,0.91-1.22,1.229c0.667,0.319,1.196,0.776,1.59,1.37s0.59,1.29,0.59,2.09
							c0,0.854-0.22,1.597-0.659,2.23c-0.44,0.633-1.058,1.119-1.851,1.459s-1.696,0.511-2.71,0.511
							S1179.602,512.088,1178.809,511.748z M1183.889,509.979c0.633-0.48,0.95-1.12,0.95-1.92s-0.317-1.439-0.95-1.92
							c-0.634-0.48-1.424-0.721-2.37-0.721c-0.96,0-1.757,0.24-2.39,0.721c-0.634,0.48-0.95,1.12-0.95,1.92s0.316,1.439,0.95,1.92
							c0.633,0.48,1.43,0.721,2.39,0.721C1182.465,510.699,1183.255,510.459,1183.889,509.979z M1183.579,503.259
							c0.56-0.4,0.84-0.933,0.84-1.601c0-0.68-0.277-1.223-0.83-1.629c-0.554-0.407-1.243-0.611-2.07-0.611
							c-0.84,0-1.533,0.204-2.08,0.611c-0.547,0.406-0.819,0.949-0.819,1.629s0.272,1.224,0.819,1.631
							c0.547,0.406,1.24,0.609,2.08,0.609C1182.332,503.872,1183.019,503.658,1183.579,503.259z"/>
						<path fill="#1B7FFF" d="M1195.099,511.049c-0.801-0.807-1.221-1.938-1.261-3.391l-0.02-0.8l0.02-0.8
							c0.04-1.453,0.46-2.583,1.261-3.391c0.8-0.807,1.913-1.209,3.34-1.209c0.96,0,1.77,0.17,2.43,0.51s1.153,0.764,1.48,1.27
							c0.326,0.508,0.503,1.014,0.529,1.521c0.014,0.12-0.029,0.227-0.13,0.319c-0.1,0.094-0.21,0.141-0.33,0.141h-0.88
							c-0.133,0-0.233-0.03-0.3-0.09c-0.066-0.061-0.134-0.17-0.2-0.33c-0.24-0.653-0.569-1.117-0.99-1.391
							c-0.42-0.273-0.949-0.41-1.59-0.41c-0.84,0-1.507,0.261-2,0.781c-0.493,0.52-0.76,1.312-0.8,2.379l-0.02,0.7l0.02,0.7
							c0.04,1.066,0.307,1.859,0.8,2.38s1.16,0.78,2,0.78c0.653,0,1.187-0.137,1.601-0.41c0.413-0.273,0.739-0.736,0.979-1.391
							c0.066-0.159,0.134-0.27,0.2-0.33c0.066-0.059,0.167-0.09,0.3-0.09h0.88c0.12,0,0.23,0.047,0.33,0.141
							c0.101,0.094,0.144,0.199,0.13,0.32c-0.026,0.493-0.203,0.993-0.529,1.5c-0.327,0.506-0.82,0.934-1.48,1.279
							c-0.66,0.347-1.47,0.521-2.43,0.521C1197.012,512.259,1195.898,511.855,1195.099,511.049z"/>
						<path fill="#1B7FFF" d="M1205.407,511.929c-0.087-0.087-0.13-0.196-0.13-0.33v-9.479c0-0.134,0.043-0.244,0.13-0.33
							c0.087-0.087,0.196-0.131,0.33-0.131h0.84c0.134,0,0.24,0.044,0.32,0.131c0.08,0.086,0.12,0.196,0.12,0.33v0.68
							c0.72-0.894,1.693-1.34,2.92-1.34c1.467,0,2.507,0.613,3.12,1.84c0.319-0.561,0.776-1.007,1.37-1.34
							c0.593-0.334,1.256-0.5,1.989-0.5c1.094,0,1.987,0.373,2.681,1.119c0.692,0.748,1.04,1.827,1.04,3.24v5.78
							c0,0.134-0.044,0.243-0.13,0.33c-0.087,0.087-0.197,0.13-0.33,0.13h-0.86c-0.134,0-0.243-0.043-0.33-0.13
							s-0.13-0.196-0.13-0.33v-5.601c0-1.066-0.22-1.83-0.66-2.289c-0.439-0.461-1.02-0.69-1.74-0.69
							c-0.64,0-1.189,0.237-1.649,0.71c-0.46,0.474-0.69,1.23-0.69,2.27v5.601c0,0.134-0.043,0.243-0.13,0.33s-0.197,0.13-0.33,0.13
							h-0.88c-0.134,0-0.243-0.043-0.33-0.13s-0.13-0.196-0.13-0.33v-5.601c0-1.053-0.23-1.812-0.69-2.279s-1.029-0.7-1.71-0.7
							c-0.64,0-1.189,0.233-1.649,0.7s-0.69,1.22-0.69,2.26v5.62c0,0.134-0.043,0.243-0.13,0.33s-0.197,0.13-0.33,0.13h-0.88
							C1205.604,512.059,1205.494,512.016,1205.407,511.929z"/>
					</g>
				</g>
			</g>
		</g>
		<g>
			<g>
				
					<line fill="none" stroke="#1B7FFF" stroke-width="2.25" stroke-linecap="round" stroke-linejoin="round" x1="1137" y1="484" x2="1138.5" y2="484"/>
				
					<line fill="none" stroke="#1B7FFF" stroke-width="2.25" stroke-linecap="round" stroke-linejoin="round" stroke-dasharray="3.4615,5.7692" x1="1144.269" y1="484" x2="1150.615" y2="484"/>
				
					<line fill="none" stroke="#1B7FFF" stroke-width="2.25" stroke-linecap="round" stroke-linejoin="round" x1="1153.5" y1="484" x2="1155" y2="484"/>
			</g>
		</g>
	</g>
</g>
<g id="N-TEXT">
</g>
<g id="AG-DIAGRAM">
	<g id="POLYLINE_956_">
		<g>
			<g>
				
					<line fill="none" stroke="#1B7FFF" stroke-width="3.25" stroke-linecap="round" stroke-linejoin="round" x1="72.816" y1="248.136" x2="74.816" y2="248.136"/>
				
					<line fill="none" stroke="#1B7FFF" stroke-width="3.25" stroke-linecap="round" stroke-linejoin="round" stroke-dasharray="3.9942,6.9898" x1="81.805" y1="248.136" x2="715.379" y2="248.136"/>
				
					<line fill="none" stroke="#1B7FFF" stroke-width="3.25" stroke-linecap="round" stroke-linejoin="round" x1="718.874" y1="248.136" x2="720.874" y2="248.136"/>
			</g>
		</g>
	</g>
	<g id="POLYLINE_955_">
		<g>
			<g>
				
					<line fill="none" stroke="#1B7FFF" stroke-width="3.25" stroke-linecap="round" stroke-linejoin="round" x1="779.126" y1="248.136" x2="781.126" y2="248.136"/>
				
					<line fill="none" stroke="#1B7FFF" stroke-width="3.25" stroke-linecap="round" stroke-linejoin="round" stroke-dasharray="3.9942,6.9898" x1="788.116" y1="248.136" x2="1421.69" y2="248.136"/>
				
					<line fill="none" stroke="#1B7FFF" stroke-width="3.25" stroke-linecap="round" stroke-linejoin="round" x1="1425.184" y1="248.136" x2="1427.184" y2="248.136"/>
			</g>
		</g>
	</g>
	<g id="POLYLINE_954_">
		<g>
			<g>
				
					<line fill="none" stroke="#1B7FFF" stroke-width="3.25" stroke-linecap="round" stroke-linejoin="round" x1="878.126" y1="590.883" x2="880.126" y2="590.883"/>
				
					<line fill="none" stroke="#1B7FFF" stroke-width="3.25" stroke-linecap="round" stroke-linejoin="round" stroke-dasharray="3.9153,6.8518" x1="886.978" y1="590.883" x2="1131.195" y2="590.883"/>
				
					<line fill="none" stroke="#1B7FFF" stroke-width="3.25" stroke-linecap="round" stroke-linejoin="round" x1="1134.621" y1="590.883" x2="1136.621" y2="590.883"/>
			</g>
		</g>
	</g>
</g>
<g id="AG-DETAIL-DIAGRAM">
	<g id="POLYLINE_953_">
		<g>
			<g>
				<path fill="none" stroke="#1B7FFF" stroke-width="2.25" stroke-linecap="round" stroke-linejoin="round" d="M1125.699,486.525
					c-0.496-0.062-0.992-0.125-1.488-0.188"/>
				
					<path fill="none" stroke="#1B7FFF" stroke-width="2.25" stroke-linecap="round" stroke-linejoin="round" stroke-dasharray="2.9436,4.9059" d="
					M1119.343,485.725c-3.968-0.493-7.939-0.961-11.919-1.334c-6.558-0.614-13.114-1.191-19.688-1.589
					c-6.71-0.406-13.419-0.67-20.139-0.846c-6.058-0.159-12.125-0.152-18.184-0.043c-6.471,0.116-12.935,0.389-19.395,0.77
					c-6.163,0.364-12.319,0.886-18.458,1.54c-3.352,0.357-6.698,0.749-10.041,1.18c-1.384,0.179-2.767,0.367-4.148,0.562
					c-0.945,0.134-1.889,0.275-2.834,0.413c-0.256,0.037-0.827,0.233-1.035,0.101c-0.297-0.188-0.577-1.007-0.746-1.302
					c-0.54-0.942-1.079-1.885-1.619-2.827c-1.754-3.063-3.508-6.126-5.262-9.189c-4.639-8.1-9.277-16.199-13.916-24.299
					c-2.707-4.727-5.414-9.454-8.121-14.18"/>
				<path fill="none" stroke="#1B7FFF" stroke-width="2.25" stroke-linecap="round" stroke-linejoin="round" d="M962.618,432.553
					c-0.087-0.152-0.174-0.304-0.261-0.456c-0.161-0.282-0.323-0.564-0.484-0.846"/>
			</g>
		</g>
	</g>
</g>
<g id="AG-DETAIL">
</g>
<g id="AG-FURNITURE">
	<g id="POLYLINE_951_">
		
			<path fill="none" stroke="#1B7FFF" stroke-width="2.75" stroke-linecap="round" stroke-linejoin="round" stroke-miterlimit="10" d="
			M508.495,365.155c-5.521,0.007-10.687,3.232-13.101,8.203c-1.086,2.237-1.462,4.598-1.462,7.062c0,2.616,0,5.233,0,7.849
			c0,1.402-0.067,2.828,0.067,4.226c0.531,5.533,4.292,10.39,9.515,12.293c1.81,0.659,3.673,0.879,5.586,0.879
			c2.674,0,5.349,0,8.023,0c10.666,0,21.331,0,31.997,0c10.062,0,20.125,0,30.187,0c3.176,0,6.352,0,9.529,0
			c8.909,0,17.818,0,26.727,0c11.651,0,23.303,0,34.955,0c7.321,0,14.643,0,21.964,0c4.537,0,8.761-1.352,11.88-4.812
			c1.832-2.032,3.067-4.574,3.534-7.27c0.195-1.129,0.213-2.258,0.213-3.399c0-2.658,0-5.316,0-7.974c0-2.678-0.003-5.23-0.99-7.769
			c-1.016-2.612-2.79-4.905-5.065-6.542c-2.175-1.566-4.775-2.51-7.448-2.705c-1.414-0.103-2.851-0.039-4.267-0.039
			c-8.691,0-17.381,0-26.072,0c-11.617,0-23.234,0-34.851,0c-7.66,0-15.319,0-22.979,0c-3.777,0-7.555,0-11.332,0
			c-10.856,0-21.711,0-32.567,0c-9.768,0-19.535,0-29.303,0C511.653,365.155,510.074,365.155,508.495,365.155z"/>
	</g>
	<g id="POLYLINE_950_">
		
			<path fill="none" stroke="#1B7FFF" stroke-width="2.75" stroke-linecap="round" stroke-linejoin="round" stroke-miterlimit="10" d="
			M493.932,433.227c0.007,5.23,2.897,10.168,7.468,12.718c3.703,2.066,7.654,1.846,11.73,1.846c9.207,0,18.414,0,27.621,0
			c10.626,0,21.251,0,31.877,0c4.23,0,8.46,0,12.689,0c6.062,0,12.123,0,18.185,0c10.871,0,21.743,0,32.614,0
			c9.656,0,19.312,0,28.967,0c2.481,0,4.963,0,7.444,0c1.569,0,3.109-0.065,4.641-0.459c5.152-1.326,9.259-5.481,10.522-10.649
			c0.276-1.13,0.415-2.292,0.416-3.455"/>
	</g>
	<g id="POLYLINE_949_">
		
			<path fill="none" stroke="#1B7FFF" stroke-width="2.75" stroke-linecap="round" stroke-linejoin="round" stroke-miterlimit="10" d="
			M493.932,391.104c0,1.109,0,2.217,0,3.326c0,3.077,0,6.155,0,9.232c0,4.698,0,9.396,0,14.094c0,5.903,0,11.806,0,17.709
			c0,6.754,0,13.507,0,20.26c0,7.232,0,14.464,0,21.695c0,7.338,0,14.676,0,22.014c0,7.072,0,14.144,0,21.215
			c0,6.461,0,12.921,0,19.382c0,5.418,0,10.835,0,16.253c0,4.033,0,8.066,0,12.099c0,2.277,0,4.553,0,6.83
			c0,1.718,0.077,3.402,0.55,5.072c0.934,3.299,3.043,6.208,5.888,8.121c2.422,1.629,5.269,2.457,8.179,2.477
			c1.515,0.01,3.031,0,4.546,0c3.62,0,7.241,0,10.861,0c5.256,0,10.512,0,15.768,0c6.422,0,12.844,0,19.267,0
			c7.119,0,14.238,0,21.357,0c7.379,0,14.759,0,22.138,0c7.102,0,14.204,0,21.306,0c6.388,0,12.776,0,19.164,0
			c5.205,0,10.41,0,15.615,0c3.552,0,7.105,0,10.657,0c1.43,0,2.861,0.011,4.291,0c3.026-0.024,5.985-0.932,8.458-2.69
			c2.789-1.982,4.82-4.935,5.672-8.249c0.414-1.611,0.459-3.228,0.459-4.874c0-2.347,0-4.693,0-7.04c0-4.09,0-8.18,0-12.269
			c0-5.461,0-10.921,0-16.382c0-6.459,0-12.919,0-19.378c0-7.119,0-14.238,0-21.357c0-7.341,0-14.681,0-22.022
			c0-7.221,0-14.442,0-21.663c0-6.729,0-13.458,0-20.188c0-5.865,0-11.73,0-17.596c0-4.647,0-9.293,0-13.94c0-3.013,0-6.025,0-9.037
			c0-1.032,0-2.064,0-3.095"/>
	</g>
	<g id="POLYLINE_948_">
		
			<path fill="none" stroke="#1B7FFF" stroke-width="2.75" stroke-linecap="round" stroke-linejoin="round" stroke-miterlimit="10" d="
			M314.32,365.155c-5.521,0.007-10.687,3.232-13.101,8.203c-1.086,2.237-1.462,4.598-1.462,7.062c0,2.616,0,5.233,0,7.849
			c0,1.402-0.067,2.828,0.067,4.226c0.531,5.533,4.292,10.39,9.515,12.293c1.81,0.659,3.673,0.879,5.586,0.879
			c2.674,0,5.349,0,8.023,0c10.666,0,21.331,0,31.997,0c10.062,0,20.125,0,30.187,0c3.176,0,6.352,0,9.529,0
			c8.909,0,17.818,0,26.727,0c11.652,0,23.303,0,34.955,0c7.321,0,14.643,0,21.964,0c4.537,0,8.761-1.352,11.88-4.812
			c1.832-2.032,3.067-4.574,3.534-7.27c0.195-1.129,0.213-2.258,0.213-3.399c0-2.658,0-5.316,0-7.974c0-2.678-0.003-5.23-0.99-7.769
			c-1.016-2.612-2.79-4.905-5.065-6.542c-2.175-1.566-4.775-2.51-7.448-2.705c-1.414-0.103-2.851-0.039-4.267-0.039
			c-8.691,0-17.381,0-26.072,0c-11.617,0-23.234,0-34.851,0c-7.66,0-15.319,0-22.979,0c-3.777,0-7.555,0-11.332,0
			c-10.856,0-21.712,0-32.567,0c-9.768,0-19.535,0-29.303,0C317.478,365.155,315.899,365.155,314.32,365.155z"/>
	</g>
	<g id="POLYLINE_947_">
		
			<path fill="none" stroke="#1B7FFF" stroke-width="2.75" stroke-linecap="round" stroke-linejoin="round" stroke-miterlimit="10" d="
			M299.757,433.227c0.007,5.23,2.897,10.168,7.468,12.718c3.703,2.066,7.654,1.846,11.729,1.846c9.207,0,18.414,0,27.621,0
			c10.626,0,21.251,0,31.877,0c4.23,0,8.46,0,12.689,0c6.062,0,12.123,0,18.185,0c10.871,0,21.743,0,32.614,0
			c9.656,0,19.312,0,28.967,0c2.481,0,4.963,0,7.444,0c1.569,0,3.109-0.065,4.64-0.459c5.152-1.326,9.259-5.481,10.522-10.649
			c0.276-1.13,0.415-2.292,0.416-3.455"/>
	</g>
	<g id="POLYLINE_946_">
		
			<path fill="none" stroke="#1B7FFF" stroke-width="2.75" stroke-linecap="round" stroke-linejoin="round" stroke-miterlimit="10" d="
			M299.757,391.104c0,1.109,0,2.217,0,3.326c0,3.077,0,6.155,0,9.232c0,4.698,0,9.396,0,14.094c0,5.903,0,11.806,0,17.709
			c0,6.754,0,13.507,0,20.26c0,7.232,0,14.464,0,21.695c0,7.338,0,14.676,0,22.014c0,7.072,0,14.144,0,21.215
			c0,6.461,0,12.921,0,19.382c0,5.418,0,10.835,0,16.253c0,4.033,0,8.066,0,12.099c0,2.277,0,4.553,0,6.83
			c0,1.718,0.077,3.402,0.55,5.072c0.934,3.299,3.043,6.208,5.888,8.121c2.422,1.629,5.269,2.457,8.179,2.477
			c1.515,0.01,3.031,0,4.546,0c3.62,0,7.241,0,10.861,0c5.256,0,10.512,0,15.768,0c6.422,0,12.844,0,19.267,0
			c7.119,0,14.238,0,21.357,0c7.379,0,14.759,0,22.138,0c7.102,0,14.204,0,21.306,0c6.388,0,12.776,0,19.164,0
			c5.205,0,10.41,0,15.615,0c3.552,0,7.105,0,10.657,0c1.43,0,2.861,0.011,4.291,0c3.026-0.024,5.985-0.932,8.458-2.69
			c2.789-1.982,4.82-4.935,5.672-8.249c0.414-1.611,0.459-3.228,0.459-4.874c0-2.347,0-4.693,0-7.04c0-4.09,0-8.18,0-12.269
			c0-5.461,0-10.921,0-16.382c0-6.459,0-12.919,0-19.378c0-7.119,0-14.238,0-21.357c0-7.341,0-14.681,0-22.022
			c0-7.221,0-14.442,0-21.663c0-6.729,0-13.458,0-20.188c0-5.865,0-11.73,0-17.596c0-4.647,0-9.293,0-13.94c0-3.013,0-6.025,0-9.037
			c0-1.032,0-2.064,0-3.095"/>
	</g>
	<g id="POLYLINE_945_">
		
			<path fill="none" stroke="#1B7FFF" stroke-width="2.75" stroke-linecap="round" stroke-linejoin="round" stroke-miterlimit="10" d="
			M105.583,391.104c0,1.109,0,2.217,0,3.326c0,3.077,0,6.155,0,9.232c0,4.698,0,9.396,0,14.094c0,5.903,0,11.806,0,17.709
			c0,6.754,0,13.507,0,20.26c0,7.232,0,14.464,0,21.695c0,7.338,0,14.676,0,22.014c0,7.072,0,14.144,0,21.215
			c0,6.461,0,12.921,0,19.382c0,5.418,0,10.835,0,16.253c0,4.033,0,8.066,0,12.099c0,2.277,0,4.553,0,6.83
			c0,1.718,0.077,3.402,0.55,5.072c0.934,3.299,3.043,6.208,5.888,8.121c2.422,1.629,5.269,2.457,8.179,2.477
			c1.515,0.01,3.031,0,4.546,0c3.62,0,7.241,0,10.861,0c5.256,0,10.512,0,15.768,0c6.422,0,12.844,0,19.267,0
			c7.119,0,14.238,0,21.357,0c7.379,0,14.759,0,22.138,0c7.102,0,14.204,0,21.306,0c6.388,0,12.776,0,19.164,0
			c5.205,0,10.41,0,15.615,0c3.552,0,7.105,0,10.657,0c1.43,0,2.861,0.011,4.291,0c3.026-0.024,5.985-0.932,8.458-2.69
			c2.789-1.982,4.82-4.935,5.672-8.249c0.414-1.611,0.459-3.228,0.459-4.874c0-2.347,0-4.693,0-7.04c0-4.09,0-8.18,0-12.269
			c0-5.461,0-10.921,0-16.382c0-6.459,0-12.919,0-19.378c0-7.119,0-14.238,0-21.357c0-7.341,0-14.681,0-22.022
			c0-7.221,0-14.442,0-21.663c0-6.729,0-13.458,0-20.188c0-5.865,0-11.73,0-17.596c0-4.647,0-9.293,0-13.94c0-3.013,0-6.025,0-9.037
			c0-1.032,0-2.064,0-3.095"/>
	</g>
	<g id="POLYLINE_944_">
		
			<path fill="none" stroke="#1B7FFF" stroke-width="2.75" stroke-linecap="round" stroke-linejoin="round" stroke-miterlimit="10" d="
			M105.583,433.227c0.007,5.23,2.897,10.168,7.468,12.718c3.703,2.066,7.654,1.846,11.729,1.846c9.207,0,18.414,0,27.621,0
			c10.626,0,21.251,0,31.877,0c4.23,0,8.46,0,12.689,0c6.062,0,12.123,0,18.185,0c10.871,0,21.743,0,32.614,0
			c9.656,0,19.312,0,28.967,0c2.481,0,4.963,0,7.444,0c1.569,0,3.109-0.065,4.64-0.459c5.152-1.326,9.259-5.481,10.522-10.649
			c0.276-1.13,0.415-2.292,0.416-3.455"/>
	</g>
	<g id="POLYLINE_943_">
		
			<path fill="none" stroke="#1B7FFF" stroke-width="2.75" stroke-linecap="round" stroke-linejoin="round" stroke-miterlimit="10" d="
			M120.146,365.155c-5.521,0.007-10.687,3.232-13.101,8.203c-1.086,2.237-1.462,4.598-1.462,7.062c0,2.616,0,5.233,0,7.849
			c0,1.402-0.067,2.828,0.067,4.226c0.531,5.533,4.292,10.39,9.515,12.293c1.81,0.659,3.673,0.879,5.586,0.879
			c2.674,0,5.349,0,8.023,0c10.666,0,21.331,0,31.997,0c10.062,0,20.125,0,30.187,0c3.176,0,6.352,0,9.529,0
			c8.909,0,17.818,0,26.727,0c11.652,0,23.303,0,34.955,0c7.321,0,14.643,0,21.964,0c4.537,0,8.761-1.352,11.88-4.812
			c1.832-2.032,3.067-4.574,3.534-7.27c0.195-1.129,0.213-2.258,0.213-3.399c0-2.658,0-5.316,0-7.974c0-2.678-0.003-5.23-0.99-7.769
			c-1.016-2.612-2.79-4.905-5.065-6.542c-2.175-1.566-4.775-2.51-7.448-2.705c-1.414-0.103-2.851-0.039-4.267-0.039
			c-8.691,0-17.381,0-26.072,0c-11.617,0-23.234,0-34.851,0c-7.66,0-15.319,0-22.979,0c-3.777,0-7.555,0-11.332,0
			c-10.856,0-21.712,0-32.567,0c-9.768,0-19.535,0-29.303,0C123.304,365.155,121.725,365.155,120.146,365.155z"/>
	</g>
	<g id="POLYLINE_942_">
		
			<path fill="none" stroke="#1B7FFF" stroke-width="2.75" stroke-linecap="round" stroke-linejoin="round" stroke-miterlimit="10" d="
			M716.92,332.388c2.667,0.03,3.953,2.265,3.953,4.632c0,1.526,0,3.053,0,4.579c0,2.774,0,5.549,0,8.323c0,3.848,0,7.696,0,11.544
			c0,4.726,0,9.453,0,14.179c0,5.483,0,10.965,0,16.448c0,6.048,0,12.095,0,18.143c0,6.443,0,12.885,0,19.328
			c0,6.634,0,13.269,0,19.903c0,6.723,0,13.446,0,20.169c0,6.609,0,13.219,0,19.828c0,6.295,0,12.59,0,18.886
			c0,5.875,0,11.749,0,17.624c0,5.252,0,10.504,0,15.756c0,4.44,0,8.879,0,13.319c0,3.502,0,7.004,0,10.506c0,2.371,0,4.741,0,7.112
			c0,1.067,0.019,2.136,0,3.202c-0.024,1.326-0.543,2.553-1.644,3.346c-1.306,0.94-2.912,0.745-4.428,0.745
			c-6.014,0.001-12.028,0-18.041,0c-1.562,0-3.133,0.051-4.694,0c-2.16-0.071-3.87-1.701-3.958-3.88c-0.038-0.945,0-1.899,0-2.844
			c0-2.458,0-4.915,0-7.372c0-3.738,0-7.477,0-11.215c0-4.765,0-9.531,0-14.296c0-5.613,0-11.225,0-16.838
			c0-6.211,0-12.421,0-18.632c0-6.547,0-13.095,0-19.642c0-6.722,0-13.445,0-20.167c0-6.637,0-13.274,0-19.912
			c0-6.294,0-12.588,0-18.882c0-5.786,0-11.573,0-17.359c0-5.018,0-10.036,0-15.055c0-4.005,0-8.01,0-12.015
			c0-2.805,0-5.609,0-8.414c0-1.353,0.011-2.707,0-4.061c-0.018-2.285-1.571-4.139-3.932-4.221c-0.468-0.016-0.94,0-1.408,0
			c-1.064,0-2.128,0-3.192,0c-1.628,0-3.257,0-4.885,0c-2.151,0-4.302,0-6.453,0c-2.666,0-5.331,0-7.997,0c-3.141,0-6.283,0-9.424,0
			c-3.569,0-7.137,0-10.706,0c-4.002,0-8.004,0-12.006,0c-4.389,0-8.778,0-13.167,0c-4.722,0-9.444,0-14.166,0
			c-5.073,0-10.146,0-15.218,0c-5.371,0-10.743,0-16.114,0c-5.64,0-11.28,0-16.921,0c-5.85,0-11.7,0-17.55,0
			c-6.088,0-12.177,0-18.265,0c-6.269,0-12.537,0-18.806,0c-6.387,0-12.775,0-19.162,0c-6.54,0-13.08,0-19.62,0
			c-6.632,0-13.264,0-19.896,0c-6.661,0-13.322,0-19.982,0c-6.727,0-13.453,0-20.18,0c-6.73,0-13.46,0-20.189,0
			c-6.67,0-13.341,0-20.011,0c-6.648,0-13.295,0-19.943,0c-6.562,0-13.125,0-19.687,0c-6.447,0-12.895,0-19.342,0
			c-6.272,0-12.544,0-18.816,0c-6.13,0-12.259,0-18.389,0c-5.926,0-11.852,0-17.778,0c-5.665,0-11.331,0-16.996,0
			c-5.432,0-10.863,0-16.295,0c-5.139,0-10.279,0-15.418,0c-4.795,0-9.589,0-14.384,0c-4.468,0-8.936,0-13.404,0
			c-4.087,0-8.175,0-12.262,0c-3.66,0-7.32,0-10.98,0c-3.24,0-6.479,0-9.719,0c-2.77,0-5.54,0-8.311,0c-2.261,0-4.523,0-6.784,0
			c-1.746,0-3.491,0-5.237,0c-1.188,0-2.375,0-3.563,0c-0.6,0-1.201-0.007-1.801,0c-2.243,0.027-4.075,1.585-4.165,3.896
			c-0.039,1.009,0,2.028,0,3.038c0,2.513,0,5.025,0,7.538c0,3.763,0,7.526,0,11.289c0,4.824,0,9.647,0,14.471
			c0,5.641,0,11.281,0,16.922c0,6.198,0,12.395,0,18.593c0,6.589,0,13.179,0,19.768c0,6.723,0,13.447,0,20.17
			c0,6.597,0,13.194,0,19.791c0,6.309,0,12.618,0,18.928c0,5.76,0,11.52,0,17.281c0,4.983,0,9.966,0,14.949
			c0,3.961,0,7.922,0,11.883c0,2.752,0,5.503,0,8.255c0,1.291,0.016,2.583,0,3.874c-0.014,1.137-0.347,2.201-1.177,3.02
			c-1.259,1.243-2.827,1.14-4.439,1.14c-5.947,0.001-11.895,0-17.842,0.001c-1.762,0-3.53,0.045-5.292,0
			c-2.178-0.055-3.921-1.658-4.016-3.868c-0.033-0.765,0-1.538,0-2.303c0-2.106,0-4.211,0-6.317c0-3.274,0-6.547,0-9.821
			c0-4.248,0-8.497,0-12.745c0-5.096,0-10.193,0-15.289c0-5.755,0-11.511,0-17.266c0-6.245,0-12.489,0-18.734
			c0-6.531,0-13.062,0-19.593c0-6.713,0-13.426,0-20.139c0-6.693,0-13.387,0-20.08c0-6.472,0-12.945,0-19.417
			c0-6.147,0-12.293,0-18.44c0-5.618,0-11.236,0-16.855c0-4.897,0-9.795,0-14.692c0-4.056,0-8.113,0-12.169c0-3.019,0-6.038,0-9.057
			c0-1.806,0-3.612,0-5.418c0-1.465-0.064-2.864,1.017-4.063c1.164-1.291,2.662-1.306,4.24-1.306c2.45,0,4.9,0,7.35,0
			c5.977,0,11.955,0,17.932,0c0.859,0,1.717,0,2.576,0c0.652,0,1.303,0,1.955,0c1.202,0,2.404,0,3.606,0c1.717,0,3.433,0,5.15,0
			c2.222,0,4.445,0,6.667,0c2.695,0,5.389,0,8.084,0c3.124,0,6.248,0,9.373,0c3.559,0,7.118,0,10.676,0c3.953,0,7.906,0,11.858,0
			c4.298,0,8.597,0,12.895,0c4.661,0,9.322,0,13.983,0c4.977,0,9.953,0,14.93,0c5.24,0,10.479,0,15.719,0c5.529,0,11.057,0,16.586,0
			c5.766,0,11.532,0,17.299,0c5.978,0,11.955,0,17.933,0c6.132,0,12.264,0,18.396,0c6.321,0,12.643,0,18.964,0
			c6.455,0,12.909,0,19.364,0c6.529,0,13.058,0,19.587,0c6.642,0,13.285,0,19.927,0c6.697,0,13.394,0,20.092,0
			c6.693,0,13.385,0,20.078,0c6.729,0,13.458,0,20.186,0c6.706,0,13.411,0,20.117,0c6.623,0,13.247,0,19.87,0
			c6.581,0,13.162,0,19.743,0c6.48,0,12.959,0,19.439,0c6.352,0,12.704,0,19.056,0c6.168,0,12.336,0,18.504,0
			c6.019,0,12.039,0,18.058,0c5.813,0,11.627,0,17.44,0c5.554,0,11.109,0,16.663,0c5.325,0,10.649,0,15.974,0
			c5.04,0,10.081,0,15.121,0c4.708,0,9.415,0,14.123,0c4.396,0,8.791,0,13.187,0c4.033,0,8.067,0,12.1,0c3.628,0,7.256,0,10.883,0
			c3.232,0,6.465,0,9.697,0c2.792,0,5.584,0,8.375,0c2.325,0,4.65,0,6.975,0c1.824,0,3.649,0,5.473,0c1.316,0,2.632,0,3.948,0
			c0.771,0,1.542,0,2.313,0C716.505,332.388,716.713,332.388,716.92,332.388z"/>
	</g>
	<g id="POLYLINE_941_">
		
			<path fill="none" stroke="#1B7FFF" stroke-width="2.75" stroke-linecap="round" stroke-linejoin="round" stroke-miterlimit="10" d="
			M493.932,153.39c0-2.54,0-5.079,0-7.619c0-6.206,0-12.412,0-18.618c0-7.72,0-15.44,0-23.16c0-7.188,0-14.375,0-21.563
			c0-4.505,0-9.01,0-13.515c0-2.839,0.284-5.483,2.418-7.634c2.12-2.137,4.749-2.466,7.574-2.466c4.348,0,8.697,0,13.045,0
			c7.075,0,14.15,0,21.226,0c7.792,0,15.585,0,23.377,0c6.488,0,12.976,0,19.464,0c3.246,0,6.491,0,9.737,0c1.816,0,3.631,0,5.447,0
			c5.613,0,11.226,0,16.839,0c7.579,0,15.158,0,22.737,0c7.516,0,15.032,0,22.549,0c5.525,0,11.049,0,16.573,0
			c2.279,0,4.922-0.315,7.147,0.322c3.815,1.091,6.038,4.586,6.042,8.435c0.007,6.445,0,12.89,0,19.336c0,1.85,0,3.7,0,5.55"/>
	</g>
	<g id="POLYLINE_940_">
		
			<path fill="none" stroke="#1B7FFF" stroke-width="2.75" stroke-linecap="round" stroke-linejoin="round" stroke-miterlimit="10" d="
			M105.583,92.458c0-5.751,0-11.501,0-17.252c0-2.58-0.005-5.16,0-7.739c0.004-1.718,0.385-3.36,1.323-4.82
			c1.766-2.75,4.669-3.831,7.805-3.831c3.821,0,7.643,0,11.464,0c6.817,0,13.633,0,20.45,0c7.812,0,15.625,0,23.437,0
			c6.808,0,13.617,0,20.425,0c3.798,0,7.595,0,11.393,0c1.484,0,2.969,0,4.453,0c5.181,0,10.361,0,15.542,0
			c7.392,0,14.784,0,22.175,0c7.673,0,15.346,0,23.019,0c5.926,0,11.853,0,17.779,0c2.408,0,4.89-0.178,7.294,0.031
			c4.202,0.365,7.496,3.922,7.615,8.12c0.071,2.498,0.002,5.008,0.002,7.507c0,6.151,0,12.301,0,18.452c0,7.742,0,15.485,0,23.227
			c0,7.215,0,14.429,0,21.644c0,4.557,0,9.114,0,13.671c0,0.641,0,1.282,0,1.922"/>
	</g>
	<g id="POLYLINE_939_">
		
			<path fill="none" stroke="#1B7FFF" stroke-width="2.75" stroke-linecap="round" stroke-linejoin="round" stroke-miterlimit="10" d="
			M505.813,184.075c-3.022-0.002-6.32-0.508-8.692-2.539c-2.318-1.985-3.119-5.023-3.184-7.97
			c-0.126-5.653-0.005-11.322-0.005-16.977c0-1.511-0.292-3.408,0.373-4.83c0.851-1.82,2.794-2.984,4.52-3.844
			c4.087-2.038,8.689-3.077,13.141-3.964c4.781-0.952,9.62-1.626,14.463-2.17c5.059-0.568,10.129-1.023,15.208-1.378
			c4.862-0.34,9.732-0.61,14.602-0.802c4.882-0.193,9.765-0.398,14.651-0.474c5.529-0.085,11.057-0.182,16.588-0.202
			c4.655-0.016,9.311-0.02,13.966,0.052c5.714,0.088,11.425,0.188,17.138,0.35c5.001,0.141,9.997,0.395,14.993,0.661
			c4.994,0.266,9.98,0.63,14.962,1.067c4.822,0.423,9.643,0.964,14.431,1.678c4.926,0.735,9.869,1.612,14.644,3.049
			c1.956,0.589,3.901,1.27,5.727,2.195c1.724,0.873,3.685,2.074,4.466,3.94c0.607,1.448,0.303,3.388,0.303,4.903
			c0,3.625,0,7.251,0,10.876c0,3.334,0.419,7.061-0.754,10.263c-1.015,2.771-3.274,4.653-6.069,5.476
			c-1.637,0.482-3.357,0.639-5.058,0.641"/>
	</g>
	<g id="POLYLINE_938_">
		
			<path fill="none" stroke="#1B7FFF" stroke-width="2.75" stroke-linecap="round" stroke-linejoin="round" stroke-miterlimit="10" d="
			M482.051,184.075c3.022-0.002,6.32-0.508,8.692-2.539c2.318-1.985,3.119-5.023,3.184-7.97c0.126-5.653,0.005-11.322,0.005-16.977
			c0-1.511,0.292-3.408-0.373-4.83c-0.851-1.82-2.794-2.984-4.52-3.844c-4.087-2.038-8.689-3.077-13.141-3.964
			c-4.781-0.952-9.62-1.626-14.463-2.17c-5.059-0.568-10.129-1.023-15.208-1.378c-4.862-0.34-9.732-0.61-14.602-0.802
			c-4.882-0.193-9.765-0.398-14.651-0.474c-5.529-0.085-11.057-0.182-16.587-0.202c-4.655-0.016-9.311-0.02-13.966,0.052
			c-5.715,0.088-11.425,0.188-17.138,0.35c-5.001,0.141-9.997,0.395-14.993,0.661c-4.994,0.266-9.98,0.63-14.962,1.067
			c-4.822,0.423-9.643,0.964-14.431,1.678c-4.926,0.735-9.869,1.612-14.644,3.049c-1.956,0.589-3.901,1.27-5.727,2.195
			c-1.724,0.873-3.685,2.074-4.466,3.94c-0.607,1.448-0.303,3.388-0.303,4.903c0,3.625,0,7.251,0,10.876
			c0,3.334-0.419,7.061,0.754,10.263c1.015,2.771,3.274,4.653,6.069,5.476c1.637,0.482,3.357,0.639,5.058,0.641"/>
	</g>
	<g id="POLYLINE_937_">
		
			<path fill="none" stroke="#1B7FFF" stroke-width="2.75" stroke-linecap="round" stroke-linejoin="round" stroke-miterlimit="10" d="
			M299.757,67.152c0.027-4.87,4.052-8.334,8.762-8.336c5.278-0.003,10.557,0,15.835,0c9.638,0,19.276,0,28.914,0
			c9.523,0,19.045,0,28.568,0c4.932,0,9.864,0,14.796,0c3.268,0,6.536,0,9.804,0c8.811,0,17.622,0,26.434,0
			c10.024,0,20.048,0,30.071,0c6.761,0,13.523,0,20.284,0c1.196,0,2.448-0.086,3.635,0.097c2.684,0.412,5.049,2.156,6.236,4.599
			c0.549,1.132,0.835,2.383,0.837,3.641"/>
	</g>
	<g id="POLYLINE_936_">
		
			<path fill="none" stroke="#1B7FFF" stroke-width="2.75" stroke-linecap="round" stroke-linejoin="round" stroke-miterlimit="10" d="
			M117.464,184.075c-3.022-0.002-6.32-0.508-8.692-2.539c-2.318-1.985-3.119-5.023-3.184-7.97
			c-0.126-5.653-0.005-11.322-0.005-16.977c0-1.511-0.292-3.408,0.373-4.83c0.851-1.82,2.794-2.984,4.52-3.844
			c4.087-2.038,8.689-3.077,13.141-3.964c4.781-0.952,9.62-1.626,14.463-2.17c5.059-0.568,10.129-1.023,15.208-1.378
			c4.862-0.34,9.732-0.61,14.602-0.802c4.882-0.193,9.765-0.398,14.651-0.474c5.529-0.085,11.057-0.182,16.587-0.202
			c4.655-0.016,9.311-0.02,13.966,0.052c5.715,0.088,11.425,0.188,17.138,0.35c5.001,0.141,9.997,0.395,14.993,0.661
			c4.994,0.266,9.98,0.63,14.962,1.067c4.822,0.423,9.643,0.964,14.431,1.678c4.926,0.735,9.869,1.612,14.644,3.049
			c1.956,0.589,3.901,1.27,5.727,2.195c1.724,0.873,3.685,2.074,4.466,3.94c0.607,1.448,0.303,3.388,0.303,4.903
			c0,3.625,0,7.251,0,10.876c0,3.334,0.419,7.061-0.754,10.263c-1.015,2.771-3.274,4.653-6.069,5.476
			c-1.637,0.482-3.357,0.639-5.058,0.641"/>
	</g>
	<g id="POLYLINE_935_">
		
			<path fill="none" stroke="#1B7FFF" stroke-width="2.75" stroke-linecap="round" stroke-linejoin="round" stroke-miterlimit="10" d="
			M105.583,184.075c0.669,0,1.339,0,2.008,0c1.93,0,3.86,0,5.791,0c3.037,0,6.075,0,9.112,0c4.037,0,8.074,0,12.111,0
			c4.863,0,9.727,0,14.59,0c5.571,0,11.143,0,16.714,0c6.175,0,12.349,0,18.524,0c6.585,0,13.169,0,19.754,0
			c6.887,0,13.775,0,20.662,0c7.089,0,14.177,0,21.266,0c7.088,0,14.176,0,21.264,0c6.985,0,13.971,0,20.956,0
			c6.779,0,13.558,0,20.337,0c6.373,0,12.747,0,19.12,0c5.866,0,11.731,0,17.596,0c5.245,0,10.491,0,15.736,0
			c4.441,0,8.882,0,13.323,0c3.528,0,7.055,0,10.583,0c2.488,0,4.977,0,7.465,0c1.29,0,2.581,0,3.871,0c0.341,0,0.681,0,1.022,0
			c1.34,0,2.681,0,4.021,0c2.516,0,5.032,0,7.548,0c3.579,0,7.157,0,10.736,0c4.473,0,8.945,0,13.418,0c5.246,0,10.492,0,15.738,0
			c5.913,0,11.826,0,17.74,0c6.39,0,12.78,0,19.17,0c6.758,0,13.516,0,20.274,0c7.024,0,14.048,0,21.072,0
			c7.089,0,14.179,0,21.268,0c7.052,0,14.104,0,21.156,0c6.911,0,13.823,0,20.734,0c6.571,0,13.141,0,19.712,0
			c6.128,0,12.256,0,18.384,0c5.575,0,11.15,0,16.724,0c4.834,0,9.668,0,14.502,0c4.003,0,8.005,0,12.008,0c2.998,0,5.996,0,8.994,0
			c1.88,0,3.759,0,5.639,0c0.627,0,1.254,0,1.881,0"/>
	</g>
	<g id="POLYLINE_934_">
		
			<path fill="none" stroke="#1B7FFF" stroke-width="2.75" stroke-linecap="round" stroke-linejoin="round" stroke-miterlimit="10" d="
			M688.107,223.213c-1.983,0-3.966,0-5.949,0c-5.057,0-10.115,0-15.172,0c-6.699,0-13.398,0-20.096,0c-7.009,0-14.017,0-21.026,0
			c-5.867,0-11.735,0-17.602,0c-3.379,0-6.758,0-10.137,0c-0.699,0-1.398,0-2.097,0c-2.032,0-4.064,0-6.095,0
			c-3.588,0-7.176,0-10.764,0c-4.884,0-9.769,0-14.653,0c-5.848,0-11.696,0-17.545,0c-6.547,0-13.093,0-19.64,0
			c-6.993,0-13.985,0-20.978,0c-7.087,0-14.174,0-21.26,0c-6.927,0-13.854,0-20.782,0c-6.511,0-13.022,0-19.533,0
			c-5.747,0-11.495,0-17.242,0c-4.73,0-9.46,0-14.19,0c-3.44,0-6.879,0-10.319,0c-1.83,0-3.661,0-5.491,0c-0.492,0-0.984,0-1.476,0
			c-1.9,0-3.8,0-5.7,0c-3.474,0-6.949,0-10.423,0c-4.793,0-9.586,0-14.379,0c-5.78,0-11.56,0-17.34,0c-6.501,0-13.003,0-19.504,0
			c-6.97,0-13.94,0-20.91,0c-7.087,0-14.174,0-21.262,0c-6.95,0-13.901,0-20.851,0c-6.557,0-13.115,0-19.672,0
			c-5.816,0-11.633,0-17.449,0c-4.822,0-9.643,0-14.465,0c-3.555,0-7.109,0-10.664,0c-1.968,0-3.936,0-5.903,0
			c-0.714,0-1.428,0-2.141,0c-3.506,0-7.012,0-10.517,0c-5.934,0-11.868,0-17.802,0c-7.023,0-14.047,0-21.07,0
			c-6.661,0-13.323,0-19.984,0c-4.951,0-9.901,0-14.852,0c-1.862,0-3.724,0-5.586,0"/>
	</g>
	<g id="POLYLINE_933_">
		
			<path fill="none" stroke="#1B7FFF" stroke-width="2.75" stroke-linecap="round" stroke-linejoin="round" stroke-miterlimit="10" d="
			M688.107,223.213c0-1.811,0-3.623,0-5.434c0-4.763,0-9.526,0-14.289c0-6.788,0-13.577,0-20.365c0-7.797,0-15.594,0-23.39
			c0-7.873,0-15.745,0-23.618c0-7.017,0-14.034,0-21.051c0-5.159,0-10.318,0-15.476c0-2.327-0.041-4.659,0-6.986
			c0.037-2.138,1.53-3.948,3.733-4.093c2.001-0.131,4.051-0.006,6.055-0.006c6.299,0,12.611-0.125,18.908,0
			c2.227,0.044,3.984,1.656,4.07,3.915c0.025,0.649,0,1.303,0,1.952c0,3.769,0,7.537,0,11.306c0,6.17,0,12.34,0,18.509
			c0,7.598,0,15.195,0,22.793c0,7.943,0,15.887,0,23.83c0,7.331,0,14.662,0,21.993c0,5.638,0,11.277,0,16.915
			c0,2.968,0,5.936,0,8.905c0,1.229-0.178,2.389-1.07,3.34c-1.408,1.502-3.379,1.25-5.235,1.25c-7.129,0.001-14.258,0-21.386,0.001
			C691.491,223.213,689.799,223.213,688.107,223.213z"/>
	</g>
	<g id="POLYLINE_932_">
		
			<path fill="none" stroke="#1B7FFF" stroke-width="2.75" stroke-linecap="round" stroke-linejoin="round" stroke-miterlimit="10" d="
			M134.254,223.213c0,5.811,0,11.622,0,17.433c0,1.585,0,3.17,0,4.755c0,0.536,0,1.072,0,1.608c0,0.232-0.102,0.747,0,0.959
			c0.161,0.334,0.822,0.168,1.259,0.168c1.633,0,3.267,0,4.9,0c1.883,0,3.767,0,5.65,0c0.743,0,1.485,0,2.228,0
			c0.304,0,0.973,0.131,1.252,0c0.322-0.152,0.183-0.55,0.183-0.996c0-1.238,0-2.476,0-3.714c0-6.555,0-13.11,0-19.665
			c0-0.591,0.071-0.548-0.531-0.548c-1.401,0-2.802,0-4.203,0c-3.347,0-6.695,0-10.042,0
			C134.719,223.213,134.486,223.213,134.254,223.213z"/>
	</g>
	<g id="POLYLINE_931_">
		
			<path fill="none" stroke="#1B7FFF" stroke-width="2.75" stroke-linecap="round" stroke-linejoin="round" stroke-miterlimit="10" d="
			M659.436,223.213c0,5.811,0,11.622,0,17.433c0,1.585,0,3.17,0,4.755c0,0.536,0,1.072,0,1.608c0,0.232,0.102,0.747,0,0.959
			c-0.161,0.334-0.822,0.168-1.259,0.168c-1.633,0-3.267,0-4.901,0c-1.883,0-3.767,0-5.65,0c-0.743,0-1.485,0-2.228,0
			c-0.304,0-0.973,0.131-1.252,0c-0.322-0.152-0.183-0.55-0.183-0.996c0-1.238,0-2.476,0-3.714c0-6.555,0-13.11,0-19.665
			c0-0.591-0.071-0.548,0.531-0.548c1.401,0,2.802,0,4.203,0c3.347,0,6.695,0,10.042,0
			C658.971,223.213,659.203,223.213,659.436,223.213z"/>
	</g>
	<g id="POLYLINE_930_">
		
			<path fill="none" stroke="#1B7FFF" stroke-width="2.75" stroke-linecap="round" stroke-linejoin="round" stroke-miterlimit="10" d="
			M105.583,223.213c0-1.811,0-3.623,0-5.434c0-4.763,0-9.526,0-14.289c0-6.788,0-13.577,0-20.365c0-7.797,0-15.594,0-23.39
			c0-7.873,0-15.745,0-23.618c0-7.017,0-14.034,0-21.051c0-5.159,0-10.318,0-15.476c0-2.327,0.041-4.659,0-6.986
			c-0.037-2.138-1.53-3.948-3.733-4.093c-2.001-0.131-4.051-0.006-6.055-0.006c-6.299,0-12.611-0.125-18.908,0
			c-2.227,0.044-3.984,1.656-4.07,3.915c-0.025,0.649,0,1.303,0,1.952c0,3.769,0,7.537,0,11.306c0,6.17,0,12.34,0,18.509
			c0,7.598,0,15.195,0,22.793c0,7.943,0,15.887,0,23.83c0,7.331,0,14.662,0,21.993c0,5.638,0,11.277,0,16.915
			c0,2.968,0,5.936,0,8.905c0,1.229,0.178,2.389,1.07,3.34c1.408,1.502,3.379,1.25,5.235,1.25c7.129,0.001,14.257,0,21.386,0.001
			C102.198,223.213,103.89,223.213,105.583,223.213z"/>
	</g>
	<g id="POLYLINE_929_">
		
			<path fill="none" stroke="#1B7FFF" stroke-width="2.75" stroke-linecap="round" stroke-linejoin="round" stroke-miterlimit="10" d="
			M1200.243,88.504c0-4.446,0-8.891,0-13.337c0-2.34,0-4.68,0-7.021c0-1.185,0.021-2.337,0.38-3.483
			c0.99-3.162,3.85-5.488,7.148-5.809c1.544-0.15,3.141-0.04,4.688-0.04c9.415,0,18.831,0,28.246,0c11.964,0,23.927,0,35.891,0
			c6.817,0,13.634,0,20.451,0c4.593,0,9.186,0,13.779,0c11.425,0,22.851,0,34.276,0c10.76,0,21.521,0,32.281,0c2.65,0,5.3,0,7.949,0
			c2.247,0,4.35,0.471,6.118,1.959c2.343,1.972,2.968,4.645,2.968,7.56c0,5.366,0,10.732,0,16.098c0,1.357,0,2.715,0,4.072"/>
	</g>
	<g id="POLYLINE_928_">
		
			<path fill="none" stroke="#1B7FFF" stroke-width="2.75" stroke-linecap="round" stroke-linejoin="round" stroke-miterlimit="10" d="
			M1006.068,88.504c0-4.446,0-8.891,0-13.337c0-2.34,0-4.68,0-7.021c0-1.185,0.021-2.337,0.38-3.483
			c0.99-3.162,3.85-5.488,7.148-5.809c1.544-0.15,3.141-0.04,4.688-0.04c9.415,0,18.831,0,28.246,0c11.964,0,23.927,0,35.891,0
			c6.817,0,13.634,0,20.451,0c4.593,0,9.186,0,13.779,0c11.425,0,22.851,0,34.276,0c10.76,0,21.521,0,32.281,0c2.65,0,5.3,0,7.949,0
			c2.247,0,4.35,0.471,6.118,1.959c2.343,1.972,2.968,4.645,2.968,7.56c0,5.366,0,10.732,0,16.098c0,1.357,0,2.715,0,4.072"/>
	</g>
	<g id="POLYLINE_927_">
		
			<path fill="none" stroke="#1B7FFF" stroke-width="2.75" stroke-linecap="round" stroke-linejoin="round" stroke-miterlimit="10" d="
			M811.893,88.504c0-4.446,0-8.891,0-13.337c0-2.34,0-4.68,0-7.021c0-1.185,0.021-2.337,0.38-3.483
			c0.99-3.162,3.85-5.488,7.148-5.809c1.544-0.15,3.141-0.04,4.688-0.04c9.415,0,18.831,0,28.246,0c11.964,0,23.927,0,35.891,0
			c6.817,0,13.634,0,20.451,0c4.593,0,9.186,0,13.779,0c11.425,0,22.851,0,34.276,0c10.76,0,21.521,0,32.281,0c2.65,0,5.3,0,7.949,0
			c2.247,0,4.35,0.471,6.118,1.959c2.343,1.972,2.968,4.645,2.968,7.56c0,5.366,0,10.732,0,16.098c0,1.357,0,2.715,0,4.072"/>
	</g>
	<g id="POLYLINE_926_">
		
			<path fill="none" stroke="#1B7FFF" stroke-width="2.75" stroke-linecap="round" stroke-linejoin="round" stroke-miterlimit="10" d="
			M1103.155,88.504c1.09,0,2.181,0,3.271,0c3.063,0,6.125,0,9.188,0c4.809,0,9.618,0,14.428,0c6.246,0,12.492,0,18.739,0
			c7.43,0,14.859,0,22.289,0c8.345,0,16.691,0,25.036,0c8.993,0,17.986,0,26.98,0c9.374,0,18.747,0,28.121,0
			c9.486,0,18.973,0,28.459,0c9.364,0,18.727,0,28.09,0c8.877,0,17.753,0,26.63,0c8.246,0,16.491,0,24.737,0
			c7.233,0,14.466,0,21.7,0c6.054,0,12.107,0,18.161,0c4.536,0,9.072,0,13.608,0c2.774,0,5.548,0,8.322,0
			c1.856,0,3.837-0.245,5.238,1.288c0.992,1.086,1.034,2.338,1.034,3.685c0,1.575,0,3.15,0,4.726c0,6.103,0,12.205,0,18.308
			c0,8.613,0,17.225,0,25.838c0,9.455,0,18.909,0,28.364c0,8.499,0,16.997,0,25.496c0,5.954,0,11.908,0,17.862
			c0,2.569,0.743,6.749-1.706,8.442c-0.883,0.61-1.844,0.7-2.871,0.7c-1.344,0-2.687,0-4.031,0c-4.465,0-8.93,0-13.395,0
			c-3.753,0-7.507,0-11.26,0c-2.016,0-4.033,0-6.049,0c-4.052,0-8.104,0-12.155,0c-5.764,0-11.528,0-17.292,0
			c-7.153,0-14.306,0-21.459,0c-8.219,0-16.438,0-24.657,0c-8.994,0-17.988,0-26.982,0c-9.349,0-18.698,0-28.047,0
			c-9.511,0-19.021,0-28.532,0c-9.218,0-18.436,0-27.653,0c-8.73,0-17.46,0-26.19,0c-7.824,0-15.648,0-23.472,0
			c-6.627,0-13.253,0-19.88,0c-5.106,0-10.212,0-15.318,0c-3.262,0-6.525,0-9.787,0c-1.099,0-2.198,0-3.297,0
			c-1.165,0-2.329,0-3.494,0c-3.156,0-6.311,0-9.467,0c-4.836,0-9.673,0-14.509,0c-6.317,0-12.633,0-18.95,0
			c-7.442,0-14.884,0-22.326,0c-8.403,0-16.806,0-25.209,0c-9.013,0-18.026,0-27.039,0c-9.383,0-18.766,0-28.149,0
			c-9.485,0-18.971,0-28.456,0c-9.32,0-18.64,0-27.96,0c-8.887,0-17.774,0-26.661,0c-8.186,0-16.373,0-24.559,0
			c-7.218,0-14.436,0-21.654,0c-5.982,0-11.965,0-17.947,0c-4.491,0-8.983,0-13.474,0c-2.695,0-5.389,0-8.084,0
			c-2.089,0-4.294,0.192-5.548-1.962c-0.6-1.031-0.537-2.099-0.538-3.228c0-1.671,0-3.343,0-5.014c0-6.231,0-12.462,0-18.693
			c0-8.675,0-17.351,0-26.026c0-9.419,0-18.838,0-28.258c0-8.463,0-16.925,0-25.388c0-5.806,0-11.611,0-17.417
			c0-2.782-0.772-7.08,2.43-8.417c0.867-0.362,1.766-0.305,2.681-0.305c1.675,0,3.351,0,5.026,0c4.496,0,8.992,0,13.488,0
			c2.183,0,4.366,0,6.55,0c2.509,0,5.018,0,7.527,0c4.469,0,8.938,0,13.407,0c6.077,0,12.155,0,18.232,0c7.384,0,14.767,0,22.151,0
			c8.375,0,16.751,0,25.126,0c9.053,0,18.106,0,27.158,0c9.416,0,18.832,0,28.247,0c9.464,0,18.929,0,28.393,0
			c9.198,0,18.397,0,27.595,0c8.618,0,17.236,0,25.854,0c7.749,0,15.497,0,23.246,0c6.489,0,12.978,0,19.467,0
			c5.005,0,10.01,0,15.015,0c3.146,0,6.291,0,9.437,0C1101.157,88.504,1102.156,88.504,1103.155,88.504z"/>
	</g>
	<g id="POLYLINE_925_">
		
			<path fill="none" stroke="#1B7FFF" stroke-width="2.75" stroke-linecap="round" stroke-linejoin="round" stroke-miterlimit="10" d="
			M1365.746,223.213c0,5.811,0,11.622,0,17.433c0,1.585,0,3.17,0,4.755c0,0.536,0,1.072,0,1.608c0,0.232,0.102,0.747,0,0.959
			c-0.161,0.334-0.822,0.168-1.259,0.168c-1.634,0-3.267,0-4.901,0c-1.883,0-3.767,0-5.65,0c-0.743,0-1.485,0-2.228,0
			c-0.304,0-0.973,0.131-1.252,0c-0.322-0.152-0.183-0.55-0.183-0.996c0-1.238,0-2.476,0-3.714c0-6.555,0-13.11,0-19.665
			c0-0.591-0.071-0.548,0.531-0.548c1.401,0,2.802,0,4.203,0c3.347,0,6.694,0,10.042,0
			C1365.281,223.213,1365.514,223.213,1365.746,223.213z"/>
	</g>
	<g id="POLYLINE_924_">
		
			<path fill="none" stroke="#1B7FFF" stroke-width="2.75" stroke-linecap="round" stroke-linejoin="round" stroke-miterlimit="10" d="
			M840.564,223.213c0,5.811,0,11.622,0,17.433c0,1.585,0,3.17,0,4.755c0,0.536,0,1.072,0,1.608c0,0.232-0.102,0.747,0,0.959
			c0.161,0.334,0.822,0.168,1.259,0.168c1.633,0,3.267,0,4.901,0c1.883,0,3.767,0,5.65,0c0.743,0,1.485,0,2.228,0
			c0.304,0,0.973,0.131,1.252,0c0.322-0.152,0.183-0.55,0.183-0.996c0-1.238,0-2.476,0-3.714c0-6.555,0-13.11,0-19.665
			c0-0.591,0.071-0.548-0.531-0.548c-1.401,0-2.802,0-4.203,0c-3.347,0-6.695,0-10.042,0
			C841.029,223.213,840.797,223.213,840.564,223.213z"/>
	</g>
	<g id="POLYLINE_923_">
		
			<path fill="none" stroke="#1B7FFF" stroke-width="2.75" stroke-linecap="round" stroke-linejoin="round" stroke-miterlimit="10" d="
			M906.94,431.252c-6.903,0-13.807,0-20.71,0c-2.158,0-5.205-0.536-6.909,1.122c-1.068,1.039-1.193,2.322-1.194,3.691
			c0,3.929,0,7.858,0,11.788c0,7.191,0,14.381,0,21.572c0,8.891,0,17.782,0,26.673c0,9.03,0,18.06,0,27.09c0,7.585,0,15.17,0,22.754
			c0,4.647,0,9.295,0,13.942c0,0.704-0.022,1.412,0,2.116c0.049,1.539,0.872,2.937,2.294,3.595c0.814,0.376,1.633,0.365,2.499,0.365
			c7.76,0.001,15.521,0.001,23.282,0.001c2.799,0,5.598,0,8.398,0c6.268,0,12.536,0,18.804,0c8.898,0,17.796,0,26.695,0
			c8.466,0,16.933,0,25.399,0c5.078,0,10.155,0,15.233,0c1.898,0,3.795,0,5.693,0c6.531,0,13.062,0,19.593,0
			c8.964,0,17.928,0,26.892,0c8.361,0,16.723,0,25.084,0c4.723,0,9.445,0,14.168,0c4.562,0,9.125,0,13.688,0
			c4.165,0,8.33,0,12.496,0c2.131,0,4.8,0.446,6.373-1.345c0.925-1.054,0.982-2.255,0.982-3.547c0-1.484,0-2.968,0-4.452
			c0-5.796,0-11.592,0-17.389c0-8.257,0-16.515,0-24.772c0-9.157,0-18.315,0-27.472c0-8.496,0-16.992,0-25.488
			c0-6.273,0-12.547,0-18.82c0-2.485,0.082-4.985,0-7.469c-0.054-1.64-1.001-3.117-2.567-3.703
			c-0.824-0.309-1.682-0.251-2.544-0.251c-3.787,0-7.574,0-11.362,0c-4.307,0-8.615,0-12.922,0c-2.701,0-5.401,0-8.102,0
			c-5.367,0-10.733,0-16.1,0c-7.331,0-14.662,0-21.993,0c-8.598,0-17.195,0-25.793,0c-9.167,0-18.334,0-27.501,0
			c-9.007,0-18.014,0-27.021,0c-8.244,0-16.488,0-24.732,0c-6.668,0-13.336,0-20.005,0c-4.477,0-8.954,0-13.431,0
			C910.066,431.252,908.503,431.252,906.94,431.252z"/>
	</g>
	<g id="POLYLINE_922_">
		
			<path fill="none" stroke="#1B7FFF" stroke-width="2.75" stroke-linecap="round" stroke-linejoin="round" stroke-miterlimit="10" d="
			M905.93,565.961c0,5.811,0,11.622,0,17.433c0,1.585,0,3.17,0,4.755c0,0.536,0,1.072,0,1.608c0,0.232-0.102,0.747,0,0.959
			c0.161,0.334,0.822,0.168,1.259,0.168c1.633,0,3.267,0,4.901,0c1.883,0,3.767,0,5.65,0c0.743,0,1.485,0,2.228,0
			c0.304,0,0.973,0.132,1.252,0c0.322-0.152,0.183-0.55,0.183-0.996c0-1.238,0-2.476,0-3.714c0-6.555,0-13.11,0-19.665
			c0-0.591,0.071-0.548-0.531-0.548c-1.401,0-2.802,0-4.203,0c-3.347,0-6.694,0-10.042,0
			C906.395,565.961,906.162,565.961,905.93,565.961z"/>
	</g>
	<g id="POLYLINE_921_">
		
			<path fill="none" stroke="#1B7FFF" stroke-width="2.75" stroke-linecap="round" stroke-linejoin="round" stroke-miterlimit="10" d="
			M1097.895,565.961c0,5.811,0,11.622,0,17.433c0,1.585,0,3.17,0,4.755c0,0.536,0,1.072,0,1.608c0,0.232,0.102,0.747,0,0.959
			c-0.161,0.334-0.822,0.168-1.259,0.168c-1.633,0-3.267,0-4.9,0c-1.883,0-3.767,0-5.65,0c-0.743,0-1.485,0-2.228,0
			c-0.304,0-0.973,0.132-1.252,0c-0.322-0.152-0.183-0.55-0.183-0.996c0-1.238,0-2.476,0-3.714c0-6.555,0-13.11,0-19.665
			c0-0.591-0.071-0.548,0.531-0.548c1.401,0,2.802,0,4.203,0c3.347,0,6.695,0,10.042,0
			C1097.43,565.961,1097.663,565.961,1097.895,565.961z"/>
	</g>
	<g id="POLYLINE_920_">
		
			<path fill="none" stroke="#1B7FFF" stroke-width="2.75" stroke-linecap="round" stroke-linejoin="round" stroke-miterlimit="10" d="
			M910.481,431.252c0.016-3.256,0.044-6.515,0.274-9.765c0.209-2.959,0.525-5.989,1.554-8.792c1.753-4.777,5.234-8.564,10.183-10.01
			c5.211-1.523,11.173-1.202,16.341,0.364c4.97,1.505,8.388,5.135,11.411,9.212c3.898,5.258,7.169,10.988,10.351,16.697
			c0.426,0.765,0.852,1.529,1.278,2.294"/>
	</g>
	<g id="POLYLINE_919_">
		
			<path fill="none" stroke="#1B7FFF" stroke-width="2.75" stroke-linecap="round" stroke-linejoin="round" stroke-miterlimit="10" d="
			M1125.699,526.804c2.557-0.106,5.237-0.641,7.272-2.291c2.271-1.84,3.208-4.708,3.515-7.521c0.257-2.356,0.128-4.761,0.119-7.125
			c-0.008-2.026-0.047-4.053-0.155-6.076c-0.214-4.005-0.586-8.347-2.545-11.93c-1.473-2.694-3.937-4.461-6.916-5.115
			c-0.426-0.094-0.857-0.165-1.29-0.222"/>
	</g>
</g>
<g id="AG-OUTLINE">
	<g id="POLYLINE_918_">
		
			<path fill="none" stroke="#1B7FFF" stroke-width="3.5" stroke-linecap="round" stroke-linejoin="round" stroke-miterlimit="10" d="
			M1125.699,486.525c2.328,0.304,4.576,1.134,6.292,2.789c2.359,2.275,3.337,5.591,3.87,8.732c0.596,3.513,0.687,7.101,0.737,10.656
			c0.046,3.283,0.299,6.747-0.376,9.986c-0.468,2.245-1.465,4.394-3.288,5.855c-1.57,1.258-3.545,1.867-5.516,2.12
			c-0.307,0.039-1.578-0.02-1.718,0.165c-0.104,0.137,0,0.761,0,0.926c0,1.656,0,3.311,0,4.967c0,5.375,0,10.75,0,16.125
			c0,4.116,0,8.231,0,12.347c0,1.214-0.091,2.356-0.917,3.345c-0.999,1.197-2.35,1.421-3.802,1.422
			c-4.805,0.001-9.609,0.001-14.414,0.001c-2.295,0-4.59,0-6.885,0c-0.345,0-1.346-0.184-1.647,0
			c-0.202,0.124-0.077,0.014-0.139,0.345c-0.112,0.603,0,1.336,0,1.948c0,1.025,0,2.049,0,3.074c0,2.731,0,5.462,0,8.193
			c0,2.576,0,5.152,0,7.728c0,0.866,0,1.731,0,2.597c0,0.159,0.113,0.908,0,1.03c-0.121,0.131-1.021,0.008-1.202,0.008
			c-1.056,0-2.111,0-3.167,0c-2.729,0-5.457,0-8.186,0c-0.822,0-1.717,0.099-2.534,0c-0.436-0.053-0.267,0.092-0.385-0.227
			c-0.162-0.44,0-1.249,0-1.712c0-1.004,0-2.009,0-3.013c0-5.346,0-10.692,0-16.038c0-0.873,0-1.747,0-2.62
			c0-0.209,0.141-1.111,0-1.278c-0.067-0.079-0.366-0.034-0.493-0.034c-4.176,0-8.353,0-12.529,0c-8.424,0-16.849,0-25.273,0
			c-10.813,0-21.626,0-32.439,0c-11.343,0-22.686,0-34.028,0c-10.013,0-20.027,0-30.04,0c-6.838,0-13.676,0-20.514,0
			c-1.633,0-3.266,0-4.898,0c-0.121,0-0.693-0.086-0.789,0c-0.257,0.232-0.016,2.074-0.016,2.415c0,5.189,0,10.378,0,15.567
			c0,1.996,0,3.991,0,5.987c0,0.138,0.102,0.846,0,0.952c-0.134,0.138-1.132,0.002-1.317,0.002c-2.503,0-5.005,0-7.508,0
			c-1.27,0-2.54,0-3.81,0c-0.756,0-1.781,0.182-2.52,0c-0.427-0.105-0.198,0.111-0.32-0.272c-0.154-0.486,0-1.276,0-1.783
			c0-2.316,0-4.633,0-6.949c0-4.901,0-9.801,0-14.702c0-0.184,0.13-1.059,0-1.198c-0.08-0.086-0.545-0.019-0.675-0.019
			c-1.916,0-3.831,0-5.747,0c-5.138,0-10.276,0-15.414,0c-1.143,0-2.435,0.147-3.515-0.296c-1.495-0.614-2.393-2.047-2.452-3.633
			c-0.154-4.128,0-8.291,0-12.42c0-9.234,0-18.469,0-27.703c0-11.28,0-22.559,0-33.839c0-10.355,0-20.711,0-31.066
			c0-6.441,0-12.882,0-19.322c0-1.089-0.15-2.353,0.116-3.424c0.939-3.785,5.429-3.004,8.343-3.004c5.324,0,10.648,0,15.972,0
			c1.427,0,2.854,0,4.281,0c0.722,0,1.444,0,2.167,0c0.296,0,1.19,0.172,1.422,0c0.169-0.125,0.06-0.862,0.061-1.109
			c0.033-6.558-0.246-13.999,2.958-19.939c1.27-2.355,2.986-4.447,5.278-5.868c2.79-1.729,6.122-2.372,9.36-2.545
			c5.198-0.277,11.244,0.479,15.599,3.561c2.545,1.801,4.585,4.26,6.436,6.74c2.19,2.935,4.147,6.039,6.039,9.172
			c1.013,1.679,1.988,3.379,2.966,5.079c0.358,0.622,0.71,1.246,1.059,1.873c0.329,0.59,0.658,1.18,0.987,1.771
			c0.161,0.29,0.4,1.056,0.684,1.228c0.451,0.274,1.737,0.038,2.262,0.038c5.494,0,10.989,0,16.483,0c9.261,0,18.521,0,27.782,0
			c11.177,0,22.354,0,33.531,0c11.172,0,22.343,0,33.514,0c9.244,0,18.488,0,27.732,0c5.467,0,10.934,0,16.401,0
			c0.852,0,1.739-0.068,2.589,0.02c2.003,0.207,3.468,1.885,3.552,3.865c0.03,0.703,0,1.414,0,2.117
			c0.001,9.623,0,19.246,0.001,28.87C1125.699,472.924,1125.699,479.725,1125.699,486.525z"/>
	</g>
	<g id="POLYLINE_917_">
		
			<path fill="none" stroke="#1B7FFF" stroke-width="3.5" stroke-linecap="round" stroke-linejoin="round" stroke-miterlimit="10" d="
			M1394.417,88.504c8.214,0,16.428,0,24.643,0c2.628,0,6.325-0.667,7.727,2.227c0.541,1.115,0.396,2.436,0.396,3.64
			c0,5.805,0,11.609,0,17.414c0,9.667,0,19.334,0,29.001c0,10.816,0,21.632,0,32.448c0,9.47,0,18.941,0,28.411
			c0,5.405,0,10.809,0,16.214c0,1.644,0.008,3.229-1.403,4.421c-1.006,0.85-2.154,0.933-3.39,0.933c-1.723,0-3.447,0-5.17,0
			c-7.68,0-15.359,0-23.039,0c-8.617,0-17.233,0-25.85,0c-0.862,0-1.724,0-2.586,0c0,0,0,12.869,0,13.759c0,2.832,0,5.663,0,8.495
			c0,0.724,0.141,1.612,0,2.325c-0.086,0.431,0.071,0.324-0.455,0.345c-2.584,0.101-5.192,0-7.777,0c-1.519,0-3.039,0-4.558,0
			c-0.531,0-1.061,0-1.591,0c-0.205,0-0.794,0.108-0.974,0c-0.427-0.257-0.118-2.871-0.118-3.419c0-2.981,0-5.962,0-8.943
			c0-3.024,0-6.048,0-9.071c0-0.899,0-1.797,0-2.696c0-0.111,0.082-0.714-0.003-0.794c-0.13-0.123-0.972,0-1.142,0
			c-2.74,0-5.481,0-8.221,0c-5.092,0-10.184,0-15.276,0c-7.15,0-14.3,0-21.449,0c-8.955,0-17.91,0-26.866,0
			c-10.368,0-20.736,0-31.104,0c-11.521,0-23.041,0-34.562,0c-12.372,0-24.744,0-37.116,0c-12.988,0-25.976,0-38.964,0
			c-13.171,0-26.342,0-39.513,0c-13.117,0-26.234,0-39.351,0c-12.825,0-25.65,0-38.475,0c-12.101,0-24.203,0-36.304,0
			c-11.142,0-22.284,0-33.426,0c-9.881,0-19.763,0-29.644,0c-8.357,0-16.714,0-25.072,0c-6.447,0-12.893,0-19.34,0
			c-4.281,0-8.561,0-12.842,0c-1.234,0-2.468,0-3.702,0c-0.369,0-1.419-0.195-1.746,0c-0.188,0.112-0.117,0.168-0.117,0.516
			c0,2.202,0,4.404,0,6.606c0,5.616,0,11.231,0,16.847c0,0.181,0.092,0.843-0.03,0.954c-0.254,0.23-1.717,0-2.062,0
			c-3.064,0-6.128,0-9.193,0c-1.164,0-2.328,0-3.491,0c-0.477,0-0.561,0.114-0.698-0.206c-0.196-0.46,0-1.477,0-1.966
			c0-1.235,0-2.47,0-3.705c0-5.811,0-11.622,0-17.433c0-0.257,0.174-1.372,0-1.579c-0.064-0.076-0.273-0.02-0.394-0.034
			c-1.179-0.138-2.459,0-3.644,0c-11.69,0-23.38,0-35.07,0c-4.988,0-9.976,0-14.965,0c-2.703,0-6.298,0.484-7.225-2.912
			c-0.363-1.328-0.139-2.949-0.139-4.301c0-3.32,0-6.64,0-9.96c0-11.056,0-22.112,0-33.168c0-12.991,0-25.981,0-38.972
			c0-10.407,0-20.813,0-31.22c0-2.809,0-5.618,0-8.426c0-2.233,0.063-4.614,2.636-5.523c1.273-0.45,2.883-0.226,4.201-0.226
			c2.946,0,5.891,0,8.837,0c4.397,0,8.793,0,13.19,0c0.576,0,1.153,0,1.729,0c0.392,0,1.747,0.231,2.063,0
			c0.208-0.152,0.111-0.662,0.111-0.995c0-2.6,0-5.2,0-7.8c0-3.086,0-6.172,0-9.258c0-1.379-0.099-2.804,0.047-4.179
			c0.371-3.484,2.973-6.436,6.385-7.236c1.71-0.401,3.614-0.221,5.355-0.221c10.01,0,20.021,0,30.032,0c12.574,0,25.147,0,37.721,0
			c5.862,0,11.724,0,17.586,0c6.784,0,13.569,0,20.353,0c12.717,0,25.435,0,38.152,0c9.325,0,18.65,0,27.976,0
			c1.732,0,3.453-0.097,5.112,0.512c3,1.102,5.155,3.897,5.457,7.078c0.456-4.557,4.323-7.586,8.762-7.59
			c5.278-0.005,10.557,0,15.835,0c9.638,0,19.276,0,28.914,0c9.522,0,19.045,0,28.568,0c4.932,0,9.864,0,14.796,0
			c3.268,0,6.536,0,9.804,0c8.811,0,17.622,0,26.434,0c10.024,0,20.048,0,30.071,0c6.761,0,13.523,0,20.284,0
			c1.17,0,2.392-0.082,3.555,0.085c2.517,0.361,4.781,1.889,6.058,4.089c0.606,1.044,0.98,2.215,1.095,3.417
			c0.284-2.84,2.009-5.397,4.562-6.689c1.545-0.781,3.15-0.902,4.836-0.902c6.846,0,13.693,0,20.539,0c10.996,0,21.991,0,32.987,0
			c9.196,0,18.393,0,27.589,0c2.868,0,5.737,0,8.605,0c7.531,0,15.062,0,22.593,0c11.052,0,22.103,0,33.155,0
			c8.722,0,17.445,0,26.167,0c1.587,0,3.175-0.021,4.762,0c2.722,0.036,5.284,1.298,6.863,3.542
			c1.566,2.226,1.517,4.662,1.517,7.248c0,5.124,0,10.249,0,15.373C1394.417,86.154,1394.417,87.329,1394.417,88.504z"/>
	</g>
	<g id="POLYLINE_916_">
		
			<path fill="none" stroke="#1B7FFF" stroke-width="3.5" stroke-linecap="round" stroke-linejoin="round" stroke-miterlimit="10" d="
			M688.107,92.458c0.025-2.24,1.82-3.894,4.009-3.953c1.809-0.048,3.626,0,5.436-0.001c5.848,0,11.696,0,17.545,0
			c1.482,0,2.978-0.147,4.235,0.821c1.062,0.817,1.524,2.03,1.541,3.331c0.024,1.879,0,3.759,0,5.638c0,9.282,0,18.563,0,27.845
			c0,12.76,0,25.52,0,38.279c0,11.775,0,23.551,0,35.326c0,6.308,0,12.617,0,18.925c0,2.705-1.68,4.542-4.448,4.543
			c-5.198,0.001-10.396,0.001-15.593,0.001c-8.293,0-16.586,0-24.879,0c-5.275,0-10.551,0-15.826,0c-0.19,0-0.593-0.064-0.692,0.053
			c-0.171,0.202,0,1.295,0,1.56c0,2.658,0,5.316,0,7.974c0,3.153,0,6.306,0,9.46c0,1.235,0,2.47,0,3.705c0,0.502,0.2,1.496,0,1.966
			c-0.136,0.32-0.221,0.206-0.698,0.206c-1.164,0-2.328,0-3.491,0c-3.017,0-6.033,0-9.05,0c-0.341,0-1.94,0.239-2.204,0
			c-0.116-0.105-0.03-0.691-0.03-0.872c0-2.393,0-4.785,0-7.178c0-5.408,0-10.816,0-16.224c0-0.792,0.008-0.648-0.698-0.648
			c-0.895,0-1.79,0-2.685,0c-3.638,0-7.275,0-10.913,0c-5.896,0-11.793,0-17.689,0c-7.797,0-15.595,0-23.393,0
			c-9.426,0-18.853,0-28.279,0c-10.816,0-21.632,0-32.448,0c-11.798,0-23.597,0-35.395,0c-12.536,0-25.071,0-37.607,0
			c-13.043,0-26.086,0-39.128,0c-13.12,0-26.24,0-39.36,0c-12.966,0-25.931,0-38.897,0c-12.577,0-25.153,0-37.729,0
			c-11.762,0-23.525,0-35.287,0c-10.768,0-21.535,0-32.303,0c-9.366,0-18.732,0-28.098,0c-7.725,0-15.45,0-23.175,0
			c-5.811,0-11.623,0-17.434,0c-3.541,0-7.082,0-10.623,0c-0.842,0-1.684,0-2.526,0c-0.863,0-0.567,0.25-0.567,1.217
			c0,5.708,0,11.417,0,17.125c0,2.018,0.218,4.173,0,6.182c-0.051,0.473,0.092,0.34-0.385,0.398c-1.003,0.122-2.099,0-3.109,0
			c-3.047,0-6.094,0-9.141,0c-0.546,0-1.092,0-1.637,0c-0.232,0-0.836,0.114-1.042,0c-0.232-0.129-0.16-0.209-0.16-0.58
			c0-5.431,0-10.862,0-16.292c0-2.365,0-4.731,0-7.096c0-0.151,0.093-0.857-0.016-0.954c-0.162-0.143-1.1,0-1.304,0
			c-5.522,0-11.044,0-16.566,0c-8.364,0-16.728,0-25.092,0c-4.774,0-9.555,0.077-14.328,0c-2.035-0.033-3.84-1.356-4.101-3.463
			c-0.052-0.42-0.03-0.853-0.03-1.275c-0.001-6.633,0-13.266,0-19.899c0-11.908,0-23.816,0-35.724c0-12.702,0-25.405,0-38.107
			c0-9.033,0-18.065,0-27.098c0-1.684-0.03-3.371,0-5.055c0.03-1.666,0.904-3.179,2.498-3.81c1.264-0.5,2.882-0.277,4.205-0.277
			c5.75,0,11.5,0,17.249,0c1.593,0,3.193-0.043,4.786,0c2.146,0.058,3.978,1.646,4.028,3.866c-0.091-8.235,0.001-16.475,0.001-24.71
			c0-5.121,3.725-8.844,8.843-8.844c6.401,0,12.802,0,19.203,0c11.104,0,22.208,0,33.311,0c9.53,0,19.06,0,28.59,0
			c3.014,0,6.028,0,9.041,0c7.574,0,15.148,0,22.722,0c11.306,0,22.613,0,33.919,0c8.656,0,17.312,0,25.969,0
			c1.412,0,2.826-0.021,4.238,0c3.023,0.046,5.839,1.651,7.306,4.321c0.674,1.226,1.029,2.616,1.031,4.015
			c0.027-4.87,4.052-8.334,8.762-8.336c5.278-0.003,10.557,0,15.835,0c9.638,0,19.276,0,28.914,0c9.523,0,19.045,0,28.568,0
			c4.932,0,9.864,0,14.796,0c3.268,0,6.536,0,9.804,0c8.811,0,17.622,0,26.434,0c10.024,0,20.048,0,30.071,0
			c6.761,0,13.523,0,20.284,0c1.196,0,2.448-0.086,3.635,0.097c2.684,0.412,5.049,2.156,6.236,4.599
			c0.549,1.132,0.835,2.383,0.837,3.641c0.017-3.067,1.728-5.94,4.449-7.374c1.624-0.856,3.318-0.962,5.099-0.962
			c7.118,0,14.237,0,21.355,0c11.224,0,22.448,0,33.672,0c9.054,0,18.107,0,27.161,0c2.798,0,5.596,0,8.395,0
			c8.237,0,16.474,0,24.71,0c11.268,0,22.535,0,33.802,0c8.128,0,16.256,0,24.384,0c1.407,0,2.905-0.119,4.298,0.134
			c3.02,0.548,5.554,2.783,6.47,5.714c0.321,1.026,0.38,2.062,0.38,3.126c0,1.837,0,3.675,0,5.512c0,5.331,0,10.662,0,15.993
			C688.107,90.349,688.107,91.404,688.107,92.458z"/>
	</g>
	<g id="POLYLINE_607_">
		
			<path fill="none" stroke="#1B7FFF" stroke-width="3.5" stroke-linecap="round" stroke-linejoin="round" stroke-miterlimit="10" d="
			M716.92,332.388c2.709,0.03,3.953,2.303,3.953,4.683c0,1.619,0,3.237,0,4.856c0,2.899,0,5.798,0,8.696c0,4.003,0,8.007,0,12.01
			c0,4.953,0,9.907,0,14.86c0,5.675,0,11.35,0,17.024c0,6.238,0,12.476,0,18.714c0,6.621,0,13.241,0,19.862
			c0,6.857,0,13.713,0,20.57c0,6.845,0,13.691,0,20.536c0,6.687,0,13.374,0,20.06c0,6.378,0,12.755,0,19.133
			c0,5.826,0,11.652,0,17.478c0,5.126,0,10.252,0,15.378c0,4.246,0,8.492,0,12.737c0,3.198,0,6.396,0,9.594c0,1.938,0,3.877,0,5.815
			c0,1.336,0.114,2.662-0.687,3.837c-1.113,1.632-2.805,1.727-4.567,1.727c-2.683,0-5.366,0-8.049,0c-5.14,0-10.295,0.117-15.435,0
			c-1.927-0.044-3.62-1.302-3.999-3.24c-0.162,5.144-3.103,9.931-7.627,12.391c-2.938,1.597-6.005,1.772-9.244,1.772
			c-5.369,0-10.738,0-16.106,0c-9.052,0-18.104,0-27.156,0c-10.962,0-21.924,0-32.885,0c-11.169,0-22.338,0-33.508,0
			c-9.676,0-19.353,0-29.029,0c-6.41,0-12.821,0-19.231,0c-2.805,0-5.783,0.243-8.522-0.469c-5.133-1.335-9.221-5.487-10.48-10.639
			c-0.276-1.13-0.415-2.292-0.416-3.455c0.168,0-0.377,3.305-0.448,3.582c-0.318,1.255-0.805,2.467-1.443,3.593
			c-1.31,2.314-3.256,4.247-5.578,5.542c-2.97,1.657-6.083,1.846-9.374,1.846c-5.369,0-10.738,0-16.106,0
			c-9.052,0-18.104,0-27.156,0c-10.962,0-21.924,0-32.886,0c-11.169,0-22.338,0-33.508,0c-9.676,0-19.353,0-29.029,0
			c-6.41,0-12.821,0-19.231,0c-2.805,0-5.783,0.243-8.522-0.469c-5.133-1.335-9.221-5.487-10.48-10.639
			c-0.276-1.13-0.415-2.292-0.416-3.455c-0.007,5.23-2.897,10.167-7.468,12.718c-2.97,1.657-6.083,1.846-9.374,1.846
			c-5.369,0-10.738,0-16.106,0c-9.052,0-18.104,0-27.156,0c-10.962,0-21.924,0-32.886,0c-11.169,0-22.338,0-33.508,0
			c-9.676,0-19.353,0-29.029,0c-6.41,0-12.821,0-19.231,0c-2.779,0-5.733,0.241-8.45-0.451c-5.045-1.285-9.113-5.283-10.486-10.305
			c-0.304-1.111-0.474-2.256-0.51-3.407c-0.37,1.812-1.91,3.128-3.75,3.236c-1.072,0.063-2.162,0.004-3.235,0.004
			c-5.137,0-10.275,0-15.412,0c-1.865,0-3.729,0-5.594,0c-1.425,0-2.755-0.197-3.763-1.345c-0.9-1.025-0.982-2.191-0.982-3.448
			c0-3.408,0-6.817,0-10.225c0-6.54,0-13.079,0-19.619c0-8.846,0-17.692,0-26.538c0-10.378,0-20.757,0-31.135
			c0-11.155,0-22.311,0-33.466c0-11.107,0-22.215,0-33.323c0-10.264,0-20.527,0-30.791c0-8.624,0-17.248,0-25.872
			c0-6.174,0-12.349,0-18.523c0-2.964-0.005-5.928,0-8.893c0.004-2.17,1.263-4.165,3.598-4.381c0.95-0.088,1.932-0.015,2.884-0.015
			c2.228,0,4.456,0,6.684,0c6.567,0,13.134,0,19.701,0c1.129,0,2.258,0,3.387,0c2.633,0,5.265,0,7.898,0c4.016,0,8.031,0,12.047,0
			c5.295,0,10.59,0,15.885,0c6.442,0,12.884,0,19.326,0c7.467,0,14.933,0,22.4,0c8.369,0,16.738,0,25.107,0
			c9.121,0,18.241,0,27.362,0c9.775,0,19.549,0,29.324,0c10.339,0,20.677,0,31.016,0c10.752,0,21.504,0,32.256,0
			c11.043,0,22.086,0,33.13,0c11.212,0,22.424,0,33.636,0c11.225,0,22.45,0,33.675,0c11.15,0,22.3,0,33.449,0
			c10.985,0,21.971,0,32.956,0c10.665,0,21.331,0,31.996,0c10.223,0,20.446,0,30.669,0c9.658,0,19.316,0,28.974,0
			c8.945,0,17.891,0,26.836,0c8.141,0,16.282,0,24.423,0c7.235,0,14.47,0,21.706,0c6.182,0,12.363,0,18.545,0
			c5.006,0,10.011,0,15.017,0c3.707,0,7.415,0,11.122,0c2.282,0,4.564,0,6.846,0C715.421,332.388,716.171,332.388,716.92,332.388z"
			/>
	</g>
</g>
</svg>
