<?xml version="1.0" encoding="utf-8"?>
<!-- Generator: Adobe Illustrator 23.0.4, SVG Export Plug-In . SVG Version: 6.00 Build 0)  -->
<!DOCTYPE svg PUBLIC "-//W3C//DTD SVG 1.1//EN" "http://www.w3.org/Graphics/SVG/1.1/DTD/svg11.dtd" [
	<!ENTITY ns_extend "http://ns.adobe.com/Extensibility/1.0/">
	<!ENTITY ns_ai "http://ns.adobe.com/AdobeIllustrator/10.0/">
	<!ENTITY ns_graphs "http://ns.adobe.com/Graphs/1.0/">
	<!ENTITY ns_vars "http://ns.adobe.com/Variables/1.0/">
	<!ENTITY ns_imrep "http://ns.adobe.com/ImageReplacement/1.0/">
	<!ENTITY ns_sfw "http://ns.adobe.com/SaveForWeb/1.0/">
	<!ENTITY ns_custom "http://ns.adobe.com/GenericCustomNamespace/1.0/">
	<!ENTITY ns_adobe_xpath "http://ns.adobe.com/XPath/1.0/">
]>
<svg version="1.1" xmlns:x="&ns_extend;" xmlns:i="&ns_ai;" xmlns:graph="&ns_graphs;"
	 xmlns="http://www.w3.org/2000/svg" xmlns:xlink="http://www.w3.org/1999/xlink" x="0px" y="0px" viewBox="0 0 1000 550"
	 enable-background="new 0 0 1000 550" xml:space="preserve">
<metadata>
	<sfw  xmlns="&ns_sfw;">
		<slices></slices>
		<sliceSourceBounds  bottomLeftOrigin="true" height="8750" width="4507.781" x="-3681.781" y="-2000"></sliceSourceBounds>
	</sfw>
</metadata>
<g id="FILL-BACKGROUND">
	<rect fill="#FFFFFF" width="1000" height="550"/>
</g>
<g id="N-DIMENSIONS">
	<g id="MTEXT_20_">
		<g>
			<g>
				<g>
					<path fill="#1B7FFF" d="M247.824,506.51v5.24h-2.82v-14.12h5.14c1.667,0,2.923,0.4,3.77,1.2s1.27,1.887,1.27,3.26
						c0,1.347-0.437,2.42-1.31,3.22c-0.874,0.801-2.117,1.2-3.73,1.2H247.824z M252.324,502.09c0-0.706-0.193-1.246-0.58-1.62
						c-0.387-0.373-1.02-0.56-1.9-0.56h-2.02v4.34h2.02C251.497,504.25,252.324,503.531,252.324,502.09z"/>
					<path fill="#1B7FFF" d="M259.844,496.951v14.8h-2.82v-14.8H259.844z"/>
					<path fill="#1B7FFF" d="M269.144,501.191c0.667,0.439,1.14,1.033,1.42,1.779v-2.3h2.8v11.08h-2.8v-2.32
						c-0.28,0.747-0.753,1.344-1.42,1.79c-0.667,0.447-1.467,0.67-2.4,0.67c-0.934,0-1.773-0.227-2.52-0.68
						c-0.747-0.453-1.33-1.11-1.75-1.97c-0.42-0.86-0.63-1.87-0.63-3.03s0.21-2.17,0.63-3.03c0.42-0.859,1.003-1.517,1.75-1.97
						c0.747-0.453,1.586-0.68,2.52-0.68C267.677,500.531,268.477,500.75,269.144,501.191z M265.503,503.85
						c-0.533,0.574-0.8,1.36-0.8,2.36s0.267,1.783,0.8,2.35c0.533,0.567,1.24,0.851,2.12,0.851c0.853,0,1.557-0.29,2.11-0.87
						s0.83-1.356,0.83-2.33c0-0.986-0.277-1.77-0.83-2.35s-1.257-0.87-2.11-0.87C266.744,502.991,266.037,503.278,265.503,503.85z"
						/>
					<path fill="#1B7FFF" d="M285.583,501.77c0.76,0.841,1.14,2.021,1.14,3.54v6.44h-2.8v-6.12c0-0.88-0.227-1.563-0.68-2.05
						c-0.454-0.486-1.074-0.73-1.86-0.73c-0.8,0-1.44,0.261-1.92,0.78c-0.48,0.521-0.72,1.267-0.72,2.24v5.88h-2.82v-11.08h2.82
						v2.22c0.293-0.746,0.776-1.33,1.45-1.75s1.45-0.63,2.33-0.63C283.804,500.51,284.824,500.93,285.583,501.77z"/>
				</g>
			</g>
		</g>
	</g>
	<g>
		<g id="POLYLINE_593_">
			
				<line fill="none" stroke="#1B7FFF" stroke-width="2" stroke-linecap="round" stroke-linejoin="round" stroke-miterlimit="10" x1="498.397" y1="358.739" x2="498.397" y2="287.572"/>
		</g>
		<g id="POLYLINE_577_">
			
				<line fill="none" stroke="#1B7FFF" stroke-width="2" stroke-linecap="round" stroke-linejoin="round" stroke-miterlimit="10" x1="498.397" y1="480.675" x2="498.397" y2="408.476"/>
		</g>
		<g id="POLYLINE_571_">
			
				<polyline fill="none" stroke="#1B7FFF" stroke-width="2" stroke-linecap="round" stroke-linejoin="round" stroke-miterlimit="10" points="
				505.515,294.692 498.397,287.572 491.276,294.692 			"/>
		</g>
		<g id="POLYLINE_467_">
			
				<polyline fill="none" stroke="#1B7FFF" stroke-width="2" stroke-linecap="round" stroke-linejoin="round" stroke-miterlimit="10" points="
				505.515,473.545 498.397,480.675 491.276,473.545 			"/>
		</g>
		<g id="MTEXT_65_">
			<g>
				<g>
					<g>
						<path fill="#1B7FFF" d="M494.117,379.601c-0.685-0.306-1.204-0.705-1.558-1.197c-0.354-0.492-0.543-1.002-0.566-1.53
							c0-0.108,0.035-0.195,0.107-0.261c0.072-0.066,0.162-0.099,0.271-0.099h0.81c0.132,0,0.24,0.027,0.324,0.081
							c0.084,0.054,0.149,0.159,0.198,0.315c0.155,0.612,0.494,1.044,1.017,1.296s1.137,0.378,1.845,0.378
							c0.864,0,1.551-0.207,2.062-0.621c0.51-0.414,0.765-1.005,0.765-1.773c0-1.464-0.894-2.196-2.682-2.196h-1.692
							c-0.12,0-0.219-0.039-0.297-0.117s-0.117-0.177-0.117-0.297v-0.468c0-0.18,0.066-0.336,0.198-0.468l3.51-3.888h-5.328
							c-0.12,0-0.219-0.036-0.297-0.108c-0.078-0.072-0.117-0.168-0.117-0.288v-0.648c0-0.132,0.039-0.237,0.117-0.315
							s0.177-0.117,0.297-0.117h7.128c0.132,0,0.237,0.039,0.315,0.117s0.117,0.183,0.117,0.315v0.594
							c0,0.132-0.061,0.27-0.181,0.414l-3.51,3.942h0.288c1.225,0.036,2.193,0.354,2.907,0.954c0.714,0.601,1.071,1.476,1.071,2.628
							c0,0.792-0.195,1.474-0.585,2.043c-0.391,0.57-0.934,1.008-1.63,1.314c-0.695,0.306-1.481,0.459-2.357,0.459
							C495.61,380.06,494.801,379.907,494.117,379.601z"/>
						<path fill="#1B7FFF" d="M502.981,379.763c-0.078-0.078-0.117-0.177-0.117-0.297v-0.54c0-0.276,0.15-0.54,0.45-0.792
							l3.924-3.906c0.888-0.756,1.5-1.374,1.836-1.854s0.504-0.99,0.504-1.53c0-0.708-0.197-1.263-0.594-1.665
							c-0.396-0.402-0.972-0.603-1.728-0.603c-0.721,0-1.29,0.21-1.71,0.63c-0.421,0.42-0.679,0.984-0.774,1.692
							c-0.024,0.132-0.084,0.234-0.18,0.306c-0.097,0.072-0.192,0.108-0.288,0.108h-0.864c-0.108,0-0.198-0.036-0.27-0.108
							c-0.072-0.072-0.108-0.156-0.108-0.252c0.023-0.636,0.195-1.251,0.513-1.845c0.318-0.594,0.789-1.08,1.413-1.458
							s1.38-0.567,2.269-0.567c1.344,0,2.354,0.351,3.032,1.053c0.678,0.702,1.018,1.593,1.018,2.673
							c0,0.756-0.184,1.437-0.549,2.043c-0.366,0.606-0.939,1.245-1.72,1.917l-3.546,3.6h5.67c0.132,0,0.234,0.036,0.307,0.108
							c0.071,0.072,0.107,0.174,0.107,0.306v0.684c0,0.12-0.039,0.219-0.117,0.297c-0.078,0.079-0.177,0.117-0.297,0.117h-7.884
							C503.158,379.88,503.06,379.841,502.981,379.763z"/>
						<path fill="#1B7FFF" d="M513.826,370.646l-0.306-3.132v-0.072c0-0.108,0.032-0.192,0.099-0.252
							c0.065-0.06,0.153-0.09,0.261-0.09h1.134c0.12,0,0.213,0.039,0.279,0.117c0.066,0.078,0.093,0.177,0.081,0.297l-0.306,3.132
							c-0.024,0.264-0.145,0.396-0.36,0.396h-0.521C513.97,371.042,513.85,370.91,513.826,370.646z M516.58,370.646l-0.306-3.132
							v-0.036c0-0.12,0.032-0.213,0.099-0.279c0.065-0.065,0.153-0.099,0.261-0.099h1.135c0.119,0,0.213,0.039,0.278,0.117
							c0.066,0.078,0.093,0.177,0.081,0.297l-0.306,3.132c-0.024,0.264-0.145,0.396-0.36,0.396h-0.521
							C516.725,371.042,516.604,370.91,516.58,370.646z"/>
						<path fill="#1B7FFF" d="M494.485,399.302c-0.714-0.306-1.269-0.747-1.665-1.323c-0.396-0.576-0.594-1.248-0.594-2.016
							c0-0.708,0.177-1.329,0.531-1.863c0.354-0.534,0.831-0.945,1.431-1.233c-0.479-0.276-0.852-0.639-1.116-1.089
							c-0.264-0.45-0.396-0.981-0.396-1.593c0-1.044,0.39-1.869,1.17-2.475s1.806-0.909,3.078-0.909c1.271,0,2.295,0.3,3.069,0.9
							c0.773,0.6,1.16,1.428,1.16,2.484c0,0.6-0.132,1.125-0.396,1.575c-0.264,0.45-0.63,0.819-1.098,1.107
							c0.6,0.288,1.076,0.699,1.431,1.233c0.354,0.534,0.531,1.161,0.531,1.881c0,0.768-0.198,1.438-0.595,2.007
							c-0.396,0.57-0.951,1.008-1.665,1.314c-0.714,0.306-1.526,0.459-2.438,0.459S495.199,399.607,494.485,399.302z
							 M499.058,397.708c0.57-0.432,0.855-1.008,0.855-1.728c0-0.72-0.285-1.296-0.855-1.728c-0.57-0.432-1.281-0.648-2.133-0.648
							c-0.864,0-1.581,0.216-2.151,0.648c-0.569,0.432-0.854,1.008-0.854,1.728c0,0.72,0.285,1.296,0.854,1.728
							c0.57,0.432,1.287,0.648,2.151,0.648C497.776,398.356,498.487,398.141,499.058,397.708z M498.778,391.661
							c0.505-0.36,0.757-0.84,0.757-1.44c0-0.612-0.25-1.101-0.747-1.467c-0.498-0.366-1.119-0.549-1.863-0.549
							c-0.756,0-1.38,0.183-1.872,0.549c-0.492,0.366-0.738,0.855-0.738,1.467c0,0.612,0.246,1.101,0.738,1.467
							c0.492,0.366,1.116,0.549,1.872,0.549C497.656,392.213,498.274,392.021,498.778,391.661z"/>
						<path fill="#1B7FFF" d="M507.311,399.463c-0.071-0.078-0.107-0.177-0.107-0.297v-10.152l-3.024,2.322
							c-0.084,0.072-0.174,0.108-0.27,0.108c-0.108,0-0.21-0.06-0.307-0.18l-0.432-0.558c-0.061-0.084-0.09-0.168-0.09-0.252
							c0-0.132,0.06-0.24,0.18-0.324l3.906-3.024c0.132-0.083,0.288-0.126,0.468-0.126h0.846c0.12,0,0.219,0.039,0.298,0.117
							c0.077,0.078,0.116,0.177,0.116,0.297v11.772c0,0.12-0.039,0.219-0.116,0.297c-0.079,0.079-0.178,0.117-0.298,0.117h-0.882
							C507.479,399.581,507.383,399.542,507.311,399.463z"/>
						<path fill="#1B7FFF" d="M516.796,398.671c-0.72-0.726-1.098-1.743-1.134-3.051l-0.019-0.72l0.019-0.72
							c0.036-1.308,0.414-2.325,1.134-3.051c0.72-0.726,1.722-1.089,3.006-1.089c0.864,0,1.593,0.153,2.188,0.459
							c0.594,0.306,1.037,0.687,1.332,1.143c0.294,0.456,0.452,0.912,0.477,1.368c0.012,0.108-0.026,0.204-0.117,0.288
							c-0.09,0.084-0.188,0.126-0.297,0.126h-0.792c-0.12,0-0.21-0.027-0.27-0.081c-0.061-0.054-0.12-0.153-0.181-0.297
							c-0.216-0.587-0.513-1.005-0.891-1.251c-0.378-0.246-0.854-0.369-1.431-0.369c-0.756,0-1.356,0.234-1.801,0.702
							c-0.443,0.468-0.684,1.182-0.72,2.142l-0.018,0.63l0.018,0.63c0.036,0.96,0.276,1.674,0.72,2.142
							c0.444,0.468,1.045,0.702,1.801,0.702c0.588,0,1.067-0.123,1.439-0.369c0.372-0.246,0.666-0.663,0.882-1.251
							c0.061-0.144,0.12-0.243,0.181-0.297c0.06-0.054,0.149-0.081,0.27-0.081h0.792c0.108,0,0.207,0.042,0.297,0.126
							c0.091,0.084,0.129,0.18,0.117,0.288c-0.024,0.444-0.183,0.894-0.477,1.35c-0.295,0.456-0.738,0.84-1.332,1.152
							c-0.595,0.312-1.323,0.468-2.188,0.468C518.518,399.761,517.516,399.398,516.796,398.671z"/>
						<path fill="#1B7FFF" d="M526.074,399.463c-0.078-0.078-0.117-0.177-0.117-0.297v-8.532c0-0.12,0.039-0.219,0.117-0.297
							c0.078-0.078,0.177-0.117,0.297-0.117h0.756c0.12,0,0.217,0.039,0.288,0.117c0.072,0.078,0.108,0.177,0.108,0.297v0.612
							c0.648-0.804,1.523-1.206,2.628-1.206c1.32,0,2.256,0.552,2.808,1.656c0.288-0.504,0.699-0.906,1.233-1.206
							s1.131-0.45,1.791-0.45c0.983,0,1.788,0.336,2.412,1.008c0.624,0.672,0.936,1.645,0.936,2.916v5.202
							c0,0.12-0.039,0.219-0.116,0.297c-0.078,0.079-0.178,0.117-0.298,0.117h-0.773c-0.12,0-0.219-0.039-0.297-0.117
							c-0.078-0.078-0.117-0.177-0.117-0.297v-5.04c0-0.96-0.198-1.647-0.594-2.061c-0.396-0.414-0.918-0.621-1.566-0.621
							c-0.576,0-1.071,0.213-1.485,0.639c-0.413,0.426-0.62,1.107-0.62,2.043v5.04c0,0.12-0.039,0.219-0.117,0.297
							c-0.078,0.079-0.178,0.117-0.297,0.117h-0.792c-0.12,0-0.22-0.039-0.298-0.117c-0.078-0.078-0.116-0.177-0.116-0.297v-5.04
							c0-0.948-0.207-1.632-0.621-2.052s-0.927-0.63-1.539-0.63c-0.576,0-1.071,0.21-1.485,0.63s-0.621,1.098-0.621,2.034v5.058
							c0,0.12-0.039,0.219-0.117,0.297c-0.078,0.079-0.177,0.117-0.297,0.117h-0.792
							C526.251,399.581,526.152,399.542,526.074,399.463z"/>
					</g>
				</g>
			</g>
		</g>
	</g>
	<g>
		<g id="POLYLINE_426_">
			
				<line fill="none" stroke="#1B7FFF" stroke-width="2" stroke-linecap="round" stroke-linejoin="round" stroke-miterlimit="10" x1="329" y1="267.01" x2="474.872" y2="267.01"/>
		</g>
		<g id="POLYLINE_425_">
			
				<line fill="none" stroke="#1B7FFF" stroke-width="2" stroke-linecap="round" stroke-linejoin="round" stroke-miterlimit="10" x1="61.289" y1="267.01" x2="216" y2="267.01"/>
		</g>
		<g id="POLYLINE_413_">
			
				<polyline fill="none" stroke="#1B7FFF" stroke-width="2" stroke-linecap="round" stroke-linejoin="round" stroke-miterlimit="10" points="
				467.752,274.128 474.872,267.01 467.752,259.889 			"/>
		</g>
		<g id="POLYLINE_343_">
			
				<polyline fill="none" stroke="#1B7FFF" stroke-width="2" stroke-linecap="round" stroke-linejoin="round" stroke-miterlimit="10" points="
				68.419,274.128 61.289,267.01 68.419,259.889 			"/>
		</g>
		<g id="MTEXT_63_">
			<g>
				<g>
					<g>
						<path fill="#1B7FFF" d="M226.098,272.387c-0.702-0.39-1.236-0.915-1.603-1.575c-0.366-0.66-0.549-1.38-0.549-2.16
							c0-1.032,0.414-2.136,1.242-3.312l3.438-4.788c0.013-0.012,0.046-0.054,0.1-0.126c0.054-0.072,0.123-0.128,0.207-0.171
							c0.084-0.042,0.18-0.063,0.288-0.063h0.882c0.108,0,0.194,0.039,0.261,0.117s0.1,0.171,0.1,0.279
							c0,0.06-0.03,0.138-0.091,0.234l-2.628,3.672c0.312-0.072,0.66-0.108,1.044-0.108c0.876,0,1.647,0.195,2.313,0.585
							s1.182,0.906,1.548,1.548s0.549,1.347,0.549,2.115c0,0.768-0.183,1.485-0.549,2.151s-0.897,1.197-1.593,1.593
							c-0.696,0.396-1.519,0.594-2.466,0.594C227.63,272.972,226.8,272.777,226.098,272.387z M230.03,271.154
							c0.444-0.216,0.798-0.537,1.062-0.963c0.264-0.426,0.396-0.939,0.396-1.539c0-0.588-0.135-1.095-0.405-1.521
							c-0.27-0.426-0.627-0.75-1.07-0.972c-0.444-0.222-0.925-0.333-1.44-0.333s-0.996,0.111-1.439,0.333
							c-0.444,0.222-0.799,0.546-1.062,0.972c-0.264,0.426-0.396,0.933-0.396,1.521c0,0.6,0.132,1.113,0.396,1.539
							c0.264,0.426,0.618,0.747,1.062,0.963c0.443,0.216,0.924,0.324,1.439,0.324C229.101,271.478,229.586,271.37,230.03,271.154z"
							/>
						<path fill="#1B7FFF" d="M237.131,272.513c-0.714-0.306-1.269-0.747-1.665-1.323c-0.396-0.576-0.594-1.248-0.594-2.016
							c0-0.708,0.177-1.329,0.531-1.863c0.354-0.534,0.831-0.945,1.431-1.233c-0.479-0.276-0.852-0.639-1.116-1.089
							c-0.264-0.45-0.396-0.981-0.396-1.593c0-1.044,0.39-1.869,1.17-2.475s1.806-0.909,3.078-0.909c1.271,0,2.295,0.3,3.069,0.9
							c0.773,0.6,1.16,1.428,1.16,2.484c0,0.6-0.132,1.125-0.396,1.575c-0.264,0.45-0.63,0.819-1.098,1.107
							c0.6,0.288,1.076,0.699,1.431,1.233c0.354,0.534,0.531,1.161,0.531,1.881c0,0.768-0.198,1.438-0.595,2.007
							c-0.396,0.57-0.951,1.008-1.665,1.314c-0.714,0.306-1.526,0.459-2.438,0.459S237.845,272.819,237.131,272.513z
							 M241.703,270.92c0.57-0.432,0.855-1.008,0.855-1.728c0-0.72-0.285-1.296-0.855-1.728c-0.57-0.432-1.281-0.648-2.133-0.648
							c-0.864,0-1.581,0.216-2.151,0.648c-0.569,0.432-0.854,1.008-0.854,1.728c0,0.72,0.285,1.296,0.854,1.728
							c0.57,0.432,1.287,0.648,2.151,0.648C240.422,271.568,241.133,271.352,241.703,270.92z M241.424,264.872
							c0.505-0.36,0.757-0.84,0.757-1.44c0-0.612-0.25-1.101-0.747-1.467c-0.498-0.366-1.119-0.549-1.863-0.549
							c-0.756,0-1.38,0.183-1.872,0.549c-0.492,0.366-0.738,0.855-0.738,1.467c0,0.612,0.246,1.101,0.738,1.467
							c0.492,0.366,1.116,0.549,1.872,0.549C240.302,265.424,240.92,265.232,241.424,264.872z"/>
						<path fill="#1B7FFF" d="M246.608,263.558l-0.306-3.132v-0.072c0-0.108,0.032-0.192,0.099-0.252
							c0.065-0.06,0.153-0.09,0.261-0.09h1.134c0.12,0,0.213,0.039,0.279,0.117c0.066,0.078,0.093,0.177,0.081,0.297l-0.306,3.132
							c-0.024,0.264-0.145,0.396-0.36,0.396h-0.521C246.752,263.954,246.632,263.822,246.608,263.558z M249.362,263.558
							l-0.306-3.132v-0.036c0-0.12,0.032-0.213,0.099-0.279c0.065-0.065,0.153-0.099,0.261-0.099h1.135
							c0.119,0,0.213,0.039,0.278,0.117c0.066,0.078,0.093,0.177,0.081,0.297l-0.306,3.132c-0.024,0.264-0.145,0.396-0.36,0.396
							h-0.521C249.507,263.954,249.387,263.822,249.362,263.558z"/>
						<path fill="#1B7FFF" d="M257.821,276.419c-0.072-0.078-0.108-0.177-0.108-0.297v-19.044c0-0.12,0.036-0.219,0.108-0.297
							c0.072-0.078,0.168-0.117,0.288-0.117h0.666c0.12,0,0.219,0.039,0.297,0.117c0.078,0.079,0.117,0.177,0.117,0.297v19.044
							c0,0.12-0.039,0.219-0.117,0.297s-0.177,0.117-0.297,0.117h-0.666C257.989,276.536,257.894,276.497,257.821,276.419z"/>
						<path fill="#1B7FFF" d="M269.629,272.675c-0.071-0.078-0.107-0.177-0.107-0.297v-10.152l-3.024,2.322
							c-0.084,0.072-0.174,0.108-0.27,0.108c-0.108,0-0.21-0.06-0.307-0.18l-0.432-0.558c-0.061-0.084-0.09-0.168-0.09-0.252
							c0-0.132,0.06-0.24,0.18-0.324l3.906-3.024c0.132-0.083,0.288-0.126,0.468-0.126h0.846c0.12,0,0.219,0.039,0.298,0.117
							c0.077,0.078,0.116,0.177,0.116,0.297v11.772c0,0.12-0.039,0.219-0.116,0.297c-0.079,0.079-0.178,0.117-0.298,0.117h-0.882
							C269.797,272.792,269.701,272.753,269.629,272.675z"/>
						<path fill="#1B7FFF" d="M275.038,272.675c-0.066-0.078-0.1-0.171-0.1-0.279l0.036-0.162l4.5-10.53h-5.94
							c-0.12,0-0.219-0.039-0.297-0.117c-0.078-0.078-0.116-0.177-0.116-0.297v-0.666c0-0.132,0.035-0.237,0.107-0.315
							s0.174-0.117,0.306-0.117h7.345c0.132,0,0.233,0.039,0.306,0.117s0.108,0.183,0.108,0.315v0.612
							c0,0.216-0.049,0.45-0.145,0.702l-4.446,10.404c-0.06,0.132-0.126,0.24-0.197,0.324c-0.072,0.084-0.175,0.126-0.307,0.126
							h-0.899C275.19,272.792,275.104,272.753,275.038,272.675z"/>
						<path fill="#1B7FFF" d="M284.678,272.513c-0.685-0.306-1.204-0.705-1.558-1.197c-0.354-0.492-0.543-1.002-0.566-1.53
							c0-0.108,0.035-0.195,0.107-0.261c0.072-0.066,0.162-0.099,0.271-0.099h0.81c0.132,0,0.24,0.027,0.324,0.081
							c0.084,0.054,0.149,0.159,0.198,0.315c0.155,0.612,0.494,1.044,1.017,1.296s1.137,0.378,1.845,0.378
							c0.864,0,1.551-0.207,2.062-0.621c0.51-0.414,0.765-1.005,0.765-1.773c0-1.464-0.894-2.196-2.682-2.196h-1.692
							c-0.12,0-0.219-0.039-0.297-0.117s-0.117-0.177-0.117-0.297v-0.468c0-0.18,0.066-0.336,0.198-0.468l3.51-3.888h-5.328
							c-0.12,0-0.219-0.036-0.297-0.108c-0.078-0.072-0.117-0.168-0.117-0.288v-0.648c0-0.132,0.039-0.237,0.117-0.315
							s0.177-0.117,0.297-0.117h7.128c0.132,0,0.237,0.039,0.315,0.117s0.117,0.183,0.117,0.315v0.594
							c0,0.132-0.061,0.27-0.181,0.414l-3.51,3.942h0.288c1.225,0.036,2.193,0.354,2.907,0.954c0.714,0.601,1.071,1.476,1.071,2.628
							c0,0.792-0.195,1.474-0.585,2.043c-0.391,0.57-0.934,1.008-1.63,1.314c-0.695,0.306-1.481,0.459-2.357,0.459
							C286.171,272.972,285.361,272.819,284.678,272.513z"/>
						<path fill="#1B7FFF" d="M299.059,271.883c-0.72-0.726-1.098-1.743-1.134-3.051l-0.019-0.72l0.019-0.72
							c0.036-1.308,0.414-2.325,1.134-3.051c0.72-0.726,1.722-1.089,3.006-1.089c0.864,0,1.593,0.153,2.188,0.459
							c0.594,0.306,1.037,0.687,1.332,1.143c0.294,0.456,0.452,0.912,0.477,1.368c0.012,0.108-0.026,0.204-0.117,0.288
							c-0.09,0.084-0.188,0.126-0.297,0.126h-0.792c-0.12,0-0.21-0.027-0.27-0.081c-0.061-0.054-0.12-0.153-0.181-0.297
							c-0.216-0.587-0.513-1.005-0.891-1.251c-0.378-0.246-0.854-0.369-1.431-0.369c-0.756,0-1.356,0.234-1.801,0.702
							c-0.443,0.468-0.684,1.182-0.72,2.142l-0.018,0.63l0.018,0.63c0.036,0.96,0.276,1.674,0.72,2.142
							c0.444,0.468,1.045,0.702,1.801,0.702c0.588,0,1.067-0.123,1.439-0.369c0.372-0.246,0.666-0.663,0.882-1.251
							c0.061-0.144,0.12-0.243,0.181-0.297c0.06-0.054,0.149-0.081,0.27-0.081h0.792c0.108,0,0.207,0.042,0.297,0.126
							c0.091,0.084,0.129,0.18,0.117,0.288c-0.024,0.444-0.183,0.894-0.477,1.35c-0.295,0.456-0.738,0.84-1.332,1.152
							c-0.595,0.312-1.323,0.468-2.188,0.468C300.78,272.972,299.778,272.609,299.059,271.883z"/>
						<path fill="#1B7FFF" d="M308.337,272.675c-0.078-0.078-0.117-0.177-0.117-0.297v-8.532c0-0.12,0.039-0.219,0.117-0.297
							c0.078-0.078,0.177-0.117,0.297-0.117h0.756c0.12,0,0.217,0.039,0.288,0.117c0.072,0.078,0.108,0.177,0.108,0.297v0.612
							c0.648-0.804,1.523-1.206,2.628-1.206c1.32,0,2.256,0.552,2.808,1.656c0.288-0.504,0.699-0.906,1.233-1.206
							s1.131-0.45,1.791-0.45c0.983,0,1.788,0.336,2.412,1.008c0.624,0.672,0.936,1.645,0.936,2.916v5.202
							c0,0.12-0.039,0.219-0.116,0.297c-0.078,0.079-0.178,0.117-0.298,0.117h-0.773c-0.12,0-0.219-0.039-0.297-0.117
							c-0.078-0.078-0.117-0.177-0.117-0.297v-5.04c0-0.96-0.198-1.647-0.594-2.061c-0.396-0.414-0.918-0.621-1.566-0.621
							c-0.576,0-1.071,0.213-1.485,0.639c-0.413,0.426-0.62,1.107-0.62,2.043v5.04c0,0.12-0.039,0.219-0.117,0.297
							c-0.078,0.079-0.178,0.117-0.297,0.117h-0.792c-0.12,0-0.22-0.039-0.298-0.117c-0.078-0.078-0.116-0.177-0.116-0.297v-5.04
							c0-0.948-0.207-1.632-0.621-2.052s-0.927-0.63-1.539-0.63c-0.576,0-1.071,0.21-1.485,0.63s-0.621,1.098-0.621,2.034v5.058
							c0,0.12-0.039,0.219-0.117,0.297c-0.078,0.079-0.177,0.117-0.297,0.117h-0.792
							C308.514,272.792,308.415,272.753,308.337,272.675z"/>
					</g>
				</g>
			</g>
		</g>
	</g>
	<g>
		<g id="MTEXT_61_">
			<g>
				<g>
					<g>
						<path fill="#1B7FFF" d="M823.218,292.241c-0.078-0.078-0.117-0.177-0.117-0.297v-0.54c0-0.276,0.15-0.54,0.45-0.792
							l3.924-3.906c0.888-0.756,1.5-1.374,1.836-1.854s0.504-0.99,0.504-1.53c0-0.708-0.197-1.263-0.594-1.665
							c-0.396-0.402-0.972-0.603-1.728-0.603c-0.721,0-1.29,0.21-1.71,0.63c-0.421,0.42-0.679,0.984-0.774,1.692
							c-0.024,0.132-0.084,0.234-0.18,0.306c-0.097,0.072-0.192,0.108-0.288,0.108h-0.864c-0.108,0-0.198-0.036-0.27-0.108
							c-0.072-0.072-0.108-0.156-0.108-0.252c0.023-0.636,0.195-1.251,0.513-1.845c0.318-0.594,0.789-1.08,1.413-1.458
							s1.38-0.567,2.269-0.567c1.344,0,2.354,0.351,3.032,1.053c0.678,0.702,1.018,1.593,1.018,2.673
							c0,0.756-0.184,1.437-0.549,2.043c-0.366,0.606-0.939,1.245-1.72,1.917l-3.546,3.6h5.67c0.132,0,0.234,0.036,0.307,0.108
							c0.071,0.072,0.107,0.174,0.107,0.306v0.684c0,0.12-0.039,0.219-0.117,0.297c-0.078,0.079-0.177,0.117-0.297,0.117h-7.884
							C823.395,292.358,823.296,292.319,823.218,292.241z"/>
						<path fill="#1B7FFF" d="M839.49,292.241c-0.079-0.078-0.117-0.177-0.117-0.297v-2.628h-5.851c-0.12,0-0.219-0.039-0.297-0.117
							c-0.078-0.078-0.117-0.177-0.117-0.297v-0.666c0-0.168,0.066-0.348,0.198-0.54l5.418-7.632
							c0.061-0.096,0.15-0.171,0.271-0.225c0.119-0.054,0.252-0.081,0.396-0.081h1.225c0.132,0,0.233,0.036,0.306,0.108
							c0.072,0.072,0.107,0.174,0.107,0.306v7.632h1.639c0.119,0,0.219,0.039,0.297,0.117s0.117,0.177,0.117,0.297v0.684
							c0,0.12-0.039,0.219-0.117,0.297c-0.078,0.078-0.178,0.117-0.297,0.117h-1.639v2.628c0,0.12-0.039,0.219-0.116,0.297
							c-0.078,0.079-0.178,0.117-0.297,0.117h-0.828C839.667,292.358,839.567,292.319,839.49,292.241z M834.98,287.84h4.41v-6.264
							L834.98,287.84z"/>
						<path fill="#1B7FFF" d="M844.593,283.124l-0.306-3.132v-0.072c0-0.108,0.032-0.192,0.099-0.252
							c0.065-0.06,0.153-0.09,0.261-0.09h1.134c0.12,0,0.213,0.039,0.279,0.117c0.066,0.078,0.093,0.177,0.081,0.297l-0.306,3.132
							c-0.024,0.264-0.145,0.396-0.36,0.396h-0.521C844.736,283.52,844.616,283.388,844.593,283.124z M847.347,283.124l-0.306-3.132
							v-0.036c0-0.12,0.032-0.213,0.099-0.279c0.065-0.065,0.153-0.099,0.261-0.099h1.135c0.119,0,0.213,0.039,0.278,0.117
							c0.066,0.078,0.093,0.177,0.081,0.297l-0.306,3.132c-0.024,0.264-0.145,0.396-0.36,0.396h-0.521
							C847.491,283.52,847.371,283.388,847.347,283.124z"/>
						<path fill="#1B7FFF" d="M825.252,311.654c-0.702-0.39-1.236-0.915-1.603-1.575c-0.366-0.66-0.549-1.38-0.549-2.16
							c0-1.032,0.414-2.136,1.242-3.312l3.438-4.788c0.013-0.012,0.046-0.054,0.1-0.126c0.054-0.072,0.123-0.128,0.207-0.171
							c0.084-0.042,0.18-0.063,0.288-0.063h0.882c0.108,0,0.194,0.039,0.261,0.117s0.1,0.171,0.1,0.279
							c0,0.06-0.03,0.138-0.091,0.234l-2.628,3.672c0.312-0.072,0.66-0.108,1.044-0.108c0.876,0,1.647,0.195,2.313,0.585
							s1.182,0.906,1.548,1.548s0.549,1.347,0.549,2.115c0,0.768-0.183,1.485-0.549,2.151s-0.897,1.197-1.593,1.593
							c-0.696,0.396-1.519,0.594-2.466,0.594C826.784,312.239,825.954,312.043,825.252,311.654z M829.185,310.42
							c0.444-0.216,0.798-0.537,1.062-0.963c0.264-0.426,0.396-0.939,0.396-1.539c0-0.588-0.135-1.095-0.405-1.521
							c-0.27-0.426-0.627-0.75-1.07-0.972c-0.444-0.222-0.925-0.333-1.44-0.333s-0.996,0.111-1.439,0.333
							c-0.444,0.222-0.799,0.546-1.062,0.972c-0.264,0.426-0.396,0.933-0.396,1.521c0,0.6,0.132,1.113,0.396,1.539
							c0.264,0.426,0.618,0.747,1.062,0.963c0.443,0.216,0.924,0.324,1.439,0.324C828.255,310.745,828.74,310.637,829.185,310.42z"
							/>
						<path fill="#1B7FFF" d="M837.267,311.941c-0.071-0.078-0.107-0.177-0.107-0.297v-10.152l-3.024,2.322
							c-0.084,0.072-0.174,0.108-0.27,0.108c-0.108,0-0.21-0.06-0.307-0.18l-0.432-0.558c-0.061-0.084-0.09-0.168-0.09-0.252
							c0-0.132,0.06-0.24,0.18-0.324l3.906-3.024c0.132-0.083,0.288-0.126,0.468-0.126h0.846c0.12,0,0.219,0.039,0.298,0.117
							c0.077,0.078,0.116,0.177,0.116,0.297v11.772c0,0.12-0.039,0.219-0.116,0.297c-0.079,0.079-0.178,0.117-0.298,0.117h-0.882
							C837.435,312.059,837.339,312.02,837.267,311.941z"/>
						<path fill="#1B7FFF" d="M846.752,311.149c-0.72-0.726-1.098-1.743-1.134-3.051l-0.019-0.72l0.019-0.72
							c0.036-1.308,0.414-2.325,1.134-3.051c0.72-0.726,1.722-1.089,3.006-1.089c0.864,0,1.593,0.153,2.188,0.459
							c0.594,0.306,1.037,0.687,1.332,1.143c0.294,0.456,0.452,0.912,0.477,1.368c0.012,0.108-0.026,0.204-0.117,0.288
							c-0.09,0.084-0.188,0.126-0.297,0.126h-0.792c-0.12,0-0.21-0.027-0.27-0.081c-0.061-0.054-0.12-0.153-0.181-0.297
							c-0.216-0.587-0.513-1.005-0.891-1.251c-0.378-0.246-0.854-0.369-1.431-0.369c-0.756,0-1.356,0.234-1.801,0.702
							c-0.443,0.468-0.684,1.182-0.72,2.142l-0.018,0.63l0.018,0.63c0.036,0.96,0.276,1.674,0.72,2.142
							c0.444,0.468,1.045,0.702,1.801,0.702c0.588,0,1.067-0.123,1.439-0.369c0.372-0.246,0.666-0.663,0.882-1.251
							c0.061-0.144,0.12-0.243,0.181-0.297c0.06-0.054,0.149-0.081,0.27-0.081h0.792c0.108,0,0.207,0.042,0.297,0.126
							c0.091,0.084,0.129,0.18,0.117,0.288c-0.024,0.444-0.183,0.894-0.477,1.35c-0.295,0.456-0.738,0.84-1.332,1.152
							c-0.595,0.312-1.323,0.468-2.188,0.468C848.474,312.239,847.472,311.876,846.752,311.149z"/>
						<path fill="#1B7FFF" d="M856.031,311.941c-0.078-0.078-0.117-0.177-0.117-0.297v-8.532c0-0.12,0.039-0.219,0.117-0.297
							c0.078-0.078,0.177-0.117,0.297-0.117h0.756c0.12,0,0.217,0.039,0.288,0.117c0.072,0.078,0.108,0.177,0.108,0.297v0.612
							c0.648-0.804,1.523-1.206,2.628-1.206c1.32,0,2.256,0.552,2.808,1.656c0.288-0.504,0.699-0.906,1.233-1.206
							s1.131-0.45,1.791-0.45c0.983,0,1.788,0.336,2.412,1.008c0.624,0.672,0.936,1.645,0.936,2.916v5.202
							c0,0.12-0.039,0.219-0.116,0.297c-0.078,0.079-0.178,0.117-0.298,0.117h-0.773c-0.12,0-0.219-0.039-0.297-0.117
							c-0.078-0.078-0.117-0.177-0.117-0.297v-5.04c0-0.96-0.198-1.647-0.594-2.061c-0.396-0.414-0.918-0.621-1.566-0.621
							c-0.576,0-1.071,0.213-1.485,0.639c-0.413,0.426-0.62,1.107-0.62,2.043v5.04c0,0.12-0.039,0.219-0.117,0.297
							c-0.078,0.079-0.178,0.117-0.297,0.117h-0.792c-0.12,0-0.22-0.039-0.298-0.117c-0.078-0.078-0.116-0.177-0.116-0.297v-5.04
							c0-0.948-0.207-1.632-0.621-2.052s-0.927-0.63-1.539-0.63c-0.576,0-1.071,0.21-1.485,0.63s-0.621,1.098-0.621,2.034v5.058
							c0,0.12-0.039,0.219-0.117,0.297c-0.078,0.079-0.177,0.117-0.297,0.117h-0.792
							C856.208,312.059,856.109,312.02,856.031,311.941z"/>
					</g>
				</g>
			</g>
		</g>
		<g>
			<g>
				
					<line fill="none" stroke="#1B7FFF" stroke-width="2.25" stroke-linecap="round" stroke-linejoin="round" x1="794" y1="305" x2="795.5" y2="305"/>
				
					<line fill="none" stroke="#1B7FFF" stroke-width="2.25" stroke-linecap="round" stroke-linejoin="round" stroke-dasharray="3.4615,5.7692" x1="801.269" y1="305" x2="807.615" y2="305"/>
				
					<line fill="none" stroke="#1B7FFF" stroke-width="2.25" stroke-linecap="round" stroke-linejoin="round" x1="810.5" y1="305" x2="812" y2="305"/>
			</g>
		</g>
	</g>
	<g>
		<g id="MTEXT_59_">
			<g>
				<g>
					<g>
						<path fill="#1B7FFF" d="M826.898,370.241c-0.071-0.078-0.107-0.177-0.107-0.297v-10.152l-3.024,2.322
							c-0.084,0.072-0.174,0.108-0.27,0.108c-0.108,0-0.21-0.06-0.307-0.18l-0.432-0.558c-0.061-0.084-0.09-0.168-0.09-0.252
							c0-0.132,0.06-0.24,0.18-0.324l3.906-3.024c0.132-0.083,0.288-0.126,0.468-0.126h0.846c0.12,0,0.219,0.039,0.298,0.117
							c0.077,0.078,0.116,0.177,0.116,0.297v11.772c0,0.12-0.039,0.219-0.116,0.297c-0.079,0.079-0.178,0.117-0.298,0.117h-0.882
							C827.066,370.358,826.971,370.319,826.898,370.241z"/>
						<path fill="#1B7FFF" d="M832.901,369.953c-0.702-0.39-1.236-0.915-1.603-1.575c-0.366-0.66-0.549-1.38-0.549-2.16
							c0-1.032,0.414-2.136,1.242-3.312l3.438-4.788c0.013-0.012,0.046-0.054,0.1-0.126c0.054-0.072,0.123-0.128,0.207-0.171
							c0.084-0.042,0.18-0.063,0.288-0.063h0.882c0.108,0,0.194,0.039,0.261,0.117s0.1,0.171,0.1,0.279
							c0,0.06-0.03,0.138-0.091,0.234l-2.628,3.672c0.312-0.072,0.66-0.108,1.044-0.108c0.876,0,1.647,0.195,2.313,0.585
							s1.182,0.906,1.548,1.548s0.549,1.347,0.549,2.115c0,0.768-0.183,1.485-0.549,2.151s-0.897,1.197-1.593,1.593
							c-0.696,0.396-1.519,0.594-2.466,0.594C834.434,370.538,833.604,370.343,832.901,369.953z M836.834,368.72
							c0.444-0.216,0.798-0.537,1.062-0.963c0.264-0.426,0.396-0.939,0.396-1.539c0-0.588-0.135-1.095-0.405-1.521
							c-0.27-0.426-0.627-0.75-1.07-0.972c-0.444-0.222-0.925-0.333-1.44-0.333s-0.996,0.111-1.439,0.333
							c-0.444,0.222-0.799,0.546-1.062,0.972c-0.264,0.426-0.396,0.933-0.396,1.521c0,0.6,0.132,1.113,0.396,1.539
							c0.264,0.426,0.618,0.747,1.062,0.963c0.443,0.216,0.924,0.324,1.439,0.324C835.904,369.044,836.39,368.936,836.834,368.72z"
							/>
						<path fill="#1B7FFF" d="M842.009,370.241c-0.078-0.078-0.117-0.177-0.117-0.297v-1.242c0-0.12,0.039-0.222,0.117-0.306
							s0.177-0.126,0.297-0.126h1.242c0.12,0,0.219,0.042,0.297,0.126s0.117,0.186,0.117,0.306v1.242
							c0,0.12-0.039,0.219-0.117,0.297c-0.078,0.079-0.177,0.117-0.297,0.117h-1.242
							C842.186,370.358,842.087,370.319,842.009,370.241z"/>
						<path fill="#1B7FFF" d="M848.066,370.052c-0.66-0.324-1.164-0.747-1.513-1.269c-0.348-0.522-0.534-1.083-0.558-1.683v-0.036
							c0-0.096,0.036-0.174,0.107-0.234c0.072-0.06,0.156-0.09,0.253-0.09h0.882c0.252,0,0.414,0.132,0.485,0.396
							c0.181,0.648,0.514,1.131,0.999,1.449c0.486,0.318,1.047,0.477,1.684,0.477c0.815,0,1.494-0.249,2.034-0.747
							c0.539-0.498,0.81-1.185,0.81-2.061c0-0.804-0.271-1.443-0.81-1.917c-0.54-0.474-1.219-0.711-2.034-0.711
							c-0.433,0-0.78,0.054-1.044,0.162c-0.265,0.108-0.534,0.264-0.811,0.468c-0.156,0.12-0.285,0.207-0.387,0.261
							c-0.103,0.054-0.213,0.081-0.333,0.081h-0.864c-0.107,0-0.204-0.039-0.288-0.117s-0.12-0.171-0.107-0.279l0.558-5.994
							c0.036-0.3,0.186-0.45,0.45-0.45h6.228c0.132,0,0.234,0.036,0.307,0.108c0.071,0.072,0.107,0.174,0.107,0.306v0.666
							c0,0.12-0.039,0.216-0.117,0.288c-0.078,0.072-0.177,0.108-0.297,0.108h-5.184l-0.324,3.618
							c0.576-0.408,1.351-0.612,2.322-0.612c0.804,0,1.536,0.159,2.196,0.477c0.659,0.318,1.185,0.783,1.574,1.395
							c0.391,0.612,0.585,1.338,0.585,2.178c0,0.888-0.194,1.653-0.585,2.295c-0.39,0.642-0.93,1.128-1.619,1.458
							c-0.69,0.33-1.479,0.495-2.367,0.495C849.506,370.538,848.726,370.376,848.066,370.052z"/>
						<path fill="#1B7FFF" d="M857.156,361.124l-0.306-3.132v-0.072c0-0.108,0.032-0.192,0.099-0.252
							c0.065-0.06,0.153-0.09,0.261-0.09h1.134c0.12,0,0.213,0.039,0.279,0.117c0.066,0.078,0.093,0.177,0.081,0.297l-0.306,3.132
							c-0.024,0.264-0.145,0.396-0.36,0.396h-0.521C857.3,361.52,857.18,361.388,857.156,361.124z M859.91,361.124l-0.306-3.132
							v-0.036c0-0.12,0.032-0.213,0.099-0.279c0.065-0.065,0.153-0.099,0.261-0.099h1.135c0.119,0,0.213,0.039,0.278,0.117
							c0.066,0.078,0.093,0.177,0.081,0.297l-0.306,3.132c-0.024,0.264-0.145,0.396-0.36,0.396h-0.521
							C860.055,361.52,859.935,361.388,859.91,361.124z"/>
						<path fill="#1B7FFF" d="M829.158,389.941c-0.079-0.078-0.117-0.177-0.117-0.297v-2.628h-5.851
							c-0.12,0-0.219-0.039-0.297-0.117c-0.078-0.078-0.117-0.177-0.117-0.297v-0.666c0-0.168,0.066-0.348,0.198-0.54l5.418-7.632
							c0.061-0.096,0.15-0.171,0.271-0.225c0.119-0.054,0.252-0.081,0.396-0.081h1.225c0.132,0,0.233,0.036,0.306,0.108
							c0.072,0.072,0.107,0.174,0.107,0.306v7.632h1.639c0.119,0,0.219,0.039,0.297,0.117s0.117,0.177,0.117,0.297v0.684
							c0,0.12-0.039,0.219-0.117,0.297c-0.078,0.078-0.178,0.117-0.297,0.117h-1.639v2.628c0,0.12-0.039,0.219-0.116,0.297
							c-0.078,0.079-0.178,0.117-0.297,0.117h-0.828C829.335,390.059,829.235,390.02,829.158,389.941z M824.648,385.541h4.41v-6.264
							L824.648,385.541z"/>
						<path fill="#1B7FFF" d="M834.342,389.941c-0.078-0.078-0.117-0.177-0.117-0.297v-0.54c0-0.276,0.15-0.54,0.45-0.792
							l3.924-3.906c0.888-0.756,1.5-1.374,1.836-1.854s0.504-0.99,0.504-1.53c0-0.708-0.197-1.263-0.594-1.665
							c-0.396-0.402-0.972-0.603-1.728-0.603c-0.721,0-1.29,0.21-1.71,0.63c-0.421,0.42-0.679,0.984-0.774,1.692
							c-0.024,0.132-0.084,0.234-0.18,0.306c-0.097,0.072-0.192,0.108-0.288,0.108h-0.864c-0.108,0-0.198-0.036-0.27-0.108
							c-0.072-0.072-0.108-0.156-0.108-0.252c0.023-0.636,0.195-1.251,0.513-1.845c0.318-0.594,0.789-1.08,1.413-1.458
							s1.38-0.567,2.269-0.567c1.344,0,2.354,0.351,3.032,1.053c0.678,0.702,1.018,1.593,1.018,2.673
							c0,0.756-0.184,1.437-0.549,2.043c-0.366,0.606-0.939,1.245-1.72,1.917l-3.546,3.6h5.67c0.132,0,0.234,0.036,0.307,0.108
							c0.071,0.072,0.107,0.174,0.107,0.306v0.684c0,0.12-0.039,0.219-0.117,0.297c-0.078,0.079-0.177,0.117-0.297,0.117h-7.884
							C834.519,390.059,834.42,390.02,834.342,389.941z"/>
						<path fill="#1B7FFF" d="M850.37,389.149c-0.72-0.726-1.098-1.743-1.134-3.051l-0.019-0.72l0.019-0.72
							c0.036-1.308,0.414-2.325,1.134-3.051c0.72-0.726,1.722-1.089,3.006-1.089c0.864,0,1.593,0.153,2.188,0.459
							c0.594,0.306,1.037,0.687,1.332,1.143c0.294,0.456,0.452,0.912,0.477,1.368c0.012,0.108-0.026,0.204-0.117,0.288
							c-0.09,0.084-0.188,0.126-0.297,0.126h-0.792c-0.12,0-0.21-0.027-0.27-0.081c-0.061-0.054-0.12-0.153-0.181-0.297
							c-0.216-0.587-0.513-1.005-0.891-1.251c-0.378-0.246-0.854-0.369-1.431-0.369c-0.756,0-1.356,0.234-1.801,0.702
							c-0.443,0.468-0.684,1.182-0.72,2.142l-0.018,0.63l0.018,0.63c0.036,0.96,0.276,1.674,0.72,2.142
							c0.444,0.468,1.045,0.702,1.801,0.702c0.588,0,1.067-0.123,1.439-0.369c0.372-0.246,0.666-0.663,0.882-1.251
							c0.061-0.144,0.12-0.243,0.181-0.297c0.06-0.054,0.149-0.081,0.27-0.081h0.792c0.108,0,0.207,0.042,0.297,0.126
							c0.091,0.084,0.129,0.18,0.117,0.288c-0.024,0.444-0.183,0.894-0.477,1.35c-0.295,0.456-0.738,0.84-1.332,1.152
							c-0.595,0.312-1.323,0.468-2.188,0.468C852.092,390.239,851.09,389.876,850.37,389.149z"/>
						<path fill="#1B7FFF" d="M859.649,389.941c-0.078-0.078-0.117-0.177-0.117-0.297v-8.532c0-0.12,0.039-0.219,0.117-0.297
							c0.078-0.078,0.177-0.117,0.297-0.117h0.756c0.12,0,0.217,0.039,0.288,0.117c0.072,0.078,0.108,0.177,0.108,0.297v0.612
							c0.648-0.804,1.523-1.206,2.628-1.206c1.32,0,2.256,0.552,2.808,1.656c0.288-0.504,0.699-0.906,1.233-1.206
							s1.131-0.45,1.791-0.45c0.983,0,1.788,0.336,2.412,1.008c0.624,0.672,0.936,1.645,0.936,2.916v5.202
							c0,0.12-0.039,0.219-0.116,0.297c-0.078,0.079-0.178,0.117-0.298,0.117h-0.773c-0.12,0-0.219-0.039-0.297-0.117
							c-0.078-0.078-0.117-0.177-0.117-0.297v-5.04c0-0.96-0.198-1.647-0.594-2.061c-0.396-0.414-0.918-0.621-1.566-0.621
							c-0.576,0-1.071,0.213-1.485,0.639c-0.413,0.426-0.62,1.107-0.62,2.043v5.04c0,0.12-0.039,0.219-0.117,0.297
							c-0.078,0.079-0.178,0.117-0.297,0.117h-0.792c-0.12,0-0.22-0.039-0.298-0.117c-0.078-0.078-0.116-0.177-0.116-0.297v-5.04
							c0-0.948-0.207-1.632-0.621-2.052s-0.927-0.63-1.539-0.63c-0.576,0-1.071,0.21-1.485,0.63s-0.621,1.098-0.621,2.034v5.058
							c0,0.12-0.039,0.219-0.117,0.297c-0.078,0.079-0.177,0.117-0.297,0.117h-0.792
							C859.826,390.059,859.728,390.02,859.649,389.941z"/>
					</g>
				</g>
			</g>
		</g>
		<g>
			<g>
				
					<line fill="none" stroke="#1B7FFF" stroke-width="2.25" stroke-linecap="round" stroke-linejoin="round" x1="794" y1="363" x2="795.5" y2="363"/>
				
					<line fill="none" stroke="#1B7FFF" stroke-width="2.25" stroke-linecap="round" stroke-linejoin="round" stroke-dasharray="3.4615,5.7692" x1="801.269" y1="363" x2="807.615" y2="363"/>
				
					<line fill="none" stroke="#1B7FFF" stroke-width="2.25" stroke-linecap="round" stroke-linejoin="round" x1="810.5" y1="363" x2="812" y2="363"/>
			</g>
		</g>
	</g>
	<g>
		<g id="MTEXT_42_">
			<g>
				<g>
					<g>
						<path fill="#1B7FFF" d="M669.218,268.241c-0.078-0.078-0.117-0.177-0.117-0.297v-0.54c0-0.276,0.15-0.54,0.45-0.792
							l3.924-3.906c0.888-0.756,1.5-1.374,1.836-1.854s0.504-0.99,0.504-1.53c0-0.708-0.197-1.263-0.594-1.665
							c-0.396-0.402-0.972-0.603-1.728-0.603c-0.721,0-1.29,0.21-1.71,0.63c-0.421,0.42-0.679,0.984-0.774,1.692
							c-0.024,0.132-0.084,0.234-0.18,0.306c-0.097,0.072-0.192,0.108-0.288,0.108h-0.864c-0.108,0-0.198-0.036-0.27-0.108
							c-0.072-0.072-0.108-0.156-0.108-0.252c0.023-0.636,0.195-1.251,0.513-1.845c0.318-0.594,0.789-1.08,1.413-1.458
							s1.38-0.567,2.269-0.567c1.344,0,2.354,0.351,3.032,1.053c0.678,0.702,1.018,1.593,1.018,2.673
							c0,0.756-0.184,1.437-0.549,2.043c-0.366,0.606-0.939,1.245-1.72,1.917l-3.546,3.6h5.67c0.132,0,0.234,0.036,0.307,0.108
							c0.071,0.072,0.107,0.174,0.107,0.306v0.684c0,0.12-0.039,0.219-0.117,0.297c-0.078,0.079-0.177,0.117-0.297,0.117h-7.884
							C669.395,268.358,669.296,268.319,669.218,268.241z"/>
						<path fill="#1B7FFF" d="M681.962,268.241c-0.066-0.078-0.1-0.171-0.1-0.279c0-0.084,0.024-0.162,0.072-0.234l2.771-3.852
							c-0.287,0.072-0.624,0.108-1.008,0.108c-0.864-0.012-1.62-0.213-2.268-0.603c-0.648-0.39-1.144-0.9-1.485-1.53
							c-0.342-0.63-0.513-1.305-0.513-2.025c0-0.72,0.171-1.404,0.513-2.052s0.853-1.176,1.53-1.584
							c0.678-0.408,1.497-0.612,2.457-0.612s1.782,0.198,2.466,0.594s1.2,0.915,1.548,1.557s0.522,1.329,0.522,2.061
							c0,0.66-0.117,1.242-0.352,1.746c-0.233,0.504-0.543,1.026-0.927,1.566l-3.492,4.896c-0.084,0.108-0.165,0.195-0.243,0.261
							c-0.078,0.066-0.188,0.099-0.333,0.099h-0.899C682.114,268.358,682.027,268.319,681.962,268.241z M685.354,262.22
							c0.432-0.228,0.774-0.549,1.026-0.963s0.378-0.891,0.378-1.431c0-0.552-0.126-1.038-0.378-1.458
							c-0.252-0.419-0.595-0.744-1.026-0.972s-0.906-0.342-1.422-0.342c-0.504,0-0.97,0.114-1.396,0.342s-0.765,0.552-1.017,0.972
							c-0.252,0.42-0.378,0.906-0.378,1.458c0,0.54,0.126,1.017,0.378,1.431s0.588,0.735,1.008,0.963
							c0.42,0.229,0.888,0.342,1.404,0.342C684.448,262.562,684.923,262.448,685.354,262.22z"/>
						<path fill="#1B7FFF" d="M690.7,259.124l-0.306-3.132v-0.072c0-0.108,0.032-0.192,0.099-0.252
							c0.065-0.06,0.153-0.09,0.261-0.09h1.134c0.12,0,0.213,0.039,0.279,0.117c0.066,0.078,0.093,0.177,0.081,0.297l-0.306,3.132
							c-0.024,0.264-0.145,0.396-0.36,0.396h-0.521C690.844,259.52,690.724,259.388,690.7,259.124z M693.454,259.124l-0.306-3.132
							v-0.036c0-0.12,0.032-0.213,0.099-0.279c0.065-0.065,0.153-0.099,0.261-0.099h1.135c0.119,0,0.213,0.039,0.278,0.117
							c0.066,0.078,0.093,0.177,0.081,0.297l-0.306,3.132c-0.024,0.264-0.145,0.396-0.36,0.396h-0.521
							C693.599,259.52,693.479,259.388,693.454,259.124z"/>
						<path fill="#1B7FFF" d="M670.658,287.941c-0.066-0.078-0.1-0.171-0.1-0.279l0.036-0.162l4.5-10.53h-5.94
							c-0.12,0-0.219-0.039-0.297-0.117c-0.078-0.078-0.116-0.177-0.116-0.297v-0.666c0-0.132,0.035-0.237,0.107-0.315
							s0.174-0.117,0.306-0.117h7.345c0.132,0,0.233,0.039,0.306,0.117s0.108,0.183,0.108,0.315v0.612
							c0,0.216-0.049,0.45-0.145,0.702l-4.446,10.404c-0.06,0.132-0.126,0.24-0.197,0.324c-0.072,0.084-0.175,0.126-0.307,0.126
							h-0.899C670.811,288.059,670.724,288.02,670.658,287.941z"/>
						<path fill="#1B7FFF" d="M683.727,287.941c-0.079-0.078-0.117-0.177-0.117-0.297v-2.628h-5.851
							c-0.12,0-0.219-0.039-0.297-0.117c-0.078-0.078-0.117-0.177-0.117-0.297v-0.666c0-0.168,0.066-0.348,0.198-0.54l5.418-7.632
							c0.061-0.096,0.15-0.171,0.271-0.225c0.119-0.054,0.252-0.081,0.396-0.081h1.225c0.132,0,0.233,0.036,0.306,0.108
							c0.072,0.072,0.107,0.174,0.107,0.306v7.632h1.639c0.119,0,0.219,0.039,0.297,0.117s0.117,0.177,0.117,0.297v0.684
							c0,0.12-0.039,0.219-0.117,0.297c-0.078,0.078-0.178,0.117-0.297,0.117h-1.639v2.628c0,0.12-0.039,0.219-0.116,0.297
							c-0.078,0.079-0.178,0.117-0.297,0.117h-0.828C683.903,288.059,683.804,288.02,683.727,287.941z M679.217,283.541h4.41v-6.264
							L679.217,283.541z"/>
						<path fill="#1B7FFF" d="M694.427,287.149c-0.72-0.726-1.098-1.743-1.134-3.051l-0.019-0.72l0.019-0.72
							c0.036-1.308,0.414-2.325,1.134-3.051c0.72-0.726,1.722-1.089,3.006-1.089c0.864,0,1.593,0.153,2.188,0.459
							c0.594,0.306,1.037,0.687,1.332,1.143c0.294,0.456,0.452,0.912,0.477,1.368c0.012,0.108-0.026,0.204-0.117,0.288
							c-0.09,0.084-0.188,0.126-0.297,0.126h-0.792c-0.12,0-0.21-0.027-0.27-0.081c-0.061-0.054-0.12-0.153-0.181-0.297
							c-0.216-0.587-0.513-1.005-0.891-1.251c-0.378-0.246-0.854-0.369-1.431-0.369c-0.756,0-1.356,0.234-1.801,0.702
							c-0.443,0.468-0.684,1.182-0.72,2.142l-0.018,0.63l0.018,0.63c0.036,0.96,0.276,1.674,0.72,2.142
							c0.444,0.468,1.045,0.702,1.801,0.702c0.588,0,1.067-0.123,1.439-0.369c0.372-0.246,0.666-0.663,0.882-1.251
							c0.061-0.144,0.12-0.243,0.181-0.297c0.06-0.054,0.149-0.081,0.27-0.081h0.792c0.108,0,0.207,0.042,0.297,0.126
							c0.091,0.084,0.129,0.18,0.117,0.288c-0.024,0.444-0.183,0.894-0.477,1.35c-0.295,0.456-0.738,0.84-1.332,1.152
							c-0.595,0.312-1.323,0.468-2.188,0.468C696.148,288.239,695.146,287.876,694.427,287.149z"/>
						<path fill="#1B7FFF" d="M703.705,287.941c-0.078-0.078-0.117-0.177-0.117-0.297v-8.532c0-0.12,0.039-0.219,0.117-0.297
							c0.078-0.078,0.177-0.117,0.297-0.117h0.756c0.12,0,0.217,0.039,0.288,0.117c0.072,0.078,0.108,0.177,0.108,0.297v0.612
							c0.648-0.804,1.523-1.206,2.628-1.206c1.32,0,2.256,0.552,2.808,1.656c0.288-0.504,0.699-0.906,1.233-1.206
							s1.131-0.45,1.791-0.45c0.983,0,1.788,0.336,2.412,1.008c0.624,0.672,0.936,1.645,0.936,2.916v5.202
							c0,0.12-0.039,0.219-0.116,0.297c-0.078,0.079-0.178,0.117-0.298,0.117h-0.773c-0.12,0-0.219-0.039-0.297-0.117
							c-0.078-0.078-0.117-0.177-0.117-0.297v-5.04c0-0.96-0.198-1.647-0.594-2.061c-0.396-0.414-0.918-0.621-1.566-0.621
							c-0.576,0-1.071,0.213-1.485,0.639c-0.413,0.426-0.62,1.107-0.62,2.043v5.04c0,0.12-0.039,0.219-0.117,0.297
							c-0.078,0.079-0.178,0.117-0.297,0.117h-0.792c-0.12,0-0.22-0.039-0.298-0.117c-0.078-0.078-0.116-0.177-0.116-0.297v-5.04
							c0-0.948-0.207-1.632-0.621-2.052s-0.927-0.63-1.539-0.63c-0.576,0-1.071,0.21-1.485,0.63s-0.621,1.098-0.621,2.034v5.058
							c0,0.12-0.039,0.219-0.117,0.297c-0.078,0.079-0.177,0.117-0.297,0.117h-0.792
							C703.882,288.059,703.783,288.02,703.705,287.941z"/>
					</g>
				</g>
			</g>
		</g>
		<g>
			<g>
				
					<line fill="none" stroke="#1B7FFF" stroke-width="2.25" stroke-linecap="round" stroke-linejoin="round" x1="638" y1="282" x2="639.5" y2="282"/>
				
					<line fill="none" stroke="#1B7FFF" stroke-width="2.25" stroke-linecap="round" stroke-linejoin="round" stroke-dasharray="2.4286,4.0476" x1="643.548" y1="282" x2="654.476" y2="282"/>
				
					<line fill="none" stroke="#1B7FFF" stroke-width="2.25" stroke-linecap="round" stroke-linejoin="round" x1="656.5" y1="282" x2="658" y2="282"/>
			</g>
		</g>
	</g>
</g>
<g id="N-TEXT">
</g>
<g id="AG-DIAGRAM">
	<g id="POLYLINE_545_">
		<g>
			<g>
				
					<line fill="none" stroke="#1B7FFF" stroke-width="3.25" stroke-linecap="round" stroke-linejoin="round" x1="590.39" y1="463.415" x2="592.39" y2="463.415"/>
				
					<line fill="none" stroke="#1B7FFF" stroke-width="3.25" stroke-linecap="round" stroke-linejoin="round" stroke-dasharray="3.9407,6.8962" x1="599.286" y1="463.415" x2="780.064" y2="463.415"/>
				
					<line fill="none" stroke="#1B7FFF" stroke-width="3.25" stroke-linecap="round" stroke-linejoin="round" x1="783.512" y1="463.415" x2="785.512" y2="463.415"/>
			</g>
		</g>
	</g>
	<g id="POLYLINE_544_">
		<g>
			<g>
				
					<line fill="none" stroke="#1B7FFF" stroke-width="3.25" stroke-linecap="round" stroke-linejoin="round" x1="524.39" y1="217.805" x2="526.39" y2="217.805"/>
				
					<line fill="none" stroke="#1B7FFF" stroke-width="3.25" stroke-linecap="round" stroke-linejoin="round" stroke-dasharray="3.9675,6.9431" x1="533.333" y1="217.805" x2="933.553" y2="217.805"/>
				
					<line fill="none" stroke="#1B7FFF" stroke-width="3.25" stroke-linecap="round" stroke-linejoin="round" x1="937.024" y1="217.805" x2="939.024" y2="217.805"/>
			</g>
		</g>
	</g>
	<g id="POLYLINE_543_">
		<g>
			<g>
				
					<line fill="none" stroke="#1B7FFF" stroke-width="3.25" stroke-linecap="round" stroke-linejoin="round" x1="60.976" y1="217.805" x2="62.976" y2="217.805"/>
				
					<line fill="none" stroke="#1B7FFF" stroke-width="3.25" stroke-linecap="round" stroke-linejoin="round" stroke-dasharray="3.9675,6.9431" x1="69.919" y1="217.805" x2="470.138" y2="217.805"/>
				
					<line fill="none" stroke="#1B7FFF" stroke-width="3.25" stroke-linecap="round" stroke-linejoin="round" x1="473.61" y1="217.805" x2="475.61" y2="217.805"/>
			</g>
		</g>
	</g>
</g>
<g id="AG-DETAIL-DIAGRAM">
	<g id="POLYLINE_609_">
		<g>
			<g>
				
					<line fill="none" stroke="#1B7FFF" stroke-width="2.25" stroke-linecap="round" stroke-linejoin="round" x1="103.84" y1="117.195" x2="105.34" y2="117.195"/>
				
					<line fill="none" stroke="#1B7FFF" stroke-width="2.25" stroke-linecap="round" stroke-linejoin="round" stroke-dasharray="3.0084,5.0139" x1="110.354" y1="117.195" x2="428.739" y2="117.195"/>
				
					<line fill="none" stroke="#1B7FFF" stroke-width="2.25" stroke-linecap="round" stroke-linejoin="round" x1="431.245" y1="117.195" x2="432.745" y2="117.195"/>
			</g>
		</g>
	</g>
	<g id="POLYLINE_454_">
		<g>
			<g>
				
					<line fill="none" stroke="#1B7FFF" stroke-width="2.25" stroke-linecap="round" stroke-linejoin="round" x1="647.434" y1="307.988" x2="647.716" y2="309.461"/>
				
					<polyline fill="none" stroke="#1B7FFF" stroke-width="2.25" stroke-linecap="round" stroke-linejoin="round" stroke-dasharray="2.9599,4.9332" points="
					648.611,314.312 649.632,320.379 650.618,326.904 651.528,333.646 652.363,340.608 653.122,347.788 653.806,355.187 
					654.099,358.851 				"/>
				<polyline fill="none" stroke="#1B7FFF" stroke-width="2.25" stroke-linecap="round" stroke-linejoin="round" points="
					654.295,361.31 654.415,362.805 655.915,362.805 				"/>
				
					<line fill="none" stroke="#1B7FFF" stroke-width="2.25" stroke-linecap="round" stroke-linejoin="round" stroke-dasharray="3.0743,5.1239" x1="661.039" y1="362.805" x2="781.45" y2="362.805"/>
				
					<line fill="none" stroke="#1B7FFF" stroke-width="2.25" stroke-linecap="round" stroke-linejoin="round" x1="784.012" y1="362.805" x2="785.512" y2="362.805"/>
			</g>
		</g>
	</g>
</g>
<g id="AG-DETAIL">
</g>
<g id="AG-FURNITURE">
	<g id="POLYLINE_538_">
		
			<path fill="none" stroke="#1B7FFF" stroke-width="2.75" stroke-linecap="round" stroke-linejoin="round" stroke-miterlimit="10" d="
			M902.423,71.463c0-8.161,0-16.322,0-24.482c0-1.08,0.02-2.118-0.44-3.13c-0.724-1.591-2.285-2.698-4.025-2.855
			c-1.619-0.147-3.297-0.02-4.919-0.02c-9.349,0-18.698,0-28.047,0c-9.788,0-19.576,0-29.364,0c-3.021,0-6.042,0-9.063,0
			c-7.544,0-15.088,0-22.632,0c-10.925,0-21.849,0-32.774,0c-9.071,0-18.142,0-27.212,0c-2.198,0-4.395,0-6.593,0
			c-2.248,0-4.356,0.796-5.279,3.044c-0.407,0.991-0.368,2.007-0.368,3.051c0,1.994,0,3.989,0,5.983c0,5.136,0,10.273,0,15.409
			c0,1,0,2.001,0,3.001"/>
	</g>
	<g id="POLYLINE_537_">
		
			<path fill="none" stroke="#1B7FFF" stroke-width="2.75" stroke-linecap="round" stroke-linejoin="round" stroke-miterlimit="10" d="
			M560.992,71.463c0-8.161,0-16.322,0-24.482c0-1.08-0.02-2.118,0.44-3.13c0.724-1.591,2.285-2.698,4.025-2.855
			c1.619-0.147,3.297-0.02,4.919-0.02c9.349,0,18.698,0,28.047,0c9.788,0,19.576,0,29.364,0c3.021,0,6.042,0,9.063,0
			c7.544,0,15.088,0,22.632,0c10.925,0,21.85,0,32.774,0c9.071,0,18.142,0,27.212,0c2.198,0,4.395,0,6.593,0
			c2.248,0,4.356,0.796,5.279,3.044c0.407,0.991,0.368,2.007,0.368,3.051c0,1.994,0,3.989,0,5.983c0,5.136,0,10.273,0,15.409
			c0,1,0,2.001,0,3.001"/>
	</g>
	<g id="POLYLINE_536_">
		
			<path fill="none" stroke="#1B7FFF" stroke-width="2.75" stroke-linecap="round" stroke-linejoin="round" stroke-miterlimit="10" d="
			M536.585,172.073c3.238,0,6.477,0,9.715,0c7.776,0,15.551,0,23.326,0c9.403,0,18.806,0,28.209,0c8.121,0,16.243,0,24.364,0
			c3.93,0,7.86,0,11.79,0c0.979,0,1.957,0,2.935,0c3.106,0,6.213,0,9.319,0c4.98,0,9.961,0,14.941,0c6.506,0,13.012,0,19.518,0
			c7.755,0,15.51,0,23.265,0c8.66,0,17.321,0,25.981,0c9.243,0,18.485,0,27.728,0c9.468,0,18.936,0,28.404,0
			c9.438,0,18.876,0,28.313,0c9.051,0,18.102,0,27.154,0c8.341,0,16.683,0,25.024,0c7.308,0,14.617,0,21.925,0
			c5.952,0,11.904,0,17.856,0c4.272,0,8.544,0,12.817,0c2.269,0,4.539,0,6.808,0c0.283,0,0.566,0,0.849,0"/>
	</g>
	<g id="POLYLINE_535_">
		
			<line fill="none" stroke="#1B7FFF" stroke-width="2.75" stroke-linecap="round" stroke-linejoin="round" stroke-miterlimit="10" x1="533.537" y1="71.463" x2="929.878" y2="71.463"/>
	</g>
	<g id="POLYLINE_534_">
		
			<path fill="none" stroke="#1B7FFF" stroke-width="2.75" stroke-linecap="round" stroke-linejoin="round" stroke-miterlimit="10" d="
			M926.829,71.463c0-2.379,0.033-4.572-1.68-6.406c-1.552-1.663-3.598-2.107-5.768-2.371c-2.853-0.348-5.714-0.397-8.574-0.106
			c-2.234,0.227-4.469,0.477-6.225,2.012c-2.118,1.852-2.16,4.232-2.16,6.87"/>
	</g>
	<g id="POLYLINE_533_">
		
			<path fill="none" stroke="#1B7FFF" stroke-width="2.75" stroke-linecap="round" stroke-linejoin="round" stroke-miterlimit="10" d="
			M926.829,172.073c1.982,0,3.964,0,5.946,0c1.406,0,3.368,0.338,4.669-0.377c1.629-0.895,1.58-2.539,1.58-4.122
			c0-6.563,0-13.127,0-19.69c0-10.534,0-21.069,0-31.603c0-9.74,0-19.48,0-29.22c0-3.096,0-6.193,0-9.289
			c0-1.17,0.11-2.4-0.016-3.567c-0.171-1.586-1.479-2.674-3.033-2.74c-2.006-0.086-4.034,0-6.041,0
			c-0.525,0-2.845-0.294-3.105,0.102c-0.159,0.242,0,1.142,0,1.421c0,6.375,0,12.75,0,19.125c0,10.385,0,20.77,0,31.154
			c0,10.194,0,20.388,0,30.582c0,5.802,0,11.605,0,17.407C926.829,171.528,926.829,171.801,926.829,172.073z"/>
	</g>
	<g id="POLYLINE_532_">
		
			<path fill="none" stroke="#1B7FFF" stroke-width="2.75" stroke-linecap="round" stroke-linejoin="round" stroke-miterlimit="10" d="
			M573.135,172.073c1.869,0,3.739,0,5.608,0c0.725,0,0.489,0.305,0.489,0.988c0,3.138,0,6.277,0,9.415c0,9.432,0,18.863,0,28.295
			c0,1.564,0,3.128,0,4.693c0,0.436,0.252,1.87,0,2.248c-0.119,0.178-0.466,0.093-0.739,0.093c-1.159,0-2.317,0-3.476,0
			c-0.27,0-1.691,0.192-1.883-0.005c-0.052-0.054,0-0.419,0-0.489c0-7.524,0-15.048,0-22.573c0-7.42,0-14.84,0-22.26
			C573.135,172.343,573.135,172.208,573.135,172.073z"/>
	</g>
	<g id="POLYLINE_531_">
		
			<path fill="none" stroke="#1B7FFF" stroke-width="2.75" stroke-linecap="round" stroke-linejoin="round" stroke-miterlimit="10" d="
			M890.28,172.073c-1.87,0-3.739,0-5.608,0c-0.725,0-0.489,0.305-0.489,0.988c0,3.138,0,6.277,0,9.415c0,9.432,0,18.863,0,28.295
			c0,1.564,0,3.128,0,4.693c0,0.436-0.251,1.87,0,2.248c0.119,0.178,0.466,0.093,0.739,0.093c1.158,0,2.317,0,3.475,0
			c0.27,0,1.691,0.192,1.883-0.005c0.052-0.054,0-0.419,0-0.489c0-7.524,0-15.048,0-22.573c0-7.42,0-14.84,0-22.26
			C890.28,172.343,890.28,172.208,890.28,172.073z"/>
	</g>
	<g id="POLYLINE_530_">
		
			<path fill="none" stroke="#1B7FFF" stroke-width="2.75" stroke-linecap="round" stroke-linejoin="round" stroke-miterlimit="10" d="
			M536.585,71.463c0-2.379-0.033-4.572,1.68-6.406c1.552-1.663,3.598-2.107,5.768-2.371c2.853-0.348,5.714-0.397,8.574-0.106
			c2.234,0.227,4.469,0.477,6.225,2.012c2.118,1.852,2.16,4.232,2.16,6.87"/>
	</g>
	<g id="POLYLINE_529_">
		
			<path fill="none" stroke="#1B7FFF" stroke-width="2.75" stroke-linecap="round" stroke-linejoin="round" stroke-miterlimit="10" d="
			M536.585,172.073c-1.982,0-3.964,0-5.946,0c-1.406,0-3.368,0.338-4.669-0.377c-1.629-0.895-1.58-2.539-1.58-4.122
			c0-6.563,0-13.127,0-19.69c0-10.534,0-21.069,0-31.603c0-9.74,0-19.48,0-29.22c0-3.096,0-6.193,0-9.289
			c0-1.17-0.11-2.4,0.016-3.567c0.171-1.586,1.479-2.674,3.033-2.74c2.006-0.086,4.034,0,6.041,0c0.525,0,2.845-0.294,3.105,0.102
			c0.159,0.242,0,1.142,0,1.421c0,6.375,0,12.75,0,19.125c0,10.385,0,20.77,0,31.154c0,10.194,0,20.388,0,30.582
			c0,5.802,0,11.605,0,17.407C536.585,171.528,536.585,171.801,536.585,172.073z"/>
	</g>
	<g id="POLYLINE_528_">
		
			<path fill="none" stroke="#1B7FFF" stroke-width="2.75" stroke-linecap="round" stroke-linejoin="round" stroke-miterlimit="10" d="
			M268.293,106.97c0-7.838,0-15.676,0-23.514c0-11.214,0-22.428,0-33.642c0-2.185-0.425-4.951,0.943-6.825
			c1.568-2.148,3.924-2.014,6.259-2.014c9.838,0,19.676,0,29.514,0c11.667,0,23.335,0,35.002,0c3.919,0,7.838,0,11.757,0
			c9.753,0,19.506,0,29.259,0c12.281,0,24.562,0,36.843,0c4.135,0,8.27,0,12.405,0c1.71,0,3.874-0.304,5.52,0.301
			c3.753,1.379,3.214,5.405,3.214,8.602c0,5.912,0,11.824,0,17.736c0,1.283,0,2.566,0,3.848"/>
	</g>
	<g id="POLYLINE_527_">
		
			<path fill="none" stroke="#1B7FFF" stroke-width="2.75" stroke-linecap="round" stroke-linejoin="round" stroke-miterlimit="10" d="
			M268.293,106.97c0-7.838,0-15.676,0-23.514c0-11.214,0-22.428,0-33.642c0-2.185,0.425-4.951-0.943-6.825
			c-1.568-2.148-3.924-2.014-6.259-2.014c-9.838,0-19.676,0-29.514,0c-11.667,0-23.335,0-35.002,0c-3.919,0-7.838,0-11.757,0
			c-9.753,0-19.506,0-29.259,0c-12.281,0-24.562,0-36.843,0c-4.135,0-8.27,0-12.405,0c-1.71,0-3.874-0.304-5.52,0.301
			c-3.753,1.379-3.214,5.405-3.214,8.602c0,5.912,0,11.824,0,17.736c0,1.283,0,2.566,0,3.848"/>
	</g>
	<g id="POLYLINE_526_">
		
			<path fill="none" stroke="#1B7FFF" stroke-width="2.75" stroke-linecap="round" stroke-linejoin="round" stroke-miterlimit="10" d="
			M97.577,111.427c5.325-0.733,10.658-1.375,16.011-1.866c5.895-0.541,11.798-0.919,17.706-1.297
			c5.143-0.329,10.299-0.517,15.449-0.69c5.991-0.202,11.981-0.338,17.974-0.466c4.354-0.093,8.715-0.121,13.07-0.138
			c1.91-0.007,3.819,0,5.729,0c4.353,0,8.706,0,13.059,0c6.19,0,12.38,0,18.57,0c7.502,0,15.004,0,22.506,0
			c8.183,0,16.365,0,24.548,0c8.354,0,16.708,0,25.061,0c7.887,0,15.774,0,23.661,0c6.908,0,13.817,0,20.725,0
			c5.303,0,10.606,0,15.909,0c3.166,0,6.331,0,9.497,0c2.501,0,5.002,0.032,7.504,0.057c5.965,0.061,11.927,0.178,17.891,0.305
			c5.02,0.107,10.042,0.306,15.058,0.546c5.638,0.27,11.275,0.558,16.905,0.971c5.668,0.417,11.331,0.929,16.977,1.584
			c2.545,0.295,5.083,0.643,7.621,0.993"/>
	</g>
	<g id="POLYLINE_525_">
		
			<path fill="none" stroke="#1B7FFF" stroke-width="2.75" stroke-linecap="round" stroke-linejoin="round" stroke-miterlimit="10" d="
			M75.096,115.876c-1.208,0.778-1.883,2.067-1.925,3.496c-0.056,1.895,0,3.799,0,5.695c0,1.293-0.181,2.733,0.371,3.946
			c0.644,1.416,2.041,2.332,3.581,2.42c3.655,0.208,7.378,0.004,11.037,0.004c8.655,0,17.31,0,25.965,0c10.209,0,20.418,0,30.627,0
			c8.207,0,16.414,0,24.621,0c2.809,0,5.618,0,8.427,0c2.757,0,5.514,0,8.271,0c6.265,0,12.53,0,18.795,0c8.687,0,17.374,0,26.061,0
			c9.992,0,19.984,0,29.976,0c10.281,0,20.561,0,30.842,0c9.455,0,18.909,0,28.364,0c7.525,0,15.05,0,22.575,0
			c4.554,0,9.108,0,13.662,0c1.454,0,2.909,0,4.363,0c6.03,0,12.06,0,18.091,0c9.668,0,19.337,0,29.005,0c9.843,0,19.686,0,29.53,0
			c6.456,0,12.912,0,19.368,0c1,0,2.046,0.087,3.043-0.026c1.554-0.176,2.912-1.255,3.434-2.731
			c0.469-1.327,0.236-2.961,0.236-4.333c0-2.72,0.811-6.736-1.925-8.47"/>
	</g>
	<g id="POLYLINE_524_">
		
			<path fill="none" stroke="#1B7FFF" stroke-width="2.75" stroke-linecap="round" stroke-linejoin="round" stroke-miterlimit="10" d="
			M73.171,135.573c0.022-4.586,4.8-4.137,8.059-4.137c6.182,0,12.364,0,18.546,0c9.205,0,18.411,0,27.617,0
			c9.256,0,18.513,0,27.769,0c6.321,0,12.643,0,18.964,0c1.537,0,3.074,0,4.611,0c3.414,0,6.827,0,10.241,0
			c6.326,0,12.651,0,18.977,0c8.335,0,16.67,0,25.005,0c9.447,0,18.894,0,28.341,0c9.662,0,19.324,0,28.986,0
			c8.952,0,17.903,0,26.854,0c7.408,0,14.816,0,22.224,0c4.923,0,9.846,0,14.77,0c1.632,0,3.263,0,4.895,0c3.88,0,7.76,0,11.639,0
			c8.227,0,16.453,0,24.68,0c9.601,0,19.202,0,28.803,0c7.981,0,15.963,0,23.944,0c3.452,0,6.906-0.039,10.358,0
			c2.619,0.03,4.936,1.142,4.961,4.072"/>
	</g>
	<g id="POLYLINE_523_">
		
			<path fill="none" stroke="#1B7FFF" stroke-width="2.75" stroke-linecap="round" stroke-linejoin="round" stroke-miterlimit="10" d="
			M73.171,172.073c3.054,0,6.107,0,9.161,0c7.47,0,14.939,0,22.409,0c9.35,0,18.699,0,28.049,0c8.693,0,17.387,0,26.08,0
			c5.501,0,11.002,0,16.503,0c1.279,0,2.558,0,3.837,0c3.607,0,7.214,0,10.82,0c6.336,0,12.672,0,19.008,0
			c8.191,0,16.382,0,24.573,0c9.263,0,18.526,0,27.79,0c9.467,0,18.933,0,28.4,0c8.827,0,17.654,0,26.481,0
			c7.323,0,14.645,0,21.967,0c5.029,0,10.058,0,15.087,0c1.864,0,3.727,0,5.591,0c3.053,0,6.107,0,9.161,0c7.47,0,14.939,0,22.409,0
			c9.35,0,18.699,0,28.049,0c8.693,0,17.387,0,26.08,0c5.501,0,11.002,0,16.503,0c0.762,0,1.524,0,2.286,0"/>
	</g>
	<g id="POLYLINE_522_">
		
			<path fill="none" stroke="#1B7FFF" stroke-width="2.75" stroke-linecap="round" stroke-linejoin="round" stroke-miterlimit="10" d="
			M426.865,172.073c-1.869,0-3.739,0-5.608,0c-0.725,0-0.489,0.305-0.489,0.988c0,3.138,0,6.277,0,9.415c0,9.432,0,18.863,0,28.295
			c0,1.564,0,3.128,0,4.693c0,0.436-0.252,1.87,0,2.248c0.119,0.178,0.465,0.093,0.739,0.093c1.159,0,2.317,0,3.476,0
			c0.27,0,1.691,0.192,1.883-0.005c0.052-0.054,0-0.419,0-0.489c0-7.524,0-15.048,0-22.573c0-7.42,0-14.84,0-22.26
			C426.865,172.343,426.865,172.208,426.865,172.073z"/>
	</g>
	<g id="POLYLINE_521_">
		
			<path fill="none" stroke="#1B7FFF" stroke-width="2.75" stroke-linecap="round" stroke-linejoin="round" stroke-miterlimit="10" d="
			M463.415,172.073c1.982,0,3.964,0,5.946,0c1.407,0,3.367,0.338,4.669-0.377c1.629-0.894,1.58-2.539,1.58-4.122
			c0-6.563,0-13.127,0-19.69c0-10.534,0-21.069,0-31.603c0-9.693,0-19.386,0-29.079c0-3.117,0-6.234,0-9.351
			c0-1.169,0.089-2.376-0.007-3.543c-0.129-1.572-1.378-2.749-2.94-2.842c-1.967-0.117-3.986-0.027-5.957-0.002
			c-2.196,0.029-3.291,1.585-3.291,3.626c0,5.659,0,11.317,0,16.976c0,10.176,0,20.352,0,30.528c0,10.27,0,20.54,0,30.811
			c0,5.942,0,11.885,0,17.827C463.415,171.512,463.415,171.792,463.415,172.073z"/>
	</g>
	<g id="POLYLINE_520_">
		
			<path fill="none" stroke="#1B7FFF" stroke-width="2.75" stroke-linecap="round" stroke-linejoin="round" stroke-miterlimit="10" d="
			M463.415,69.275c-0.009-1.785-0.792-3.467-2.123-4.649c-1.423-1.263-3.137-1.658-4.972-1.895
			c-2.503-0.323-5.021-0.438-7.541-0.268c-2.052,0.139-4.341,0.224-6.206,1.181c-1.417,0.727-2.577,1.935-3.154,3.429
			c-0.501,1.298-0.41,2.674-0.41,4.036c0,6.825,0,13.649,0,20.474c0,6.375,0,12.751,0,19.126c0,1.366,0.079,2.677,0.821,3.878
			c0.821,1.329,2.201,2.261,3.741,2.527c0.926,0.16,1.915,0.081,2.848,0.081c1.896,0,3.791,0,5.687,0c1.687,0,3.374,0,5.061,0
			c0.891,0,1.755-0.017,2.607-0.323c1.381-0.496,2.526-1.546,3.139-2.879c0.581-1.263,0.502-2.608,0.502-3.958
			c0-6.749,0-13.498,0-20.247c0-6.475,0-12.949,0-19.424C463.415,70.001,463.415,69.638,463.415,69.275z"/>
	</g>
	<g id="POLYLINE_519_">
		
			<path fill="none" stroke="#1B7FFF" stroke-width="2.75" stroke-linecap="round" stroke-linejoin="round" stroke-miterlimit="10" d="
			M73.171,69.275c0.009-1.785,0.792-3.467,2.123-4.649c1.423-1.263,3.137-1.658,4.972-1.895c2.503-0.323,5.021-0.438,7.541-0.268
			c2.052,0.139,4.341,0.224,6.206,1.181c1.417,0.727,2.577,1.935,3.154,3.429c0.501,1.298,0.41,2.674,0.41,4.036
			c0,6.825,0,13.649,0,20.474c0,6.375,0,12.751,0,19.126c0,1.366-0.079,2.677-0.821,3.878c-0.821,1.329-2.201,2.261-3.741,2.527
			c-0.926,0.16-1.915,0.081-2.848,0.081c-1.896,0-3.791,0-5.687,0c-1.687,0-3.374,0-5.061,0c-0.891,0-1.755-0.017-2.607-0.323
			c-1.381-0.496-2.526-1.546-3.139-2.879c-0.581-1.263-0.502-2.608-0.502-3.958c0-6.749,0-13.498,0-20.247
			c0-6.475,0-12.949,0-19.424C73.171,70.001,73.171,69.638,73.171,69.275z"/>
	</g>
	<g id="POLYLINE_518_">
		
			<path fill="none" stroke="#1B7FFF" stroke-width="2.75" stroke-linecap="round" stroke-linejoin="round" stroke-miterlimit="10" d="
			M73.171,172.073c-1.982,0-3.964,0-5.946,0c-1.407,0-3.367,0.338-4.669-0.377c-1.629-0.894-1.58-2.539-1.58-4.122
			c0-6.563,0-13.127,0-19.69c0-10.534,0-21.069,0-31.603c0-9.693,0-19.386,0-29.079c0-3.117,0-6.234,0-9.351
			c0-1.169-0.089-2.376,0.007-3.543c0.129-1.572,1.378-2.749,2.94-2.842c1.967-0.117,3.986-0.027,5.957-0.002
			c2.196,0.029,3.291,1.585,3.291,3.626c0,5.659,0,11.317,0,16.976c0,10.176,0,20.352,0,30.528c0,10.27,0,20.54,0,30.811
			c0,5.942,0,11.885,0,17.827C73.171,171.512,73.171,171.792,73.171,172.073z"/>
	</g>
	<g id="POLYLINE_517_">
		
			<path fill="none" stroke="#1B7FFF" stroke-width="2.75" stroke-linecap="round" stroke-linejoin="round" stroke-miterlimit="10" d="
			M109.72,172.073c1.869,0,3.739,0,5.608,0c0.725,0,0.489,0.305,0.489,0.988c0,3.138,0,6.277,0,9.415c0,9.432,0,18.863,0,28.295
			c0,1.564,0,3.128,0,4.693c0,0.436,0.252,1.87,0,2.248c-0.119,0.178-0.465,0.093-0.739,0.093c-1.159,0-2.317,0-3.476,0
			c-0.27,0-1.691,0.192-1.883-0.005c-0.052-0.054,0-0.419,0-0.489c0-7.524,0-15.048,0-22.573c0-7.42,0-14.84,0-22.26
			C109.72,172.343,109.72,172.208,109.72,172.073z"/>
	</g>
	<g id="POLYLINE_516_">
		
			<path fill="none" stroke="#1B7FFF" stroke-width="2.75" stroke-linecap="round" stroke-linejoin="round" stroke-miterlimit="10" d="
			M439.008,339.854c-0.025,5.12-4.821,7.678-9.166,8.911c-5.675,1.61-11.715,1.828-17.579,1.845c-5.705,0.016-11.411,0-17.116,0
			c-9.607,0-19.213,0-28.82,0c-4.318,0-8.637,0-12.955,0c-6.257,0-12.514,0-18.772,0c-9.49,0-18.979,0-28.469,0
			c-4.827,0-9.666,0.089-14.493-0.046c-5.92-0.165-12.453-0.535-17.867-3.171c-1.976-0.962-3.855-2.36-4.809-4.396
			c-0.705-1.505-0.672-3.08-0.672-4.697c0-8.597,0-17.195,0-25.792c0-2.866-0.023-5.732,0-8.598
			c0.022-2.714,1.949-5.001,4.742-5.126c4.129-0.185,8.306-0.003,12.437-0.003c9.119,0,18.238,0,27.357,0c9.218,0,18.435,0,27.653,0
			c4.387,0,8.773,0,13.16,0c3.9,0,7.799,0,11.699,0c9.047,0,18.094,0,27.141,0c9.277,0,18.554,0,27.831,0
			c4.577,0,9.165-0.093,13.741,0c2.689,0.055,4.952,2.157,4.954,4.906"/>
	</g>
	<g id="POLYLINE_515_">
		
			<path fill="none" stroke="#1B7FFF" stroke-width="2.75" stroke-linecap="round" stroke-linejoin="round" stroke-miterlimit="10" d="
			M97.577,339.854c0.025,5.12,4.821,7.678,9.166,8.911c5.675,1.61,11.715,1.828,17.579,1.845c5.705,0.016,11.411,0,17.116,0
			c9.607,0,19.213,0,28.82,0c4.318,0,8.637,0,12.955,0c6.257,0,12.514,0,18.772,0c9.49,0,18.979,0,28.469,0
			c4.827,0,9.666,0.089,14.493-0.046c5.92-0.165,12.453-0.535,17.867-3.171c1.976-0.962,3.855-2.36,4.808-4.396
			c0.705-1.505,0.672-3.08,0.672-4.697c0-8.597,0-17.195,0-25.792c0-2.866,0.023-5.732,0-8.598
			c-0.022-2.714-1.949-5.001-4.742-5.126c-4.129-0.185-8.306-0.003-12.437-0.003c-9.119,0-18.238,0-27.357,0
			c-9.218,0-18.435,0-27.653,0c-4.387,0-8.773,0-13.16,0c-3.9,0-7.799,0-11.699,0c-9.047,0-18.094,0-27.141,0
			c-9.277,0-18.554,0-27.831,0c-4.577,0-9.165-0.093-13.741,0c-2.689,0.055-4.952,2.157-4.954,4.906"/>
	</g>
	<g id="POLYLINE_514_">
		
			<path fill="none" stroke="#1B7FFF" stroke-width="2.75" stroke-linecap="round" stroke-linejoin="round" stroke-miterlimit="10" d="
			M439.008,476.801c-0.015,2.722-2.225,4.838-4.906,4.906c-0.423,0.011-0.848,0-1.271,0c-3.102,0-6.204,0-9.307,0
			c-5.513,0-11.026,0-16.54,0c-7.241,0-14.482,0-21.723,0c-8.195,0-16.391,0-24.586,0c-8.494,0-16.989,0-25.483,0
			c-8.01,0-16.021,0-24.031,0c-6.869,0-13.738,0-20.607,0c-4.958,0-9.915,0-14.873,0c-2.362,0-4.724,0-7.086,0
			c-1.057,0-2.114,0-3.171,0c-3.795,0-7.589,0-11.384,0c-6.021,0-12.042,0-18.063,0c-7.565,0-15.129,0-22.694,0
			c-8.366,0-16.732,0-25.098,0c-8.413,0-16.826,0-25.239,0c-7.777,0-15.555,0-23.332,0c-6.449,0-12.898,0-19.348,0
			c-4.354,0-8.709,0-13.063,0c-1.64,0-3.302,0.082-4.941-0.005c-2.585-0.137-4.688-2.298-4.688-4.901"/>
	</g>
	<g id="POLYLINE_513_">
		
			<path fill="none" stroke="#1B7FFF" stroke-width="2.75" stroke-linecap="round" stroke-linejoin="round" stroke-miterlimit="10" d="
			M73.171,286.585c0,3.659,0,7.318,0,10.977c0,0.858-0.311,1.163,0.416,1.218c1.631,0.123,3.321,0,4.955,0c3.345,0,6.69,0,10.034,0
			c4.88,0,9.76,0,14.641,0c6.151,0,12.302,0,18.452,0c7.278,0,14.556,0,21.834,0c8.187,0,16.374,0,24.561,0
			c8.865,0,17.729,0,26.594,0c9.404,0,18.807,0,28.211,0c9.714,0,19.428,0,29.141,0c9.824,0,19.648,0,29.472,0
			c9.735,0,19.47,0,29.204,0c9.414,0,18.829,0,28.243,0c8.959,0,17.917,0,26.876,0c8.271,0,16.542,0,24.812,0
			c7.36,0,14.719,0,22.079,0c6.3,0,12.599,0,18.899,0c5.013,0,10.026,0,15.039,0c3.527,0,7.053,0,10.58,0c1.841,0,3.681,0,5.522,0
			c0.226,0,0.452,0,0.678,0c0-3.659,0-7.318,0-10.977c0-0.858,0.311-1.163-0.416-1.218c-1.631-0.123-3.321,0-4.955,0
			c-3.345,0-6.69,0-10.034,0c-4.88,0-9.76,0-14.641,0c-6.151,0-12.302,0-18.452,0c-7.278,0-14.556,0-21.834,0
			c-8.187,0-16.374,0-24.561,0c-8.865,0-17.729,0-26.594,0c-9.404,0-18.807,0-28.211,0c-9.714,0-19.428,0-29.141,0
			c-9.824,0-19.648,0-29.472,0c-9.735,0-19.47,0-29.204,0c-9.414,0-18.829,0-28.243,0c-8.959,0-17.917,0-26.876,0
			c-8.271,0-16.542,0-24.812,0c-7.36,0-14.719,0-22.079,0c-6.3,0-12.599,0-18.899,0c-5.013,0-10.026,0-15.039,0
			c-3.527,0-7.053,0-10.58,0c-1.841,0-3.681,0-5.522,0C73.623,286.585,73.397,286.585,73.171,286.585z"/>
	</g>
	<g id="POLYLINE_512_">
		
			<path fill="none" stroke="#1B7FFF" stroke-width="2.75" stroke-linecap="round" stroke-linejoin="round" stroke-miterlimit="10" d="
			M439.008,474.812c0.011,2.217,1.221,4.221,3.098,5.37c2.228,1.362,5.238,1.405,7.77,1.501c2.827,0.107,6.105,0.095,8.826-0.768
			c1.917-0.608,3.569-2.004,4.302-3.9c0.834-2.159,0.41-5.099,0.41-7.351c0-5.726,0-11.452,0-17.177c0-8.474,0-16.948,0-25.422
			c0-10.042,0-20.085,0-30.127c0-10.338,0-20.676,0-31.014c0-9.356,0-18.713,0-28.069c0-7.189,0-14.377,0-21.566
			c0-3.739,0-7.478,0-11.217c0-1.135-0.066-2.237-0.595-3.278c-0.945-1.862-2.84-2.965-4.907-3.012c-3.943-0.089-7.897,0-11.841,0
			c-2.151,0-4.159,0.135-5.681,1.853c-1.75,1.975-1.382,4.709-1.382,7.149c0,5.141,0,10.283,0,15.424c0,8.172,0,16.343,0,24.515
			c0,9.854,0,19.707,0,29.561c0,10.341,0,20.683,0,31.024c0,9.648,0,19.296,0,28.944c0,7.587,0,15.175,0,22.762
			c0,4.362,0,8.723,0,13.085C439.008,473.67,439.008,474.241,439.008,474.812z"/>
	</g>
	<g id="POLYLINE_511_">
		
			<path fill="none" stroke="#1B7FFF" stroke-width="2.75" stroke-linecap="round" stroke-linejoin="round" stroke-miterlimit="10" d="
			M463.415,286.585c0,1.987,0,3.974,0,5.96c0,5.337,0,10.674,0,16.011c0,7.795,0,15.589,0,23.384c0,9.392,0,18.784,0,28.175
			c0,9.999,0,19.997,0,29.996c0,9.841,0,19.682,0,29.524c0,8.691,0,17.382,0,26.074c0,6.682,0,13.363,0,20.045
			c0,3.786,0,7.572,0,11.357c0,0.514-0.022,1.033,0,1.546c0.167,3.953,5.07,3.049,7.71,3.049c1.351,0,2.689,0.102,3.689-0.995
			c0.547-0.6,0.773-1.338,0.796-2.135c0.021-0.749,0-1.502,0-2.252c0-4.215,0-8.431,0-12.646c0-7.004,0-14.009,0-21.013
			c0-8.96,0-17.92,0-26.881c0-9.913,0-19.827,0-29.74c0-9.971,0-19.942,0-29.913c0-9.134,0-18.269,0-27.403
			c0-7.313,0-14.626,0-21.939c0-4.601,0-9.203,0-13.804c0-2.306,0.556-5.93-2.635-6.372c-1.454-0.201-3.029-0.028-4.491-0.028
			C466.794,286.585,465.104,286.585,463.415,286.585z"/>
	</g>
	<g id="POLYLINE_510_">
		
			<path fill="none" stroke="#1B7FFF" stroke-width="2.75" stroke-linecap="round" stroke-linejoin="round" stroke-miterlimit="10" d="
			M97.577,474.812c-0.011,2.217-1.221,4.221-3.098,5.37c-2.228,1.362-5.238,1.405-7.77,1.501c-2.827,0.107-6.105,0.095-8.826-0.768
			c-1.917-0.608-3.569-2.004-4.302-3.9c-0.834-2.159-0.41-5.099-0.41-7.351c0-5.726,0-11.452,0-17.177c0-8.474,0-16.948,0-25.422
			c0-10.042,0-20.085,0-30.127c0-10.338,0-20.676,0-31.014c0-9.356,0-18.713,0-28.069c0-7.189,0-14.377,0-21.566
			c0-3.739,0-7.478,0-11.217c0-1.135,0.066-2.237,0.595-3.278c0.945-1.862,2.84-2.965,4.907-3.012c3.943-0.089,7.897,0,11.841,0
			c2.151,0,4.159,0.135,5.681,1.853c1.75,1.975,1.382,4.709,1.382,7.149c0,5.141,0,10.283,0,15.424c0,8.172,0,16.343,0,24.515
			c0,9.854,0,19.707,0,29.561c0,10.341,0,20.683,0,31.024c0,9.648,0,19.296,0,28.944c0,7.587,0,15.175,0,22.762
			c0,4.362,0,8.723,0,13.085C97.577,473.67,97.577,474.241,97.577,474.812z"/>
	</g>
	<g id="POLYLINE_509_">
		
			<path fill="none" stroke="#1B7FFF" stroke-width="2.75" stroke-linecap="round" stroke-linejoin="round" stroke-miterlimit="10" d="
			M73.171,286.585c0,1.974,0,3.949,0,5.923c0,5.328,0,10.655,0,15.983c0,7.759,0,15.518,0,23.278c0,9.352,0,18.704,0,28.056
			c0,10.03,0,20.059,0,30.089c0,9.784,0,19.567,0,29.351c0,8.712,0,17.423,0,26.135c0,6.714,0,13.428,0,20.142
			c0,3.816,0,7.633,0,11.449c0,0.554,0.023,1.113,0,1.666c-0.165,3.958-5.068,3.051-7.708,3.051c-1.352,0-2.69,0.103-3.691-0.995
			c-0.547-0.6-0.773-1.338-0.796-2.135c-0.021-0.749,0-1.502,0-2.252c0-4.177,0-8.355,0-12.532c0-7.016,0-14.031,0-21.047
			c0-8.924,0-17.848,0-26.772c0-9.877,0-19.753,0-29.63c0-9.975,0-19.95,0-29.925c0-9.12,0-18.24,0-27.36c0-7.322,0-14.645,0-21.967
			c0-4.654,0-9.307,0-13.961c0-2.31-0.6-6.014,2.577-6.51c1.46-0.228,3.071-0.037,4.541-0.037
			C69.786,286.585,71.478,286.585,73.171,286.585z"/>
	</g>
	<g id="POLYLINE_508_">
		
			<path fill="none" stroke="#1B7FFF" stroke-width="2.75" stroke-linecap="round" stroke-linejoin="round" stroke-miterlimit="10" d="
			M647.434,307.988c-1.265-5.075-3.039-10.313-6.528-14.323c-2.934-3.373-6.901-5.107-11.192-6.088
			c-4.782-1.094-10.333-1.331-15.081,0.066c-4.385,1.29-7.373,5.07-9.127,9.132c-2.136,4.947-2.743,10.493-2.889,15.832
			c-0.021,0.759-0.026,1.518-0.032,2.278"/>
	</g>
	<g id="POLYLINE_507_">
		
			<path fill="none" stroke="#1B7FFF" stroke-width="2.75" stroke-linecap="round" stroke-linejoin="round" stroke-miterlimit="10" d="
			M602.585,317.073c0-2.538,0.01-4.846,1.969-6.697c1.804-1.704,4.183-1.967,6.548-2.2c2.819-0.278,5.67-0.189,8.499-0.189
			c5.735,0,11.469,0,17.204,0c8.58,0,17.16,0,25.74,0c10.001,0,20.002,0,30.003,0c10.131,0,20.261,0,30.392,0
			c8.745,0,17.489,0,26.233,0c6.061,0,12.122,0,18.183,0c2.606,0,5.234-0.088,7.838,0.051c2.488,0.133,5.358,0.206,7.492,1.651
			c1.775,1.202,2.79,3.119,2.825,5.255c0.028,1.725,0,3.452,0,5.177"/>
	</g>
	<g id="POLYLINE_506_">
		
			<path fill="none" stroke="#1B7FFF" stroke-width="2.75" stroke-linecap="round" stroke-linejoin="round" stroke-miterlimit="10" d="
			M747.251,417.683c1.869,0,3.739,0,5.608,0c0.725,0,0.489,0.305,0.489,0.988c0,3.138,0,6.277,0,9.415c0,9.432,0,18.863,0,28.295
			c0,1.564,0,3.128,0,4.693c0,0.436,0.252,1.87,0,2.248c-0.119,0.178-0.465,0.093-0.739,0.093c-1.159,0-2.317,0-3.476,0
			c-0.27,0-1.691,0.192-1.883-0.005c-0.052-0.054,0-0.419,0-0.489c0-7.524,0-15.048,0-22.573c0-7.42,0-14.84,0-22.26
			C747.251,417.953,747.251,417.818,747.251,417.683z"/>
	</g>
	<g id="POLYLINE_505_">
		
			<path fill="none" stroke="#1B7FFF" stroke-width="2.75" stroke-linecap="round" stroke-linejoin="round" stroke-miterlimit="10" d="
			M598.012,417.683c1.869,0,3.739,0,5.608,0c0.725,0,0.489,0.305,0.489,0.988c0,3.138,0,6.277,0,9.415c0,9.432,0,18.863,0,28.295
			c0,1.564,0,3.128,0,4.693c0,0.436,0.252,1.87,0,2.248c-0.119,0.178-0.465,0.093-0.739,0.093c-1.159,0-2.317,0-3.476,0
			c-0.27,0-1.691,0.192-1.883-0.005c-0.052-0.054,0-0.419,0-0.489c0-7.524,0-15.048,0-22.573c0-7.42,0-14.84,0-22.26
			C598.012,417.953,598.012,417.818,598.012,417.683z"/>
	</g>
	<g id="POLYLINE_504_">
		
			<path fill="none" stroke="#1B7FFF" stroke-width="2.75" stroke-linecap="round" stroke-linejoin="round" stroke-miterlimit="10" d="
			M599.537,317.073c-1.279,0-2.557,0-3.836,0c-0.982,0-2.138-0.158-3.1,0.118c-1.426,0.409-2.187,1.69-2.21,3.111
			c-0.042,2.59,0,5.183,0,7.773c0,5.409,0,10.817,0,16.225c0,6.926,0,13.853,0,20.779c0,7.039,0,14.078,0,21.118
			c0,5.845,0,11.691,0,17.536c0,3.322,0,6.645,0,9.967c0,0.771-0.046,1.527,0.298,2.248c0.965,2.02,3.172,1.735,5.034,1.735
			c2.675,0,5.349,0,8.024,0c2.354,0,4.708,0,7.061,0c4.137,0,8.273,0,12.41,0c5.538,0,11.077,0,16.615,0c6.478,0,12.957,0,19.435,0
			c7.032,0,14.063,0,21.095,0c7.208,0,14.417,0,21.625,0c6.908,0,13.816,0,20.724,0c6.232,0,12.463,0,18.695,0
			c5.167,0,10.333,0,15.5,0c3.643,0,7.286,0,10.93,0c1.74,0,3.48,0,5.22,0c0.997,0,1.994,0,2.991,0c1.674,0,3.348,0,5.022,0
			c0.8,0,1.677,0.095,2.444-0.187c2.438-0.896,1.997-3.679,1.997-5.735c0-4.23,0-8.459,0-12.689c0-6.345,0-12.69,0-19.035
			c0-7.17,0-14.34,0-21.509c0-6.587,0-13.174,0-19.761c0-4.7,0-9.4,0-14.1c0-1.225,0-2.45,0-3.675c0-0.833,0.03-1.628-0.406-2.387
			c-1.193-2.076-3.998-1.53-5.989-1.53c-1.021,0-2.043,0-3.064,0c-1.751,0-3.501,0-5.252,0c-3.592,0-7.184,0-10.777,0
			c-5.056,0-10.111,0-15.167,0c-6.168,0-12.336,0-18.504,0c-6.841,0-13.682,0-20.523,0c-7.159,0-14.317,0-21.476,0
			c-7.127,0-14.255,0-21.382,0c-6.647,0-13.295,0-19.942,0c-5.819,0-11.639,0-17.458,0c-4.628,0-9.256,0-13.884,0
			c-3.011,0-6.023,0-9.034,0C601.615,317.073,600.576,317.073,599.537,317.073z"/>
	</g>
</g>
<g id="AG-OUTLINE">
	<g id="POLYLINE_16_">
		
			<path fill="none" stroke="#1B7FFF" stroke-width="3.5" stroke-linecap="round" stroke-linejoin="round" stroke-miterlimit="10" d="
			M647.434,307.988c-1.379-5.531-3.385-11.364-7.575-15.43c-3.656-3.548-8.866-5.055-13.819-5.607
			c-2.949-0.328-5.959-0.247-8.896,0.169c-2.221,0.315-4.347,0.98-6.169,2.326c-4.521,3.341-6.572,9.124-7.526,14.45
			c-0.567,3.167-0.799,6.388-0.852,9.603c-0.012,0.731-0.012,1.462-0.012,2.193c0,0.232,0.151,1.191,0,1.359
			c-0.113,0.125-0.847,0.022-1.035,0.022c-1.787,0-3.573,0-5.36,0c-1.423,0-3.273-0.32-4.516,0.563
			c-0.846,0.601-1.253,1.537-1.284,2.553c-0.039,1.311,0,2.628,0,3.939c0,7.11,0,14.22,0,21.33c0,9.994,0,19.988,0,29.982
			c0,8.929,0,17.857,0,26.786c0,4.114-0.158,8.263,0,12.376c0.141,3.672,4.153,3.08,6.715,3.08c1.048,0,0.907-0.062,0.907,0.895
			c0,1.219,0,2.439,0,3.658c0,9.251,0,18.503,0,27.754c0,3.726,0,7.452,0,11.178c0,0.387-0.244,1.859,0,2.182
			c0.122,0.161,0.717,0.065,0.954,0.065c1.207,0,2.414,0,3.622,0c0.241,0,1.364,0.154,1.522-0.019c0.061-0.067,0-0.484,0-0.571
			c0-1.098,0-2.196,0-3.294c0-4.123,0-8.245,0-12.368c0-8.916,0-17.832,0-26.748c0-0.538,0-1.075,0-1.613
			c0-0.227-0.095-0.717,0-0.928c0.135-0.301-0.088-0.078,0.229-0.192c0.319-0.115,0.9,0,1.235,0c0.721,0,1.442,0,2.164,0
			c5.607,0,11.214,0,16.821,0c8.672,0,17.345,0,26.017,0c10.033,0,20.066,0,30.099,0c9.822,0,19.644,0,29.466,0
			c7.819,0,15.638,0,23.456,0c4.233,0,8.466,0,12.699,0c0.868,0,0.956-0.205,0.956,0.693c0,3.011,0,6.023,0,9.034
			c0,9.531,0,19.063,0,28.594c0,1.626,0,3.251,0,4.877c0,0.515,0,1.03,0,1.545c0,0.188-0.094,0.683,0,0.85
			c0.115,0.205,0.114,0.138,0.489,0.138c1.148,0,2.295,0,3.443,0c0.314,0,1.935,0.23,2.166-0.001c0.049-0.049-0.003-0.381,0-0.447
			c0.112-2.782,0-5.591,0-8.374c0-4.781,0-9.562,0-14.343c0-4.768,0-9.535,0-14.303c0-1.704,0-3.408,0-5.112
			c0-0.843-0.222-2.041,0-2.861c0.123-0.454,0.231-0.289,0.822-0.289c1.539,0,3.077,0,4.616,0c4.829,0,9.658,0,14.487,0
			c3.041,0,6.105,0.11,9.144,0c2.229-0.081,3.094-1.818,3.094-3.789c0-7.493,0-14.987,0-22.48c0-8.614,0-17.227,0-25.841
			c0-4.148,0-8.295,0-12.443c0-9.313,0-18.626,0-27.939c0-1.871,0-3.742,0-5.613c0-2.743,0.536-5.966-1.196-8.328
			c-2.491-3.395-7.605-3.258-11.379-3.261c-4.008-0.003-8.015,0-12.023,0c-8.07,0-16.141,0-24.211,0c-9.942,0-19.884,0-29.826,0
			c-9.755,0-19.511,0-29.266,0c-7.294,0-14.587,0-21.881,0C652.964,307.988,650.199,307.988,647.434,307.988z"/>
	</g>
	<g id="POLYLINE_28_">
		
			<path fill="none" stroke="#1B7FFF" stroke-width="3.5" stroke-linecap="round" stroke-linejoin="round" stroke-miterlimit="10" d="
			M463.415,286.585c-0.567,0-1.133,0-1.7,0c-1.631,0-3.261,0-4.892,0c-2.606,0-5.212,0-7.818,0c-3.51,0-7.02,0-10.53,0
			c-4.294,0-8.588,0-12.882,0c-5.027,0-10.054,0-15.08,0c-5.626,0-11.252,0-16.878,0c-6.186,0-12.372,0-18.558,0
			c-6.602,0-13.204,0-19.806,0c-6.987,0-13.975,0-20.962,0c-7.222,0-14.444,0-21.665,0c-7.431,0-14.862,0-22.293,0
			c-7.486,0-14.971,0-22.457,0c-7.517,0-15.034,0-22.551,0c-7.393,0-14.786,0-22.18,0c-7.245,0-14.491,0-21.736,0
			c-6.945,0-13.889,0-20.834,0c-6.588,0-13.176,0-19.763,0c-6.168,0-12.337,0-18.505,0c-5.606,0-11.211,0-16.817,0
			c-5.003,0-10.006,0-15.009,0c-4.267,0-8.534,0-12.802,0c-3.48,0-6.96,0-10.44,0c-2.573,0-5.146,0-7.718,0
			c-1.599,0-3.198,0-4.797,0c-0.553,0-1.105,0-1.658,0c-2.891,0-5.783-0.005-8.674,0c-1.854,0.004-3.352,1.099-3.432,3.053
			c-0.049,1.2,0,2.413,0,3.614c0,3.193,0,6.386,0,9.579c0,4.828,0,9.657,0,14.485c0,6.042,0,12.084,0,18.126
			c0,6.928,0,13.857,0,20.785c0,7.374,0,14.748,0,22.123c0,7.504,0,15.009,0,22.513c0,7.189,0,14.378,0,21.568
			c0,6.557,0,13.113,0,19.67c0,5.487,0,10.974,0,16.461c0,4.085,0,8.17,0,12.256c0,2.268,0,4.536,0,6.804
			c0,0.342-0.014,0.687,0,1.029c0.079,1.955,1.574,3.052,3.429,3.056c1.588,0.003,3.175,0,4.763,0c0.906,0,1.77,0.037,2.573-0.466
			c1.971-1.236,1.434-3.974,1.44-5.936c0.168,1.922,1.233,3.634,2.822,4.706c1.671,1.128,3.667,1.306,5.622,1.502
			c2.632,0.263,5.273,0.247,7.902-0.042c2.042-0.224,4.043-0.477,5.691-1.81c2.057-1.664,2.359-3.92,2.359-6.373
			c0-3.83,0-7.661,0-11.491c0-6.611,0-13.222,0-19.832c0-8.257,0-16.514,0-24.771c0-8.669,0-17.338,0-26.007
			c0-7.943,0-15.885,0-23.828c0-6.049,0-12.098,0-18.147c0-2.988-0.003-5.975,0-8.963c0-0.132,0-0.264,0-0.396
			c0.023,4.779,4.241,7.357,8.33,8.66c5.576,1.777,11.638,2.053,17.449,2.09c4.726,0.03,9.452,0.006,14.178,0.006
			c9.163,0,18.325,0,27.488,0c5.862,0,11.725,0,17.587,0c3.875,0,7.751,0,11.626,0c9.057,0,18.114,0,27.171,0
			c6.446,0,12.892,0,19.338,0c4.963,0,9.96-0.149,14.855-1.036c4.272-0.774,9.936-2.211,12.012-6.514
			c0.385-0.798,0.61-1.664,0.682-2.546c0.404,4.614,4.802,6.951,8.785,8.142c5.679,1.698,11.773,1.927,17.661,1.953
			c4.716,0.021,9.432,0.002,14.147,0.002c9.161,0,18.323,0,27.484,0c5.688,0,11.375,0,17.063,0c4.022,0,8.043,0,12.065,0
			c9.105,0,18.21,0,27.315,0c6.281,0,12.562,0,18.843,0c5.017,0,10.078-0.165,15.019-1.104c4.298-0.817,10.077-2.386,11.845-6.939
			c0.335-0.864,0.488-1.788,0.489-2.713c0,2.062,0,4.125,0,6.187c0,5.434,0,10.869,0,16.303c0,7.594,0,15.188,0,22.782
			c0,8.601,0,17.202,0,25.803c0,8.441,0,16.881,0,25.322c0,7.136,0,14.272,0,21.407c0,4.606,0,9.211,0,13.817
			c0,2.122-0.283,4.485,0.819,6.396c2.2,3.815,7.426,3.828,11.292,3.838c3.754,0.01,8.822,0.044,11.211-3.412
			c0.61-0.883,0.986-1.92,1.074-2.99c0.005,1.534-0.388,3.653,0.507,5.022c0.884,1.352,2.293,1.38,3.738,1.38
			c2.667,0,7.797,0.972,7.961-3.056c0.102-2.503,0-5.03,0-7.534c0-6.399,0-12.797,0-19.196c0-9.095,0-18.191,0-27.286
			c0-10.634,0-21.268,0-31.901c0-10.914,0-21.828,0-32.741c0-10.033,0-20.066,0-30.099c0-7.961,0-15.922,0-23.883
			c0-4.698,0-9.395,0-14.093c0-0.75,0.029-1.506,0-2.256c-0.138-3.611-4.008-3.077-6.538-3.077
			C467.186,286.585,465.3,286.585,463.415,286.585z"/>
	</g>
	<g id="POLYLINE_31_">
		
			<path fill="none" stroke="#1B7FFF" stroke-width="3.5" stroke-linecap="round" stroke-linejoin="round" stroke-miterlimit="10" d="
			M439.018,68.782c-0.003-7.196-0.006-14.393-0.009-21.589c-0.001-2.486-0.534-4.893-3.158-5.894
			c-1.234-0.471-2.673-0.323-3.971-0.323c-6.785,0-13.569,0-20.354,0c-9.573,0-19.147,0-28.72,0c-7.038,0-14.076,0-21.114,0
			c-2.197,0-4.395,0-6.592,0c-6.986,0-13.971,0-20.957,0c-9.593,0-19.185,0-28.778,0c-8.067,0-16.134,0-24.201,0
			c-2.219,0-4.438,0-6.658,0c-1.427,0-2.778-0.011-4.035,0.826c-1.213,0.808-2.02,2.14-2.173,3.589
			c-0.468-1.515-0.837-2.739-2.282-3.653c-0.831-0.525-1.757-0.746-2.731-0.762c-1.501-0.025-3.006,0-4.507,0
			c-7.696,0-15.392,0-23.088,0c-9.507,0-19.014,0-28.521,0c-5.994,0-11.987,0-17.981,0c-2.511,0-5.022,0-7.533,0
			c-7.797,0-15.594,0-23.391,0c-9.591,0-19.183,0-28.774,0c-7.366,0-14.731,0-22.097,0c-3.492,0-8.499-0.786-9.659,3.671
			c-0.223,0.857-0.158,1.769-0.159,2.647c-0.001,1.852-0.002,3.703-0.002,5.555c-0.002,4.448-0.004,8.896-0.006,13.344
			c0,0.863-0.001,1.726-0.001,2.59c-0.181-2.075-1.405-3.885-3.183-4.934c-1.985-1.171-4.515-1.255-6.756-1.396
			c-2.845-0.179-5.722-0.015-8.536,0.442c-1.883,0.306-3.648,1.239-4.772,2.811c-1.678,2.347-1.16,5.546-1.175,8.256
			c-0.639-3.128-4.308-2.496-6.661-2.496c-1.403,0-3.126-0.287-4.32,0.633c-0.794,0.612-1.16,1.516-1.189,2.496
			c-0.123,4.243,0,8.507,0,12.751c0,8.919,0,17.838,0,26.757c0,9.862,0,19.725,0,29.587c0,7.081,0,14.162,0,21.243
			c0,1.331-0.036,2.669,0,4c0.026,0.945,0.354,1.817,1.097,2.436c1.047,0.873,2.383,0.707,3.651,0.707c6.267,0,12.535,0,18.802,0
			c8.196,0,16.392,0,24.588,0c0.578,0,0.505-0.121,0.607,0.326c0.193,0.844,0,1.963,0,2.825c0,3.922,0,7.844,0,11.766
			c0,9.035,0,18.071,0,27.106c0,1.056,0,2.112,0,3.168c0,0.076-0.057,0.469,0,0.53c0.172,0.184,1.445,0.01,1.7,0.01
			c1.173,0,2.346,0,3.518,0c0.25,0,0.761,0.098,0.879-0.073c0.246-0.359,0-1.754,0-2.173c0-8.626,0-17.251,0-25.877
			c0-4.267,0-8.534,0-12.801c0-1.251,0-2.503,0-3.754c0-0.154-0.107-0.944,0.009-1.053c0.133-0.125,0.996,0,1.166,0
			c1.013,0,2.026,0,3.039,0c3.719,0,7.438,0,11.158,0c5.679,0,11.358,0,17.038,0c7.282,0,14.563,0,21.845,0
			c8.526,0,17.053,0,25.579,0c9.413,0,18.827,0,28.24,0c9.943,0,19.885,0,29.828,0c10.114,0,20.229,0,30.343,0
			c9.929,0,19.857,0,29.786,0c9.385,0,18.77,0,28.155,0c8.484,0,16.968,0,25.452,0c7.225,0,14.45,0,21.675,0
			c5.609,0,11.217,0,16.826,0c3.635,0,7.269,0,10.904,0c0.965,0,1.93,0,2.896,0c0.142,0,0.903-0.108,1.013,0
			c0.157,0.154,0,1.274,0,1.482c0,1.374,0,2.748,0,4.122c0,4.394,0,8.788,0,13.182c0,8.408,0,16.817,0,25.225
			c0,0.243-0.182,1.529,0,1.716c0.193,0.199,1.606,0.005,1.883,0.005c1.159,0,2.317,0,3.476,0c0.91,0,0.739-0.017,0.739-0.864
			c0-1.188,0-2.376,0-3.564c0-9.17,0-18.34,0-27.51c0-3.754,0-7.507,0-11.261c0-0.515,0-1.03,0-1.545c0-0.186-0.094-0.687,0-0.85
			c0.148-0.258,0.614-0.138,0.988-0.138c8.436,0,16.873,0,25.309,0c6.182,0,12.365,0,18.547,0c2.115,0,3.865-0.884,3.9-3.249
			c0.022-1.478,0-2.958,0-4.436c0-7.261,0-14.523,0-21.784c0-9.896,0-19.792,0-29.688c0-8.782,0-17.564,0-26.346
			c0-4,0.158-8.036,0-12.035c-0.044-1.122-0.576-2.143-1.58-2.696c-1.249-0.688-3.065-0.377-4.418-0.377
			c-2.243,0-5.524-0.481-6.159,2.432c0.142-0.691-0.019-1.582-0.024-2.287c-0.005-0.777,0.004-1.556-0.014-2.334
			c-0.026-1.074-0.274-2.103-0.808-3.038c-0.941-1.647-2.604-2.771-4.431-3.211c-2.594-0.625-5.47-0.715-8.125-0.627
			c-2.349,0.078-5.108,0.119-7.272,1.144C440.716,64.519,439.209,66.474,439.018,68.782z"/>
	</g>
	<g id="POLYLINE_26_">
		
			<path fill="none" stroke="#1B7FFF" stroke-width="3.5" stroke-linecap="round" stroke-linejoin="round" stroke-miterlimit="10" d="
			M902.433,68.782c-0.003-7.196-0.006-14.393-0.009-21.589c-0.001-2.486-0.534-4.893-3.158-5.894
			c-1.288-0.492-2.824-0.323-4.178-0.323c-7.211,0-14.422,0-21.633,0c-9.453,0-18.905,0-28.358,0c-5.233,0-10.466,0-15.699,0
			c-3.045,0-6.09,0-9.135,0c-8.03,0-16.06,0-24.09,0c-9.649,0-19.298,0-28.948,0c-7.721,0-15.443,0-23.165,0
			c-2.078,0-4.156,0-6.234,0c-1.396,0-2.714,0.008-3.942,0.826c-1.213,0.808-2.02,2.14-2.173,3.589
			c-0.468-1.515-0.837-2.739-2.282-3.653c-0.824-0.521-1.746-0.745-2.712-0.762c-1.245-0.022-2.492,0-3.737,0
			c-6.754,0-13.508,0-20.262,0c-9.509,0-19.019,0-28.528,0c-8.758,0-17.516,0-26.274,0c-4.5,0-8.999,0-13.499,0
			c-3.497,0-6.993,0-10.49,0c-9.001,0-18.001,0-27.002,0c-8.344,0-16.688,0-25.032,0c-3.654,0-9.516-1.052-10.745,3.671
			c-0.223,0.857-0.158,1.769-0.159,2.647c-0.001,1.852-0.002,3.703-0.002,5.555c-0.002,4.448-0.004,8.896-0.006,13.344
			c0,0.863-0.001,1.726-0.001,2.59c-0.191-2.191-1.544-4.074-3.468-5.093c-2.215-1.174-5.118-1.209-7.564-1.29
			c-2.749-0.091-5.892-0.059-8.546,0.741c-1.885,0.568-3.532,1.89-4.319,3.716c-0.591,1.37-0.399,2.709-0.499,4.152
			c-0.035,0.502,0.091,0.314-0.245,0.457c-0.424,0.18-1.305,0-1.769,0c-0.591,0-1.183,0-1.774,0c-1.837,0-3.732-0.143-5.563,0.007
			c-1.428,0.117-2.619,1.197-2.816,2.628c-0.141,1.019-0.028,2.116-0.028,3.14c0,2.636,0,5.273,0,7.91c0,8.603,0,17.206,0,25.809
			c0,9.939,0,19.877,0,29.816c0,7.549,0,15.098,0,22.647c0,1.714-0.002,3.429,0,5.143c0.002,1.897,1.068,3.435,3.099,3.51
			c5.835,0.215,11.742,0,17.584,0c8.752,0,17.503,0,26.255,0c0.602,0,1.205,0,1.807,0c0,0,0,13.875,0,14.728
			c0,8.064,0,16.128,0,24.192c0,2.079-0.254,4.339,0,6.406c0.008,0.065-0.047,0.349,0,0.398c0.127,0.133,1.088,0.008,1.268,0.008
			c1.043,0,2.086,0,3.129,0c0.256,0,1.519,0.18,1.7,0c0.12-0.12,0-0.997,0-1.154c0-1.05,0-2.1,0-3.15c0-3.443,0-6.886,0-10.33
			c0-8.071,0-16.142,0-24.213c0-2.125-0.202-4.362,0-6.479c0.049-0.515-0.075-0.341,0.365-0.405c1.51-0.22,3.221,0,4.743,0
			c3.235,0,6.47,0,9.705,0c4.668,0,9.336,0,14.004,0c5.88,0,11.759,0,17.639,0c6.898,0,13.797,0,20.695,0c7.642,0,15.284,0,22.926,0
			c8.19,0,16.379,0,24.568,0c8.516,0,17.031,0,25.547,0c8.621,0,17.241,0,25.862,0c8.537,0,17.074,0,25.611,0
			c8.135,0,16.27,0,24.405,0c7.637,0,15.274,0,22.911,0c6.826,0,13.651,0,20.477,0c5.824,0,11.648,0,17.472,0
			c4.616,0,9.233,0,13.849,0c3.142,0,6.284,0,9.426,0c0.971,0,1.942,0,2.913,0c0.453,0,1.133-0.13,1.57,0
			c0.416,0.123,0.263,0.148,0.263,0.748c0,2.374,0,4.748,0,7.123c0,8.145,0,16.291,0,24.436c0,3.315,0,6.629,0,9.944
			c0,0.911,0,1.821,0,2.732c0,0.593-0.167,0.68,0.381,0.748c0.86,0.107,1.801,0,2.668,0c0.862,0,1.813,0.113,2.668,0
			c0.54-0.071,0.381-0.132,0.381-0.721c0-2.357,0-4.715,0-7.072c0-8.171,0-16.342,0-24.514c0-3.315,0-6.629,0-9.944
			c0-0.911,0-1.821,0-2.732c0-0.209-0.072-0.644,0.061-0.748c0.277-0.217,1.599,0,1.936,0c1.351,0,2.703,0,4.054,0
			c3.975,0,7.95,0,11.925,0c6.153,0,12.306,0,18.459,0c2.782,0,5.565,0,8.347,0c2.022,0,3.878-0.742,3.963-3.076
			c0.111-3.056,0-6.138,0-9.195c0-6.933,0-13.866,0-20.799c0-8.498,0-16.997,0-25.495c0-7.786,0-15.571,0-23.357
			c0-4.693,0-9.385,0-14.078c0-0.879,0.112-1.889-0.228-2.719c-0.47-1.146-1.556-1.824-2.77-1.891
			c-1.589-0.087-3.206-0.001-4.798-0.001c-1.302,0-2.754,0.183-4.03,0c-0.395-0.057-0.226,0.071-0.37-0.18
			c-0.165-0.289,0-1.134,0-1.467c0-0.65-0.01-1.288-0.158-1.926c-0.369-1.589-1.382-2.962-2.737-3.856
			c-1.749-1.155-3.88-1.307-5.912-1.494c-2.61-0.241-5.229-0.195-7.832,0.108c-1.836,0.214-3.61,0.457-5.141,1.573
			C903.574,65.294,902.583,66.951,902.433,68.782z"/>
	</g>
</g>
</svg>
